<svg width="24" height="24" viewBox="0 0 24 24" fill="none" xmlns="http://www.w3.org/2000/svg">
<g id="answer-wrong">
<g id="Main">
<path d="M10.284 10L8 12.284L9.716 14L12 11.716L14.284 14L16 12.284L13.716 10L16 7.716L14.284 6L12 8.284L9.716 6L8 7.716L10.284 10Z" fill="#2A293A"/>
<path fill-rule="evenodd" clip-rule="evenodd" d="M6 18H8.63943V21.1893C8.63943 21.5902 8.87876 21.9523 9.24752 22.1093C9.61627 22.2664 10.0432 22.1882 10.3322 21.9105L14.4684 17.9367L14.5 18H18C20.2091 18 22 16.2091 22 14V6C22 3.79086 20.2091 2 18 2H6C3.79086 2 2 3.79086 2 6V14C2 16.2091 3.79086 18 6 18ZM18 4H6C4.89543 4 4 4.89543 4 6V14C4 15.1046 4.89543 16 6 16H10.6394V18.8419L13.5 16C13.5 16 13.6858 15.9798 13.9224 16H18C19.1046 16 20 15.1046 20 14V6C20 4.89543 19.1046 4 18 4Z" fill="#2A293A"/>
</g>
</g>
</svg>
