<svg width="24" height="24" viewBox="0 0 24 24" fill="none" xmlns="http://www.w3.org/2000/svg">
<g id="answer-wrong">
<g id="Main">
<path d="M10.284 11L8 13.284L9.716 15L12 12.716L14.284 15L16 13.284L13.716 11L16 8.716L14.284 7L12 9.284L9.716 7L8 8.716L10.284 11Z" fill="#2A293A"/>
<path fill-rule="evenodd" clip-rule="evenodd" d="M6 19H8.63943V22.1893C8.63943 22.5902 8.87876 22.9523 9.24752 23.1093C9.61627 23.2664 10.0432 23.1882 10.3322 22.9105L14.4684 18.9367L14.5 19H18C20.2091 19 22 17.2091 22 15V7C22 4.79086 20.2091 3 18 3H6C3.79086 3 2 4.79086 2 7V15C2 17.2091 3.79086 19 6 19ZM18 5H6C4.89543 5 4 5.89543 4 7V15C4 16.1046 4.89543 17 6 17H10.6394V19.8419L13.5 17C13.5 17 13.6858 16.9798 13.9224 17H18C19.1046 17 20 16.1046 20 15V7C20 5.89543 19.1046 5 18 5Z" fill="#2A293A"/>
</g>
</g>
</svg>
