<svg width="24" height="24" viewBox="0 0 24 24" fill="none" xmlns="http://www.w3.org/2000/svg">
<path fill-rule="evenodd" clip-rule="evenodd" d="M18 4H6C4.89543 4 4 4.89543 4 6V14C4 15.1046 4.89543 16 6 16H10.5H13.5H18C19.1046 16 20 15.1046 20 14V6C20 4.89543 19.1046 4 18 4ZM6 2C3.79086 2 2 3.79086 2 6V14C2 16.2091 3.79086 18 6 18H8.69444L10.5 16H13.5L14.5 18H18C20.2091 18 22 16.2091 22 14V6C22 3.79086 20.2091 2 18 2H6Z" fill="#2A293A"/>
<path fill-rule="evenodd" clip-rule="evenodd" d="M8.63943 21.1893L8.63943 16H10.6394V18.8419L13.5 16C13.5 16 14.3385 15.9089 14.7211 16.3072C15.1037 16.7055 15.0911 17.3385 14.6928 17.7211L10.3322 21.9105C10.0432 22.1882 9.61627 22.2664 9.24752 22.1093C8.87876 21.9523 8.63943 21.5902 8.63943 21.1893Z" fill="#2A293A"/>
<path d="M8 12.284L14.284 6L16 7.716L9.716 14L8 12.284Z" fill="#2A293A"/>
<path d="M14.284 14L8.00001 7.716L9.716 6L16 12.284L14.284 14Z" fill="#2A293A"/>
</svg>
