<svg width="24" height="24" viewBox="0 0 24 24" fill="none" xmlns="http://www.w3.org/2000/svg">
<path d="M16.585 8.34902L12.759 3.88602C12.6651 3.77658 12.5487 3.68874 12.4177 3.62851C12.2867 3.56829 12.1442 3.53711 12 3.53711C11.8558 3.53711 11.7133 3.56829 11.5823 3.62851C11.4513 3.68874 11.3349 3.77658 11.241 3.88602L7.415 8.34902C7.29048 8.4942 7.21022 8.67205 7.18372 8.86147C7.15722 9.05089 7.1856 9.24394 7.26549 9.41772C7.34538 9.5915 7.47343 9.73872 7.63446 9.84193C7.79548 9.94514 7.98273 10 8.174 10H11V19C11 19.2652 11.1054 19.5196 11.2929 19.7071C11.4804 19.8947 11.7348 20 12 20C12.2652 20 12.5196 19.8947 12.7071 19.7071C12.8946 19.5196 13 19.2652 13 19V10H15.826C16.0173 10 16.2045 9.94514 16.3655 9.84193C16.5266 9.73872 16.6546 9.5915 16.7345 9.41772C16.8144 9.24394 16.8428 9.05089 16.8163 8.86147C16.7898 8.67205 16.7095 8.4942 16.585 8.34902Z" fill="#2A293A"/>
</svg>
