<svg width="24" height="24" viewBox="0 0 24 24" fill="none" xmlns="http://www.w3.org/2000/svg">
<g id="arrow-right">
<path id="main" d="M15.651 16.585L20.114 12.759C20.2234 12.6651 20.3113 12.5487 20.3715 12.4177C20.4317 12.2867 20.4629 12.1442 20.4629 12C20.4629 11.8558 20.4317 11.7133 20.3715 11.5823C20.3113 11.4513 20.2234 11.3349 20.114 11.241L15.651 7.415C15.5058 7.29048 15.328 7.21022 15.1385 7.18372C14.9491 7.15722 14.7561 7.1856 14.5823 7.26549C14.4085 7.34538 14.2613 7.47343 14.1581 7.63446C14.0549 7.79548 14 7.98273 14 8.174V11H5C4.73478 11 4.48043 11.1054 4.29289 11.2929C4.10536 11.4804 4 11.7348 4 12C4 12.2652 4.10536 12.5196 4.29289 12.7071C4.48043 12.8946 4.73478 13 5 13H14V15.826C14 16.0173 14.0549 16.2045 14.1581 16.3655C14.2613 16.5266 14.4085 16.6546 14.5823 16.7345C14.7561 16.8144 14.9491 16.8428 15.1385 16.8163C15.328 16.7898 15.5058 16.7095 15.651 16.585Z" fill="#2A293A"/>
</g>
</svg>
