<svg width="24" height="24" viewBox="0 0 24 24" fill="none" xmlns="http://www.w3.org/2000/svg">
<path d="M13.4109 8.81191L9.58492 4.34891C9.49104 4.23947 9.37461 4.15163 9.2436 4.0914C9.11259 4.03118 8.97011 4 8.82592 4C8.68174 4 8.53925 4.03118 8.40825 4.0914C8.27724 4.15163 8.1608 4.23947 8.06692 4.34891L4.24092 8.81191C4.11641 8.95709 4.03614 9.13494 4.00965 9.32436C3.98315 9.51378 4.01152 9.70683 4.09141 9.88061C4.1713 10.0544 4.29936 10.2016 4.46038 10.3048C4.62141 10.408 4.80866 10.4629 4.99992 10.4629H7.82592V19.4629C7.82592 19.7281 7.93128 19.9825 8.11882 20.17C8.30635 20.3576 8.56071 20.4629 8.82592 20.4629C9.09114 20.4629 9.34549 20.3576 9.53303 20.17C9.72057 19.9825 9.82592 19.7281 9.82592 19.4629V10.4629H12.6519C12.8432 10.4629 13.0304 10.408 13.1915 10.3048C13.3525 10.2016 13.4805 10.0544 13.5604 9.88061C13.6403 9.70683 13.6687 9.51378 13.6422 9.32436C13.6157 9.13494 13.5354 8.95709 13.4109 8.81191Z" fill="#171622"/>
<path d="M11.4149 16.1139L15.2409 20.5769C15.3348 20.6863 15.4512 20.7742 15.5823 20.8344C15.7133 20.8946 15.8557 20.9258 15.9999 20.9258C16.1441 20.9258 16.2866 20.8946 16.4176 20.8344C16.5486 20.7742 16.6651 20.6863 16.7589 20.5769L20.5849 16.1139C20.7094 15.9687 20.7897 15.7909 20.8162 15.6014C20.8427 15.412 20.8143 15.219 20.7344 15.0452C20.6546 14.8714 20.5265 14.7242 20.3655 14.621C20.2044 14.5178 20.0172 14.4629 19.8259 14.4629H17.0019V5.46289C17.0019 5.19767 16.8966 4.94332 16.709 4.75578C16.5215 4.56825 16.2671 4.46289 16.0019 4.46289C15.7367 4.46289 15.4824 4.56825 15.2948 4.75578C15.1073 4.94332 15.0019 5.19767 15.0019 5.46289V14.4629H12.1739C11.9827 14.4629 11.7954 14.5178 11.6344 14.621C11.4734 14.7242 11.3453 14.8714 11.2654 15.0452C11.1855 15.219 11.1572 15.412 11.1837 15.6014C11.2102 15.7909 11.2904 15.9687 11.4149 16.1139Z" fill="#171622"/>
</svg>
