<svg width="24" height="24" viewBox="0 0 24 24" fill="none" xmlns="http://www.w3.org/2000/svg">
<g id="arrow-down">
<path id="main" d="M7.58901 15.651L11.415 20.114C11.5089 20.2234 11.6253 20.3113 11.7563 20.3715C11.8873 20.4317 12.0298 20.4629 12.174 20.4629C12.3182 20.4629 12.4607 20.4317 12.5917 20.3715C12.7227 20.3113 12.8391 20.2234 12.933 20.114L16.759 15.651C16.8835 15.5058 16.9638 15.328 16.9903 15.1385C17.0168 14.9491 16.9884 14.7561 16.9085 14.5823C16.8286 14.4085 16.7006 14.2613 16.5395 14.1581C16.3785 14.0549 16.1913 14 16 14H13.176V5C13.176 4.73478 13.0706 4.48043 12.8831 4.29289C12.6956 4.10536 12.4412 4 12.176 4C11.9108 4 11.6564 4.10536 11.4689 4.29289C11.2814 4.48043 11.176 4.73478 11.176 5V14H8.34801C8.15674 14 7.96949 14.0549 7.80847 14.1581C7.64744 14.2613 7.51939 14.4085 7.4395 14.5823C7.35961 14.7561 7.33123 14.9491 7.35773 15.1385C7.38423 15.328 7.46449 15.5058 7.58901 15.651Z" fill="#2A293A"/>
</g>
</svg>
