<svg width="24" height="24" viewBox="0 0 24 24" fill="none" xmlns="http://www.w3.org/2000/svg">
<g id="arrow-left">
<path id="main" d="M8.67661 8.19969L4.3391 11.3709C4.23274 11.4487 4.14737 11.5452 4.08883 11.6538C4.0303 11.7624 4 11.8805 4 12C4 12.1195 4.0303 12.2376 4.08883 12.3462C4.14737 12.4548 4.23274 12.5513 4.3391 12.6291L8.67661 15.8003C8.81771 15.9035 8.99056 15.97 9.17465 15.992C9.35874 16.014 9.54636 15.9904 9.71525 15.9242C9.88415 15.858 10.0272 15.7519 10.1275 15.6184C10.2278 15.4849 10.2812 15.3297 10.2812 15.1712V12.8289H19.0281C19.2859 12.8289 19.5331 12.7415 19.7153 12.5861C19.8976 12.4306 20 12.2198 20 12C20 11.7802 19.8976 11.5694 19.7153 11.4139C19.5331 11.2585 19.2859 11.1711 19.0281 11.1711H10.2812V8.82879C10.2812 8.67026 10.2278 8.51506 10.1275 8.38159C10.0272 8.24812 9.88415 8.14199 9.71525 8.07577C9.54636 8.00955 9.35874 7.98603 9.17465 8.00799C8.99056 8.02996 8.81771 8.09649 8.67661 8.19969Z" fill="#2A293A"/>
</g>
</svg>
