<svg width="24" height="24" viewBox="0 0 24 24" fill="none" xmlns="http://www.w3.org/2000/svg">
<g id="arrow-up">
<path id="main" d="M16.585 8.349L12.759 3.886C12.6651 3.77657 12.5487 3.68872 12.4177 3.6285C12.2867 3.56828 12.1442 3.53709 12 3.53709C11.8558 3.53709 11.7133 3.56828 11.5823 3.6285C11.4513 3.68872 11.3349 3.77657 11.241 3.886L7.415 8.349C7.29048 8.49419 7.21022 8.67204 7.18372 8.86145C7.15722 9.05087 7.1856 9.24392 7.26549 9.4177C7.34538 9.59148 7.47343 9.7387 7.63446 9.84191C7.79548 9.94512 7.98273 9.99999 8.174 10H11V19C11 19.2652 11.1054 19.5196 11.2929 19.7071C11.4804 19.8946 11.7348 20 12 20C12.2652 20 12.5196 19.8946 12.7071 19.7071C12.8946 19.5196 13 19.2652 13 19V10H15.826C16.0173 9.99999 16.2045 9.94512 16.3655 9.84191C16.5266 9.7387 16.6546 9.59148 16.7345 9.4177C16.8144 9.24392 16.8428 9.05087 16.8163 8.86145C16.7898 8.67204 16.7095 8.49419 16.585 8.349Z" fill="#2A293A"/>
</g>
</svg>
