<svg width="24" height="24" viewBox="0 0 24 24" fill="none" xmlns="http://www.w3.org/2000/svg">
<path d="M19.5469 17.2969L15.0469 21.7969C14.8346 22.0064 14.5483 22.1239 14.25 22.1239C13.9517 22.1239 13.6654 22.0064 13.4531 21.7969L8.95312 17.2969C8.74178 17.0855 8.62305 16.7989 8.62305 16.5C8.62305 16.2011 8.74178 15.9145 8.95312 15.7031C9.16447 15.4918 9.45111 15.373 9.75 15.373C10.0489 15.373 10.3355 15.4918 10.5469 15.7031L13.125 18.2812V12C13.1225 9.91218 12.292 7.91059 10.8157 6.43427C9.33941 4.95796 7.33782 4.12748 5.25 4.125C4.95163 4.125 4.66548 4.00647 4.4545 3.7955C4.24353 3.58452 4.125 3.29837 4.125 3C4.125 2.70163 4.24353 2.41548 4.4545 2.2045C4.66548 1.99353 4.95163 1.875 5.25 1.875C7.93456 1.87748 10.5084 2.94502 12.4067 4.84329C14.305 6.74155 15.3725 9.31544 15.375 12V18.2812L17.9531 15.7031C18.1645 15.4918 18.4511 15.373 18.75 15.373C19.0489 15.373 19.3355 15.4918 19.5469 15.7031C19.7582 15.9145 19.877 16.2011 19.877 16.5C19.877 16.7989 19.7582 17.0855 19.5469 17.2969Z" fill="#2A293A"/>
</svg>
