<svg width="24" height="24" viewBox="0 0 24 24" fill="none" xmlns="http://www.w3.org/2000/svg">
<g id="arrow-down">
<path id="main" d="M8.19969 15.3234L11.3709 19.6609C11.4487 19.7673 11.5452 19.8526 11.6538 19.9112C11.7624 19.9697 11.8805 20 12 20C12.1195 20 12.2376 19.9697 12.3462 19.9112C12.4548 19.8526 12.5513 19.7673 12.6291 19.6609L15.8003 15.3234C15.9035 15.1823 15.97 15.0094 15.992 14.8254C16.014 14.6413 15.9904 14.4536 15.9242 14.2847C15.858 14.1159 15.7519 13.9728 15.6184 13.8725C15.4849 13.7722 15.3297 13.7188 15.1712 13.7188H12.8305V4.97188C12.8305 4.71412 12.7432 4.46692 12.5877 4.28466C12.4323 4.10239 12.2215 4 12.0017 4C11.7818 4 11.571 4.10239 11.4156 4.28466C11.2601 4.46692 11.1728 4.71412 11.1728 4.97188V13.7188H8.82879C8.67026 13.7188 8.51506 13.7722 8.38159 13.8725C8.24812 13.9728 8.14199 14.1159 8.07577 14.2847C8.00955 14.4536 7.98603 14.6413 8.00799 14.8254C8.02996 15.0094 8.09649 15.1823 8.19969 15.3234Z" fill="#2A293A"/>
</g>
</svg>
