<svg width="24" height="24" viewBox="0 0 24 24" fill="none" xmlns="http://www.w3.org/2000/svg">
<g id="arrow-right">
<path id="main" d="M15.3234 15.8003L19.6609 12.6291C19.7673 12.5513 19.8526 12.4548 19.9112 12.3462C19.9697 12.2376 20 12.1195 20 12C20 11.8805 19.9697 11.7624 19.9112 11.6538C19.8526 11.5452 19.7673 11.4487 19.6609 11.3709L15.3234 8.19969C15.1823 8.09649 15.0094 8.02996 14.8254 8.00799C14.6413 7.98603 14.4536 8.00955 14.2847 8.07577C14.1159 8.14199 13.9728 8.24812 13.8725 8.38159C13.7722 8.51506 13.7188 8.67026 13.7188 8.82879V11.1711H4.97188C4.71412 11.1711 4.46692 11.2585 4.28466 11.4139C4.10239 11.5694 4 11.7802 4 12C4 12.2198 4.10239 12.4306 4.28466 12.5861C4.46692 12.7415 4.71412 12.8289 4.97188 12.8289H13.7188V15.1712C13.7188 15.3297 13.7722 15.4849 13.8725 15.6184C13.9728 15.7519 14.1159 15.858 14.2847 15.9242C14.4536 15.9904 14.6413 16.014 14.8254 15.992C15.0094 15.97 15.1823 15.9035 15.3234 15.8003Z" fill="#2A293A"/>
</g>
</svg>
