<svg width="24" height="24" viewBox="0 0 24 24" fill="none" xmlns="http://www.w3.org/2000/svg">
<g id="arrow-bend">
<path id="main" d="M17.7485 15.297L14.3204 19.7416C14.1587 19.9072 13.9406 20 13.7133 20C13.4861 20 13.268 19.9072 13.1063 19.7416L9.67812 15.297C9.51711 15.13 9.42666 14.9035 9.42666 14.6673C9.42666 14.4311 9.51711 14.2046 9.67812 14.0376C9.83912 13.8706 10.0575 13.7768 10.2852 13.7768C11.1247 13.7768 11.9851 13.7778 12.8563 13.7778V12.0004C12.8544 10.3507 12.2217 8.76911 11.0971 7.60258C9.97239 6.43605 8.44756 5.77983 6.85704 5.77787C6.62974 5.77787 6.41175 5.68422 6.25102 5.51751C6.09029 5.3508 6 5.1247 6 4.88894C6 4.65318 6.09029 4.42707 6.25102 4.26036C6.41175 4.09366 6.62974 4 6.85704 4C8.90216 4.00196 10.863 4.84549 12.3091 6.34544C13.7552 7.84538 14.5685 9.87919 14.5704 12.0004V13.7778C15.4416 13.7778 16.302 13.7768 17.1415 13.7768C17.3692 13.7768 17.5875 13.8706 17.7485 14.0376C17.9095 14.2046 18 14.4311 18 14.6673C18 14.9035 17.9095 15.13 17.7485 15.297Z" fill="#2A293A"/>
</g>
</svg>
