<svg width="24" height="24" viewBox="0 0 24 24" fill="none" xmlns="http://www.w3.org/2000/svg">
<path d="M8.34902 7.415L3.88602 11.241C3.77658 11.3349 3.68874 11.4513 3.62851 11.5823C3.56829 11.7133 3.53711 11.8558 3.53711 12C3.53711 12.1442 3.56829 12.2867 3.62851 12.4177C3.68874 12.5487 3.77658 12.6651 3.88602 12.759L8.34902 16.585C8.4942 16.7095 8.67205 16.7898 8.86147 16.8163C9.05089 16.8428 9.24394 16.8144 9.41772 16.7345C9.5915 16.6546 9.73872 16.5266 9.84193 16.3655C9.94514 16.2045 10 16.0173 10 15.826V13H19C19.2652 13 19.5196 12.8946 19.7071 12.7071C19.8947 12.5196 20 12.2652 20 12C20 11.7348 19.8947 11.4804 19.7071 11.2929C19.5196 11.1054 19.2652 11 19 11H10V8.174C10 7.98273 9.94514 7.79548 9.84193 7.63446C9.73872 7.47343 9.5915 7.34538 9.41772 7.26549C9.24394 7.1856 9.05089 7.15722 8.86147 7.18372C8.67205 7.21022 8.4942 7.29048 8.34902 7.415Z" fill="#2A293A"/>
</svg>
