<svg width="24" height="24" viewBox="0 0 24 24" fill="none" xmlns="http://www.w3.org/2000/svg">
<g id="arrow-up-down">
<g id="main">
<path d="M11.8304 8.54871L8.64695 4.32982C8.56884 4.22637 8.47196 4.14334 8.36295 4.08641C8.25395 4.02948 8.13539 4 8.01542 4C7.89545 4 7.7769 4.02948 7.66789 4.08641C7.55889 4.14334 7.46201 4.22637 7.38389 4.32982L4.20046 8.54871C4.09686 8.68595 4.03007 8.85407 4.00803 9.03313C3.98598 9.21219 4.00959 9.39468 4.07606 9.55895C4.14253 9.72323 4.24908 9.8624 4.38306 9.95996C4.51705 10.0575 4.67285 10.1094 4.83199 10.1094H7.18337V18.6171C7.18337 18.8678 7.27103 19.1083 7.42707 19.2856C7.58311 19.4628 7.79475 19.5624 8.01542 19.5624C8.2361 19.5624 8.44773 19.4628 8.60377 19.2856C8.75981 19.1083 8.84748 18.8678 8.84748 18.6171V10.1094H11.1989C11.358 10.1094 11.5138 10.0575 11.6478 9.95996C11.7818 9.8624 11.8883 9.72323 11.9548 9.55895C12.0213 9.39468 12.0449 9.21219 12.0228 9.03313C12.0008 8.85407 11.934 8.68595 11.8304 8.54871Z" fill="#2A293A"/>
<path d="M12.1696 15.4513L15.353 19.6702C15.4312 19.7736 15.528 19.8567 15.637 19.9136C15.7461 19.9705 15.8646 20 15.9846 20C16.1045 20 16.2231 19.9705 16.3321 19.9136C16.4411 19.8567 16.538 19.7736 16.6161 19.6702L19.7995 15.4513C19.9031 15.314 19.9699 15.1459 19.992 14.9669C20.014 14.7878 19.9904 14.6053 19.9239 14.441C19.8575 14.2768 19.7509 14.1376 19.6169 14.04C19.483 13.9425 19.3272 13.8906 19.168 13.8906H16.8183V5.38287C16.8183 5.13216 16.7306 4.89172 16.5746 4.71444C16.4186 4.53717 16.2069 4.43757 15.9862 4.43757C15.7656 4.43757 15.5539 4.53717 15.3979 4.71444C15.2419 4.89172 15.1542 5.13216 15.1542 5.38287V13.8906H12.8011C12.642 13.8906 12.4862 13.9425 12.3522 14.04C12.2182 14.1376 12.1117 14.2768 12.0452 14.441C11.9787 14.6053 11.9551 14.7878 11.9772 14.9669C11.9992 15.1459 12.066 15.314 12.1696 15.4513Z" fill="#2A293A"/>
</g>
</g>
</svg>
