<svg width="24" height="24" viewBox="0 0 24 24" fill="none" xmlns="http://www.w3.org/2000/svg">
<g id="arrow-up">
<path id="main" d="M15.8003 8.67661L12.6291 4.3391C12.5513 4.23274 12.4548 4.14737 12.3462 4.08883C12.2376 4.0303 12.1195 4 12 4C11.8805 4 11.7624 4.0303 11.6538 4.08883C11.5452 4.14737 11.4487 4.23274 11.3709 4.3391L8.19969 8.67661C8.09649 8.81771 8.02996 8.99056 8.00799 9.17465C7.98603 9.35874 8.00955 9.54636 8.07577 9.71525C8.14199 9.88415 8.24812 10.0272 8.38159 10.1275C8.51506 10.2278 8.67026 10.2812 8.82879 10.2812H11.1711V19.0281C11.1711 19.2859 11.2585 19.5331 11.4139 19.7153C11.5694 19.8976 11.7802 20 12 20C12.2198 20 12.4306 19.8976 12.5861 19.7153C12.7415 19.5331 12.8289 19.2859 12.8289 19.0281V10.2812H15.1712C15.3297 10.2812 15.4849 10.2278 15.6184 10.1275C15.7519 10.0272 15.858 9.88415 15.9242 9.71525C15.9904 9.54636 16.014 9.35874 15.992 9.17465C15.97 8.99056 15.9035 8.81771 15.8003 8.67661Z" fill="#2A293A"/>
</g>
</svg>
