<svg width="24" height="24" viewBox="0 0 24 24" fill="none" xmlns="http://www.w3.org/2000/svg">
<path id="main" fill="#2A293A" d="M18,3H6A4,4,0,0,0,2,7v8a4,4,0,0,0,4,4H9v2.586a1,1,0,0,0,1.007,1,.978.978,0,0,0,.7-.3L14,19h4a4,4,0,0,0,4-4V7A4,4,0,0,0,18,3Zm2,12a2,2,0,0,1-2,2H13.172l-.586.586L11,19.172V17H6a2,2,0,0,1-2-2V7A2,2,0,0,1,6,5H18a2,2,0,0,1,2,2Zm-8.432-2.535c0-.233.005-.462.013-.687a1.352,1.352,0,0,1,.187-.638,2.548,2.548,0,0,1,.638-.725,3.1,3.1,0,0,0,.662-.7,1.9,1.9,0,0,0,.175-.575.877.877,0,0,0-.325-.7,1.16,1.16,0,0,0-1.5,0,1.433,1.433,0,0,0-.45.7l-1.1-.475a2.442,2.442,0,0,1,3.913-1.05,1.909,1.909,0,0,1,.687,1.5,1.7,1.7,0,0,1-.075.513,1.451,1.451,0,0,1-.225.437,3.519,3.519,0,0,1-.65.713,2.434,2.434,0,0,0-.6.737,2.145,2.145,0,0,0-.15.95Zm0,2.313a.781.781,0,0,1-.25-.588.854.854,0,0,1,.85-.85.78.78,0,0,1,.588.25.842.842,0,0,1,.237.6.81.81,0,0,1-.825.825A.842.842,0,0,1,11.568,14.778Z"/>
</svg>