<svg width="24" height="24" viewBox="0 0 24 24" fill="none" xmlns="http://www.w3.org/2000/svg">
<g id="attachment">
<path id="main" d="M17 6V16.5C17 17.9587 16.4205 19.3576 15.3891 20.3891C14.3576 21.4205 12.9587 22 11.5 22C10.0413 22 8.64236 21.4205 7.61091 20.3891C6.57946 19.3576 6 17.9587 6 16.5V8H8V16.5C8 17.4283 8.36875 18.3185 9.02513 18.9749C9.6815 19.6313 10.5717 20 11.5 20C12.4283 20 13.3185 19.6313 13.9749 18.9749C14.6313 18.3185 15 17.4283 15 16.5V6C15 5.46957 14.7893 4.96086 14.4142 4.58579C14.0391 4.21071 13.5304 4 13 4C12.4696 4 11.9609 4.21071 11.5858 4.58579C11.2107 4.96086 11 5.46957 11 6V16.5C11 16.6326 11.0527 16.7598 11.1464 16.8536C11.2402 16.9473 11.3674 17 11.5 17C11.6326 17 11.7598 16.9473 11.8536 16.8536C11.9473 16.7598 12 16.6326 12 16.5V8H14V16.5C14 17.163 13.7366 17.7989 13.2678 18.2678C12.7989 18.7366 12.163 19 11.5 19C10.837 19 10.2011 18.7366 9.73223 18.2678C9.26339 17.7989 9 17.163 9 16.5L9 6C9 4.93913 9.42143 3.92172 10.1716 3.17157C10.9217 2.42143 11.9391 2 13 2C14.0609 2 15.0783 2.42143 15.8284 3.17157C16.5786 3.92172 17 4.93913 17 6Z" fill="#2A293A"/>
</g>
</svg>
