<svg width="24" height="24" viewBox="0 0 24 24" fill="none" xmlns="http://www.w3.org/2000/svg">
<path d="M18 7H7.5C6.04131 7 4.64236 7.57946 3.61091 8.61091C2.57946 9.64236 2 11.0413 2 12.5C2 13.9587 2.57946 15.3576 3.61091 16.3891C4.64236 17.4205 6.04131 18 7.5 18H16V16H7.5C6.57174 16 5.6815 15.6313 5.02513 14.9749C4.36875 14.3185 4 13.4283 4 12.5C4 11.5717 4.36875 10.6815 5.02513 10.0251C5.6815 9.36875 6.57174 9 7.5 9H18C18.5304 9 19.0391 9.21071 19.4142 9.58579C19.7893 9.96086 20 10.4696 20 11C20 11.5304 19.7893 12.0391 19.4142 12.4142C19.0391 12.7893 18.5304 13 18 13H7.5C7.36739 13 7.24021 12.9473 7.14645 12.8536C7.05268 12.7598 7 12.6326 7 12.5C7 12.3674 7.05268 12.2402 7.14645 12.1464C7.24021 12.0527 7.36739 12 7.5 12H16V10H7.5C6.83696 10 6.20107 10.2634 5.73223 10.7322C5.26339 11.2011 5 11.837 5 12.5C5 13.163 5.26339 13.7989 5.73223 14.2678C6.20107 14.7366 6.83696 15 7.5 15H18C19.0609 15 20.0783 14.5786 20.8284 13.8284C21.5786 13.0783 22 12.0609 22 11C22 9.93913 21.5786 8.92172 20.8284 8.17157C20.0783 7.42143 19.0609 7 18 7Z" fill="#2A293A"/>
</svg>
