<svg width="24" height="24" viewBox="0 0 24 24" fill="none" xmlns="http://www.w3.org/2000/svg">
<g id="bell-enabled">
<path id="main" d="M19 16V17H5V16L6 14V11C6.00121 9.76025 6.38643 8.5513 7.10271 7.53938C7.81898 6.52746 8.83114 5.76227 10 5.34902V5.00002H9.984C10.0142 4.49095 10.2376 4.01263 10.6087 3.66286C10.9798 3.31309 11.4705 3.11829 11.9805 3.11829C12.4905 3.11829 12.9812 3.31309 13.3523 3.66286C13.7234 4.01263 13.9468 4.49095 13.977 5.00002H14V5.34902C15.1689 5.76227 16.181 6.52746 16.8973 7.53938C17.6136 8.5513 17.9988 9.76025 18 11V14L19 16ZM12 21C12.5304 21 13.0391 20.7893 13.4142 20.4142C13.7893 20.0392 14 19.5304 14 19H10C10 19.5304 10.2107 20.0392 10.5858 20.4142C10.9609 20.7893 11.4696 21 12 21Z" fill="#2A293A"/>
</g>
</svg>
