<svg width="24" height="24" viewBox="0 0 24 24" fill="none" xmlns="http://www.w3.org/2000/svg">
<path d="M12 21C12.5304 21 13.0391 20.7893 13.4142 20.4142C13.7893 20.0392 14 19.5304 14 19H10C10 19.5304 10.2107 20.0392 10.5858 20.4142C10.9609 20.7893 11.4696 21 12 21Z" fill="#2A293A"/>
<path d="M18 11C17.9973 10.6917 17.9706 10.3841 17.92 10.08L11 17H19V16L18 14V11Z" fill="#2A293A"/>
<path d="M5.707 18.293L18.293 5.70702C18.4805 5.51949 18.5858 5.26518 18.5858 5.00002C18.5858 4.73485 18.4805 4.48054 18.293 4.29302L17.707 3.70702C17.5195 3.51955 17.2652 3.41423 17 3.41423C16.7348 3.41423 16.4805 3.51955 16.293 3.70702L14.451 5.54902C14.301 5.48102 14.156 5.40402 14 5.34902V5.00002H13.977C13.9468 4.49095 13.7234 4.01263 13.3523 3.66286C12.9812 3.31309 12.4905 3.11829 11.9805 3.11829C11.4705 3.11829 10.9798 3.31309 10.6087 3.66286C10.2376 4.01263 10.0142 4.49095 9.984 5.00002H10V5.34902C8.83114 5.76227 7.81899 6.52746 7.10271 7.53938C6.38644 8.5513 6.00121 9.76025 6 11V14L3.707 16.293C3.51953 16.4805 3.41422 16.7349 3.41422 17C3.41422 17.2652 3.51953 17.5195 3.707 17.707L4.293 18.293C4.48053 18.4805 4.73484 18.5858 5 18.5858C5.26517 18.5858 5.51947 18.4805 5.707 18.293Z" fill="#2A293A"/>
</svg>
