<svg width="24" height="24" viewBox="0 0 24 24" fill="none" xmlns="http://www.w3.org/2000/svg">
<g id="bell-disabled">
<g id="main">
<path d="M12.814 21C13.3585 21 13.8807 20.7879 14.2658 20.4103C14.6508 20.0328 14.8671 19.5207 14.8671 18.9868H10.7608C10.7608 19.5207 10.9771 20.0328 11.3622 20.4103C11.7472 20.7879 12.2694 21 12.814 21Z" fill="#2A293A"/>
<path d="M18.9734 10.9339C18.9707 10.6235 18.9432 10.3139 18.8913 10.0078L11.7874 16.9735H20V15.9669L18.9734 13.9537V10.9339Z" fill="#2A293A"/>
<path d="M6.35372 18.2751L19.2742 5.60585C19.4667 5.41708 19.5748 5.16109 19.5748 4.89418C19.5748 4.62726 19.4667 4.37127 19.2742 4.1825L18.6726 3.59262C18.4801 3.40391 18.2191 3.2979 17.9468 3.2979C17.6746 3.2979 17.4136 3.40391 17.2211 3.59262L15.3301 5.44681C15.1761 5.37836 15.0273 5.30085 14.8671 5.24548V4.89418H14.8435C14.8125 4.38174 14.5831 3.90026 14.2022 3.54817C13.8212 3.19609 13.3175 3 12.7939 3C12.2704 3 11.7667 3.19609 11.3857 3.54817C11.0048 3.90026 10.7753 4.38174 10.7444 4.89418H10.7608V5.24548C9.56088 5.66147 8.52183 6.43172 7.78652 7.45033C7.05121 8.46894 6.65575 9.68589 6.65451 10.9339V13.9537L4.30057 16.2619C4.10811 16.4506 4 16.7066 4 16.9735C4 17.2405 4.10811 17.4965 4.30057 17.6852L4.90214 18.2751C5.09465 18.4638 5.35572 18.5698 5.62793 18.5698C5.90014 18.5698 6.16121 18.4638 6.35372 18.2751Z" fill="#2A293A"/>
</g>
</g>
</svg>
