<svg width="24" height="24" viewBox="0 0 24 24" fill="none" xmlns="http://www.w3.org/2000/svg">
<g id="bell-enabled">
<path id="main" d="M18.5 15.9669V16.9735H5V15.9669L5.96429 13.9537V10.9339C5.96545 9.68589 6.33692 8.46894 7.02761 7.45033C7.71831 6.43172 8.69431 5.66147 9.82143 5.24548V4.89418H9.806C9.83508 4.38174 10.0506 3.90026 10.4084 3.54817C10.7663 3.19609 11.2394 3 11.7312 3C12.2229 3 12.6961 3.19609 13.054 3.54817C13.4118 3.90026 13.6273 4.38174 13.6564 4.89418H13.6786V5.24548C14.8057 5.66147 15.7817 6.43172 16.4724 7.45033C17.1631 8.46894 17.5345 9.68589 17.5357 10.9339V13.9537L18.5 15.9669ZM11.75 21C12.2615 21 12.752 20.7879 13.1137 20.4103C13.4754 20.0328 13.6786 19.5207 13.6786 18.9868H9.82143C9.82143 19.5207 10.0246 20.0328 10.3863 20.4103C10.748 20.7879 11.2385 21 11.75 21Z" fill="#2A293A"/>
</g>
</svg>
