<svg width="24" height="24" viewBox="0 0 24 24" fill="none" xmlns="http://www.w3.org/2000/svg">
<g id="bot">
<path id="main" d="M15 16H8.99997V14H15V16ZM20 16.816V18C20 18.5304 19.7893 19.0391 19.4142 19.4142C19.0391 19.7893 18.5304 20 18 20H5.99997C5.46954 20 4.96083 19.7893 4.58576 19.4142C4.21068 19.0391 3.99997 18.5304 3.99997 18V16.816C3.41542 16.6123 2.90874 16.2318 2.5502 15.7273C2.19165 15.2227 1.99902 14.619 1.99902 14C1.99902 13.381 2.19165 12.7773 2.5502 12.2727C2.90874 11.7682 3.41542 11.3876 3.99997 11.184V9C3.99997 8.46956 4.21068 7.96085 4.58576 7.58578C4.96083 7.21071 5.46954 7 5.99997 7H9.27297C9.4422 7.00561 9.6098 6.96535 9.75803 6.88349C9.90625 6.80164 10.0296 6.68122 10.115 6.535C10.1997 6.37363 10.327 6.23851 10.4829 6.14421C10.6389 6.04992 10.8177 6.00005 11 6V4.722C10.6187 4.50186 10.3207 4.16207 10.1522 3.75531C9.98373 3.34856 9.95417 2.89757 10.0681 2.47231C10.1821 2.04704 10.4332 1.67126 10.7824 1.40324C11.1317 1.13522 11.5597 0.989944 12 0.989944C12.4402 0.989944 12.8682 1.13522 13.2175 1.40324C13.5668 1.67126 13.8179 2.04704 13.9318 2.47231C14.0458 2.89757 14.0162 3.34856 13.8477 3.75531C13.6792 4.16207 13.3813 4.50186 13 4.722V6C13.1822 6.00005 13.361 6.04992 13.517 6.14421C13.673 6.23851 13.8002 6.37363 13.885 6.535C13.9704 6.68122 14.0937 6.80164 14.2419 6.88349C14.3901 6.96535 14.5577 7.00561 14.727 7H18C18.5304 7 19.0391 7.21071 19.4142 7.58578C19.7893 7.96085 20 8.46956 20 9V11.184C20.5845 11.3876 21.0912 11.7682 21.4497 12.2727C21.8083 12.7773 22.0009 13.381 22.0009 14C22.0009 14.619 21.8083 15.2227 21.4497 15.7273C21.0912 16.2318 20.5845 16.6123 20 16.816ZM18 9H5.99997V18H18V9ZM11 11H8.99997V13H11V11ZM15 11H13V13H15V11Z" fill="#2A293A"/>
</g>
</svg>
