<svg width="24" height="24" viewBox="0 0 24 24" fill="none" xmlns="http://www.w3.org/2000/svg">
<g id="bot">
<path id="main" d="M15 16H8.99997V14H15V16ZM20 16.816V18C20 18.5304 19.7893 19.0392 19.4142 19.4142C19.0391 19.7893 18.5304 20 18 20H5.99997C5.46954 20 4.96083 19.7893 4.58576 19.4142C4.21068 19.0392 3.99997 18.5304 3.99997 18V16.816C3.41542 16.6124 2.90874 16.2319 2.5502 15.7273C2.19165 15.2227 1.99902 14.619 1.99902 14C1.99902 13.381 2.19165 12.7773 2.5502 12.2728C2.90874 11.7682 3.41542 11.3877 3.99997 11.184V9.00001C3.99997 8.46958 4.21068 7.96087 4.58576 7.5858C4.96083 7.21072 5.46954 7.00001 5.99997 7.00001H9.27297C9.4422 7.00562 9.6098 6.96537 9.75803 6.88351C9.90625 6.80165 10.0296 6.68123 10.115 6.53501C10.1997 6.37365 10.327 6.23852 10.4829 6.14423C10.6389 6.04994 10.8177 6.00007 11 6.00001V4.72201C10.6187 4.50188 10.3207 4.16208 10.1522 3.75533C9.98373 3.34857 9.95417 2.89759 10.0681 2.47232C10.1821 2.04705 10.4332 1.67127 10.7824 1.40325C11.1317 1.13523 11.5597 0.98996 12 0.98996C12.4402 0.98996 12.8682 1.13523 13.2175 1.40325C13.5668 1.67127 13.8179 2.04705 13.9318 2.47232C14.0458 2.89759 14.0162 3.34857 13.8477 3.75533C13.6792 4.16208 13.3813 4.50188 13 4.72201V6.00001C13.1822 6.00007 13.361 6.04994 13.517 6.14423C13.673 6.23852 13.8002 6.37365 13.885 6.53501C13.9704 6.68123 14.0937 6.80165 14.2419 6.88351C14.3901 6.96537 14.5577 7.00562 14.727 7.00001H18C18.5304 7.00001 19.0391 7.21072 19.4142 7.5858C19.7893 7.96087 20 8.46958 20 9.00001V11.184C20.5845 11.3877 21.0912 11.7682 21.4497 12.2728C21.8083 12.7773 22.0009 13.381 22.0009 14C22.0009 14.619 21.8083 15.2227 21.4497 15.7273C21.0912 16.2319 20.5845 16.6124 20 16.816ZM18 9.00001H5.99997V18H18V9.00001ZM11 11H8.99997V13H11V11ZM15 11H13V13H15V11Z" fill="#2A293A"/>
</g>
</svg>
