<svg width="24" height="24" viewBox="0 0 24 24" fill="none" xmlns="http://www.w3.org/2000/svg">
<path d="M15.9184 6C14.4425 6 13.2887 7.11164 12.2443 8.5238C10.809 6.69634 9.60874 6 8.17233 6C5.24381 6 3 9.81118 3 13.8451C3 16.3694 4.22122 17.9615 6.26672 17.9615C7.73896 17.9615 8.79779 17.2674 10.6801 13.9771C10.6801 13.9771 11.4647 12.5914 12.0045 11.637C12.2069 11.9641 12.4061 12.2932 12.6022 12.6242L13.4849 14.1091C15.2043 16.9864 16.1623 17.9615 17.8982 17.9615C19.891 17.9615 21 16.3476 21 13.7709C21 9.5472 18.7056 6 15.9184 6ZM9.24473 13.0862C7.7186 15.4784 7.19066 16.0147 6.34097 16.0147C5.46656 16.0147 4.94685 15.247 4.94685 13.8781C4.94685 10.9496 6.40696 7.95507 8.14758 7.95507C9.09015 7.95507 9.87783 8.49943 11.0844 10.2267C9.93872 11.984 9.24473 13.0862 9.24473 13.0862ZM15.0045 12.785L13.9492 11.0249C13.6636 10.5604 13.3891 10.1328 13.1257 9.74224C14.0769 8.27415 14.8615 7.54262 15.7947 7.54262C17.7332 7.54262 19.2841 10.3969 19.2841 13.9028C19.2841 15.2392 18.8464 16.0147 17.9395 16.0147C17.0702 16.0147 16.655 15.4406 15.0045 12.785Z" fill="#2A293A" data-color="main"/>
</svg>
