<svg width="24" height="24" viewBox="0 0 24 24" fill="none" xmlns="http://www.w3.org/2000/svg">
<g id="brand-whatsapp">
<g id="main">
<path d="M16.2751 13.3216C16.3003 13.3339 16.3157 13.3414 16.3191 13.3431C16.4909 13.4256 16.6267 13.4908 16.7055 13.6203C16.8205 13.8107 16.7749 14.3355 16.602 14.8159C16.3826 15.4257 15.4178 15.9256 14.9788 15.9645L14.9144 15.9707C14.8129 15.9807 14.6978 15.9919 14.5541 15.9919C14.212 15.9919 13.6101 15.9333 12.3393 15.4256C11.0193 14.8983 9.71715 13.7678 8.67262 12.2424C8.6696 12.238 8.66673 12.2338 8.66402 12.2298C8.65055 12.2101 8.64098 12.196 8.63534 12.1885C8.36259 11.829 7.72733 10.8838 7.72733 9.8828C7.72733 8.77054 8.25973 8.13809 8.57444 7.93968C8.87121 7.75261 9.54241 7.66424 9.66566 7.65904C9.73876 7.65596 9.74648 7.6551 9.75422 7.65487C9.7572 7.65477 9.76018 7.65477 9.76688 7.65477C10.027 7.65477 10.2142 7.81262 10.3559 8.15164C10.37 8.18537 10.4127 8.28804 10.4698 8.42547C10.6506 8.86063 10.9763 9.6443 10.9999 9.69146C11.0377 9.76563 11.1547 9.9953 11.0177 10.2675L10.9883 10.3265C10.9323 10.4401 10.8837 10.5386 10.7751 10.6649C10.7402 10.7053 10.7047 10.748 10.6692 10.7908C10.5944 10.8808 10.5168 10.9742 10.4454 11.0449C10.421 11.0693 10.3736 11.1168 10.3685 11.1357C10.3684 11.1354 10.3685 11.1357 10.3685 11.1357C10.3689 11.1385 10.3716 11.1553 10.3905 11.1875C10.537 11.4355 11.6055 12.9059 13.0131 13.5174C13.0746 13.5441 13.2777 13.6277 13.2895 13.6277C13.3025 13.6277 13.3244 13.6059 13.3404 13.5876C13.463 13.449 13.8598 12.9852 13.9909 12.7903C14.1069 12.6169 14.2557 12.5286 14.4329 12.5286C14.5414 12.5286 14.6434 12.5619 14.7386 12.5961C14.9492 12.6719 16.04 13.2064 16.2751 13.3216Z" fill="#2A293A"/>
<path fill-rule="evenodd" clip-rule="evenodd" d="M3.31873 11.7746C3.31873 6.93628 7.28481 3 12.1598 3C17.0343 3 21 6.93628 21 11.7746C21 16.6124 17.0343 20.5483 12.1598 20.5482C10.6979 20.5482 9.2533 20.1877 7.97518 19.5048L3.30453 20.989C3.28127 20.9965 3.25742 21 3.23375 21C3.17198 21 3.11149 20.9755 3.0669 20.9299C3.00513 20.8671 2.98409 20.7747 3.01238 20.6912L4.53086 16.212C3.73752 14.8713 3.31873 13.3395 3.31873 11.7746ZM8.30637 17.5717C9.45171 18.3232 10.7841 18.7204 12.1598 18.7204C16.0207 18.7204 19.1618 15.6046 19.1617 11.7746C19.1617 7.94416 16.0206 4.82782 12.1597 4.82782C8.29836 4.82782 5.15689 7.94416 5.15689 11.7746C5.15689 13.2469 5.61794 14.6549 6.49012 15.8466C6.53512 15.9081 6.54733 15.9877 6.5229 16.0598L5.76761 18.2881L8.10732 17.5444C8.13052 17.537 8.15436 17.5334 8.17815 17.5334C8.22315 17.5334 8.26785 17.5464 8.30637 17.5717Z" fill="#2A293A"/>
</g>
</g>
</svg>
