<svg width="24" height="24" viewBox="0 0 24 24" fill="none" xmlns="http://www.w3.org/2000/svg">
<g id="brand-signicat">
<g id="main">
<path d="M9.22446 12.4962C8.92389 12.4962 8.69202 12.2867 8.69202 11.9329C8.69202 11.543 8.9256 11.3111 9.22446 11.3111C9.52847 11.3111 9.7569 11.5619 9.7569 11.9054C9.75518 12.2506 9.52331 12.4962 9.22446 12.4962Z" fill="#2A293A"/>
<path d="M16.397 12.522C16.105 12.522 15.8474 12.2935 15.8474 11.9311C15.8474 11.5687 16.1033 11.3265 16.397 11.3265C16.6701 11.3265 16.9518 11.555 16.9518 11.9311C16.9467 12.3073 16.6667 12.522 16.397 12.522Z" fill="#2A293A"/>
<path fill-rule="evenodd" clip-rule="evenodd" d="M11.9983 9.29122V7.36927H21V16.3693H12V14.4473C11.1395 15.8231 9.61088 16.7385 7.86927 16.7385C5.17958 16.7385 3 14.5573 3 11.8693C3 9.1813 5.17958 7 7.86756 7C9.61088 7 11.1378 7.91546 11.9983 9.29122ZM6.18776 12.8895C6.7786 12.8895 7.17192 12.5409 7.17192 12.0702C7.17192 11.622 6.87135 11.3815 6.30799 11.2699C5.97307 11.2063 5.63642 11.0947 5.63642 10.8216C5.63642 10.643 5.80131 10.4901 6.09845 10.4901C6.39558 10.4901 6.65837 10.6292 6.65837 10.8439C6.65837 10.8906 6.64782 10.924 6.63597 10.9616L6.63089 10.9779L7.0328 11.117C7.07745 11.0363 7.11009 10.9384 7.11009 10.825C7.11009 10.3819 6.70303 10.0779 6.13967 10.0779C5.57974 10.0779 5.21391 10.4265 5.21391 10.8199C5.21391 11.3214 5.5849 11.5584 6.162 11.6529C6.59139 11.7302 6.72536 11.8762 6.72536 12.0823C6.72536 12.3056 6.5244 12.4722 6.19291 12.4722C5.88547 12.4722 5.60207 12.3382 5.60207 12.0651C5.60207 12.0204 5.61066 11.9706 5.6244 11.9174L5.22249 11.7525C5.18127 11.8298 5.1452 11.9397 5.1452 12.0531C5.14864 12.558 5.54368 12.8895 6.18776 12.8895ZM7.49142 10.4643C7.49142 10.612 7.60306 10.7237 7.75077 10.7237C7.89848 10.7237 8.01528 10.612 8.01528 10.4643C8.01528 10.3166 7.9002 10.1998 7.75077 10.1998C7.60478 10.1998 7.49142 10.3166 7.49142 10.4643ZM7.95689 11.0002H7.54983V12.8483H7.95689V11.0002ZM9.73799 11.2475C9.62291 11.0723 9.446 10.9607 9.1523 10.9607C8.66452 10.9607 8.27463 11.3454 8.27463 11.9311C8.27463 12.4945 8.64562 12.8483 9.11108 12.8483C9.42368 12.8483 9.63837 12.7143 9.73284 12.5168V12.7143C9.73284 13.063 9.59887 13.3086 9.24505 13.3086C8.98913 13.3086 8.79677 13.1798 8.73837 12.929L8.36738 13.0853C8.50135 13.4924 8.81566 13.6624 9.24505 13.6624C9.83074 13.6624 10.1399 13.2605 10.1399 12.6954V10.9951H9.73799V11.2475ZM11.4109 11.3094C11.1704 11.3094 10.9729 11.4897 10.9729 11.816L10.966 11.8126V12.8466H10.5589V10.9985H10.966V11.2681C11.1051 11.0466 11.3198 10.9607 11.5483 10.9607C11.9244 10.9607 12.1975 11.2063 12.1975 11.6409V12.85H11.7904V11.78C11.7904 11.4743 11.6393 11.3094 11.4109 11.3094ZM13.7348 11.9105C13.7348 11.5035 14.0268 11.3111 14.281 11.3111C14.554 11.3111 14.7516 11.4811 14.7876 11.7542L15.1586 11.6391C15.0813 11.2098 14.7292 10.959 14.281 10.959C13.7743 10.959 13.3466 11.3437 13.3466 11.9122C13.3466 12.4979 13.7365 12.8878 14.3394 12.8878C14.7876 12.8878 15.1586 12.6319 15.2565 12.1458L14.8855 12.0118C14.8443 12.2849 14.688 12.5391 14.3222 12.5391C14.0302 12.5374 13.7348 12.2987 13.7348 11.9105ZM16.9346 11.2956V10.9951H17.3468V12.8483H16.9569V12.5357C16.8092 12.7693 16.5945 12.8844 16.3128 12.8844C15.8079 12.8844 15.4403 12.4773 15.4403 11.9311C15.4403 11.3626 15.7993 10.9556 16.3128 10.9556C16.6083 10.9556 16.8281 11.0861 16.9346 11.2956ZM18.635 12.8861C18.9836 12.8861 19.2207 12.6714 19.2567 12.3004L18.8668 12.2231C18.8531 12.4378 18.7672 12.5357 18.6109 12.5357C18.4959 12.5357 18.3773 12.4584 18.3773 12.2798V11.3489H19.0798V10.9951H18.3773V10.4042H17.972V10.9951H17.601V11.3437H17.972V12.2592C17.9686 12.6302 18.1833 12.8861 18.635 12.8861ZM12.8192 10.7237C12.6715 10.7237 12.5599 10.612 12.5599 10.4643C12.5599 10.3166 12.6715 10.1998 12.8192 10.1998C12.9687 10.1998 13.0837 10.3166 13.0837 10.4643C13.0837 10.612 12.967 10.7237 12.8192 10.7237ZM12.6183 11.0002H13.0254V12.8483H12.6183V11.0002Z" fill="#2A293A"/>
</g>
</g>
</svg>
