<svg width="24" height="24" viewBox="0 0 24 24" fill="none" xmlns="http://www.w3.org/2000/svg">
<g id="brand-giosg">
<path id="main" d="M11.9982 4C10.416 4.00035 8.86943 4.46987 7.55405 5.34917C6.23867 6.22848 5.21357 7.47808 4.60837 8.93998C4.00317 10.4019 3.84505 12.0104 4.154 13.5621C4.46296 15.1139 5.22512 16.5392 6.3441 17.6578C7.46308 18.7764 8.88863 19.5381 10.4405 19.8465C11.9923 20.155 13.6008 19.9963 15.0625 19.3906C16.5242 18.7849 17.7735 17.7594 18.6523 16.4437C19.5312 15.1281 20.0002 13.5813 20 11.9991C19.9976 9.87787 19.1537 7.84424 17.6536 6.34455C16.1534 4.84486 14.1194 4.00165 11.9982 4ZM11.7517 13.5959C11.2622 14.0002 10.659 14.2421 10.0257 14.288C9.39249 14.3339 8.76066 14.1816 8.21791 13.8522C7.84514 13.5539 7.58089 13.1412 7.46596 12.6778C7.1404 11.4835 7.30263 10.2088 7.91694 9.13403C8.53126 8.05931 9.54735 7.27264 10.7417 6.94709C11.936 6.62153 13.2108 6.78376 14.2855 7.39808C15.3602 8.01239 16.1469 9.02848 16.4724 10.2228C16.6091 10.7256 16.6055 10.9694 16.4939 11.0703C16.0688 11.4552 15.1123 10.689 14.0683 10.9882C12.902 11.3222 13.0583 12.509 11.7517 13.5959Z" fill="#2A293A"/>
</g>
</svg>
