<svg width="24" height="24" viewBox="0 0 24 24" fill="none" xmlns="http://www.w3.org/2000/svg">
<g id="brand-twilio">
<g id="main">
<path d="M14.2269 11.6304C15.2603 11.6304 16.0981 10.7915 16.0981 9.75655C16.0981 8.72163 15.2603 7.88267 14.2269 7.88267C13.1935 7.88267 12.3558 8.72163 12.3558 9.75655C12.3558 10.7915 13.1935 11.6304 14.2269 11.6304Z" fill="#2A293A"/>
<path d="M16.0981 14.2433C16.0981 15.2782 15.2603 16.1172 14.2269 16.1172C13.1935 16.1172 12.3558 15.2782 12.3558 14.2433C12.3558 13.2084 13.1935 12.3694 14.2269 12.3694C15.2603 12.3694 16.0981 13.2084 16.0981 14.2433Z" fill="#2A293A"/>
<path d="M9.74671 16.1172C10.7801 16.1172 11.6179 15.2782 11.6179 14.2433C11.6179 13.2084 10.7801 12.3694 9.74671 12.3694C8.7133 12.3694 7.87555 13.2084 7.87555 14.2433C7.87555 15.2782 8.7133 16.1172 9.74671 16.1172Z" fill="#2A293A"/>
<path d="M11.6179 9.75655C11.6179 10.7915 10.7801 11.6304 9.74671 11.6304C8.7133 11.6304 7.87555 10.7915 7.87555 9.75655C7.87555 8.72163 8.7133 7.88267 9.74671 7.88267C10.7801 7.88267 11.6179 8.72163 11.6179 9.75655Z" fill="#2A293A"/>
<path fill-rule="evenodd" clip-rule="evenodd" d="M11.9868 3C7.03221 3 3 7.03809 3 11.9999C3 16.9618 7.03221 20.9999 11.9868 20.9999C16.9678 21.0263 21 16.9882 21 11.9999C21 7.0117 16.9678 3 11.9868 3ZM11.9868 18.6509C8.34993 18.6509 5.37189 15.6685 5.37189 11.9999C5.37189 8.35773 8.34993 5.37535 11.9868 5.37535C15.6501 5.37535 18.6281 8.35773 18.6281 11.9999C18.6281 15.6685 15.6501 18.6509 11.9868 18.6509Z" fill="#2A293A"/>
</g>
</g>
</svg>
