<svg width="24" height="24" viewBox="0 0 24 24" fill="none" xmlns="http://www.w3.org/2000/svg">
<g id="brand-signicat">
<g id="main">
<path d="M9.53285 12.515C9.26568 12.515 9.05957 12.3429 9.05957 12.0522C9.05957 11.7319 9.2672 11.5415 9.53285 11.5415C9.80308 11.5415 10.0061 11.7475 10.0061 12.0297C10.0046 12.3133 9.7985 12.515 9.53285 12.515Z" fill="#2A293A"/>
<path d="M15.9085 12.5362C15.6489 12.5362 15.4199 12.3485 15.4199 12.0508C15.4199 11.7531 15.6474 11.5542 15.9085 11.5542C16.1512 11.5542 16.4016 11.7418 16.4016 12.0508C16.397 12.3598 16.1482 12.5362 15.9085 12.5362Z" fill="#2A293A"/>
<path fill-rule="evenodd" clip-rule="evenodd" d="M11.9985 9.88219V8.30335H20V15.6966H12V14.1178C11.2351 15.248 9.87634 16 8.32824 16C5.9374 16 4 14.2081 4 12C4 9.79189 5.93741 8 8.32672 8C9.87634 8 11.2336 8.75203 11.9985 9.88219ZM6.83356 12.8381C7.35876 12.8381 7.70837 12.5517 7.70837 12.1651C7.70837 11.7968 7.4412 11.5993 6.94043 11.5076C6.64272 11.4554 6.34349 11.3637 6.34349 11.1393C6.34349 10.9926 6.49005 10.867 6.75417 10.867C7.0183 10.867 7.25189 10.9813 7.25189 11.1577C7.25189 11.196 7.24251 11.2235 7.23197 11.2544L7.22746 11.2677L7.58471 11.382C7.6244 11.3157 7.65341 11.2353 7.65341 11.1422C7.65341 10.7781 7.29158 10.5284 6.79082 10.5284C6.29311 10.5284 5.96792 10.8148 5.96792 11.1379C5.96792 11.5499 6.29769 11.7446 6.81066 11.8222C7.19234 11.8857 7.31143 12.0057 7.31143 12.175C7.31143 12.3584 7.1328 12.4953 6.83814 12.4953C6.56486 12.4953 6.31295 12.3852 6.31295 12.1609C6.31295 12.1242 6.32059 12.0833 6.3328 12.0395L5.97555 11.9041C5.93891 11.9676 5.90685 12.0579 5.90685 12.151C5.9099 12.5658 6.26105 12.8381 6.83356 12.8381ZM7.99237 10.8459C7.99237 10.9672 8.09161 11.0589 8.22291 11.0589C8.35421 11.0589 8.45802 10.9672 8.45802 10.8459C8.45802 10.7245 8.35573 10.6286 8.22291 10.6286C8.09314 10.6286 7.99237 10.7245 7.99237 10.8459ZM8.40612 11.2861H8.04429V12.8042H8.40612V11.2861ZM9.98932 11.4893C9.88703 11.3453 9.72978 11.2536 9.46871 11.2536C9.03513 11.2536 8.68856 11.5697 8.68856 12.0508C8.68856 12.5136 9.01833 12.8042 9.43207 12.8042C9.70993 12.8042 9.90077 12.6942 9.98474 12.5319V12.6942C9.98474 12.9806 9.86566 13.1824 9.55116 13.1824C9.32367 13.1824 9.15268 13.0766 9.10077 12.8706L8.771 12.999C8.89009 13.3333 9.16948 13.473 9.55116 13.473C10.0718 13.473 10.3466 13.1429 10.3466 12.6787V11.2818H9.98932V11.4893ZM11.4763 11.54C11.2626 11.54 11.087 11.6882 11.087 11.9563L11.0809 11.9535V12.8028H10.7191V11.2847H11.0809V11.5062C11.2046 11.3242 11.3954 11.2536 11.5985 11.2536C11.9328 11.2536 12.1756 11.4554 12.1756 11.8124V12.8057H11.8137V11.9266C11.8137 11.6755 11.6794 11.54 11.4763 11.54ZM13.542 12.0339C13.542 11.6995 13.8016 11.5415 14.0275 11.5415C14.2703 11.5415 14.4458 11.6811 14.4779 11.9055L14.8077 11.8109C14.739 11.4582 14.426 11.2522 14.0275 11.2522C13.5771 11.2522 13.197 11.5683 13.197 12.0353C13.197 12.5164 13.5435 12.8367 14.0794 12.8367C14.4779 12.8367 14.8077 12.6265 14.8947 12.2272L14.5649 12.1171C14.5283 12.3415 14.3893 12.5503 14.0642 12.5503C13.8046 12.5489 13.542 12.3527 13.542 12.0339ZM16.3863 11.5288V11.2818H16.7527V12.8042H16.4062V12.5475C16.2749 12.7393 16.084 12.8339 15.8336 12.8339C15.3848 12.8339 15.0581 12.4995 15.0581 12.0508C15.0581 11.5838 15.3771 11.2494 15.8336 11.2494C16.0962 11.2494 16.2917 11.3566 16.3863 11.5288ZM17.8978 12.8353C18.2077 12.8353 18.4184 12.6589 18.4504 12.3542L18.1039 12.2907C18.0917 12.467 18.0153 12.5475 17.8764 12.5475C17.7741 12.5475 17.6688 12.484 17.6688 12.3372V11.5725H18.2932V11.2818H17.6688V10.7965H17.3084V11.2818H16.9787V11.5683H17.3084V12.3203C17.3054 12.6251 17.4962 12.8353 17.8978 12.8353ZM12.7282 11.0589C12.5969 11.0589 12.4977 10.9672 12.4977 10.8459C12.4977 10.7245 12.5969 10.6286 12.7282 10.6286C12.861 10.6286 12.9633 10.7245 12.9633 10.8459C12.9633 10.9672 12.8595 11.0589 12.7282 11.0589ZM12.5496 11.2861H12.9114V12.8042H12.5496V11.2861Z" fill="#2A293A"/>
</g>
</g>
</svg>
