<svg width="24" height="24" viewBox="0 0 24 24" fill="none" xmlns="http://www.w3.org/2000/svg">
<g id="brand-twilio">
<g id="main">
<path d="M13.9795 11.6715C14.8981 11.6715 15.6427 10.9258 15.6427 10.0058C15.6427 9.0859 14.8981 8.34015 13.9795 8.34015C13.0609 8.34015 12.3162 9.0859 12.3162 10.0058C12.3162 10.9258 13.0609 11.6715 13.9795 11.6715Z" fill="#2A293A"/>
<path d="M15.6427 13.9941C15.6427 14.914 14.8981 15.6597 13.9795 15.6597C13.0609 15.6597 12.3162 14.914 12.3162 13.9941C12.3162 13.0741 13.0609 12.3284 13.9795 12.3284C14.8981 12.3284 15.6427 13.0741 15.6427 13.9941Z" fill="#2A293A"/>
<path d="M9.99707 15.6597C10.9157 15.6597 11.6603 14.914 11.6603 13.9941C11.6603 13.0741 10.9157 12.3284 9.99707 12.3284C9.07849 12.3284 8.33382 13.0741 8.33382 13.9941C8.33382 14.914 9.07849 15.6597 9.99707 15.6597Z" fill="#2A293A"/>
<path d="M11.6603 10.0058C11.6603 10.9258 10.9157 11.6715 9.99707 11.6715C9.07849 11.6715 8.33382 10.9258 8.33382 10.0058C8.33382 9.0859 9.07849 8.34015 9.99707 8.34015C10.9157 8.34015 11.6603 9.0859 11.6603 10.0058Z" fill="#2A293A"/>
<path fill-rule="evenodd" clip-rule="evenodd" d="M11.9883 4C7.58419 4 4 7.58942 4 11.9999C4 16.4105 7.58419 19.9999 11.9883 19.9999C16.4158 20.0233 20 16.4339 20 11.9999C20 7.56596 16.4158 4 11.9883 4ZM11.9883 17.9119C8.75549 17.9119 6.10835 15.2609 6.10835 11.9999C6.10835 8.76243 8.75549 6.11142 11.9883 6.11142C15.2445 6.11142 17.8917 8.76243 17.8917 11.9999C17.8917 15.2609 15.2445 17.9119 11.9883 17.9119Z" fill="#2A293A"/>
</g>
</g>
</svg>
