<svg width="24" height="24" viewBox="0 0 24 24" fill="none" xmlns="http://www.w3.org/2000/svg">
<g id="brand-giosg">
<path id="main" d="M11.998 3C10.218 3.0004 8.4781 3.5286 6.9983 4.51782C5.51851 5.50704 4.36527 6.91284 3.68442 8.55747C3.00356 10.2021 2.82568 12.0117 3.17326 13.7574C3.52083 15.5031 4.37826 17.1066 5.63711 18.365C6.89596 19.6235 8.4997 20.4803 10.2455 20.8273C11.9914 21.1743 13.8009 20.9958 15.4453 20.3144C17.0897 19.633 18.4951 18.4793 19.4839 16.9992C20.4726 15.5191 21.0002 13.779 21 11.999C20.9973 9.61261 20.048 7.32477 18.3603 5.63762C16.6725 3.95047 14.3844 3.00186 11.998 3ZM11.7207 13.7954C11.17 14.2502 10.4913 14.5224 9.77894 14.574C9.06655 14.6257 8.35574 14.4543 7.74515 14.0837C7.32578 13.7481 7.02851 13.2839 6.8992 12.7626C6.53295 11.4189 6.71545 9.98485 7.40656 8.77578C8.09767 7.56672 9.24077 6.68172 10.5844 6.31547C11.928 5.94922 13.3621 6.13173 14.5712 6.82283C15.7802 7.51394 16.6652 8.65704 17.0315 10.0007C17.1852 10.5663 17.1812 10.8406 17.0556 10.9541C16.5774 11.3871 15.5013 10.5251 14.3269 10.8617C13.0147 11.2374 13.1906 12.5727 11.7207 13.7954Z" fill="#2A293A"/>
</g>
</svg>
