<svg width="24" height="24" viewBox="0 0 24 24" fill="none" xmlns="http://www.w3.org/2000/svg">
<path d="M18 3H6C4.93913 3 3.92172 3.42143 3.17157 4.17157C2.42143 4.92172 2 5.93913 2 7V15C2 16.0609 2.42143 17.0783 3.17157 17.8284C3.92172 18.5786 4.93913 19 6 19H9V21.586C9.00004 21.7838 9.05871 21.977 9.1686 22.1415C9.27848 22.3059 9.43465 22.434 9.61735 22.5097C9.80005 22.5853 10.0011 22.6052 10.195 22.5666C10.389 22.528 10.5671 22.4328 10.707 22.293L14 19H18C19.0609 19 20.0783 18.5786 20.8284 17.8284C21.5786 17.0783 22 16.0609 22 15V7C22 5.93913 21.5786 4.92172 20.8284 4.17157C20.0783 3.42143 19.0609 3 18 3ZM15 14H6V12H15V14ZM18 10H6V8H18V10Z" fill="#2A293A"/>
</svg>
