<svg width="24" height="24" viewBox="0 0 24 24" fill="none" xmlns="http://www.w3.org/2000/svg">
<path fill-rule="evenodd" clip-rule="evenodd" d="M18 3H6C4.93913 3 3.92172 3.42143 3.17157 4.17157C2.42143 4.92172 2 5.93913 2 7V15C2 16.0609 2.42143 17.0783 3.17157 17.8284C3.92172 18.5786 4.93913 19 6 19H10L13.293 22.293C13.4329 22.4328 13.611 22.528 13.805 22.5666C13.9989 22.6052 14.2 22.5853 14.3827 22.5097C14.5654 22.434 14.7215 22.3059 14.8314 22.1415C14.9413 21.977 15 21.7837 15 21.586V19H18C19.0609 19 20.0783 18.5786 20.8284 17.8284C21.5786 17.0783 22 16.0609 22 15V7C22 5.93913 21.5786 4.92172 20.8284 4.17157C20.0783 3.42143 19.0609 3 18 3ZM7.92667 11.5265L10.2188 13.8192C10.2999 13.9003 10.3961 13.9647 10.502 14.0086C10.608 14.0525 10.7215 14.0751 10.8362 14.0751C10.9509 14.0751 11.0644 14.0525 11.1703 14.0086C11.2763 13.9647 11.3725 13.9003 11.4536 13.8192L16.0733 9.19892C16.237 9.03523 16.3289 8.81326 16.3289 8.58181C16.3289 8.35036 16.237 8.12838 16.0733 7.9647C15.9096 7.80106 15.6877 7.70914 15.4562 7.70914C15.2248 7.70914 15.0028 7.80106 14.8391 7.9647L10.8362 11.9676L9.16089 10.2923C8.99721 10.1287 8.77523 10.0368 8.54378 10.0368C8.31233 10.0368 8.09036 10.1287 7.92667 10.2923C7.76304 10.456 7.67111 10.678 7.67111 10.9094C7.67111 11.1409 7.76304 11.3628 7.92667 11.5265Z" fill="#2A293A" data-color="main"/>
</svg>
