<svg width="24" height="24" viewBox="0 0 24 24" fill="none" xmlns="http://www.w3.org/2000/svg">
<g id="bubble-question">
<path id="main" d="M18 3H6C4.93913 3 3.92172 3.42143 3.17157 4.17157C2.42143 4.92172 2 5.93913 2 7V15C2 16.0609 2.42143 17.0783 3.17157 17.8284C3.92172 18.5786 4.93913 19 6 19H9V21.586C9.00004 21.7838 9.05871 21.977 9.1686 22.1415C9.27848 22.3059 9.43465 22.434 9.61735 22.5097C9.80005 22.5853 10.0011 22.6052 10.195 22.5666C10.389 22.528 10.5671 22.4328 10.707 22.293L14 19H18C19.0609 19 20.0783 18.5786 20.8284 17.8284C21.5786 17.0783 22 16.0609 22 15V7C22 5.93913 21.5786 4.92172 20.8284 4.17157C20.0783 3.42143 19.0609 3 18 3ZM12.931 14.835C12.8229 14.9458 12.6929 15.0329 12.5493 15.0907C12.4058 15.1486 12.2517 15.1759 12.097 15.171C11.944 15.1753 11.7918 15.1477 11.65 15.0898C11.5083 15.032 11.3803 14.9452 11.274 14.835C11.0615 14.6119 10.943 14.3156 10.943 14.0075C10.943 13.6994 11.0615 13.4031 11.274 13.18C11.3806 13.0702 11.5087 12.9837 11.6503 12.9258C11.792 12.868 11.9441 12.8402 12.097 12.844C12.2517 12.8393 12.4057 12.8668 12.5492 12.9246C12.6927 12.9825 12.8227 13.0694 12.931 13.18C13.1435 13.4031 13.262 13.6994 13.262 14.0075C13.262 14.3156 13.1435 14.6119 12.931 14.835ZM14.755 9.435C14.64 9.66969 14.488 9.88442 14.305 10.071C14.129 10.247 13.905 10.459 13.621 10.707C13.4049 10.8771 13.2023 11.0636 13.015 11.265C12.885 11.4009 12.7921 11.5679 12.745 11.75C12.7218 11.9111 12.6381 12.0573 12.511 12.159C12.3852 12.2553 12.2304 12.3061 12.072 12.303C11.9813 12.3086 11.8905 12.2935 11.8065 12.2588C11.7225 12.2242 11.6474 12.1709 11.587 12.103C11.4617 11.9377 11.4 11.733 11.413 11.526C11.4009 11.1988 11.4754 10.8742 11.629 10.585C11.7957 10.3028 11.9973 10.0428 12.229 9.811C12.381 9.65068 12.5194 9.4781 12.643 9.295C12.7339 9.15151 12.7814 8.98485 12.78 8.815C12.7833 8.73493 12.7677 8.65521 12.7345 8.58227C12.7013 8.50932 12.6515 8.44518 12.589 8.395C12.4364 8.2834 12.2498 8.22826 12.061 8.239C11.8745 8.23923 11.6895 8.27311 11.515 8.339C11.3056 8.4221 11.1027 8.5207 10.908 8.634L10.621 8.777C10.4223 8.90375 10.1958 8.98029 9.961 9C9.86171 8.99981 9.76384 8.97648 9.67514 8.93187C9.58644 8.88726 9.50935 8.82259 9.45 8.743C9.30813 8.56421 9.23378 8.34115 9.24 8.113C9.23524 7.96764 9.2665 7.82336 9.331 7.693C9.40436 7.56497 9.50468 7.45442 9.625 7.369C9.99854 7.09764 10.4136 6.8886 10.854 6.75C11.3016 6.6043 11.7693 6.52972 12.24 6.529C12.7181 6.52057 13.1927 6.61255 13.633 6.799C14.0133 6.95699 14.3447 7.21345 14.593 7.542C14.8229 7.85398 14.9448 8.23247 14.94 8.62C14.9433 8.90276 14.8799 9.18231 14.755 9.436V9.435Z" fill="#2A293A"/>
</g>
</svg>
