<svg width="24" height="24" viewBox="0 0 24 24" fill="none" xmlns="http://www.w3.org/2000/svg">
<g id="calendar">
<g id="main">
<path d="M7.94162 13H15.9416C16.1538 13 16.3573 12.9157 16.5073 12.7657C16.6573 12.6157 16.7416 12.2122 16.7416 12C16.7416 11.7878 16.6573 11.3843 16.5073 11.2343C16.3573 11.0843 16.1538 11 15.9416 11H7.94162C7.72945 11 7.52596 11.0843 7.37593 11.2343C7.22591 11.3843 7.14162 11.7878 7.14162 12C7.14162 12.2122 7.22591 12.6157 7.37593 12.7657C7.52596 12.9157 7.72945 13 7.94162 13Z" fill="#2A293A"/>
<path d="M19.2 5H18V3.8C18 3.58783 17.9157 3.38435 17.7657 3.23432C17.6157 3.08429 17.2122 3 17 3C16.7878 3 16.3843 3.08429 16.2343 3.23432C16.0843 3.38435 16 3.58783 16 3.8V5H8V3.8C8 3.58783 7.91571 3.38435 7.76569 3.23432C7.61566 3.08429 7.21217 3 7 3C6.78783 3 6.38434 3.08429 6.23431 3.23432C6.08429 3.38435 6 3.58783 6 3.8V5H4.8C4.58783 5 4.38434 5.08429 4.23431 5.23432C4.08429 5.38435 4 5.58783 4 5.8V19.2C4 19.4122 4.08429 19.6157 4.23431 19.7657C4.38434 19.9157 4.58783 20 4.8 20H19.2C19.4122 20 19.6157 19.9157 19.7657 19.7657C19.9157 19.6157 20 19.4122 20 19.2V5.8C20 5.58783 19.9157 5.38435 19.7657 5.23432C19.6157 5.08429 19.4122 5 19.2 5ZM18 18H6V9H18V18Z" fill="#2A293A"/>
<path d="M7.9416 16H15.9416C16.1538 16 16.3573 15.9157 16.5073 15.7657C16.6573 15.6157 16.7416 15.2122 16.7416 15C16.7416 14.7878 16.6573 14.3843 16.5073 14.2343C16.3573 14.0843 16.1538 14 15.9416 14H7.9416C7.72943 14 7.52595 14.0843 7.37592 14.2343C7.22589 14.3843 7.1416 14.7878 7.1416 15C7.1416 15.2122 7.22589 15.6157 7.37592 15.7657C7.52595 15.9157 7.72943 16 7.9416 16Z" fill="#2A293A"/>
</g>
</g>
</svg>
