<svg width="24" height="24" viewBox="0 0 24 24" fill="none" xmlns="http://www.w3.org/2000/svg">
<g id="calendar">
<g id="main">
<path d="M7 14H17C17.2652 14 17.5196 13.8946 17.7071 13.7071C17.8946 13.5196 18 13.2652 18 13C18 12.7348 17.8946 12.4804 17.7071 12.2929C17.5196 12.1054 17.2652 12 17 12H7C6.73478 12 6.48043 12.1054 6.29289 12.2929C6.10536 12.4804 6 12.7348 6 13C6 13.2652 6.10536 13.5196 6.29289 13.7071C6.48043 13.8946 6.73478 14 7 14Z" fill="#2A293A"/>
<path d="M7 18H17C17.2652 18 17.5196 17.8946 17.7071 17.7071C17.8946 17.5196 18 17.2652 18 17C18 16.7348 17.8946 16.4804 17.7071 16.2929C17.5196 16.1054 17.2652 16 17 16H7C6.73478 16 6.48043 16.1054 6.29289 16.2929C6.10536 16.4804 6 16.7348 6 17C6 17.2652 6.10536 17.5196 6.29289 17.7071C6.48043 17.8946 6.73478 18 7 18Z" fill="#2A293A"/>
<path d="M21 4H19V3C19 2.73478 18.8946 2.48043 18.7071 2.29289C18.5196 2.10536 18.2652 2 18 2C17.7348 2 17.4804 2.10536 17.2929 2.29289C17.1054 2.48043 17 2.73478 17 3V4H7V3C7 2.73478 6.89464 2.48043 6.70711 2.29289C6.51957 2.10536 6.26522 2 6 2C5.73478 2 5.48043 2.10536 5.29289 2.29289C5.10536 2.48043 5 2.73478 5 3V4H3C2.73478 4 2.48043 4.10536 2.29289 4.29289C2.10536 4.48043 2 4.73478 2 5V21C2 21.2652 2.10536 21.5196 2.29289 21.7071C2.48043 21.8946 2.73478 22 3 22H21C21.2652 22 21.5196 21.8946 21.7071 21.7071C21.8946 21.5196 22 21.2652 22 21V5C22 4.73478 21.8946 4.48043 21.7071 4.29289C21.5196 4.10536 21.2652 4 21 4ZM20 20H4V10H20V20Z" fill="#2A293A"/>
</g>
</g>
</svg>
