<svg width="24" height="24" viewBox="0 0 24 24" fill="none" xmlns="http://www.w3.org/2000/svg">
<g id="call-audio">
<path id="main" d="M5.99999 5C4.93916 6.06089 4.3432 7.49972 4.3432 9C4.3432 10.5003 4.93916 11.9391 5.99999 13L11 18C12.0609 19.0608 13.4997 19.6568 15 19.6568C16.5003 19.6568 17.9391 19.0608 19 18L19.293 17.707C19.4805 17.5195 19.5858 17.2652 19.5858 17C19.5858 16.7348 19.4805 16.4805 19.293 16.293L16.707 13.707C16.5195 13.5195 16.2652 13.4142 16 13.4142C15.7348 13.4142 15.4805 13.5195 15.293 13.707L15 14L13 16L7.99999 11L9.99999 9L10.293 8.707C10.4805 8.51947 10.5858 8.26517 10.5858 8C10.5858 7.73484 10.4805 7.48053 10.293 7.293L7.70699 4.707C7.51947 4.51953 7.26516 4.41422 6.99999 4.41422C6.73483 4.41422 6.48052 4.51953 6.29299 4.707L5.99999 5Z" fill="#2A293A"/>
</g>
</svg>
