<svg width="24" height="24" viewBox="0 0 24 24" fill="none" xmlns="http://www.w3.org/2000/svg">
<path d="M21.192 13.657C21.1921 12.9141 21.0459 12.1786 20.7617 11.4922C20.4776 10.8059 20.061 10.1823 19.5357 9.65694C19.0105 9.13163 18.387 8.71492 17.7007 8.43062C17.0144 8.14631 16.2788 7.99999 15.536 7.99999H8.465C7.72599 7.99246 6.9928 8.13129 6.3077 8.40847C5.6226 8.68565 4.99914 9.0957 4.47327 9.61497C3.94739 10.1342 3.52951 10.7525 3.2437 11.434C2.95789 12.1156 2.80981 12.8469 2.808 13.586V14C2.808 14.2652 2.91336 14.5196 3.10089 14.7071C3.28843 14.8946 3.54278 15 3.808 15H7C7.26521 15 7.51957 14.8946 7.70711 14.7071C7.89464 14.5196 8 14.2652 8 14V11H16V14C16 14.2652 16.1054 14.5196 16.2929 14.7071C16.4804 14.8946 16.7348 15 17 15H20.192C20.4572 15 20.7116 14.8946 20.8991 14.7071C21.0866 14.5196 21.192 14.2652 21.192 14V13.657Z" fill="#2A293A"/>
</svg>
