<svg width="24" height="24" viewBox="0 0 24 24" fill="none" xmlns="http://www.w3.org/2000/svg">
<g id="call-video">
<g id="main">
<path d="M21 16.1667L17.2105 14.5V9.5L21 7.83333V16.1667Z" fill="#2A293A"/>
<path d="M14.3684 7H3.94737C3.69611 7 3.45514 7.0878 3.27748 7.24408C3.09981 7.40036 3 7.61232 3 7.83333V16.1667C3 16.3877 3.09981 16.5996 3.27748 16.7559C3.45514 16.9122 3.69611 17 3.94737 17H14.3684C14.6197 17 14.8606 16.9122 15.0383 16.7559C15.216 16.5996 15.3158 16.3877 15.3158 16.1667V7.83333C15.3158 7.61232 15.216 7.40036 15.0383 7.24408C14.8606 7.0878 14.6197 7 14.3684 7Z" fill="#2A293A"/>
</g>
</g>
</svg>
