<svg width="24" height="24" viewBox="0 0 24 24" fill="none" xmlns="http://www.w3.org/2000/svg">
<g id="call-decline">
<path id="main" d="M21.192 13.657C21.1921 12.9142 21.0459 12.1786 20.7618 11.4922C20.4776 10.8059 20.061 10.1823 19.5358 9.65696C19.0105 9.13164 18.387 8.71494 17.7007 8.43063C17.0144 8.14633 16.2789 8 15.536 8H8.46501C7.72601 7.99248 6.99282 8.13131 6.30772 8.40848C5.62262 8.68566 4.99916 9.09571 4.47328 9.61498C3.94741 10.1343 3.52952 10.7525 3.24371 11.434C2.9579 12.1156 2.80982 12.847 2.80801 13.586V14C2.80801 14.2652 2.91337 14.5196 3.10091 14.7071C3.28844 14.8946 3.5428 15 3.80801 15H7.00001C7.26523 15 7.51958 14.8946 7.70712 14.7071C7.89466 14.5196 8.00001 14.2652 8.00001 14V11H16V14C16 14.2652 16.1054 14.5196 16.2929 14.7071C16.4804 14.8946 16.7348 15 17 15H20.192C20.4572 15 20.7116 14.8946 20.8991 14.7071C21.0867 14.5196 21.192 14.2652 21.192 14V13.657Z" fill="#2A293A"/>
</g>
</svg>
