<svg width="24" height="24" viewBox="0 0 24 24" fill="none" xmlns="http://www.w3.org/2000/svg">
<path d="M5.29299 5.707C5.48052 5.51953 5.73483 5.41421 5.99999 5.41421C6.26516 5.41421 6.51947 5.51953 6.70699 5.707L9.29299 8.293C9.48047 8.48053 9.58578 8.73484 9.58578 9C9.58578 9.26516 9.48047 9.51947 9.29299 9.707L8.99999 10L6.99999 12L12 17L14 15L14.293 14.707C14.4805 14.5195 14.7348 14.4142 15 14.4142C15.2652 14.4142 15.5195 14.5195 15.707 14.707L18.293 17.293C18.4805 17.4805 18.5858 17.7348 18.5858 18C18.5858 18.2652 18.4805 18.5195 18.293 18.707L18 19C16.9391 20.0608 15.5003 20.6568 14 20.6568C12.4997 20.6568 11.0609 20.0608 9.99999 19L4.99999 14C3.93916 12.9391 3.3432 11.5003 3.3432 10C3.3432 8.49972 3.93916 7.06088 4.99999 6L5.29299 5.707ZM18.473 8.984L19.773 9.791L18.719 11.491L17.732 10.879C17.569 10.7781 17.3805 10.7261 17.1889 10.7293C16.9972 10.7325 16.8105 10.7907 16.651 10.897L16.443 11.036C16.3058 11.1273 16.1932 11.2512 16.1154 11.3965C16.0376 11.5418 15.9969 11.7041 15.997 11.869V13H14V11.869C14.0001 11.7041 13.9594 11.5418 13.8816 11.3965C13.8038 11.2512 13.6912 11.1273 13.554 11.036L13.346 10.897C13.1865 10.7907 12.9998 10.7325 12.8081 10.7293C12.6165 10.7261 12.428 10.7781 12.265 10.879L11.278 11.491L10.224 9.791L11.524 8.984C11.6692 8.89465 11.7892 8.76966 11.8725 8.62088C11.9558 8.47211 11.9997 8.30451 12 8.134V7.866C12 7.69577 11.9566 7.52836 11.8738 7.37961C11.791 7.23086 11.6717 7.10571 11.527 7.016L10.227 6.209L11.281 4.509L12.268 5.121C12.4309 5.22086 12.619 5.27195 12.8101 5.26823C13.0011 5.26451 13.1871 5.20613 13.346 5.1L13.554 4.961C13.6908 4.86995 13.8031 4.74659 13.8809 4.60182C13.9587 4.45705 13.9996 4.29534 14 4.131V3H16V4.131C15.9999 4.29585 16.0406 4.45817 16.1184 4.6035C16.1962 4.74883 16.3088 4.87267 16.446 4.964L16.654 5.103C16.8135 5.20929 17.0002 5.26749 17.1919 5.27068C17.3835 5.27387 17.572 5.22192 17.735 5.121L18.722 4.509L19.776 6.209L18.476 7.016C18.3313 7.10571 18.212 7.23086 18.1292 7.37961C18.0464 7.52836 18.003 7.69577 18.003 7.866V8.134C18.0027 8.30394 18.0456 8.47117 18.1279 8.61989C18.2101 8.76862 18.3289 8.89393 18.473 8.984ZM16 8C16 7.80222 15.9413 7.60888 15.8315 7.44443C15.7216 7.27998 15.5654 7.15181 15.3827 7.07612C15.2 7.00043 14.9989 6.98063 14.8049 7.01921C14.6109 7.0578 14.4327 7.15304 14.2929 7.29289C14.153 7.43275 14.0578 7.61093 14.0192 7.80491C13.9806 7.99889 14.0004 8.19996 14.0761 8.38268C14.1518 8.56541 14.28 8.72159 14.4444 8.83147C14.6089 8.94135 14.8022 9 15 9C15.2652 9 15.5196 8.89464 15.7071 8.70711C15.8946 8.51957 16 8.26522 16 8Z" fill="#2A293A"/>
</svg>
