<svg width="24" height="24" viewBox="0 0 24 24" fill="none" xmlns="http://www.w3.org/2000/svg">
<g id="chat-topic">
<g id="main">
<path d="M13 9.95227V11.9523H11V9.95227H13Z" fill="#2A293A"/>
<path fill-rule="evenodd" clip-rule="evenodd" d="M6 2.99915H18C19.0609 2.99915 20.0783 3.42057 20.8284 4.17072C21.5786 4.92086 22 5.93828 22 6.99915V14.9991C22 16.06 21.5786 17.0774 20.8284 17.8276C20.0783 18.5777 19.0609 18.9991 18 18.9991H14L10.707 22.2921C10.5671 22.432 10.389 22.5272 10.195 22.5657C10.0011 22.6043 9.80005 22.5845 9.61735 22.5088C9.43465 22.4332 9.27848 22.305 9.1686 22.1406C9.05871 21.9762 9.00004 21.7829 9 21.5851V18.9991H6C4.93913 18.9991 3.92172 18.5777 3.17157 17.8276C2.42143 17.0774 2 16.06 2 14.9991V6.99915C2 5.93828 2.42143 4.92086 3.17157 4.17072C3.92172 3.42057 4.93913 2.99915 6 2.99915ZM9 5.95227H11V7.95227H13V5.95227H15V7.95227H17V9.95227H15V11.9523H17V13.9523H15V15.9523H13V13.9523H11V15.9523H9V13.9523H7V11.9523H9V9.95227H7V7.95227H9V5.95227Z" fill="#2A293A"/>
</g>
</g>
</svg>
