<svg width="24" height="24" viewBox="0 0 24 24" fill="none" xmlns="http://www.w3.org/2000/svg">
<path d="M15.3333 5.50559C15.8266 5.17595 16.4067 5 17 5C17.7957 5 18.5587 5.31607 19.1213 5.87868C19.6839 6.44129 20 7.20435 20 8C20 8.59334 19.8241 9.17336 19.4944 9.66671C19.1648 10.1601 18.6962 10.5446 18.1481 10.7716C17.5999 10.9987 16.9967 11.0581 16.4147 10.9424C15.8328 10.8266 15.2982 10.5409 14.8787 10.1213C14.4591 9.70176 14.1734 9.16721 14.0576 8.58527C13.9419 8.00333 14.0013 7.40013 14.2284 6.85195C14.4554 6.30377 14.8399 5.83524 15.3333 5.50559Z" fill="#7357FF"/>
<path d="M12.9487 10.9303L9.99997 13.879L7.12097 11C6.83968 10.7188 6.45822 10.5608 6.06047 10.5608C5.66272 10.5608 5.28126 10.7188 4.99997 11C4.71876 11.2813 4.56079 11.6628 4.56079 12.0605C4.56079 12.4582 4.71876 12.8397 4.99997 13.121L8.93897 17.061C9.07827 17.2004 9.24367 17.311 9.42572 17.3864C9.60777 17.4619 9.80291 17.5007 9.99997 17.5007C10.197 17.5007 10.3922 17.4619 10.5742 17.3864C10.7563 17.311 10.9217 17.2004 11.061 17.061L15.3883 12.7331C14.6666 12.4874 14.0077 12.0788 13.4645 11.5355C13.2759 11.347 13.1036 11.1445 12.9487 10.9303Z" fill="#2A293A"/>
</svg>
