<svg width="24" height="24" viewBox="0 0 24 24" fill="none" xmlns="http://www.w3.org/2000/svg">
<g id="checkbox-partial">
<path id="main" fill-rule="evenodd" clip-rule="evenodd" d="M19 3H5C4.46957 3 3.96086 3.21071 3.58579 3.58579C3.21071 3.96086 3 4.46957 3 5V19C3 19.5304 3.21071 20.0391 3.58579 20.4142C3.96086 20.7893 4.46957 21 5 21H19C19.5304 21 20.0391 20.7893 20.4142 20.4142C20.7893 20.0391 21 19.5304 21 19V5C21 4.46957 20.7893 3.96086 20.4142 3.58579C20.0391 3.21071 19.5304 3 19 3ZM16 13H8C7.73478 13 7.48043 12.8946 7.29289 12.7071C7.10536 12.5196 7 12.2652 7 12C7 11.7348 7.10536 11.4804 7.29289 11.2929C7.48043 11.1054 7.73478 11 8 11H16C16.2652 11 16.5196 11.1054 16.7071 11.2929C16.8946 11.4804 17 11.7348 17 12C17 12.2652 16.8946 12.5196 16.7071 12.7071C16.5196 12.8946 16.2652 13 16 13Z" fill="#2A293A"/>
</g>
</svg>
