<svg width="24" height="24" viewBox="0 0 24 24" fill="none" xmlns="http://www.w3.org/2000/svg">
<g id="checkbox-selected">
<path id="main" fill-rule="evenodd" clip-rule="evenodd" d="M19 3H5C4.46957 3 3.96086 3.21071 3.58579 3.58579C3.21071 3.96086 3 4.46957 3 5V19C3 19.5304 3.21071 20.0391 3.58579 20.4142C3.96086 20.7893 4.46957 21 5 21H19C19.5304 21 20.0391 20.7893 20.4142 20.4142C20.7893 20.0391 21 19.5304 21 19V5C21 4.46957 20.7893 3.96086 20.4142 3.58579C20.0391 3.21071 19.5304 3 19 3ZM17 10L12 15C11.8688 15.1315 11.7129 15.2358 11.5413 15.3069C11.3697 15.3781 11.1858 15.4147 11 15.4147C10.8142 15.4147 10.6303 15.3781 10.4587 15.3069C10.2871 15.2358 10.1312 15.1315 10 15L9 14L7 12C6.73478 11.7348 6.58579 11.3751 6.58579 11C6.58579 10.6249 6.73478 10.2652 7 10C7.26522 9.73478 7.62493 9.58579 8 9.58579C8.37507 9.58579 8.73478 9.73478 9 10L11 12L15 8C15.1313 7.86868 15.2872 7.76451 15.4588 7.69344C15.6304 7.62237 15.8143 7.58579 16 7.58579C16.1857 7.58579 16.3696 7.62237 16.5412 7.69344C16.7128 7.76451 16.8687 7.86868 17 8C17.1313 8.13132 17.2355 8.28722 17.3066 8.4588C17.3776 8.63038 17.4142 8.81428 17.4142 9C17.4142 9.18572 17.3776 9.36962 17.3066 9.5412C17.2355 9.71278 17.1313 9.86868 17 10Z" fill="#2A293A"/>
</g>
</svg>
