<svg width="24" height="24" viewBox="0 0 24 24" fill="none" xmlns="http://www.w3.org/2000/svg">
<path d="M8.93897 17.061L4.99997 13.121C4.71876 12.8397 4.56079 12.4582 4.56079 12.0605C4.56079 11.6628 4.71876 11.2813 4.99997 11C5.28126 10.7188 5.66272 10.5608 6.06047 10.5608C6.45822 10.5608 6.83968 10.7188 7.12097 11L9.99997 13.879L16.879 7C17.1603 6.71879 17.5417 6.56082 17.9395 6.56082C18.3372 6.56082 18.7187 6.71879 19 7C19.2812 7.28129 19.4392 7.66276 19.4392 8.0605C19.4392 8.45825 19.2812 8.83971 19 9.121L11.061 17.061C10.9217 17.2004 10.7563 17.311 10.5742 17.3864C10.3922 17.4619 10.197 17.5007 9.99997 17.5007C9.80291 17.5007 9.60777 17.4619 9.42572 17.3864C9.24367 17.311 9.07827 17.2004 8.93897 17.061Z" fill="#2A293A"/>
</svg>
