<svg width="24" height="24" viewBox="0 0 24 24" fill="none" xmlns="http://www.w3.org/2000/svg">
<g id="chevron-right">
<path id="main" d="M16.293 12.707C16.4805 12.5195 16.5858 12.2652 16.5858 12C16.5858 11.7348 16.4805 11.4805 16.293 11.293L15.5 10.5L11.707 6.707C11.5671 6.56719 11.389 6.47199 11.195 6.43342C11.0011 6.39485 10.8 6.41465 10.6173 6.49032C10.4346 6.56599 10.2785 6.69413 10.1686 6.85854C10.0587 7.02295 10 7.21625 10 7.414V7.586C10.0001 7.8512 10.1055 8.10551 10.293 8.293L14 12L10.293 15.707C10.1055 15.8945 10.0001 16.1488 10 16.414V16.586C10 16.7838 10.0587 16.9771 10.1686 17.1415C10.2785 17.3059 10.4346 17.434 10.6173 17.5097C10.8 17.5854 11.0011 17.6052 11.195 17.5666C11.389 17.528 11.5671 17.4328 11.707 17.293L15.5 13.5L16.293 12.707Z" fill="#2A293A"/>
</g>
</svg>
