<svg width="24" height="24" viewBox="0 0 24 24" fill="none" xmlns="http://www.w3.org/2000/svg">
<path d="M12.707 8.707C12.5195 8.51953 12.2652 8.41422 12 8.41422C11.7348 8.41422 11.4805 8.51953 11.293 8.707L10.5 9.5L6.707 13.293C6.56719 13.4329 6.47199 13.611 6.43342 13.805C6.39485 13.9989 6.41465 14.2 6.49032 14.3827C6.56599 14.5654 6.69413 14.7215 6.85854 14.8314C7.02295 14.9413 7.21625 15 7.414 15H7.586C7.8512 14.9999 8.10551 14.8946 8.293 14.707L12 11L15.707 14.707C15.8945 14.8946 16.1488 14.9999 16.414 15H16.586C16.7838 15 16.9771 14.9413 17.1415 14.8314C17.3059 14.7215 17.434 14.5654 17.5097 14.3827C17.5854 14.2 17.6052 13.9989 17.5666 13.805C17.528 13.611 17.4328 13.4329 17.293 13.293L13.5 9.5L12.707 8.707Z" fill="#2A293A"/>
</svg>
