<svg width="24" height="24" viewBox="0 0 24 24" fill="none" xmlns="http://www.w3.org/2000/svg">
<path d="M7.707 11.293C7.51953 11.4805 7.41422 11.7348 7.41422 12C7.41422 12.2652 7.51953 12.5195 7.707 12.707L8.5 13.5L12.293 17.293C12.4329 17.4328 12.611 17.528 12.805 17.5666C12.9989 17.6052 13.2 17.5854 13.3827 17.5097C13.5654 17.434 13.7215 17.3059 13.8314 17.1415C13.9413 16.9771 14 16.7838 14 16.586V16.414C13.9999 16.1488 13.8946 15.8945 13.707 15.707L10 12L13.707 8.293C13.8946 8.10551 13.9999 7.8512 14 7.586V7.414C14 7.21625 13.9413 7.02295 13.8314 6.85854C13.7215 6.69413 13.5654 6.56599 13.3827 6.49032C13.2 6.41465 12.9989 6.39485 12.805 6.43342C12.611 6.47199 12.4329 6.56719 12.293 6.707L8.5 10.5L7.707 11.293Z" fill="#2A293A"/>
</svg>
