<svg width="24" height="24" viewBox="0 0 24 24" fill="none" xmlns="http://www.w3.org/2000/svg">
<g id="chevron-left">
<path id="main" d="M9.26674 11.3671C9.09595 11.535 9 11.7626 9 12C9 12.2374 9.09595 12.465 9.26674 12.6329L9.98921 13.3427L13.4448 16.7379C13.5722 16.8631 13.7346 16.9483 13.9113 16.9828C14.088 17.0173 14.2711 16.9996 14.4376 16.9319C14.604 16.8641 14.7463 16.7494 14.8464 16.6023C14.9465 16.4551 15 16.2821 15 16.1051V15.9511C14.9999 15.7137 14.9039 15.4861 14.7331 15.3182L11.3558 12L14.7331 8.68176C14.9039 8.51393 14.9999 8.28628 15 8.0489V7.89494C15 7.71793 14.9465 7.5449 14.8464 7.39773C14.7463 7.25056 14.604 7.13586 14.4376 7.06813C14.2711 7.00039 14.088 6.98267 13.9113 7.01719C13.7346 7.05171 13.5722 7.13693 13.4448 7.26208L9.98921 10.6573L9.26674 11.3671Z" fill="#2A293A"/>
</g>
</svg>
