<svg width="24" height="24" viewBox="0 0 24 24" fill="none" xmlns="http://www.w3.org/2000/svg">
<g id="chevron-up">
<path id="main" d="M12.6329 9.26674C12.465 9.09595 12.2374 9 12 9C11.7626 9 11.535 9.09595 11.3671 9.26674L10.6573 9.98921L7.26208 13.4448C7.13693 13.5722 7.05171 13.7346 7.01719 13.9113C6.98267 14.088 7.00039 14.2711 7.06813 14.4376C7.13586 14.604 7.25056 14.7463 7.39773 14.8464C7.5449 14.9465 7.71793 15 7.89494 15H8.0489C8.28628 14.9999 8.51393 14.9039 8.68176 14.7331L12 11.3558L15.3182 14.7331C15.4861 14.9039 15.7137 14.9999 15.9511 15H16.1051C16.2821 15 16.4551 14.9465 16.6023 14.8464C16.7494 14.7463 16.8641 14.604 16.9319 14.4376C16.9996 14.2711 17.0173 14.088 16.9828 13.9113C16.9483 13.7346 16.8631 13.5722 16.7379 13.4448L13.3427 9.98921L12.6329 9.26674Z" fill="#2A293A"/>
</g>
</svg>
