<svg width="24" height="24" viewBox="0 0 24 24" fill="none" xmlns="http://www.w3.org/2000/svg">
<g id="chevron-left">
<path id="main" d="M7.70697 11.293C7.5195 11.4805 7.41418 11.7348 7.41418 12C7.41418 12.2652 7.5195 12.5195 7.70697 12.707L8.49997 13.5L12.293 17.293C12.4328 17.4328 12.611 17.528 12.8049 17.5666C12.9989 17.6052 13.1999 17.5854 13.3826 17.5097C13.5653 17.434 13.7215 17.3059 13.8314 17.1415C13.9413 16.9771 13.9999 16.7838 14 16.586V16.414C13.9999 16.1488 13.8945 15.8945 13.707 15.707L9.99997 12L13.707 8.293C13.8945 8.10551 13.9999 7.8512 14 7.586V7.414C13.9999 7.21625 13.9413 7.02295 13.8314 6.85854C13.7215 6.69413 13.5653 6.56599 13.3826 6.49032C13.1999 6.41465 12.9989 6.39485 12.8049 6.43342C12.611 6.47199 12.4328 6.56719 12.293 6.707L8.49997 10.5L7.70697 11.293Z" fill="#2A293A"/>
</g>
</svg>
