<svg width="24" height="24" viewBox="0 0 24 24" fill="none" xmlns="http://www.w3.org/2000/svg">
<g id="chevron-up">
<path id="main" d="M12.707 8.707C12.5194 8.51953 12.2651 8.41422 12 8.41422C11.7348 8.41422 11.4805 8.51953 11.293 8.707L10.5 9.5L6.70697 13.293C6.56716 13.4329 6.47196 13.611 6.43339 13.805C6.39482 13.9989 6.41462 14.2 6.49029 14.3827C6.56596 14.5654 6.6941 14.7215 6.85851 14.8314C7.02292 14.9413 7.21622 15 7.41397 15H7.58597C7.85117 14.9999 8.10548 14.8946 8.29297 14.707L12 11L15.707 14.707C15.8945 14.8946 16.1488 14.9999 16.414 15H16.586C16.7837 15 16.977 14.9413 17.1414 14.8314C17.3058 14.7215 17.434 14.5654 17.5096 14.3827C17.5853 14.2 17.6051 13.9989 17.5666 13.805C17.528 13.611 17.4328 13.4329 17.293 13.293L13.5 9.5L12.707 8.707Z" fill="#2A293A"/>
</g>
</svg>
