<svg width="24" height="24" viewBox="0 0 24 24" fill="none" xmlns="http://www.w3.org/2000/svg">
<g id="chevron-down">
<path id="main" d="M11.293 15.293C11.4805 15.4805 11.7348 15.5858 12 15.5858C12.2652 15.5858 12.5195 15.4805 12.707 15.293L13.5 14.5L17.293 10.707C17.4328 10.5671 17.528 10.389 17.5666 10.195C17.6052 10.0011 17.5854 9.80005 17.5097 9.61735C17.434 9.43465 17.3059 9.27848 17.1415 9.1686C16.9771 9.05871 16.7838 9.00004 16.586 9H16.414C16.1488 9.00006 15.8945 9.10545 15.707 9.293L12 13L8.293 9.293C8.10551 9.10545 7.8512 9.00006 7.586 9H7.414C7.21625 9.00004 7.02295 9.05871 6.85854 9.1686C6.69413 9.27848 6.56599 9.43465 6.49032 9.61735C6.41465 9.80005 6.39485 10.0011 6.43342 10.195C6.47199 10.389 6.56719 10.5671 6.707 10.707L10.5 14.5L11.293 15.293Z" fill="#2A293A"/>
</g>
</svg>
