<svg width="24" height="24" viewBox="0 0 24 24" fill="none" xmlns="http://www.w3.org/2000/svg">
<g id="chevron-right">
<path id="main" d="M14.7333 12.6329C14.9041 12.465 15 12.2374 15 12C15 11.7626 14.9041 11.535 14.7333 11.3671L14.0108 10.6573L10.5552 7.26208C10.4278 7.13693 10.2654 7.05171 10.0887 7.01719C9.91204 6.98267 9.72888 7.00039 9.56243 7.06813C9.39599 7.13586 9.25371 7.25056 9.1536 7.39773C9.05349 7.5449 9.00004 7.71793 9 7.89494V8.0489C9.00005 8.28628 9.09607 8.51393 9.26694 8.68176L12.6442 12L9.26694 15.3182C9.09607 15.4861 9.00005 15.7137 9 15.9511V16.1051C9.00004 16.2821 9.05349 16.4551 9.1536 16.6023C9.25371 16.7494 9.39599 16.8641 9.56243 16.9319C9.72888 16.9996 9.91204 17.0173 10.0887 16.9828C10.2654 16.9483 10.4278 16.8631 10.5552 16.7379L14.0108 13.3427L14.7333 12.6329Z" fill="#2A293A"/>
</g>
</svg>
