<svg width="24" height="24" viewBox="0 0 24 24" fill="none" xmlns="http://www.w3.org/2000/svg">
<g id="chevron-down">
<path id="main" d="M11.3671 14.7333C11.535 14.9041 11.7626 15 12 15C12.2374 15 12.465 14.9041 12.6329 14.7333L13.3427 14.0108L16.7379 10.5552C16.8631 10.4278 16.9483 10.2654 16.9828 10.0887C17.0173 9.91204 16.9996 9.72888 16.9319 9.56243C16.8641 9.39599 16.7494 9.25371 16.6023 9.1536C16.4551 9.05349 16.2821 9.00004 16.1051 9H15.9511C15.7137 9.00005 15.4861 9.09607 15.3182 9.26694L12 12.6442L8.68176 9.26694C8.51393 9.09607 8.28628 9.00005 8.0489 9H7.89494C7.71793 9.00004 7.5449 9.05349 7.39773 9.1536C7.25056 9.25371 7.13586 9.39599 7.06813 9.56243C7.00039 9.72888 6.98267 9.91204 7.01719 10.0887C7.05171 10.2654 7.13693 10.4278 7.26208 10.5552L10.6573 14.0108L11.3671 14.7333Z" fill="#2A293A"/>
</g>
</svg>
