<svg width="24" height="24" viewBox="0 0 24 24" fill="none" xmlns="http://www.w3.org/2000/svg">
<g id="click">
<g id="main">
<path d="M12 13C11.7348 13 11.4804 13.1054 11.2929 13.2929C11.1053 13.4804 11 13.7348 11 14V15C11 15.2652 11.1053 15.5196 11.2929 15.7071C11.4804 15.8946 11.7348 16 12 16C12.2652 16 12.5196 15.8946 12.7071 15.7071C12.8946 15.5196 13 15.2652 13 15V14C13 13.7348 12.8946 13.4804 12.7071 13.2929C12.5196 13.1054 12.2652 13 12 13Z" fill="#2A293A"/>
<path d="M16 13C15.7348 13 15.4804 13.1054 15.2929 13.2929C15.1053 13.4804 15 13.7348 15 14V15C15 15.2652 15.1053 15.5196 15.2929 15.7071C15.4804 15.8946 15.7348 16 16 16C16.2652 16 16.5196 15.8946 16.7071 15.7071C16.8946 15.5196 17 15.2652 17 15V14C17 13.7348 16.8946 13.4804 16.7071 13.2929C16.5196 13.1054 16.2652 13 16 13Z" fill="#2A293A"/>
<path d="M17.007 6.007H13V5C13 4.20435 12.6839 3.44129 12.1213 2.87868C11.5587 2.31607 10.7956 2 9.99998 2C9.20433 2 8.44127 2.31607 7.87866 2.87868C7.31605 3.44129 6.99998 4.20435 6.99998 5V9.19L5.58198 8.357C4.98432 8.2076 4.35516 8.24581 3.77998 8.46645C3.2048 8.68709 2.71149 9.07945 2.36707 9.59023C2.02266 10.101 1.84384 10.7054 1.85492 11.3214C1.86599 11.9373 2.06643 12.5349 2.42898 13.033L6.99998 19.318V20C6.99998 20.5304 7.2107 21.0391 7.58577 21.4142C7.96084 21.7893 8.46955 22 8.99998 22H16.383C16.7537 22.0004 17.1172 21.8977 17.4329 21.7034C17.7486 21.5092 18.0042 21.231 18.171 20.9L20.788 15.672C20.9283 15.3928 21.0009 15.0845 21 14.772V10C21 8.94099 20.5793 7.92536 19.8305 7.17652C19.0816 6.42769 18.066 6.007 17.007 6.007ZM19 14.3C19 14.6103 18.9277 14.9164 18.789 15.194L16.382 20.008L8.99998 20V19.326C8.99993 18.9032 8.86623 18.4912 8.61798 18.149L4.04598 11.856C3.93143 11.6993 3.86496 11.5127 3.85468 11.3188C3.8444 11.125 3.89075 10.9324 3.98808 10.7644C4.0854 10.5965 4.2295 10.4605 4.40279 10.3731C4.57608 10.2856 4.77107 10.2505 4.96398 10.272L6.99998 11.553V13C6.99998 13.2652 7.10534 13.5196 7.29288 13.7071C7.48041 13.8946 7.73477 14 7.99998 14C8.2652 14 8.51955 13.8946 8.70709 13.7071C8.89463 13.5196 8.99998 13.2652 8.99998 13V4.993C8.99998 4.72778 9.10534 4.47343 9.29288 4.28589C9.48041 4.09836 9.73477 3.993 9.99998 3.993C10.2652 3.993 10.5196 4.09836 10.7071 4.28589C10.8946 4.47343 11 4.72778 11 4.993V10.007C11 10.2722 11.1053 10.5266 11.2929 10.7141C11.4804 10.9016 11.7348 11.007 12 11.007C12.2652 11.007 12.5196 10.9016 12.7071 10.7141C12.8946 10.5266 13 10.2722 13 10.007V8.007H15V10.007C15 10.2722 15.1053 10.5266 15.2929 10.7141C15.4804 10.9016 15.7348 11.007 16 11.007C16.2652 11.007 16.5196 10.9016 16.7071 10.7141C16.8946 10.5266 17 10.2722 17 10.007V8.007C17.5292 8.007 18.0369 8.21675 18.4117 8.59031C18.7866 8.96387 18.9981 9.47078 19 10V14.3Z" fill="#2A293A"/>
</g>
</g>
</svg>
