<svg width="24" height="24" viewBox="0 0 24 24" fill="none" xmlns="http://www.w3.org/2000/svg">
<g id="click">
<g id="main">
<path d="M12.4787 12.8C12.257 12.8 12.0445 12.8843 11.8877 13.0343C11.731 13.1843 11.643 13.3878 11.643 13.6V14.4C11.643 14.6122 11.731 14.8157 11.8877 14.9657C12.0445 15.1157 12.257 15.2 12.4787 15.2C12.7003 15.2 12.9129 15.1157 13.0696 14.9657C13.2263 14.8157 13.3144 14.6122 13.3144 14.4V13.6C13.3144 13.3878 13.2263 13.1843 13.0696 13.0343C12.9129 12.8843 12.7003 12.8 12.4787 12.8Z" fill="#2A293A"/>
<path d="M15.8215 12.8C15.5998 12.8 15.3873 12.8843 15.2305 13.0343C15.0738 13.1843 14.9858 13.3878 14.9858 13.6V14.4C14.9858 14.6122 15.0738 14.8157 15.2305 14.9657C15.3873 15.1157 15.5998 15.2 15.8215 15.2C16.0431 15.2 16.2557 15.1157 16.4124 14.9657C16.5691 14.8157 16.6572 14.6122 16.6572 14.4V13.6C16.6572 13.3878 16.5691 13.1843 16.4124 13.0343C16.2557 12.8843 16.0431 12.8 15.8215 12.8Z" fill="#2A293A"/>
<path d="M16.663 7.2056H13.3144V6.4C13.3144 5.76348 13.0502 5.15303 12.5801 4.70294C12.1099 4.25286 11.4722 4 10.8073 4C10.1423 4 9.50464 4.25286 9.03447 4.70294C8.56429 5.15303 8.30015 5.76348 8.30015 6.4V9.752L7.11513 9.0856C6.61566 8.96608 6.08987 8.99665 5.60919 9.17316C5.12851 9.34967 4.71624 9.66356 4.42842 10.0722C4.14059 10.4808 3.99115 10.9643 4.00041 11.4571C4.00966 11.9499 4.17716 12.4279 4.48015 12.8264L8.30015 17.8544V18.4C8.30015 18.8243 8.47625 19.2313 8.7897 19.5314C9.10315 19.8314 9.52827 20 9.97156 20H16.1416C16.4513 20.0003 16.7551 19.9182 17.019 19.7628C17.2828 19.6074 17.4964 19.3848 17.6358 19.12L19.8228 14.9376C19.9401 14.7142 20.0007 14.4676 20 14.2176V10.4C20 9.55279 19.6484 8.74028 19.0226 8.14122C18.3968 7.54215 17.548 7.2056 16.663 7.2056ZM18.3286 13.84C18.3286 14.0883 18.2682 14.3331 18.1523 14.5552L16.1407 18.4064L9.97156 18.4V17.8608C9.97152 17.5226 9.85978 17.193 9.65232 16.9192L5.83149 11.8848C5.73576 11.7594 5.68021 11.6101 5.67162 11.4551C5.66302 11.3 5.70176 11.1459 5.78309 11.0115C5.86443 10.8772 5.98485 10.7684 6.12967 10.6985C6.27449 10.6285 6.43745 10.6004 6.59866 10.6176L8.30015 11.6424V12.8C8.30015 13.0122 8.3882 13.2157 8.54492 13.3657C8.70165 13.5157 8.91421 13.6 9.13586 13.6C9.3575 13.6 9.57006 13.5157 9.72679 13.3657C9.88351 13.2157 9.97156 13.0122 9.97156 12.8V6.3944C9.97156 6.18223 10.0596 5.97874 10.2163 5.82871C10.3731 5.67869 10.5856 5.5944 10.8073 5.5944C11.0289 5.5944 11.2415 5.67869 11.3982 5.82871C11.5549 5.97874 11.643 6.18223 11.643 6.3944V10.4056C11.643 10.6178 11.731 10.8213 11.8877 10.9713C12.0445 11.1213 12.257 11.2056 12.4787 11.2056C12.7003 11.2056 12.9129 11.1213 13.0696 10.9713C13.2263 10.8213 13.3144 10.6178 13.3144 10.4056V8.8056H14.9858V10.4056C14.9858 10.6178 15.0738 10.8213 15.2305 10.9713C15.3873 11.1213 15.5998 11.2056 15.8215 11.2056C16.0431 11.2056 16.2557 11.1213 16.4124 10.9713C16.5691 10.8213 16.6572 10.6178 16.6572 10.4056V8.8056C17.0995 8.8056 17.5237 8.9734 17.837 9.27225C18.1503 9.5711 18.327 9.97662 18.3286 10.4V13.84Z" fill="#2A293A"/>
</g>
</g>
</svg>
