<svg width="24" height="24" viewBox="0 0 24 24" fill="none" xmlns="http://www.w3.org/2000/svg">
<g id="close">
<g id="main">
<path d="M7.05027 8.46447C6.65975 8.07394 6.65975 7.44078 7.05027 7.05025C7.4408 6.65973 8.07396 6.65973 8.46449 7.05025L16.9498 15.5355C17.3403 15.9261 17.3403 16.5592 16.9498 16.9497C16.5592 17.3403 15.9261 17.3403 15.5356 16.9497L7.05027 8.46447Z" fill="#2A293A"/>
<path d="M8.46449 16.9497C8.07396 17.3403 7.4408 17.3403 7.05027 16.9497C6.65975 16.5592 6.65975 15.9261 7.05027 15.5355L15.5356 7.05025C15.9261 6.65973 16.5592 6.65973 16.9498 7.05025C17.3403 7.44078 17.3403 8.07394 16.9498 8.46447L8.46449 16.9497Z" fill="#2A293A"/>
</g>
</g>
</svg>
