<svg width="24" height="24" viewBox="0 0 24 24" fill="none" xmlns="http://www.w3.org/2000/svg">
<g id="close">
<path id="main" d="M7.27934 7.27934C6.90689 7.65179 6.90689 8.25565 7.27934 8.6281L10.6512 12L7.27934 15.3719C6.90689 15.7444 6.90689 16.3482 7.27934 16.7207C7.65179 17.0931 8.25565 17.0931 8.6281 16.7207L12 13.3488L15.3719 16.7207C15.7444 17.0931 16.3482 17.0931 16.7207 16.7207C17.0931 16.3482 17.0931 15.7443 16.7207 15.3719L13.3488 12L16.7207 8.6281C17.0931 8.25565 17.0931 7.65179 16.7207 7.27934C16.3482 6.9069 15.7444 6.9069 15.3719 7.27934L12 10.6512L8.6281 7.27934C8.25565 6.90689 7.65179 6.90689 7.27934 7.27934Z" fill="#2A293A"/>
</g>
</svg>
