<svg width="24" height="24" viewBox="0 0 24 24" fill="none" xmlns="http://www.w3.org/2000/svg">
<g id="cogwheel">
<path id="main" d="M18.111 12.784C18.1471 12.5241 18.1664 12.2622 18.1686 12C18.1664 11.7378 18.1471 11.4759 18.111 11.216L19.8462 9.89601C19.9228 9.8362 19.9749 9.75169 19.993 9.65778C20.0111 9.56387 19.994 9.46675 19.9449 9.38401L18.3002 6.61603C18.2636 6.55439 18.2108 6.50336 18.1472 6.4682C18.0836 6.43305 18.0115 6.41504 17.9383 6.41603C17.8906 6.4155 17.8432 6.42364 17.7985 6.44003L15.7508 7.24002C15.3257 6.91934 14.8583 6.65566 14.361 6.45603L14.0485 4.33604C14.0349 4.24191 13.9865 4.15585 13.9123 4.09399C13.8381 4.03213 13.7433 3.99872 13.6456 4.00004H10.3561C10.2584 3.99872 10.1636 4.03213 10.0894 4.09399C10.0152 4.15585 9.9668 4.24191 9.95319 4.33604L9.64069 6.45603C9.14502 6.65876 8.67798 6.92223 8.2509 7.24002L6.20322 6.44003C6.15554 6.42429 6.10555 6.41618 6.0552 6.41603C5.98344 6.41645 5.91305 6.43513 5.85101 6.47022C5.78898 6.5053 5.73746 6.55557 5.70158 6.61603L4.05686 9.38401C4.00653 9.46644 3.98878 9.56388 4.00694 9.65811C4.02511 9.75235 4.07793 9.83692 4.15554 9.89601L5.89072 11.216C5.8549 11.4759 5.83567 11.7378 5.83316 12C5.83567 12.2622 5.8549 12.5241 5.89072 12.784L4.15554 14.104C4.07894 14.1638 4.02688 14.2483 4.00878 14.3422C3.99068 14.4361 4.00773 14.5332 4.05686 14.616L5.70158 17.384C5.73815 17.4456 5.79096 17.4966 5.85457 17.5318C5.91818 17.567 5.99027 17.585 6.06342 17.584C6.11115 17.5845 6.15856 17.5764 6.20322 17.56L8.2509 16.76C8.676 17.0807 9.14344 17.3443 9.64069 17.544L9.95319 19.664C9.9668 19.7581 10.0152 19.8442 10.0894 19.906C10.1636 19.9679 10.2584 20.0013 10.3561 20H13.6456C13.7433 20.0013 13.8381 19.9679 13.9123 19.906C13.9865 19.8442 14.0349 19.7581 14.0485 19.664L14.361 17.544C14.8567 17.3412 15.3238 17.0778 15.7508 16.76L17.7985 17.56C17.8462 17.5757 17.8962 17.5838 17.9465 17.584C18.0183 17.5836 18.0887 17.5649 18.1507 17.5298C18.2128 17.4947 18.2643 17.4444 18.3002 17.384L19.9449 14.616C19.994 14.5332 20.0111 14.4361 19.993 14.3422C19.9749 14.2483 19.9228 14.1638 19.8462 14.104L18.111 12.784ZM17.412 15.688L16.3676 15.28L15.5124 14.944L14.7722 15.488C14.4557 15.7233 14.1104 15.9194 13.7443 16.072L12.8726 16.416L12.741 17.32L12.5765 18.4H11.4252L11.269 17.32L11.1374 16.416L10.2657 16.072C9.9054 15.9246 9.56557 15.7338 9.25418 15.504L8.50583 14.944L7.63413 15.288L6.58973 15.696L6.01408 14.728L6.90223 14.056L7.63413 13.496L7.519 12.592C7.49433 12.344 7.47788 12.16 7.47788 12C7.47788 11.84 7.49433 11.656 7.519 11.416L7.63413 10.512L6.90223 9.95201L6.01408 9.28001L6.58973 8.31202L7.63413 8.72002L8.48939 9.05601L9.22951 8.51202C9.54602 8.27675 9.89131 8.08059 10.2575 7.92802L11.1292 7.58402L11.2607 6.68002L11.4252 5.60003H12.5683L12.7245 6.68002L12.8561 7.58402L13.7278 7.92802C14.0881 8.07539 14.4279 8.26622 14.7393 8.49602L15.4877 9.05601L16.3594 8.71202L17.4038 8.30402L17.9794 9.27201L17.0995 9.95201L16.3676 10.512L16.4827 11.416C16.5101 11.6095 16.5239 11.8046 16.5239 12C16.5239 12.168 16.5074 12.344 16.4827 12.584L16.3676 13.488L17.0995 14.048L17.9877 14.72L17.412 15.688ZM14.468 12C14.468 12.4747 14.3233 12.9387 14.0522 13.3334C13.7811 13.728 13.3958 14.0357 12.945 14.2173C12.4942 14.399 11.9981 14.4465 11.5196 14.3539C11.041 14.2613 10.6014 14.0327 10.2564 13.697C9.91135 13.3614 9.67638 12.9338 9.58119 12.4682C9.486 12.0027 9.53485 11.5201 9.72158 11.0816C9.90831 10.643 10.2245 10.2682 10.6302 10.0045C11.0359 9.74077 11.5129 9.60001 12.0009 9.60001C12.6552 9.60001 13.2827 9.85287 13.7454 10.303C14.208 10.753 14.468 11.3635 14.468 12Z" fill="#2A293A"/>
</g>
</svg>
