<svg width="24" height="24" viewBox="0 0 24 24" fill="none" xmlns="http://www.w3.org/2000/svg">
<g id="cogwheel">
<path id="main" d="M19.43 12.98C19.4739 12.6551 19.4973 12.3278 19.5 12C19.4973 11.6722 19.4739 11.3449 19.43 11.02L21.54 9.36999C21.6332 9.29522 21.6965 9.18959 21.7185 9.0722C21.7405 8.9548 21.7197 8.83341 21.66 8.72999L19.66 5.26999C19.6155 5.19294 19.5513 5.12916 19.474 5.08521C19.3966 5.04126 19.309 5.01875 19.22 5.01999C19.162 5.01933 19.1043 5.02951 19.05 5.04999L16.56 6.04999C16.0431 5.64914 15.4747 5.31952 14.87 5.06999L14.49 2.41999C14.4735 2.30233 14.4146 2.19475 14.3244 2.11742C14.2341 2.0401 14.1188 1.99834 14 1.99999H10C9.88121 1.99834 9.76589 2.0401 9.67567 2.11742C9.58546 2.19475 9.52656 2.30233 9.51002 2.41999L9.13001 5.06999C8.52728 5.32341 7.95935 5.65274 7.44001 6.04999L4.95001 5.04999C4.89203 5.03032 4.83124 5.02018 4.77001 5.01999C4.68276 5.02051 4.59716 5.04386 4.52172 5.08772C4.44629 5.13158 4.38364 5.19442 4.34001 5.26999L2.34001 8.72999C2.27881 8.83302 2.25723 8.95482 2.27932 9.07262C2.30141 9.19041 2.36564 9.29612 2.46001 9.36999L4.57001 11.02C4.52645 11.3449 4.50307 11.6722 4.50001 12C4.50307 12.3278 4.52645 12.6551 4.57001 12.98L2.46001 14.63C2.36687 14.7047 2.30356 14.8104 2.28155 14.9278C2.25954 15.0452 2.28028 15.1666 2.34001 15.27L4.34001 18.73C4.38449 18.807 4.44871 18.8708 4.52605 18.9148C4.6034 18.9587 4.69107 18.9812 4.78001 18.98C4.83805 18.9806 4.8957 18.9705 4.95001 18.95L7.44001 17.95C7.95694 18.3508 8.52535 18.6804 9.13001 18.93L9.51002 21.58C9.52656 21.6976 9.58546 21.8052 9.67567 21.8826C9.76589 21.9599 9.88121 22.0016 10 22H14C14.1188 22.0016 14.2341 21.9599 14.3244 21.8826C14.4146 21.8052 14.4735 21.6976 14.49 21.58L14.87 18.93C15.4728 18.6766 16.0407 18.3472 16.56 17.95L19.05 18.95C19.108 18.9697 19.1688 18.9798 19.23 18.98C19.3173 18.9795 19.4029 18.9561 19.4783 18.9122C19.5537 18.8684 19.6164 18.8056 19.66 18.73L21.66 15.27C21.7197 15.1666 21.7405 15.0452 21.7185 14.9278C21.6965 14.8104 21.6332 14.7047 21.54 14.63L19.43 12.98ZM18.58 16.61L17.31 16.1L16.27 15.68L15.37 16.36C14.9851 16.6541 14.5653 16.8993 14.12 17.09L13.06 17.52L12.9 18.65L12.7 20H11.3L11.11 18.65L10.95 17.52L9.89002 17.09C9.4519 16.9058 9.03866 16.6672 8.66001 16.38L7.75001 15.68L6.69001 16.11L5.42001 16.62L4.72001 15.41L5.80001 14.57L6.69001 13.87L6.55001 12.74C6.52001 12.43 6.50001 12.2 6.50001 12C6.50001 11.8 6.52001 11.57 6.55001 11.27L6.69001 10.14L5.80001 9.43999L4.72001 8.59999L5.42001 7.38999L6.69001 7.89999L7.73001 8.31999L8.63001 7.63999C9.01489 7.3459 9.43477 7.1007 9.88001 6.90999L10.94 6.47999L11.1 5.34999L11.3 3.99999H12.69L12.88 5.34999L13.04 6.47999L14.1 6.90999C14.5381 7.0942 14.9514 7.33274 15.33 7.61999L16.24 8.31999L17.3 7.88999L18.57 7.37999L19.27 8.58999L18.2 9.43999L17.31 10.14L17.45 11.27C17.4833 11.5119 17.5 11.7558 17.5 12C17.5 12.21 17.48 12.43 17.45 12.73L17.31 13.86L18.2 14.56L19.28 15.4L18.58 16.61ZM15 12C15 12.5933 14.8241 13.1733 14.4944 13.6667C14.1648 14.16 13.6962 14.5446 13.1481 14.7716C12.5999 14.9987 11.9967 15.0581 11.4147 14.9423C10.8328 14.8266 10.2983 14.5409 9.87869 14.1213C9.45914 13.7017 9.17341 13.1672 9.05766 12.5853C8.9419 12.0033 9.00131 11.4001 9.22838 10.8519C9.45544 10.3038 9.83996 9.83522 10.3333 9.50558C10.8267 9.17593 11.4067 8.99999 12 8.99999C12.7957 8.99999 13.5587 9.31606 14.1213 9.87866C14.6839 10.4413 15 11.2043 15 12Z" fill="#2A293A"/>
</g>
</svg>
