<svg width="24" height="24" viewBox="0 0 24 24" fill="none" xmlns="http://www.w3.org/2000/svg">
<g id="collection">
<path id="main" d="M7.91667 5C8.49353 5 9.05744 5.17106 9.53708 5.49155C10.0167 5.81203 10.3906 6.26756 10.6113 6.80051C10.8321 7.33346 10.8898 7.9199 10.7773 8.48568C10.6648 9.05146 10.387 9.57116 9.97906 9.97906C9.57116 10.387 9.05146 10.6648 8.48568 10.7773C7.9199 10.8898 7.33346 10.8321 6.80051 10.6113C6.26756 10.3906 5.81203 10.0167 5.49155 9.53708C5.17106 9.05744 5 8.49353 5 7.91667C5 7.14312 5.30729 6.40125 5.85427 5.85427C6.40125 5.30729 7.14312 5 7.91667 5ZM13.1667 7.91667C13.1667 8.49353 13.3377 9.05744 13.6582 9.53708C13.9787 10.0167 14.4342 10.3906 14.9672 10.6113C15.5001 10.8321 16.0866 10.8898 16.6523 10.7773C17.2181 10.6648 17.7378 10.387 18.1457 9.97906C18.5536 9.57116 18.8314 9.05146 18.944 8.48568C19.0565 7.9199 18.9987 7.33346 18.778 6.80051C18.5572 6.26756 18.1834 5.81203 17.7037 5.49155C17.2241 5.17106 16.6602 5 16.0833 5C15.3098 5 14.5679 5.30729 14.0209 5.85427C13.474 6.40125 13.1667 7.14312 13.1667 7.91667ZM5 16.0833C5 16.6602 5.17106 17.2241 5.49155 17.7037C5.81203 18.1834 6.26756 18.5572 6.80051 18.778C7.33346 18.9987 7.9199 19.0565 8.48568 18.944C9.05146 18.8314 9.57116 18.5536 9.97906 18.1457C10.387 17.7378 10.6648 17.2181 10.7773 16.6523C10.8898 16.0866 10.8321 15.5001 10.6113 14.9672C10.3906 14.4342 10.0167 13.9787 9.53708 13.6582C9.05744 13.3377 8.49353 13.1667 7.91667 13.1667C7.14312 13.1667 6.40125 13.474 5.85427 14.0209C5.30729 14.5679 5 15.3098 5 16.0833ZM13.1667 16.0833C13.1667 16.6602 13.3377 17.2241 13.6582 17.7037C13.9787 18.1834 14.4342 18.5572 14.9672 18.778C15.5001 18.9987 16.0866 19.0565 16.6523 18.944C17.2181 18.8314 17.7378 18.5536 18.1457 18.1457C18.5536 17.7378 18.8314 17.2181 18.944 16.6523C19.0565 16.0866 18.9987 15.5001 18.778 14.9672C18.5572 14.4342 18.1834 13.9787 17.7037 13.6582C17.2241 13.3377 16.6602 13.1667 16.0833 13.1667C15.3098 13.1667 14.5679 13.474 14.0209 14.0209C13.474 14.5679 13.1667 15.3098 13.1667 16.0833Z" fill="#2A293A"/>
</g>
</svg>
