<svg width="24" height="24" viewBox="0 0 24 24" fill="none" xmlns="http://www.w3.org/2000/svg">
<path d="M8.5 6C8.99445 6 9.4778 6.14662 9.88893 6.42133C10.3 6.69603 10.6205 7.08648 10.8097 7.54329C10.9989 8.00011 11.0484 8.50277 10.952 8.98773C10.8555 9.47268 10.6174 9.91814 10.2678 10.2678C9.91814 10.6174 9.47268 10.8555 8.98773 10.952C8.50277 11.0484 8.00011 10.9989 7.54329 10.8097C7.08648 10.6205 6.69603 10.3 6.42133 9.88893C6.14662 9.4778 6 8.99445 6 8.5C6 7.83696 6.26339 7.20107 6.73223 6.73223C7.20107 6.26339 7.83696 6 8.5 6ZM13 8.5C13 8.99445 13.1466 9.4778 13.4213 9.88893C13.696 10.3 14.0865 10.6205 14.5433 10.8097C15.0001 10.9989 15.5028 11.0484 15.9877 10.952C16.4727 10.8555 16.9181 10.6174 17.2678 10.2678C17.6174 9.91814 17.8555 9.47268 17.952 8.98773C18.0484 8.50277 17.9989 8.00011 17.8097 7.54329C17.6205 7.08648 17.3 6.69603 16.8889 6.42133C16.4778 6.14662 15.9945 6 15.5 6C14.837 6 14.2011 6.26339 13.7322 6.73223C13.2634 7.20107 13 7.83696 13 8.5ZM6 15.5C6 15.9945 6.14662 16.4778 6.42133 16.8889C6.69603 17.3 7.08648 17.6205 7.54329 17.8097C8.00011 17.9989 8.50277 18.0484 8.98773 17.952C9.47268 17.8555 9.91814 17.6174 10.2678 17.2678C10.6174 16.9181 10.8555 16.4727 10.952 15.9877C11.0484 15.5028 10.9989 15.0001 10.8097 14.5433C10.6205 14.0865 10.3 13.696 9.88893 13.4213C9.4778 13.1466 8.99445 13 8.5 13C7.83696 13 7.20107 13.2634 6.73223 13.7322C6.26339 14.2011 6 14.837 6 15.5ZM13 15.5C13 15.9945 13.1466 16.4778 13.4213 16.8889C13.696 17.3 14.0865 17.6205 14.5433 17.8097C15.0001 17.9989 15.5028 18.0484 15.9877 17.952C16.4727 17.8555 16.9181 17.6174 17.2678 17.2678C17.6174 16.9181 17.8555 16.4727 17.952 15.9877C18.0484 15.5028 17.9989 15.0001 17.8097 14.5433C17.6205 14.0865 17.3 13.696 16.8889 13.4213C16.4778 13.1466 15.9945 13 15.5 13C14.837 13 14.2011 13.2634 13.7322 13.7322C13.2634 14.2011 13 14.837 13 15.5Z" fill="#2A293A"/>
</svg>
