<svg width="24" height="24" viewBox="0 0 24 24" fill="none" xmlns="http://www.w3.org/2000/svg">
<path d="M18 10.9991H6C5.73478 10.9991 5.48043 11.1045 5.29289 11.292C5.10536 11.4796 5 11.7339 5 11.9991C5 12.2644 5.10536 12.5187 5.29289 12.7063C5.48043 12.8938 5.73478 12.9991 6 12.9991H18C18.2652 12.9991 18.5196 12.8938 18.7071 12.7063C18.8946 12.5187 19 12.2644 19 11.9991C19 11.7339 18.8946 11.4796 18.7071 11.292C18.5196 11.1045 18.2652 10.9991 18 10.9991Z" fill="#2A293A"/>
<path d="M6 8.99915H18C18.2652 8.99915 18.5196 8.89379 18.7071 8.70625C18.8946 8.51872 19 8.26436 19 7.99915C19 7.73393 18.8946 7.47958 18.7071 7.29204C18.5196 7.1045 18.2652 6.99915 18 6.99915H6C5.73478 6.99915 5.48043 7.1045 5.29289 7.29204C5.10536 7.47958 5 7.73393 5 7.99915C5 8.26436 5.10536 8.51872 5.29289 8.70625C5.48043 8.89379 5.73478 8.99915 6 8.99915Z" fill="#2A293A"/>
<path d="M5 15.9991C5 16.2644 5.10536 16.5187 5.29289 16.7063C5.48043 16.8938 5.73478 16.9991 6 16.9991H10V14.9991H6C5.73478 14.9991 5.48043 15.1045 5.29289 15.292C5.10536 15.4796 5 15.7339 5 15.9991Z" fill="#2A293A"/>
<path d="M15.75 15.0391C15.5509 14.8406 15.2812 14.729 15 14.729C14.7188 14.729 14.4491 14.8406 14.25 15.0391L11.541 17.7491C11.4384 17.8467 11.3563 17.9638 11.2997 18.0936C11.243 18.2233 11.2129 18.3631 11.2111 18.5047C11.2093 18.6463 11.2359 18.7868 11.2892 18.9179C11.3426 19.0491 11.4217 19.1683 11.5218 19.2684C11.6219 19.3685 11.741 19.4476 11.8722 19.5009C12.0034 19.5543 12.1439 19.5808 12.2854 19.579C12.427 19.5773 12.5668 19.5471 12.6966 19.4905C12.8263 19.4338 12.9434 19.3518 13.041 19.2491L15 17.2891L16.959 19.2491C17.0566 19.3518 17.1737 19.4338 17.3034 19.4905C17.4332 19.5471 17.573 19.5773 17.7146 19.579C17.8561 19.5808 17.9966 19.5543 18.1278 19.5009C18.259 19.4476 18.3781 19.3685 18.4782 19.2684C18.5783 19.1683 18.6574 19.0491 18.7108 18.9179C18.7641 18.7868 18.7907 18.6463 18.7889 18.5047C18.7871 18.3631 18.757 18.2233 18.7003 18.0936C18.6437 17.9638 18.5616 17.8467 18.459 17.7491L15.75 15.0391Z" fill="#2A293A"/>
</svg>
