<svg width="24" height="24" viewBox="0 0 24 24" fill="none" xmlns="http://www.w3.org/2000/svg">
<g id="compare">
<g id="main">
<path d="M15.4513 11.8304L19.6702 8.64695C19.7736 8.56884 19.8567 8.47196 19.9136 8.36295C19.9705 8.25395 20 8.13539 20 8.01542C20 7.89545 19.9705 7.7769 19.9136 7.66789C19.8567 7.55889 19.7736 7.46201 19.6702 7.38389L15.4513 4.20046C15.314 4.09686 15.1459 4.03007 14.9669 4.00802C14.7878 3.98598 14.6053 4.00959 14.441 4.07606C14.2768 4.14253 14.1376 4.24908 14.04 4.38306C13.9425 4.51705 13.8906 4.67285 13.8906 4.83199L13.8906 7.18337L5.38287 7.18337C5.13216 7.18337 4.89172 7.27103 4.71444 7.42707C4.53716 7.58311 4.43757 7.79475 4.43757 8.01542C4.43757 8.2361 4.53716 8.44773 4.71444 8.60377C4.89172 8.75981 5.13216 8.84747 5.38287 8.84747L13.8906 8.84747L13.8906 11.1989C13.8906 11.358 13.9425 11.5138 14.04 11.6478C14.1376 11.7818 14.2768 11.8883 14.441 11.9548C14.6053 12.0213 14.7878 12.0449 14.9669 12.0228C15.1459 12.0008 15.314 11.934 15.4513 11.8304Z" fill="#2A293A"/>
<path d="M8.54871 12.1696L4.32982 15.353C4.22637 15.4312 4.14333 15.528 4.08641 15.637C4.02948 15.7461 4 15.8646 4 15.9846C4 16.1045 4.02948 16.2231 4.08641 16.3321C4.14333 16.4411 4.22637 16.538 4.32982 16.6161L8.54871 19.7995C8.68595 19.9031 8.85407 19.9699 9.03313 19.992C9.21219 20.014 9.39468 19.9904 9.55895 19.9239C9.72323 19.8575 9.8624 19.7509 9.95996 19.6169C10.0575 19.483 10.1094 19.3272 10.1094 19.168L10.1094 16.8183L18.6171 16.8183C18.8678 16.8183 19.1083 16.7306 19.2856 16.5746C19.4628 16.4186 19.5624 16.2069 19.5624 15.9862C19.5624 15.7656 19.4628 15.5539 19.2856 15.3979C19.1083 15.2419 18.8678 15.1542 18.6171 15.1542L10.1094 15.1542L10.1094 12.8011C10.1094 12.642 10.0575 12.4862 9.95996 12.3522C9.8624 12.2182 9.72323 12.1117 9.55895 12.0452C9.39468 11.9787 9.21219 11.9551 9.03313 11.9772C8.85407 11.9992 8.68595 12.066 8.54871 12.1696Z" fill="#2A293A"/>
</g>
</g>
</svg>
