<svg width="24" height="24" viewBox="0 0 24 24" fill="none" xmlns="http://www.w3.org/2000/svg">
<path d="M21.193 11.293L12.707 2.808C12.5195 2.62053 12.2652 2.51521 12 2.51521C11.7349 2.51521 11.4806 2.62053 11.293 2.808L2.80805 11.293C2.62057 11.4805 2.51526 11.7348 2.51526 12C2.51526 12.2652 2.62057 12.5195 2.80805 12.707L11.293 21.192C11.4806 21.3795 11.7349 21.4848 12 21.4848C12.2652 21.4848 12.5195 21.3795 12.707 21.192L21.193 12.707C21.3805 12.5195 21.4858 12.2652 21.4858 12C21.4858 11.7348 21.3805 11.4805 21.193 11.293ZM12 19.071L4.92905 12L12 4.929L19.071 12L12 19.071ZM11.147 13.047C11.147 12.114 11.371 11.824 11.794 11.547C12.154 11.311 12.43 11.115 12.43 10.798C12.4295 10.7325 12.4156 10.6678 12.3892 10.6079C12.3628 10.548 12.3245 10.494 12.2766 10.4494C12.2287 10.4048 12.1722 10.3704 12.1106 10.3483C12.0489 10.3262 11.9834 10.3169 11.918 10.321C11.844 10.3193 11.7704 10.3324 11.7016 10.3596C11.6327 10.3867 11.57 10.4275 11.5172 10.4793C11.4643 10.5311 11.4224 10.593 11.3938 10.6613C11.3653 10.7296 11.3508 10.803 11.351 10.877H9.90004C9.91105 9.628 10.828 9.106 11.932 9.106C13.144 9.106 14.043 9.64 14.043 10.706C14.0399 11.0068 13.9505 11.3004 13.7855 11.5519C13.6205 11.8035 13.3867 12.0023 13.112 12.125C12.9275 12.1974 12.7692 12.3239 12.6578 12.4879C12.5464 12.6519 12.4873 12.8458 12.488 13.044V13.181H11.147V13.047ZM11.047 14.783C11.0476 14.6789 11.0687 14.5759 11.1093 14.48C11.1499 14.3842 11.2091 14.2973 11.2836 14.2245C11.358 14.1516 11.4461 14.0943 11.5428 14.0558C11.6395 14.0172 11.7429 13.9983 11.847 14C11.9507 14 12.0533 14.0204 12.149 14.0601C12.2447 14.0997 12.3317 14.1578 12.405 14.2311C12.4782 14.3044 12.5363 14.3913 12.576 14.4871C12.6156 14.5828 12.636 14.6854 12.636 14.789C12.636 14.8926 12.6156 14.9952 12.576 15.0909C12.5363 15.1867 12.4782 15.2736 12.405 15.3469C12.3317 15.4202 12.2447 15.4783 12.149 15.5179C12.0533 15.5576 11.9507 15.578 11.847 15.578C11.7418 15.5799 11.6372 15.5606 11.5394 15.5215C11.4417 15.4823 11.3528 15.4239 11.2779 15.3498C11.2031 15.2757 11.1438 15.1874 11.1037 15.0901C11.0635 14.9927 11.0432 14.8883 11.044 14.783H11.047Z" fill="#2A293A"/>
</svg>
