<svg width="24" height="24" viewBox="0 0 24 24" fill="none" xmlns="http://www.w3.org/2000/svg">
<g id="condition">
<path id="main" d="M19.7531 11.4037L12.5959 4.24695C12.4377 4.08883 12.2232 4 11.9996 4C11.7759 4 11.5614 4.08883 11.4033 4.24695L4.24694 11.4037C4.08882 11.5618 4 11.7763 4 12C4 12.2237 4.08882 12.4382 4.24694 12.5963L11.4033 19.753C11.5614 19.9112 11.7759 20 11.9996 20C12.2232 20 12.4377 19.9112 12.5959 19.753L19.7531 12.5963C19.9112 12.4382 20 12.2237 20 12C20 11.7763 19.9112 11.5618 19.7531 11.4037ZM11.9996 17.9641L6.03582 12L11.9996 6.03592L17.9633 12L11.9996 17.9641ZM11.2801 12.8831C11.2801 12.0962 11.4691 11.8516 11.8258 11.6179C12.1295 11.4189 12.3622 11.2535 12.3622 10.9862C12.3618 10.9309 12.3501 10.8764 12.3278 10.8258C12.3056 10.7753 12.2733 10.7298 12.2328 10.6921C12.1924 10.6545 12.1448 10.6255 12.0928 10.6068C12.0408 10.5882 11.9855 10.5804 11.9304 10.5838C11.868 10.5824 11.8059 10.5934 11.7478 10.6164C11.6898 10.6393 11.6369 10.6736 11.5923 10.7173C11.5477 10.7611 11.5124 10.8133 11.4883 10.8709C11.4642 10.9285 11.452 10.9904 11.4522 11.0528H10.2284C10.2377 9.99932 11.0111 9.55904 11.9422 9.55904C12.9644 9.55904 13.7227 10.0094 13.7227 10.9086C13.72 11.1623 13.6446 11.4099 13.5054 11.6221C13.3663 11.8342 13.1691 12.002 12.9375 12.1054C12.7818 12.1665 12.6483 12.2732 12.5543 12.4115C12.4604 12.5499 12.4105 12.7134 12.4112 12.8806V12.9961H11.2801V12.8831ZM11.1958 14.3473C11.1962 14.2595 11.2141 14.1727 11.2483 14.0918C11.2826 14.0109 11.3325 13.9377 11.3953 13.8762C11.458 13.8148 11.5324 13.7664 11.6139 13.7339C11.6955 13.7014 11.7827 13.6855 11.8705 13.6869C11.9579 13.6869 12.0445 13.7041 12.1252 13.7376C12.2059 13.771 12.2793 13.82 12.3411 13.8818C12.4029 13.9436 12.4519 14.017 12.4853 14.0977C12.5188 14.1785 12.536 14.265 12.536 14.3524C12.536 14.4398 12.5188 14.5263 12.4853 14.6071C12.4519 14.6878 12.4029 14.7612 12.3411 14.823C12.2793 14.8848 12.2059 14.9338 12.1252 14.9672C12.0445 15.0007 11.9579 15.0179 11.8705 15.0179C11.7817 15.0195 11.6935 15.0032 11.6111 14.9702C11.5286 14.9371 11.4536 14.8879 11.3905 14.8254C11.3274 14.7629 11.2774 14.6884 11.2436 14.6063C11.2097 14.5242 11.1926 14.4362 11.1933 14.3473H11.1958Z" fill="#2A293A"/>
</g>
</svg>
