<svg width="24" height="24" viewBox="0 0 24 24" fill="none" xmlns="http://www.w3.org/2000/svg">
<path d="M12 4C10.4178 4 8.87103 4.46919 7.55544 5.34824C6.23985 6.22729 5.21447 7.47672 4.60897 8.93853C4.00347 10.4003 3.84504 12.0089 4.15372 13.5607C4.4624 15.1126 5.22433 16.538 6.34315 17.6569C7.46197 18.7757 8.88743 19.5376 10.4393 19.8463C11.9911 20.155 13.5997 19.9965 15.0615 19.391C16.5233 18.7855 17.7727 17.7602 18.6518 16.4446C19.5308 15.129 20 13.5823 20 12C20 9.87827 19.1571 7.84344 17.6569 6.34315C16.1566 4.84285 14.1217 4 12 4ZM12.84 15.984C12.7318 16.0947 12.6018 16.1817 12.4583 16.2395C12.3147 16.2974 12.1607 16.3248 12.006 16.32C11.8532 16.3239 11.7013 16.296 11.5598 16.2382C11.4183 16.1804 11.2903 16.0938 11.184 15.984C10.9713 15.7608 10.8526 15.4643 10.8526 15.156C10.8526 14.8477 10.9713 14.5512 11.184 14.328C11.2903 14.2182 11.4183 14.1316 11.5598 14.0738C11.7013 14.016 11.8532 13.9881 12.006 13.992C12.1607 13.9872 12.3147 14.0146 12.4583 14.0725C12.6018 14.1303 12.7318 14.2173 12.84 14.328C13.0528 14.5512 13.1714 14.8477 13.1714 15.156C13.1714 15.4643 13.0528 15.7608 12.84 15.984ZM14.665 10.584C14.55 10.8189 14.3977 11.0337 14.214 11.22C14.039 11.396 13.814 11.608 13.531 11.856C13.3151 12.0266 13.1122 12.2132 12.924 12.414C12.7948 12.5508 12.7023 12.7179 12.655 12.9C12.6315 13.061 12.5474 13.2069 12.42 13.308C12.2945 13.4041 12.1401 13.4548 11.982 13.452C11.8913 13.4576 11.8005 13.4425 11.7165 13.4078C11.6325 13.3732 11.5574 13.3199 11.497 13.252C11.3712 13.0874 11.3094 12.8827 11.323 12.676C11.311 12.3485 11.3855 12.0236 11.539 11.734C11.7056 11.4518 11.9072 11.1917 12.139 10.96C12.2913 10.7999 12.4298 10.6273 12.553 10.444C12.6448 10.3009 12.6927 10.134 12.691 9.964C12.694 9.88396 12.6783 9.80432 12.6452 9.73141C12.612 9.6585 12.5623 9.59433 12.5 9.544C12.3471 9.43225 12.1601 9.37711 11.971 9.388C11.7844 9.38794 11.5994 9.42183 11.425 9.488C11.2158 9.57032 11.0132 9.66861 10.819 9.782L10.532 9.926C10.3335 10.0539 10.1071 10.1322 9.872 10.154C9.7726 10.1538 9.67462 10.1304 9.58589 10.0856C9.49716 10.0408 9.42014 9.97589 9.361 9.896C9.21875 9.71742 9.14435 9.49422 9.151 9.266C9.14574 9.12059 9.17703 8.97619 9.242 8.846C9.31531 8.71793 9.41564 8.60737 9.536 8.522C9.9089 8.24945 10.3237 8.03937 10.764 7.9C11.2117 7.75464 11.6793 7.6804 12.15 7.68C12.6278 7.67165 13.102 7.76363 13.542 7.95C13.9225 8.10814 14.2539 8.36498 14.502 8.694C14.7322 9.00438 14.8544 9.3816 14.85 9.768C14.8533 10.0508 14.7899 10.3303 14.665 10.584Z" fill="#2A293A"/>
</svg>
