<svg width="24" height="24" viewBox="0 0 24 24" fill="none" xmlns="http://www.w3.org/2000/svg">
<g id="copy-text">
<path id="main" d="M21 8C21.0003 7.86632 20.9734 7.73398 20.921 7.611C20.8197 7.37117 20.6288 7.18032 20.389 7.079C20.266 7.0266 20.1337 6.99972 20 7H8C7.73478 7 7.48043 7.10536 7.29289 7.29289C7.10536 7.48043 7 7.73478 7 8V20C6.99972 20.1337 7.0266 20.266 7.079 20.389C7.18032 20.6288 7.37117 20.8197 7.611 20.921C7.73398 20.9734 7.86632 21.0003 8 21H20C20.2652 21 20.5196 20.8946 20.7071 20.7071C20.8946 20.5196 21 20.2652 21 20V8ZM19 19H9V9H19V19ZM5 5V17H4C3.73478 17 3.48043 16.8946 3.29289 16.7071C3.10536 16.5196 3 16.2652 3 16V4C3 3.73478 3.10536 3.48043 3.29289 3.29289C3.48043 3.10536 3.73478 3 4 3H16C16.2652 3 16.5196 3.10536 16.7071 3.29289C16.8946 3.48043 17 3.73478 17 4V5H5ZM17 13H11V11H17V13ZM17 17H11V15H17V17Z" fill="#2A293A"/>
</g>
</svg>
