<svg width="24" height="24" viewBox="0 0 24 24" fill="none" xmlns="http://www.w3.org/2000/svg">
<path fill-rule="evenodd" clip-rule="evenodd" d="M12 4C10.4178 4 8.87103 4.46919 7.55544 5.34824C6.23985 6.22729 5.21447 7.47672 4.60897 8.93853C4.00347 10.4003 3.84504 12.0089 4.15372 13.5607C4.4624 15.1126 5.22433 16.538 6.34315 17.6569C7.46197 18.7757 8.88743 19.5376 10.4393 19.8463C11.9911 20.155 13.5997 19.9965 15.0615 19.391C16.5233 18.7855 17.7727 17.7602 18.6518 16.4446C19.5308 15.129 20 13.5823 20 12C20 9.87827 19.1571 7.84344 17.6569 6.34315C16.1566 4.84285 14.1217 4 12 4ZM16 11L11.5 15.5C11.3691 15.631 11.2137 15.735 11.0427 15.8059C10.8716 15.8769 10.6882 15.9134 10.503 15.9134C10.3178 15.9134 10.1344 15.8769 9.96335 15.8059C9.79228 15.735 9.63687 15.631 9.506 15.5L7.5 13.5C7.36896 13.3691 7.265 13.2137 7.19407 13.0426C7.12314 12.8716 7.08663 12.6882 7.08663 12.503C7.08663 12.3178 7.12314 12.1344 7.19407 11.9634C7.265 11.7923 7.36896 11.6369 7.5 11.506V11.5C7.63087 11.369 7.78628 11.265 7.95735 11.1941C8.12843 11.1231 8.31181 11.0866 8.497 11.0866C8.6822 11.0866 8.86558 11.1231 9.03665 11.1941C9.20773 11.265 9.36314 11.369 9.494 11.5L10.494 12.5L14 9C14.131 8.86805 14.2868 8.76333 14.4584 8.69187C14.63 8.62041 14.8141 8.58361 15 8.58361C15.1859 8.58361 15.37 8.62041 15.5416 8.69187C15.7132 8.76333 15.869 8.86805 16 9C16.1319 9.13097 16.2367 9.28676 16.3081 9.45839C16.3796 9.63001 16.4164 9.81409 16.4164 10C16.4164 10.1859 16.3796 10.37 16.3081 10.5416C16.2367 10.7132 16.1319 10.869 16 11Z" fill="#2A293A"/>
</svg>
