<svg width="24" height="24" viewBox="0 0 24 24" fill="none" xmlns="http://www.w3.org/2000/svg">
<path d="M20 4H4C3.73478 4 3.48043 4.10536 3.29289 4.29289C3.10536 4.48043 3 4.73478 3 5V19C3 19.2652 3.10536 19.5196 3.29289 19.7071C3.48043 19.8946 3.73478 20 4 20H20C20.2652 20 20.5196 19.8946 20.7071 19.7071C20.8946 19.5196 21 19.2652 21 19V5C21 4.73478 20.8946 4.48043 20.7071 4.29289C20.5196 4.10536 20.2652 4 20 4ZM19 18H5V13H19V18ZM19 11H5V6H19V11ZM6 8.5C6 8.20333 6.08797 7.91332 6.2528 7.66664C6.41762 7.41997 6.65189 7.22771 6.92597 7.11418C7.20006 7.00065 7.50166 6.97094 7.79264 7.02882C8.08361 7.0867 8.35088 7.22956 8.56066 7.43934C8.77044 7.64912 8.9133 7.91639 8.97118 8.20736C9.02906 8.49834 8.99935 8.79994 8.88582 9.07403C8.77229 9.34811 8.58003 9.58238 8.33335 9.7472C8.08668 9.91203 7.79667 10 7.5 10C7.10218 10 6.72064 9.84196 6.43934 9.56066C6.15804 9.27936 6 8.89782 6 8.5ZM10 15.5C10 15.2033 10.088 14.9133 10.2528 14.6666C10.4176 14.42 10.6519 14.2277 10.926 14.1142C11.2001 14.0006 11.5017 13.9709 11.7926 14.0288C12.0836 14.0867 12.3509 14.2296 12.5607 14.4393C12.7704 14.6491 12.9133 14.9164 12.9712 15.2074C13.0291 15.4983 12.9994 15.7999 12.8858 16.074C12.7723 16.3481 12.58 16.5824 12.3334 16.7472C12.0867 16.912 11.7967 17 11.5 17C11.1022 17 10.7206 16.842 10.4393 16.5607C10.158 16.2794 10 15.8978 10 15.5ZM6 15.5C6 15.2033 6.08797 14.9133 6.2528 14.6666C6.41762 14.42 6.65189 14.2277 6.92597 14.1142C7.20006 14.0006 7.50166 13.9709 7.79264 14.0288C8.08361 14.0867 8.35088 14.2296 8.56066 14.4393C8.77044 14.6491 8.9133 14.9164 8.97118 15.2074C9.02906 15.4983 8.99935 15.7999 8.88582 16.074C8.77229 16.3481 8.58003 16.5824 8.33335 16.7472C8.08668 16.912 7.79667 17 7.5 17C7.10218 17 6.72064 16.842 6.43934 16.5607C6.15804 16.2794 6 15.8978 6 15.5Z" fill="#2A293A"/>
</svg>
