<svg width="24" height="24" viewBox="0 0 24 24" fill="none" xmlns="http://www.w3.org/2000/svg">
<g id="delete">
<g id="main">
<path d="M17 18H7V9.00001H5V19C5 19.2652 5.10536 19.5196 5.29289 19.7071C5.48043 19.8946 5.73478 20 6 20H18C18.2652 20 18.5196 19.8946 18.7071 19.7071C18.8946 19.5196 19 19.2652 19 19V9.00001H17V18Z" fill="#2A293A"/>
<path d="M11 9.00001H9V16H11V9.00001Z" fill="#2A293A"/>
<path d="M15 9.00001H13V16H15V9.00001Z" fill="#2A293A"/>
<path d="M19 5.00001H15.333L14.3 3.445C14.2084 3.30767 14.0842 3.19515 13.9385 3.1175C13.7928 3.03985 13.6301 2.99949 13.465 3H10.535C10.3704 2.99998 10.2084 3.04058 10.0632 3.11821C9.91808 3.19584 9.79435 3.30809 9.703 3.445L8.667 5.00001H5C4.73478 5.00001 4.48043 5.10536 4.29289 5.2929C4.10536 5.48043 4 5.73479 4 6.00001V7H20V6.00001C20 5.73479 19.8946 5.48043 19.7071 5.2929C19.5196 5.10536 19.2652 5.00001 19 5.00001Z" fill="#2A293A"/>
</g>
</g>
</svg>
