<svg width="24" height="24" viewBox="0 0 24 24" fill="none" xmlns="http://www.w3.org/2000/svg">
<g id="device-mobile">
<path id="main" d="M6 5V19C6 19.5304 6.21071 20.0391 6.58579 20.4142C6.96086 20.7893 7.46957 21 8 21H16C16.5304 21 17.0391 20.7893 17.4142 20.4142C17.7893 20.0391 18 19.5304 18 19V5C18 4.46957 17.7893 3.96086 17.4142 3.58579C17.0391 3.21071 16.5304 3 16 3H8C7.46957 3 6.96086 3.21071 6.58579 3.58579C6.21071 3.96086 6 4.46957 6 5ZM16 19H8V5H16V19ZM12 16C12.1978 16 12.3911 16.0586 12.5556 16.1685C12.72 16.2784 12.8482 16.4346 12.9239 16.6173C12.9996 16.8 13.0194 17.0011 12.9808 17.1951C12.9422 17.3891 12.847 17.5673 12.7071 17.7071C12.5673 17.847 12.3891 17.9422 12.1951 17.9808C12.0011 18.0194 11.8 17.9996 11.6173 17.9239C11.4346 17.8482 11.2784 17.72 11.1685 17.5556C11.0586 17.3911 11 17.1978 11 17C11 16.7348 11.1054 16.4804 11.2929 16.2929C11.4804 16.1054 11.7348 16 12 16Z" fill="#2A293A"/>
</g>
</svg>
