<svg width="24" height="24" viewBox="0 0 24 24" fill="none" xmlns="http://www.w3.org/2000/svg">
<g id="device-responsive">
<path id="main" d="M20 3H4C3.73478 3 3.48043 3.10536 3.29289 3.29289C3.10536 3.48043 3 3.73478 3 4V20C3 20.2652 3.10536 20.5196 3.29289 20.7071C3.48043 20.8946 3.73478 21 4 21H20C20.2652 21 20.5196 20.8946 20.7071 20.7071C20.8946 20.5196 21 20.2652 21 20V4C21 3.73478 20.8946 3.48043 20.7071 3.29289C20.5196 3.10536 20.2652 3 20 3ZM19 19H5V5H19V19ZM11.536 8.707L8.707 11.537C8.56709 11.6769 8.38883 11.7721 8.19479 11.8106C8.00074 11.8492 7.79962 11.8293 7.61688 11.7535C7.43414 11.6777 7.27799 11.5494 7.16818 11.3848C7.05837 11.2203 6.99984 11.0268 7 10.829V8C7 7.73478 7.10536 7.48043 7.29289 7.29289C7.48043 7.10536 7.73478 7 8 7H10.829C11.0268 7.00004 11.22 7.05871 11.3845 7.1686C11.5489 7.27848 11.677 7.43465 11.7527 7.61735C11.8283 7.80005 11.8482 8.00108 11.8096 8.19503C11.771 8.38898 11.6758 8.56715 11.536 8.707ZM17 16V13.171C17 12.9732 16.9413 12.78 16.8314 12.6155C16.7215 12.4511 16.5654 12.323 16.3827 12.2473C16.2 12.1717 15.9989 12.1518 15.805 12.1904C15.611 12.229 15.4329 12.3242 15.293 12.464L12.464 15.293C12.3242 15.4329 12.229 15.611 12.1904 15.805C12.1518 15.9989 12.1717 16.2 12.2473 16.3827C12.323 16.5654 12.4511 16.7215 12.6155 16.8314C12.78 16.9413 12.9732 17 13.171 17H16C16.2652 17 16.5196 16.8946 16.7071 16.7071C16.8946 16.5196 17 16.2652 17 16Z" fill="#2A293A"/>
</g>
</svg>
