<svg width="24" height="24" viewBox="0 0 24 24" fill="none" xmlns="http://www.w3.org/2000/svg">
<path d="M4 4V20C4 20.5304 4.21071 21.0391 4.58579 21.4142C4.96086 21.7893 5.46957 22 6 22H18C18.5304 22 19.0391 21.7893 19.4142 21.4142C19.7893 21.0391 20 20.5304 20 20V4C20 3.46957 19.7893 2.96086 19.4142 2.58579C19.0391 2.21071 18.5304 2 18 2H6C5.46957 2 4.96086 2.21071 4.58579 2.58579C4.21071 2.96086 4 3.46957 4 4ZM18 20H6V4H18V20ZM12 17C12.1978 17 12.3911 17.0586 12.5556 17.1685C12.72 17.2784 12.8482 17.4346 12.9239 17.6173C12.9996 17.8 13.0194 18.0011 12.9808 18.1951C12.9422 18.3891 12.847 18.5673 12.7071 18.7071C12.5673 18.847 12.3891 18.9422 12.1951 18.9808C12.0011 19.0194 11.8 18.9996 11.6173 18.9239C11.4346 18.8482 11.2784 18.72 11.1685 18.5556C11.0586 18.3911 11 18.1978 11 18C11 17.7348 11.1054 17.4804 11.2929 17.2929C11.4804 17.1054 11.7348 17 12 17Z" fill="#2A293A"/>
</svg>
