<svg width="24" height="24" viewBox="0 0 24 24" fill="none" xmlns="http://www.w3.org/2000/svg">
<g id="device-desktop">
<path id="main" d="M2 5V17C2 17.2652 2.10536 17.5196 2.29289 17.7071C2.48043 17.8946 2.73478 18 3 18H21C21.2652 18 21.5196 17.8946 21.7071 17.7071C21.8946 17.5196 22 17.2652 22 17V5C22 4.73478 21.8946 4.48043 21.7071 4.29289C21.5196 4.10536 21.2652 4 21 4H3C2.73478 4 2.48043 4.10536 2.29289 4.29289C2.10536 4.48043 2 4.73478 2 5ZM20 16H4V6H20V16ZM15.3 19.445L15.966 20.445C16.0666 20.5958 16.1243 20.7711 16.133 20.9522C16.1417 21.1333 16.1009 21.3134 16.0152 21.4731C15.9294 21.6328 15.8018 21.7662 15.6461 21.859C15.4903 21.9518 15.3123 22.0006 15.131 22H8.868C8.68696 22 8.5093 21.9509 8.35399 21.8579C8.19868 21.7648 8.07154 21.6314 7.98613 21.4718C7.90072 21.3121 7.86024 21.1323 7.86903 20.9515C7.87781 20.7707 7.93552 20.5956 8.036 20.445L8.703 19.445C8.79435 19.3081 8.91808 19.1958 9.06322 19.1182C9.20835 19.0406 9.37041 19 9.535 19H14.465C14.6301 18.9995 14.7928 19.0398 14.9385 19.1175C15.0842 19.1951 15.2084 19.3077 15.3 19.445Z" fill="#2A293A"/>
</g>
</svg>
