<svg width="24" height="24" viewBox="0 0 24 24" fill="none" xmlns="http://www.w3.org/2000/svg">
<g id="draggable">
<path id="main" d="M9 8C8.60444 8 8.21776 7.8827 7.88886 7.66294C7.55996 7.44318 7.30362 7.13082 7.15224 6.76537C7.00087 6.39992 6.96126 5.99778 7.03843 5.60982C7.1156 5.22186 7.30608 4.86549 7.58579 4.58579C7.86549 4.30608 8.22186 4.1156 8.60982 4.03843C8.99778 3.96126 9.39992 4.00087 9.76537 4.15224C10.1308 4.30362 10.4432 4.55996 10.6629 4.88886C10.8827 5.21776 11 5.60444 11 6C11 6.53043 10.7893 7.03914 10.4142 7.41421C10.0391 7.78929 9.53043 8 9 8ZM11 12C11 11.6044 10.8827 11.2178 10.6629 10.8889C10.4432 10.56 10.1308 10.3036 9.76537 10.1522C9.39992 10.0009 8.99778 9.96126 8.60982 10.0384C8.22186 10.1156 7.86549 10.3061 7.58579 10.5858C7.30608 10.8655 7.1156 11.2219 7.03843 11.6098C6.96126 11.9978 7.00087 12.3999 7.15224 12.7654C7.30362 13.1308 7.55996 13.4432 7.88886 13.6629C8.21776 13.8827 8.60444 14 9 14C9.53043 14 10.0391 13.7893 10.4142 13.4142C10.7893 13.0391 11 12.5304 11 12ZM11 18C11 17.6044 10.8827 17.2178 10.6629 16.8889C10.4432 16.56 10.1308 16.3036 9.76537 16.1522C9.39992 16.0009 8.99778 15.9613 8.60982 16.0384C8.22186 16.1156 7.86549 16.3061 7.58579 16.5858C7.30608 16.8655 7.1156 17.2219 7.03843 17.6098C6.96126 17.9978 7.00087 18.3999 7.15224 18.7654C7.30362 19.1308 7.55996 19.4432 7.88886 19.6629C8.21776 19.8827 8.60444 20 9 20C9.53043 20 10.0391 19.7893 10.4142 19.4142C10.7893 19.0391 11 18.5304 11 18ZM17 6C17 5.60444 16.8827 5.21776 16.6629 4.88886C16.4432 4.55996 16.1308 4.30362 15.7654 4.15224C15.3999 4.00087 14.9978 3.96126 14.6098 4.03843C14.2219 4.1156 13.8655 4.30608 13.5858 4.58579C13.3061 4.86549 13.1156 5.22186 13.0384 5.60982C12.9613 5.99778 13.0009 6.39992 13.1522 6.76537C13.3036 7.13082 13.56 7.44318 13.8889 7.66294C14.2178 7.8827 14.6044 8 15 8C15.5304 8 16.0391 7.78929 16.4142 7.41421C16.7893 7.03914 17 6.53043 17 6ZM17 12C17 11.6044 16.8827 11.2178 16.6629 10.8889C16.4432 10.56 16.1308 10.3036 15.7654 10.1522C15.3999 10.0009 14.9978 9.96126 14.6098 10.0384C14.2219 10.1156 13.8655 10.3061 13.5858 10.5858C13.3061 10.8655 13.1156 11.2219 13.0384 11.6098C12.9613 11.9978 13.0009 12.3999 13.1522 12.7654C13.3036 13.1308 13.56 13.4432 13.8889 13.6629C14.2178 13.8827 14.6044 14 15 14C15.5304 14 16.0391 13.7893 16.4142 13.4142C16.7893 13.0391 17 12.5304 17 12ZM17 18C17 17.6044 16.8827 17.2178 16.6629 16.8889C16.4432 16.56 16.1308 16.3036 15.7654 16.1522C15.3999 16.0009 14.9978 15.9613 14.6098 16.0384C14.2219 16.1156 13.8655 16.3061 13.5858 16.5858C13.3061 16.8655 13.1156 17.2219 13.0384 17.6098C12.9613 17.9978 13.0009 18.3999 13.1522 18.7654C13.3036 19.1308 13.56 19.4432 13.8889 19.6629C14.2178 19.8827 14.6044 20 15 20C15.5304 20 16.0391 19.7893 16.4142 19.4142C16.7893 19.0391 17 18.5304 17 18Z" fill="#2A293A"/>
</g>
</svg>
