<svg width="24" height="24" viewBox="0 0 24 24" fill="none" xmlns="http://www.w3.org/2000/svg">
<g id="dummy-active">
<g id="main">
<path d="M5 12C4.44772 12 3.99344 11.55 4.06165 11.002C4.51217 7.38167 7.38167 4.51217 11.002 4.06165C11.55 3.99344 12 4.44772 12 5V12H5Z" fill="#2A293A"/>
<path d="M12 19C12 19.5523 12.45 20.0066 12.998 19.9384C16.6183 19.4878 19.4878 16.6183 19.9384 12.998C20.0066 12.45 19.5523 12 19 12H12V19Z" fill="#2A293A"/>
</g>
<path id="accent" d="M16.3333 3.50559C16.8266 3.17595 17.4067 3 18 3C18.7957 3 19.5587 3.31607 20.1213 3.87868C20.6839 4.44129 21 5.20435 21 6C21 6.59334 20.8241 7.17336 20.4944 7.66671C20.1648 8.16006 19.6962 8.54457 19.1481 8.77164C18.5999 8.9987 17.9967 9.05811 17.4147 8.94235C16.8328 8.8266 16.2982 8.54088 15.8787 8.12132C15.4591 7.70176 15.1734 7.16721 15.0576 6.58527C14.9419 6.00333 15.0013 5.40013 15.2284 4.85195C15.4554 4.30377 15.8399 3.83524 16.3333 3.50559Z" fill="#7357FF"/>
</g>
</svg>
