<svg width="24" height="24" viewBox="0 0 24 24" fill="none" xmlns="http://www.w3.org/2000/svg">
<path d="M5 12C4.44772 12 3.99344 11.55 4.06165 11.002C4.51217 7.38167 7.38167 4.51217 11.002 4.06165C11.55 3.99344 12 4.44772 12 5V12H5Z" fill="#2A293A"/>
<path d="M12 19C12 19.5523 12.45 20.0066 12.998 19.9384C16.6183 19.4878 19.4878 16.6183 19.9384 12.998C20.0066 12.45 19.5523 12 19 12H12V19Z" fill="#2A293A"/>
<path d="M15.3333 4.50559C15.8266 4.17595 16.4067 4 17 4C17.7957 4 18.5587 4.31607 19.1213 4.87868C19.6839 5.44129 20 6.20435 20 7C20 7.59334 19.8241 8.17336 19.4944 8.66671C19.1648 9.16006 18.6962 9.54458 18.1481 9.77164C17.5999 9.9987 16.9967 10.0581 16.4147 9.94236C15.8328 9.8266 15.2982 9.54088 14.8787 9.12132C14.4591 8.70176 14.1734 8.16721 14.0576 7.58527C13.9419 7.00333 14.0013 6.40013 14.2284 5.85195C14.4554 5.30377 14.8399 4.83524 15.3333 4.50559Z" fill="#7357FF"/>
</svg>
