<svg width="24" height="24" viewBox="0 0 24 24" fill="none" xmlns="http://www.w3.org/2000/svg">
<path d="M20.293 6.293L16.707 2.707C16.5195 2.51953 16.2652 2.41422 16 2.41422C15.7348 2.41422 15.4805 2.51953 15.293 2.707L13.5 4.5L12 6L3.293 14.707C3.10545 14.8945 3.00006 15.1488 3 15.414V19C3 19.2652 3.10536 19.5196 3.29289 19.7071C3.48043 19.8946 3.73478 20 4 20H7.586C7.85119 19.9999 8.10551 19.8946 8.293 19.707L20.293 7.707C20.4805 7.51947 20.5858 7.26517 20.5858 7C20.5858 6.73484 20.4805 6.48053 20.293 6.293ZM13.414 7.414L15.586 9.586L10.086 15.086L7.914 12.914L13.414 7.414ZM7.172 18H5V15.828L6.414 14.414L8.586 16.586L7.172 18ZM17.086 8.086L14.914 5.914L16 4.828L18.172 7L17.086 8.086ZM19 19C19 19.2652 18.8946 19.5196 18.7071 19.7071C18.5196 19.8946 18.2652 20 18 20H13C12.7348 20 12.4804 19.8946 12.2929 19.7071C12.1054 19.5196 12 19.2652 12 19C12 18.7348 12.1054 18.4804 12.2929 18.2929C12.4804 18.1054 12.7348 18 13 18H18C18.2652 18 18.5196 18.1054 18.7071 18.2929C18.8946 18.4804 19 18.7348 19 19Z" fill="#2A293A"/>
</svg>
