<svg width="24" height="24" viewBox="0 0 24 24" fill="none" xmlns="http://www.w3.org/2000/svg">
<g id="edit">
<path id="main" d="M19.7336 7.52902L16.471 4.26638C16.3004 4.09582 16.069 4 15.8277 4C15.5865 4 15.3551 4.09582 15.1845 4.26638L13.5532 5.8977L12.1884 7.26244L4.26658 15.1843C4.09594 15.3549 4.00005 15.5863 4 15.8275V19.0902C4 19.3315 4.09586 19.5629 4.26648 19.7335C4.43711 19.9041 4.66852 20 4.90983 20H8.17246C8.41374 19.9999 8.64512 19.9041 8.81571 19.7334L19.7336 8.81551C19.9042 8.6449 20 8.41352 20 8.17227C20 7.93101 19.9042 7.69964 19.7336 7.52902ZM13.4749 8.54893L15.4511 10.5251L10.447 15.5291L8.47088 13.553L13.4749 8.54893ZM7.79579 18.1803H5.81965V16.2042L7.10614 14.9177L9.08229 16.8939L7.79579 18.1803ZM16.8158 9.16034L14.8397 7.1842L15.8277 6.19612L17.8039 8.17227L16.8158 9.16034ZM18.5572 19.0902C18.5572 19.3315 18.4614 19.5629 18.2907 19.7335C18.1201 19.9041 17.8887 20 17.6474 20H13.0983C12.857 20 12.6255 19.9041 12.4549 19.7335C12.2843 19.5629 12.1884 19.3315 12.1884 19.0902C12.1884 18.8489 12.2843 18.6175 12.4549 18.4468C12.6255 18.2762 12.857 18.1803 13.0983 18.1803H17.6474C17.8887 18.1803 18.1201 18.2762 18.2907 18.4468C18.4614 18.6175 18.5572 18.8489 18.5572 19.0902Z" fill="#2A293A"/>
</g>
</svg>
