<svg width="24" height="24" viewBox="0 0 24 24" fill="none" xmlns="http://www.w3.org/2000/svg">
<path d="M16 5H8C6.4087 5 4.88258 5.63214 3.75736 6.75736C2.63214 7.88258 2 9.4087 2 11V13C2 14.5913 2.63214 16.1174 3.75736 17.2426C4.88258 18.3679 6.4087 19 8 19H16C17.5913 19 19.1174 18.3679 20.2426 17.2426C21.3679 16.1174 22 14.5913 22 13V11C22 9.4087 21.3679 7.88258 20.2426 6.75736C19.1174 5.63214 17.5913 5 16 5ZM16 15H8C6.93913 15 5.92172 14.5786 5.17157 13.8284C4.42143 13.0783 4 12.0609 4 11C4 9.93913 4.42143 8.92172 5.17157 8.17157C5.92172 7.42143 6.93913 7 8 7H16C17.0609 7 18.0783 7.42143 18.8284 8.17157C19.5786 8.92172 20 9.93913 20 11C20 12.0609 19.5786 13.0783 18.8284 13.8284C18.0783 14.5786 17.0609 15 16 15Z" fill="#2A293A"/>
</svg>
