<svg width="24" height="24" viewBox="0 0 24 24" fill="none" xmlns="http://www.w3.org/2000/svg">
<g id="element-wheel-of fortune">
<path id="main" d="M18.914 14.4594L15.286 12.189C15.1839 12.1253 15.0998 12.0367 15.0414 11.9315C14.9831 11.8263 14.9525 11.708 14.9525 11.5878C14.9525 11.4675 14.9831 11.3492 15.0414 11.244C15.0998 11.1389 15.1839 11.0502 15.286 10.9865L18.914 8.71614C19.0217 8.64894 19.1454 8.61182 19.2723 8.60865C19.3992 8.60548 19.5246 8.63637 19.6355 8.6981C19.7464 8.75984 19.8387 8.85016 19.9028 8.95967C19.9669 9.06917 20.0005 9.19386 20 9.32074V13.8615C19.9993 13.9878 19.9648 14.1117 19.9002 14.2202C19.8356 14.3288 19.7432 14.4181 19.6325 14.4791C19.5219 14.54 19.3969 14.5703 19.2706 14.5668C19.1443 14.5634 19.0212 14.5263 18.914 14.4594ZM17.876 15.7956L16.4535 14.9067C15.7449 15.9467 14.7215 16.7322 13.5335 17.1481C12.3455 17.5641 11.0554 17.5885 9.85254 17.2178C8.64965 16.8472 7.59723 16.101 6.84967 15.0886C6.1021 14.0763 5.69873 12.8511 5.69873 11.5928C5.69873 10.3345 6.1021 9.10935 6.84967 8.09701C7.59723 7.08466 8.64965 6.33843 9.85254 5.96778C11.0554 5.59712 12.3455 5.62155 13.5335 6.03749C14.7215 6.45342 15.7449 7.23896 16.4535 8.27888L17.881 7.3867C17.2934 6.50045 16.5255 5.74794 15.6274 5.1782C14.7294 4.60845 13.7213 4.23428 12.6689 4.08004C11.6165 3.92581 10.5434 3.99499 9.51953 4.28307C8.49567 4.57114 7.54402 5.07166 6.7266 5.75198C5.90919 6.43231 5.24436 7.27719 4.77543 8.23154C4.30651 9.1859 4.04402 10.2283 4.00508 11.2909C3.96613 12.3534 4.1516 13.4123 4.5494 14.3984C4.9472 15.3845 5.5484 16.2757 6.31381 17.014L4.85855 18.3182V20H18.3176V18.3182L16.8624 17.014C17.2414 16.644 17.5811 16.2356 17.876 15.7956ZM9.06451 11.5911C9.06451 12.0901 9.21251 12.5778 9.48981 12.9926C9.7671 13.4075 10.1612 13.7308 10.6224 13.9218C11.0835 14.1127 11.5909 14.1627 12.0804 14.0653C12.5699 13.968 13.0196 13.7277 13.3725 13.3749C13.7254 13.0221 13.9658 12.5726 14.0632 12.0833C14.1605 11.5939 14.1106 11.0867 13.9196 10.6258C13.7286 10.1648 13.4051 9.77081 12.9901 9.49362C12.5751 9.21642 12.0872 9.06847 11.5881 9.06847C10.9188 9.06847 10.2769 9.33425 9.80365 9.80734C9.33038 10.2804 9.06451 10.9221 9.06451 11.5911Z" fill="#2A293A"/>
</g>
</svg>
