<svg width="24" height="24" viewBox="0 0 24 24" fill="none" xmlns="http://www.w3.org/2000/svg">
<g id="element-shape">
<path id="main" d="M8.08 16H5C4.73478 16 4.48043 15.8946 4.29289 15.7071C4.10536 15.5196 4 15.2652 4 15V5C4 4.73478 4.10536 4.48043 4.29289 4.29289C4.48043 4.10536 4.73478 4 5 4H15C15.2652 4 15.5196 4.10536 15.7071 4.29289C15.8946 4.48043 16 4.73478 16 5V8.08C15.3376 7.97333 14.6624 7.97333 14 8.08V6H6V14H8.08C7.97333 14.6624 7.97333 15.3376 8.08 16ZM21 15C21 16.1867 20.6481 17.3467 19.9888 18.3334C19.3295 19.3201 18.3925 20.0892 17.2961 20.5433C16.1997 20.9974 14.9933 21.1162 13.8295 20.8847C12.6656 20.6532 11.5965 20.0818 10.7574 19.2426C9.91824 18.4035 9.3468 17.3344 9.11529 16.1705C8.88378 15.0067 9.0026 13.8003 9.45672 12.7039C9.91085 11.6075 10.6799 10.6705 11.6666 10.0112C12.6533 9.35189 13.8133 9 15 9C16.5913 9 18.1174 9.63214 19.2426 10.7574C20.3679 11.8826 21 13.4087 21 15ZM19 15C19 14.2089 18.7654 13.4355 18.3259 12.7777C17.8864 12.1199 17.2616 11.6072 16.5307 11.3045C15.7998 11.0017 14.9956 10.9225 14.2196 11.0769C13.4437 11.2312 12.731 11.6122 12.1716 12.1716C11.6122 12.731 11.2312 13.4437 11.0769 14.2196C10.9225 14.9956 11.0017 15.7998 11.3045 16.5307C11.6072 17.2616 12.1199 17.8864 12.7777 18.3259C13.4355 18.7654 14.2089 19 15 19C16.0609 19 17.0783 18.5786 17.8284 17.8284C18.5786 17.0783 19 16.0609 19 15Z" fill="#2A293A"/>
</g>
</svg>
