<svg width="24" height="24" viewBox="0 0 24 24" fill="none" xmlns="http://www.w3.org/2000/svg">
<path d="M2 3V21C2 21.2652 2.10536 21.5196 2.29289 21.7071C2.48043 21.8946 2.73478 22 3 22H21C21.2652 22 21.5196 21.8946 21.7071 21.7071C21.8946 21.5196 22 21.2652 22 21V3C22 2.73478 21.8946 2.48043 21.7071 2.29289C21.5196 2.10536 21.2652 2 21 2H3C2.73478 2 2.48043 2.10536 2.29289 2.29289C2.10536 2.48043 2 2.73478 2 3ZM20 20H4V4H20V20ZM8 9H16C16.1857 9 16.3678 9.05171 16.5257 9.14935C16.6837 9.24698 16.8114 9.38668 16.8944 9.55279C16.9775 9.71889 17.0126 9.90484 16.996 10.0898C16.9793 10.2748 16.9114 10.4514 16.8 10.6L12.8 15.933C12.7069 16.0572 12.5861 16.158 12.4472 16.2274C12.3084 16.2969 12.1552 16.333 12 16.333C11.8448 16.333 11.6916 16.2969 11.5528 16.2274C11.4139 16.158 11.2931 16.0572 11.2 15.933L7.2 10.6C7.08857 10.4514 7.02072 10.2748 7.00404 10.0898C6.98736 9.90484 7.02252 9.71889 7.10557 9.55279C7.18863 9.38668 7.31629 9.24698 7.47427 9.14935C7.63225 9.05171 7.81429 9 8 9Z" fill="#2A293A"/>
</svg>
