<svg width="24" height="24" viewBox="0 0 24 24" fill="none" xmlns="http://www.w3.org/2000/svg">
<g id="element-text field">
<path id="main" d="M2 3V21C2 21.2652 2.10536 21.5196 2.29289 21.7071C2.48043 21.8946 2.73478 22 3 22H21C21.2652 22 21.5196 21.8946 21.7071 21.7071C21.8946 21.5196 22 21.2652 22 21V3C22 2.73478 21.8946 2.48043 21.7071 2.29289C21.5196 2.10536 21.2652 2 21 2H3C2.73478 2 2.48043 2.10536 2.29289 2.29289C2.10536 2.48043 2 2.73478 2 3ZM20 20H4V4H20V20ZM17 9H7C6.73478 9 6.48043 8.89464 6.29289 8.70711C6.10536 8.51957 6 8.26522 6 8C6 7.73478 6.10536 7.48043 6.29289 7.29289C6.48043 7.10536 6.73478 7 7 7H17C17.2652 7 17.5196 7.10536 17.7071 7.29289C17.8946 7.48043 18 7.73478 18 8C18 8.26522 17.8946 8.51957 17.7071 8.70711C17.5196 8.89464 17.2652 9 17 9ZM17 13H7C6.73478 13 6.48043 12.8946 6.29289 12.7071C6.10536 12.5196 6 12.2652 6 12C6 11.7348 6.10536 11.4804 6.29289 11.2929C6.48043 11.1054 6.73478 11 7 11H17C17.2652 11 17.5196 11.1054 17.7071 11.2929C17.8946 11.4804 18 11.7348 18 12C18 12.2652 17.8946 12.5196 17.7071 12.7071C17.5196 12.8946 17.2652 13 17 13ZM14 17H7C6.73478 17 6.48043 16.8946 6.29289 16.7071C6.10536 16.5196 6 16.2652 6 16C6 15.7348 6.10536 15.4804 6.29289 15.2929C6.48043 15.1054 6.73478 15 7 15H14C14.2652 15 14.5196 15.1054 14.7071 15.2929C14.8946 15.4804 15 15.7348 15 16C15 16.2652 14.8946 16.5196 14.7071 16.7071C14.5196 16.8946 14.2652 17 14 17Z" fill="#2A293A"/>
</g>
</svg>
