<svg width="24" height="24" viewBox="0 0 24 24" fill="none" xmlns="http://www.w3.org/2000/svg">
<g id="element-wheel-of fortune">
<path id="main" d="M20.709 15.4109L16.396 12.7109C16.2747 12.6352 16.1747 12.5298 16.1053 12.4047C16.036 12.2796 15.9996 12.139 15.9996 11.9959C15.9996 11.8529 16.036 11.7123 16.1053 11.5872C16.1747 11.4621 16.2747 11.3567 16.396 11.2809L20.709 8.58094C20.837 8.50103 20.9841 8.45689 21.1349 8.45311C21.2858 8.44934 21.4348 8.48608 21.5667 8.55949C21.6985 8.63291 21.8082 8.74032 21.8844 8.87055C21.9607 9.00078 22.0006 9.14906 22 9.29994V14.6999C21.9991 14.8502 21.9582 14.9974 21.8814 15.1265C21.8046 15.2556 21.6948 15.3619 21.5632 15.4343C21.4316 15.5068 21.2831 15.5428 21.1329 15.5387C20.9828 15.5346 20.8364 15.4905 20.709 15.4109ZM19.475 16.9999L17.784 15.9429C16.9415 17.1796 15.7249 18.1138 14.3127 18.6085C12.9004 19.1031 11.3668 19.1321 9.93682 18.6914C8.50683 18.2506 7.25573 17.3631 6.36703 16.1592C5.47833 14.9553 4.99881 13.4983 4.99881 12.0019C4.99881 10.5056 5.47833 9.04856 6.36703 7.84466C7.25573 6.64076 8.50683 5.75333 9.93682 5.31254C11.3668 4.87175 12.9004 4.9008 14.3127 5.39543C15.7249 5.89007 16.9415 6.82425 17.784 8.06094L19.481 6.99994C18.7824 5.946 17.8695 5.0511 16.8019 4.37355C15.7343 3.696 14.536 3.25102 13.2849 3.0676C12.0338 2.88418 10.7581 2.96645 9.54094 3.30904C8.32378 3.65163 7.19246 4.24685 6.22073 5.05591C5.24899 5.86497 4.45865 6.86971 3.9012 8.00465C3.34375 9.1396 3.0317 10.3793 2.98541 11.6429C2.93911 12.9065 3.15959 14.1657 3.63249 15.3384C4.10539 16.5111 4.82009 17.5709 5.73001 18.4489L4.00001 19.9999V21.9999H20V19.9999L18.27 18.4489C18.7207 18.0089 19.1245 17.5233 19.475 16.9999ZM9.00001 11.9999C9.00001 12.5933 9.17595 13.1733 9.5056 13.6667C9.83524 14.16 10.3038 14.5445 10.852 14.7716C11.4001 14.9986 12.0033 15.0581 12.5853 14.9423C13.1672 14.8265 13.7018 14.5408 14.1213 14.1213C14.5409 13.7017 14.8266 13.1672 14.9424 12.5852C15.0581 12.0033 14.9987 11.4001 14.7716 10.8519C14.5446 10.3037 14.1601 9.83518 13.6667 9.50554C13.1734 9.17589 12.5934 8.99994 12 8.99994C11.2044 8.99994 10.4413 9.31601 9.87869 9.87862C9.31608 10.4412 9.00001 11.2043 9.00001 11.9999Z" fill="#2A293A"/>
</g>
</svg>
