<svg width="24" height="24" viewBox="0 0 24 24" fill="none" xmlns="http://www.w3.org/2000/svg">
<g id="email">
<path id="main" d="M20 5H4C3.73478 5 3.48043 5.10536 3.29289 5.29289C3.10536 5.48043 3 5.73478 3 6V18C3 18.2652 3.10536 18.5196 3.29289 18.7071C3.48043 18.8946 3.73478 19 4 19H20C20.2652 19 20.5196 18.8946 20.7071 18.7071C20.8946 18.5196 21 18.2652 21 18V6C21 5.73478 20.8946 5.48043 20.7071 5.29289C20.5196 5.10536 20.2652 5 20 5ZM19 7V8.382L12 11.882L5 8.382V7H19ZM5 17V10.618L11.105 13.67C11.3831 13.8081 11.6895 13.88 12 13.88C12.3105 13.88 12.6169 13.8081 12.895 13.67L19 10.618V17H5Z" fill="#2A293A"/>
</g>
</svg>
