<svg width="24" height="24" viewBox="0 0 24 24" fill="none" xmlns="http://www.w3.org/2000/svg">
<g id="error">
<path id="main" d="M4.44694 4.44694C3.85102 5.04286 3.85102 6.00904 4.44694 6.60496L9.84199 12L4.44694 17.395C3.85102 17.991 3.85102 18.9571 4.44694 19.5531C5.04286 20.149 6.00904 20.149 6.60496 19.5531L12 14.158L17.395 19.553C17.991 20.149 18.9571 20.149 19.5531 19.553C20.149 18.9571 20.149 17.991 19.5531 17.395L14.158 12L19.5531 6.60497C20.149 6.00905 20.149 5.04287 19.5531 4.44695C18.9571 3.85103 17.991 3.85103 17.395 4.44695L12 9.84198L6.60496 4.44694C6.00904 3.85102 5.04286 3.85102 4.44694 4.44694Z" fill="#2A293A"/>
</g>
</svg>
