<svg width="24" height="24" viewBox="0 0 24 24" fill="none" xmlns="http://www.w3.org/2000/svg">
<g id="exit">
<path id="main" d="M15.7895 15.4286V12.8571H9.89474V11.1429H15.7895V8.57143L20 12L15.7895 15.4286ZM12.4211 16.2857H5.68421V7.71429H12.4211V9.42857H14.1053V6.85714C14.1053 6.62981 14.0165 6.4118 13.8586 6.25105C13.7007 6.09031 13.4865 6 13.2632 6H4.84211C4.61877 6 4.40457 6.09031 4.24665 6.25105C4.08872 6.4118 4 6.62981 4 6.85714V17.1429C4 17.3702 4.08872 17.5882 4.24665 17.7489C4.40457 17.9097 4.61877 18 4.84211 18H13.2632C13.4865 18 13.7007 17.9097 13.8586 17.7489C14.0165 17.5882 14.1053 17.3702 14.1053 17.1429V14.5714H12.4211V16.2857Z" fill="#2A293A"/>
</g>
</svg>
