<svg width="24" height="24" viewBox="0 0 24 24" fill="none" xmlns="http://www.w3.org/2000/svg">
<path d="M18 10.9991H6C5.73478 10.9991 5.48043 11.1045 5.29289 11.292C5.10536 11.4796 5 11.7339 5 11.9991C5 12.2644 5.10536 12.5187 5.29289 12.7063C5.48043 12.8938 5.73478 12.9991 6 12.9991H18C18.2652 12.9991 18.5196 12.8938 18.7071 12.7063C18.8946 12.5187 19 12.2644 19 11.9991C19 11.7339 18.8946 11.4796 18.7071 11.292C18.5196 11.1045 18.2652 10.9991 18 10.9991Z" fill="#2A293A"/>
<path d="M6 8.99915H18C18.2652 8.99915 18.5196 8.89379 18.7071 8.70625C18.8946 8.51872 19 8.26436 19 7.99915C19 7.73393 18.8946 7.47958 18.7071 7.29204C18.5196 7.1045 18.2652 6.99915 18 6.99915H6C5.73478 6.99915 5.48043 7.1045 5.29289 7.29204C5.10536 7.47958 5 7.73393 5 7.99915C5 8.26436 5.10536 8.51872 5.29289 8.70625C5.48043 8.89379 5.73478 8.99915 6 8.99915Z" fill="#2A293A"/>
<path d="M5 15.9991C5 16.2644 5.10536 16.5187 5.29289 16.7063C5.48043 16.8938 5.73478 16.9991 6 16.9991H10V14.9991H6C5.73478 14.9991 5.48043 15.1045 5.29289 15.292C5.10536 15.4796 5 15.7339 5 15.9991Z" fill="#2A293A"/>
<path d="M16.959 15.0401L15 16.9991L13.041 15.0401C12.9434 14.9375 12.8263 14.8555 12.6966 14.7988C12.5668 14.7421 12.427 14.712 12.2854 14.7102C12.1439 14.7085 12.0034 14.735 11.8722 14.7884C11.741 14.8417 11.6219 14.9208 11.5218 15.0209C11.4217 15.121 11.3426 15.2402 11.2892 15.3713C11.2359 15.5025 11.2093 15.643 11.2111 15.7846C11.2129 15.9262 11.243 16.066 11.2997 16.1957C11.3563 16.3255 11.4384 16.4426 11.541 16.5401L14.25 19.2491C14.3484 19.3477 14.4654 19.4259 14.5941 19.4793C14.7227 19.5326 14.8607 19.5601 15 19.5601C15.1393 19.5601 15.2773 19.5326 15.4059 19.4793C15.5346 19.4259 15.6516 19.3477 15.75 19.2491L18.459 16.5401C18.5616 16.4426 18.6437 16.3255 18.7003 16.1957C18.757 16.066 18.7871 15.9262 18.7889 15.7846C18.7907 15.643 18.7641 15.5025 18.7108 15.3713C18.6574 15.2402 18.5783 15.121 18.4782 15.0209C18.3781 14.9208 18.259 14.8417 18.1278 14.7884C17.9966 14.735 17.8561 14.7085 17.7146 14.7102C17.573 14.712 17.4332 14.7421 17.3034 14.7988C17.1737 14.8555 17.0566 14.9375 16.959 15.0401Z" fill="#2A293A"/>
</svg>
