<svg width="24" height="24" viewBox="0 0 24 24" fill="none" xmlns="http://www.w3.org/2000/svg">
<g id="file">
<path id="main" d="M19.121 6.121L16.879 3.879C16.6004 3.60029 16.2696 3.3792 15.9055 3.22838C15.5414 3.07756 15.1511 2.99995 14.757 3H5C4.73478 3 4.48043 3.10536 4.29289 3.29289C4.10536 3.48043 4 3.73478 4 4V20C4 20.2652 4.10536 20.5196 4.29289 20.7071C4.48043 20.8946 4.73478 21 5 21H19C19.2652 21 19.5196 20.8946 19.7071 20.7071C19.8946 20.5196 20 20.2652 20 20V8.243C20 7.8489 19.9224 7.45865 19.7716 7.09455C19.6208 6.73045 19.3997 6.39963 19.121 6.121ZM6 19V5H12V9C12 9.53043 12.2107 10.0391 12.5858 10.4142C12.9609 10.7893 13.4696 11 14 11H18V19H6ZM18 9H14V5H15L18 8V9Z" fill="#2A293A"/>
</g>
</svg>
