<svg width="24" height="24" viewBox="0 0 24 24" fill="none" xmlns="http://www.w3.org/2000/svg">
<path d="M14.027 11C14.8837 11.6462 15.9269 11.9971 17 12V13H7V11H14.027ZM12 7H4V9H12.422C12.1445 8.36969 12.0008 7.68868 12 7ZM10 17H14V15H10V17ZM17 4C16.4067 4 15.8266 4.17595 15.3333 4.50559C14.8399 4.83524 14.4554 5.30377 14.2284 5.85195C14.0013 6.40013 13.9419 7.00333 14.0576 7.58527C14.1734 8.16721 14.4591 8.70176 14.8787 9.12132C15.2982 9.54088 15.8328 9.8266 16.4147 9.94236C16.9967 10.0581 17.5999 9.9987 18.1481 9.77164C18.6962 9.54458 19.1648 9.16006 19.4944 8.66671C19.8241 8.17336 20 7.59334 20 7C20 6.20435 19.6839 5.44129 19.1213 4.87868C18.5587 4.31607 17.7956 4 17 4Z" fill="#2A293A"/>
</svg>
