<svg width="24" height="24" viewBox="0 0 24 24" fill="none" xmlns="http://www.w3.org/2000/svg">
<g id="flow-step">
<path id="main" d="M19.1176 10C19.4899 10 19.8539 10.1173 20.1634 10.3371C20.473 10.5568 20.7142 10.8692 20.8567 11.2346C20.9992 11.6001 21.0365 12.0022 20.9638 12.3902C20.8912 12.7781 20.7119 13.1345 20.4487 13.4142C20.1854 13.6939 19.85 13.8844 19.4849 13.9616C19.1197 14.0387 18.7413 13.9991 18.3973 13.8478C18.0533 13.6964 17.7594 13.44 17.5525 13.1111C17.3457 12.7822 17.2353 12.3956 17.2353 12C17.2353 11.4696 17.4336 10.9609 17.7866 10.5858C18.1396 10.2107 18.6184 10 19.1176 10ZM19.1176 9C19.439 9.00323 19.7574 9.06548 20.0588 9.184V5C20.0588 4.73478 19.9597 4.48043 19.7832 4.29289C19.6067 4.10536 19.3673 4 19.1176 4H5.94118C5.69156 4 5.45217 4.10536 5.27566 4.29289C5.09916 4.48043 5 4.73478 5 5V19C5 19.2652 5.09916 19.5196 5.27566 19.7071C5.45217 19.8946 5.69156 20 5.94118 20H19.1176C19.3673 20 19.6067 19.8946 19.7832 19.7071C19.9597 19.5196 20.0588 19.2652 20.0588 19V14.816C19.4526 15.0614 18.7827 15.0614 18.1765 14.816V18H6.88235V6H18.1765V9.184C18.4779 9.06548 18.7963 9.00323 19.1176 9Z" fill="#2A293A"/>
</g>
</svg>
