<svg width="24" height="24" viewBox="0 0 24 24" fill="none" xmlns="http://www.w3.org/2000/svg">
<g id="flowchart">
<path id="main" fill-rule="evenodd" clip-rule="evenodd" d="M8 5C8 3.34315 9.34315 2 11 2H13C14.6569 2 16 3.34315 16 5V7C16 8.65685 14.6569 10 13 10C13 10.5523 13.4477 11 14 11H16C17.6569 11 19 12.3431 19 14C20.6569 14 22 15.3431 22 17V19C22 20.6569 20.6569 22 19 22H17C15.3431 22 14 20.6569 14 19V17C14 15.3431 15.3431 14 17 14C17 13.4477 16.5523 13 16 13H14C13.2316 13 12.5308 12.7111 12 12.2361C11.4692 12.7111 10.7684 13 10 13H8C7.44772 13 7 13.4477 7 14C8.65685 14 10 15.3431 10 17V19C10 20.6569 8.65685 22 7 22H5C3.34315 22 2 20.6569 2 19V17C2 15.3431 3.34315 14 5 14C5 12.3431 6.34315 11 8 11H10C10.5523 11 11 10.5523 11 10C9.34315 10 8 8.65685 8 7V5ZM11 4C10.4477 4 10 4.44772 10 5V7C10 7.55228 10.4477 8 11 8H13C13.5523 8 14 7.55228 14 7V5C14 4.44772 13.5523 4 13 4H11ZM5 16C4.44772 16 4 16.4477 4 17V19C4 19.5523 4.44772 20 5 20H7C7.55228 20 8 19.5523 8 19V17C8 16.4477 7.55228 16 7 16H5ZM16 17C16 16.4477 16.4477 16 17 16H19C19.5523 16 20 16.4477 20 17V19C20 19.5523 19.5523 20 19 20H17C16.4477 20 16 19.5523 16 19V17Z" fill="#2A293A"/>
</g>
</svg>
