<svg width="24" height="24" viewBox="0 0 24 24" fill="none" xmlns="http://www.w3.org/2000/svg">
<g id="flow-step">
<path id="main" d="M19 10C19.3956 10 19.7822 10.1173 20.1111 10.3371C20.44 10.5568 20.6964 10.8692 20.8478 11.2346C20.9991 11.6001 21.0387 12.0022 20.9616 12.3902C20.8844 12.7781 20.6939 13.1345 20.4142 13.4142C20.1345 13.6939 19.7781 13.8844 19.3902 13.9616C19.0022 14.0387 18.6001 13.9991 18.2346 13.8478C17.8692 13.6964 17.5568 13.44 17.3371 13.1111C17.1173 12.7822 17 12.3956 17 12C17 11.4696 17.2107 10.9609 17.5858 10.5858C17.9609 10.2107 18.4696 10 19 10ZM19 9C19.3414 9.00323 19.6798 9.06548 20 9.184V5C20 4.73478 19.8946 4.48043 19.7071 4.29289C19.5196 4.10536 19.2652 4 19 4H5C4.73478 4 4.48043 4.10536 4.29289 4.29289C4.10536 4.48043 4 4.73478 4 5V19C4 19.2652 4.10536 19.5196 4.29289 19.7071C4.48043 19.8946 4.73478 20 5 20H19C19.2652 20 19.5196 19.8946 19.7071 19.7071C19.8946 19.5196 20 19.2652 20 19V14.816C19.3559 15.0614 18.6441 15.0614 18 14.816V18H6V6H18V9.184C18.3202 9.06548 18.6586 9.00323 19 9Z" fill="#2A293A"/>
</g>
</svg>
