<svg width="24" height="24" viewBox="0 0 24 24" fill="none" xmlns="http://www.w3.org/2000/svg">
<path d="M16 16C16 14.9391 15.5786 13.9217 14.8284 13.1716C14.0783 12.4214 13.0609 12 12 12C10.9391 12 9.92172 12.4214 9.17158 13.1716C8.42143 13.9217 8 14.9391 8 16H9.918C9.91774 15.7256 9.97142 15.4537 10.076 15.2C10.2883 14.6921 10.6921 14.2883 11.2 14.076C11.7105 13.8653 12.2836 13.8653 12.794 14.076C13.3042 14.287 13.7103 14.691 13.924 15.2C14.0286 15.4537 14.0823 15.7256 14.082 16H16Z" fill="#2A293A"/>
<path d="M11 10V9C11 8.44772 10.5523 8 10 8C9.44772 8 9 8.44772 9 9V10C9 10.5523 9.44772 11 10 11C10.5523 11 11 10.5523 11 10Z" fill="#2A293A"/>
<path d="M15 10V9C15 8.44772 14.5523 8 14 8C13.4477 8 13 8.44772 13 9V10C13 10.5523 13.4477 11 14 11C14.5523 11 15 10.5523 15 10Z" fill="#2A293A"/>
<path d="M12 3C10.22 3 8.47991 3.52784 6.99987 4.51677C5.51983 5.50571 4.36628 6.91131 3.68509 8.55585C3.0039 10.2004 2.82567 12.01 3.17294 13.7558C3.5202 15.5016 4.37737 17.1053 5.63604 18.364C6.89472 19.6226 8.49836 20.4798 10.2442 20.8271C11.99 21.1743 13.7996 20.9961 15.4442 20.3149C17.0887 19.6337 18.4943 18.4802 19.4832 17.0001C20.4722 15.5201 21 13.78 21 12C21 9.61305 20.0518 7.32387 18.364 5.63604C16.6761 3.94821 14.387 3 12 3ZM12 19C10.6155 19 9.26216 18.5895 8.11101 17.8203C6.95987 17.0511 6.06266 15.9579 5.53285 14.6788C5.00303 13.3997 4.86441 11.9922 5.13451 10.6344C5.4046 9.2765 6.07129 8.02922 7.05026 7.05025C8.02922 6.07128 9.27651 5.4046 10.6344 5.1345C11.9922 4.86441 13.3997 5.00303 14.6788 5.53284C15.9579 6.06266 17.0511 6.95986 17.8203 8.11101C18.5895 9.26215 19 10.6155 19 12C19 13.8565 18.2625 15.637 16.9498 16.9497C15.637 18.2625 13.8565 19 12 19Z" fill="#2A293A"/>
</svg>
