<svg width="24" height="24" viewBox="0 0 24 24" fill="none" xmlns="http://www.w3.org/2000/svg">
<g id="frown">
<g id="main">
<path d="M15.5556 15.5556C15.5556 14.6126 15.181 13.7082 14.5142 13.0414C13.8474 12.3746 12.943 12 12 12C11.057 12 10.1526 12.3746 9.48585 13.0414C8.81905 13.7082 8.44445 14.6126 8.44445 15.5556H10.1493C10.1491 15.3116 10.1968 15.07 10.2898 14.8444C10.4785 14.393 10.8374 14.034 11.2889 13.8453C11.7426 13.6581 12.252 13.6581 12.7058 13.8453C13.1593 14.0329 13.5203 14.392 13.7102 14.8444C13.8032 15.07 13.8509 15.3116 13.8507 15.5556H15.5556Z" fill="#2A293A"/>
<path d="M11.1111 10.2222V9.33333C11.1111 8.84241 10.7131 8.44444 10.2222 8.44444C9.73131 8.44444 9.33334 8.84241 9.33334 9.33333V10.2222C9.33334 10.7131 9.73131 11.1111 10.2222 11.1111C10.7131 11.1111 11.1111 10.7131 11.1111 10.2222Z" fill="#2A293A"/>
<path d="M14.6667 10.2222V9.33333C14.6667 8.84241 14.2687 8.44444 13.7778 8.44444C13.2869 8.44444 12.8889 8.84241 12.8889 9.33333V10.2222C12.8889 10.7131 13.2869 11.1111 13.7778 11.1111C14.2687 11.1111 14.6667 10.7131 14.6667 10.2222Z" fill="#2A293A"/>
<path d="M12 4C10.4178 4 8.87103 4.46919 7.55544 5.34824C6.23985 6.22729 5.21447 7.47672 4.60897 8.93853C4.00347 10.4003 3.84504 12.0089 4.15372 13.5607C4.4624 15.1126 5.22433 16.538 6.34315 17.6568C7.46197 18.7757 8.88743 19.5376 10.4393 19.8463C11.9911 20.155 13.5997 19.9965 15.0615 19.391C16.5233 18.7855 17.7727 17.7601 18.6518 16.4446C19.5308 15.129 20 13.5822 20 12C20 9.87827 19.1571 7.84344 17.6569 6.34314C16.1566 4.84285 14.1217 4 12 4ZM12 18.2222C10.7694 18.2222 9.56636 17.8573 8.54312 17.1736C7.51988 16.4899 6.72236 15.5181 6.25142 14.3811C5.78047 13.2442 5.65725 11.9931 5.89734 10.7861C6.13742 9.57911 6.73003 8.47042 7.60023 7.60022C8.47042 6.73003 9.57911 6.13742 10.7861 5.89734C11.9931 5.65725 13.2442 5.78047 14.3811 6.25142C15.5181 6.72236 16.4899 7.51988 17.1736 8.54312C17.8573 9.56636 18.2222 10.7694 18.2222 12C18.2222 13.6502 17.5667 15.2329 16.3998 16.3998C15.2329 17.5667 13.6502 18.2222 12 18.2222Z" fill="#2A293A"/>
</g>
</g>
</svg>
