<svg width="24" height="24" viewBox="0 0 24 24" fill="none" xmlns="http://www.w3.org/2000/svg">
<g id="go-to-chat">
<path id="main" d="M11.006 7L16 11L11.006 15V12H8V10H11.006V7ZM22 7V15C22 16.0609 21.5786 17.0783 20.8284 17.8284C20.0783 18.5786 19.0609 19 18 19H14L10.707 22.293C10.6163 22.3873 10.5076 22.4624 10.3874 22.5139C10.2672 22.5655 10.1378 22.5924 10.007 22.593C9.87509 22.5939 9.7443 22.5687 9.62217 22.5189C9.50003 22.4691 9.38896 22.3955 9.29536 22.3026C9.20176 22.2096 9.12748 22.0991 9.07678 21.9773C9.02609 21.8555 9 21.7249 9 21.593V19H6C4.93913 19 3.92172 18.5786 3.17157 17.8284C2.42143 17.0783 2 16.0609 2 15V7C2 5.93913 2.42143 4.92172 3.17157 4.17157C3.92172 3.42143 4.93913 3 6 3H18C19.0609 3 20.0783 3.42143 20.8284 4.17157C21.5786 4.92172 22 5.93913 22 7ZM20 7C20 6.46957 19.7893 5.96086 19.4142 5.58579C19.0391 5.21071 18.5304 5 18 5H6C5.46957 5 4.96086 5.21071 4.58579 5.58579C4.21071 5.96086 4 6.46957 4 7V15C4 15.5304 4.21071 16.0391 4.58579 16.4142C4.96086 16.7893 5.46957 17 6 17H11V19.172L12.586 17.586L13.172 17H18C18.5304 17 19.0391 16.7893 19.4142 16.4142C19.7893 16.0391 20 15.5304 20 15V7Z" fill="#2A293A"/>
</g>
</svg>
