<svg width="24" height="24" viewBox="0 0 24 24" fill="none" xmlns="http://www.w3.org/2000/svg">
<g id="goal-set">
<path id="main" d="M20.5655 10.7415C20.7624 12.4548 20.4213 14.1869 19.5896 15.6977C18.7578 17.2085 17.4767 18.4231 15.9237 19.1731C14.3707 19.9231 12.6229 20.1713 10.9225 19.8833C9.22208 19.5954 7.6534 18.7856 6.43392 17.5661C5.21444 16.3466 4.40459 14.7779 4.11665 13.0775C3.82871 11.3771 4.07694 9.62928 4.82693 8.0763C5.57692 6.52332 6.79151 5.24215 8.3023 4.41043C9.81309 3.57871 11.5452 3.23764 13.2585 3.43452V5.29415C11.9053 5.08835 10.5215 5.31516 9.30478 5.94224C8.08801 6.56931 7.10035 7.56462 6.48266 8.78618C5.86498 10.0077 5.64883 11.3932 5.86505 12.7448C6.08127 14.0965 6.71881 15.3453 7.68673 16.3133C8.65465 17.2812 9.90351 17.9187 11.2552 18.1349C12.6068 18.3512 13.9923 18.135 15.2138 17.5173C16.4354 16.8997 17.4307 15.912 18.0578 14.6952C18.6848 13.4785 18.9117 12.0947 18.7059 10.7415H20.5655ZM12.3384 8.90115V7.06084C11.4285 7.06084 10.5389 7.33067 9.78235 7.83621C9.02576 8.34175 8.43607 9.06029 8.08784 9.90097C7.73962 10.7416 7.64851 11.6667 7.82603 12.5592C8.00356 13.4516 8.44174 14.2714 9.08516 14.9148C9.72859 15.5583 10.5484 15.9964 11.4408 16.174C12.3333 16.3515 13.2584 16.2604 14.099 15.9122C14.9397 15.5639 15.6583 14.9742 16.1638 14.2177C16.6693 13.4611 16.9392 12.5715 16.9392 11.6616H15.0989C15.0989 12.2076 14.937 12.7413 14.6336 13.1952C14.3303 13.6492 13.8992 14.003 13.3948 14.2119C12.8904 14.4209 12.3353 14.4755 11.7999 14.369C11.2644 14.2625 10.7725 13.9996 10.3865 13.6135C10.0004 13.2275 9.73749 12.7356 9.63098 12.2001C9.52447 11.6647 9.57913 11.1096 9.78806 10.6052C9.997 10.1008 10.3508 9.66969 10.8048 9.36637C11.2587 9.06304 11.7924 8.90115 12.3384 8.90115ZM11.6878 12.3122C11.8604 12.4847 12.0944 12.5816 12.3384 12.5816C12.5824 12.5816 12.8164 12.4847 12.9889 12.3122L15.9399 9.36122H18.3194L22 5.68061H18.3194V2L14.6388 5.68061V8.06013L11.6878 11.0111C11.5153 11.1836 11.4184 11.4176 11.4184 11.6616C11.4184 11.9056 11.5153 12.1396 11.6878 12.3122Z" fill="#2A293A"/>
</g>
</svg>
