<svg width="24" height="24" viewBox="0 0 24 24" fill="none" xmlns="http://www.w3.org/2000/svg">
<path d="M20.941 11C21.155 12.862 20.7843 14.7444 19.8804 16.3863C18.9765 18.0282 17.5842 19.3482 15.8964 20.1633C14.2087 20.9784 12.3092 21.2481 10.4612 20.9352C8.61326 20.6223 6.90846 19.7421 5.58316 18.4168C4.25786 17.0915 3.37774 15.3867 3.06481 13.5388C2.75188 11.6909 3.02165 9.79132 3.83672 8.10358C4.65179 6.41583 5.97178 5.02349 7.61367 4.1196C9.25556 3.2157 11.138 2.84504 13 3.059V5.08C11.5293 4.85634 10.0255 5.10284 8.70314 5.78433C7.38079 6.46582 6.30742 7.54749 5.63613 8.87506C4.96485 10.2026 4.72995 11.7083 4.96493 13.1772C5.19991 14.6462 5.89277 16.0034 6.94468 17.0553C7.9966 18.1072 9.35383 18.8001 10.8228 19.0351C12.2917 19.2701 13.7974 19.0352 15.1249 18.3639C16.4525 17.6926 17.5342 16.6192 18.2157 15.2969C18.8972 13.9745 19.1437 12.4707 18.92 11H20.941ZM12 9V7C11.0111 7 10.0444 7.29324 9.22215 7.84265C8.39991 8.39206 7.75904 9.17295 7.38061 10.0866C7.00217 11.0002 6.90315 12.0055 7.09608 12.9755C7.289 13.9454 7.76521 14.8363 8.46447 15.5355C9.16373 16.2348 10.0546 16.711 11.0246 16.9039C11.9945 17.0969 12.9998 16.9978 13.9134 16.6194C14.8271 16.241 15.6079 15.6001 16.1574 14.7779C16.7068 13.9556 17 12.9889 17 12H15C15 12.5933 14.8241 13.1734 14.4944 13.6667C14.1648 14.1601 13.6962 14.5446 13.1481 14.7716C12.5999 14.9987 11.9967 15.0581 11.4147 14.9424C10.8328 14.8266 10.2982 14.5409 9.87868 14.1213C9.45912 13.7018 9.1734 13.1672 9.05765 12.5853C8.94189 12.0033 9.0013 11.4001 9.22836 10.8519C9.45543 10.3038 9.83994 9.83524 10.3333 9.50559C10.8266 9.17595 11.4067 9 12 9ZM11.293 12.707C11.4805 12.8945 11.7348 12.9998 12 12.9998C12.2652 12.9998 12.5195 12.8945 12.707 12.707L15.914 9.5H18.5L22.5 5.5H18.5V1.5L14.5 5.5V8.086L11.293 11.293C11.1055 11.4805 11.0002 11.7348 11.0002 12C11.0002 12.2652 11.1055 12.5195 11.293 12.707Z" fill="#2A293A"/>
</svg>
