<svg width="24" height="24" viewBox="0 0 24 24" fill="none" xmlns="http://www.w3.org/2000/svg">
<g id="goal-set">
<path id="main" d="M20.941 11C21.155 12.862 20.7843 14.7444 19.8804 16.3863C18.9765 18.0282 17.5842 19.3482 15.8964 20.1633C14.2087 20.9784 12.3092 21.2481 10.4612 20.9352C8.61328 20.6223 6.90847 19.7421 5.58318 18.4168C4.25788 17.0915 3.37775 15.3867 3.06482 13.5388C2.75189 11.6909 3.02167 9.79132 3.83674 8.10358C4.65181 6.41583 5.9718 5.02349 7.61369 4.1196C9.25557 3.2157 11.138 2.84504 13 3.059V5.08C11.5293 4.85634 10.0255 5.10284 8.70316 5.78433C7.3808 6.46582 6.30743 7.54749 5.63615 8.87506C4.96487 10.2026 4.72996 11.7083 4.96494 13.1772C5.19992 14.6462 5.89279 16.0034 6.9447 17.0553C7.99661 18.1072 9.35385 18.8001 10.8228 19.0351C12.2918 19.2701 13.7974 19.0352 15.125 18.3639C16.4525 17.6926 17.5342 16.6192 18.2157 15.2969C18.8972 13.9745 19.1437 12.4707 18.92 11H20.941ZM12 9V7C11.0111 7 10.0444 7.29324 9.22217 7.84265C8.39992 8.39206 7.75906 9.17295 7.38062 10.0866C7.00218 11.0002 6.90317 12.0055 7.09609 12.9755C7.28902 13.9454 7.76522 14.8363 8.46448 15.5355C9.16375 16.2348 10.0547 16.711 11.0246 16.9039C11.9945 17.0969 12.9998 16.9978 13.9134 16.6194C14.8271 16.241 15.608 15.6001 16.1574 14.7779C16.7068 13.9556 17 12.9889 17 12H15C15 12.5933 14.8241 13.1734 14.4944 13.6667C14.1648 14.1601 13.6962 14.5446 13.1481 14.7716C12.5999 14.9987 11.9967 15.0581 11.4147 14.9424C10.8328 14.8266 10.2983 14.5409 9.8787 14.1213C9.45914 13.7018 9.17342 13.1672 9.05766 12.5853C8.94191 12.0033 9.00132 11.4001 9.22838 10.8519C9.45544 10.3038 9.83996 9.83524 10.3333 9.50559C10.8267 9.17595 11.4067 9 12 9ZM11.293 12.707C11.4805 12.8945 11.7349 12.9998 12 12.9998C12.2652 12.9998 12.5195 12.8945 12.707 12.707L15.914 9.5H18.5L22.5 5.5H18.5V1.5L14.5 5.5V8.086L11.293 11.293C11.1055 11.4805 11.0002 11.7348 11.0002 12C11.0002 12.2652 11.1055 12.5195 11.293 12.707Z" fill="#2A293A"/>
</g>
</svg>
