<svg width="24" height="24" viewBox="0 0 24 24" fill="none" xmlns="http://www.w3.org/2000/svg">
<g id="goal">
<path id="main" d="M12 4C10.4178 4 8.87103 4.46919 7.55544 5.34824C6.23985 6.22729 5.21447 7.47672 4.60897 8.93853C4.00347 10.4003 3.84504 12.0089 4.15372 13.5607C4.4624 15.1126 5.22433 16.538 6.34315 17.6568C7.46197 18.7757 8.88743 19.5376 10.4393 19.8463C11.9911 20.155 13.5997 19.9965 15.0615 19.391C16.5233 18.7855 17.7727 17.7601 18.6518 16.4446C19.5308 15.129 20 13.5822 20 12C20 9.87827 19.1571 7.84344 17.6569 6.34314C16.1566 4.84285 14.1217 4 12 4ZM12 18.2222C10.7694 18.2222 9.56636 17.8573 8.54312 17.1736C7.51988 16.4899 6.72236 15.5181 6.25142 14.3811C5.78047 13.2442 5.65725 11.9931 5.89734 10.7861C6.13742 9.57911 6.73003 8.47042 7.60023 7.60022C8.47042 6.73003 9.57911 6.13742 10.7861 5.89734C11.9931 5.65725 13.2442 5.78047 14.3811 6.25142C15.5181 6.72236 16.4899 7.51988 17.1736 8.54312C17.8573 9.56636 18.2222 10.7694 18.2222 12C18.2222 13.6502 17.5667 15.2329 16.3998 16.3998C15.2329 17.5667 13.6502 18.2222 12 18.2222ZM12 7.55555C11.121 7.55555 10.2617 7.81622 9.5308 8.30458C8.79992 8.79294 8.23026 9.48707 7.89387 10.2992C7.55748 11.1113 7.46947 12.0049 7.64096 12.8671C7.81245 13.7292 8.23574 14.5211 8.85731 15.1427C9.47887 15.7643 10.2708 16.1876 11.1329 16.359C11.9951 16.5305 12.8887 16.4425 13.7008 16.1061C14.5129 15.7697 15.2071 15.2001 15.6954 14.4692C16.1838 13.7383 16.4444 12.879 16.4444 12C16.4444 10.8213 15.9762 9.6908 15.1427 8.8573C14.3092 8.02381 13.1787 7.55555 12 7.55555ZM12 14.6667C11.4726 14.6667 10.957 14.5103 10.5185 14.2172C10.08 13.9242 9.73816 13.5078 9.53632 13.0205C9.33449 12.5332 9.28168 11.997 9.38457 11.4798C9.48747 10.9625 9.74144 10.4873 10.1144 10.1144C10.4873 9.74144 10.9625 9.48746 11.4798 9.38457C11.997 9.28168 12.5332 9.33449 13.0205 9.53632C13.5078 9.73815 13.9242 10.0799 14.2173 10.5185C14.5103 10.957 14.6667 11.4726 14.6667 12C14.6667 12.7072 14.3857 13.3855 13.8856 13.8856C13.3855 14.3857 12.7072 14.6667 12 14.6667ZM12.8889 12C12.8889 12.1758 12.8368 12.3477 12.7391 12.4938C12.6414 12.64 12.5026 12.7539 12.3402 12.8212C12.1777 12.8885 11.999 12.9061 11.8266 12.8718C11.6542 12.8375 11.4958 12.7528 11.3715 12.6285C11.2471 12.5042 11.1625 12.3458 11.1282 12.1734C11.0939 12.001 11.1115 11.8223 11.1788 11.6598C11.2461 11.4974 11.36 11.3586 11.5062 11.2609C11.6523 11.1632 11.8242 11.1111 12 11.1111C12.2358 11.1111 12.4618 11.2048 12.6285 11.3715C12.7952 11.5382 12.8889 11.7642 12.8889 12Z" fill="#2A293A"/>
</g>
</svg>
