<svg width="24" height="24" viewBox="0 0 24 24" fill="none" xmlns="http://www.w3.org/2000/svg">
<g id="graph-compared">
<path id="main" d="M16 12C16 11.6044 16.1173 11.2178 16.3371 10.8889C16.5568 10.56 16.8692 10.3036 17.2346 10.1522C17.6001 10.0009 18.0022 9.96126 18.3902 10.0384C18.7781 10.1156 19.1345 10.3061 19.4142 10.5858C19.6939 10.8655 19.8844 11.2219 19.9616 11.6098C20.0387 11.9978 19.9991 12.3999 19.8478 12.7654C19.6964 13.1308 19.44 13.4432 19.1111 13.6629C18.7822 13.8827 18.3956 14 18 14C17.4696 14 16.9609 13.7893 16.5858 13.4142C16.2107 13.0391 16 12.5304 16 12ZM12 14C12.3956 14 12.7822 13.8827 13.1111 13.6629C13.44 13.4432 13.6964 13.1308 13.8478 12.7654C13.9991 12.3999 14.0387 11.9978 13.9616 11.6098C13.8844 11.2219 13.6939 10.8655 13.4142 10.5858C13.1345 10.3061 12.7781 10.1156 12.3902 10.0384C12.0022 9.96126 11.6001 10.0009 11.2346 10.1522C10.8692 10.3036 10.5568 10.56 10.3371 10.8889C10.1173 11.2178 10 11.6044 10 12C10 12.5304 10.2107 13.0391 10.5858 13.4142C10.9609 13.7893 11.4696 14 12 14ZM6 14C6.39556 14 6.78224 13.8827 7.11114 13.6629C7.44004 13.4432 7.69638 13.1308 7.84776 12.7654C7.99913 12.3999 8.03874 11.9978 7.96157 11.6098C7.8844 11.2219 7.69392 10.8655 7.41421 10.5858C7.13451 10.3061 6.77814 10.1156 6.39018 10.0384C6.00222 9.96126 5.60009 10.0009 5.23463 10.1522C4.86918 10.3036 4.55682 10.56 4.33706 10.8889C4.1173 11.2178 4 11.6044 4 12C4 12.5304 4.21071 13.0391 4.58579 13.4142C4.96086 13.7893 5.46957 14 6 14Z" fill="#2A293A"/>
</g>
</svg>
