<svg width="24" height="24" viewBox="0 0 24 24" fill="none" xmlns="http://www.w3.org/2000/svg">
<g id="image">
<path id="main" d="M13 9C13 8.60444 13.1173 8.21776 13.3371 7.88886C13.5568 7.55996 13.8692 7.30362 14.2346 7.15224C14.6001 7.00087 15.0022 6.96126 15.3902 7.03843C15.7781 7.1156 16.1345 7.30608 16.4142 7.58579C16.6939 7.86549 16.8844 8.22186 16.9616 8.60982C17.0387 8.99778 16.9991 9.39991 16.8478 9.76537C16.6964 10.1308 16.44 10.4432 16.1111 10.6629C15.7822 10.8827 15.3956 11 15 11C14.4696 11 13.9609 10.7893 13.5858 10.4142C13.2107 10.0391 13 9.53043 13 9ZM22 3V21C22 21.2652 21.8946 21.5196 21.7071 21.7071C21.5196 21.8946 21.2652 22 21 22H3C2.73478 22 2.48043 21.8946 2.29289 21.7071C2.10536 21.5196 2 21.2652 2 21V3C2 2.73478 2.10536 2.48043 2.29289 2.29289C2.48043 2.10536 2.73478 2 3 2H21C21.2652 2 21.5196 2.10536 21.7071 2.29289C21.8946 2.48043 22 2.73478 22 3ZM15 20L9.5 14.5L4 20H15ZM20 4H4V17L8 13L8.793 12.207C8.98053 12.0195 9.23484 11.9142 9.5 11.9142C9.76516 11.9142 10.0195 12.0195 10.207 12.207L11 13L14.5 16.5L16 15L17.293 13.707C17.4805 13.5195 17.7348 13.4142 18 13.4142C18.2652 13.4142 18.5195 13.5195 18.707 13.707L20 15V4Z" fill="#2A293A"/>
</g>
</svg>
