<svg width="24" height="24" viewBox="0 0 24 24" fill="none" xmlns="http://www.w3.org/2000/svg">
<g id="incorrect">
<path id="main" fill-rule="evenodd" clip-rule="evenodd" d="M16 14L14 12L16 10C16.1319 9.86903 16.2367 9.71324 16.3081 9.54161C16.3796 9.36998 16.4164 9.18591 16.4164 9C16.4164 8.81409 16.3796 8.63001 16.3081 8.45839C16.2367 8.28676 16.1319 8.13097 16 8C15.869 7.86805 15.7132 7.76333 15.5416 7.69187C15.37 7.6204 15.1859 7.58361 15 7.58361C14.8141 7.58361 14.63 7.6204 14.4584 7.69187C14.2868 7.76333 14.131 7.86805 14 8L12 10L10 8C9.86903 7.86805 9.71324 7.76333 9.54161 7.69187C9.36998 7.6204 9.18591 7.58361 9 7.58361C8.81409 7.58361 8.63001 7.6204 8.45839 7.69187C8.28676 7.76333 8.13097 7.86805 8 8C7.86805 8.13097 7.76333 8.28676 7.69187 8.45839C7.6204 8.63001 7.58361 8.81409 7.58361 9C7.58361 9.18591 7.6204 9.36998 7.69187 9.54161C7.76333 9.71324 7.86805 9.86903 8 10L10 12L8 14C7.86805 14.131 7.76333 14.2868 7.69187 14.4584C7.6204 14.63 7.58361 14.8141 7.58361 15C7.58361 15.1859 7.6204 15.37 7.69187 15.5416C7.76333 15.7132 7.86805 15.869 8 16C8.13097 16.1319 8.28676 16.2367 8.45839 16.3081C8.63001 16.3796 8.81409 16.4164 9 16.4164C9.18591 16.4164 9.36998 16.3796 9.54161 16.3081C9.71324 16.2367 9.86903 16.1319 10 16L12 14L14 16C14.131 16.1319 14.2868 16.2367 14.4584 16.3081C14.63 16.3796 14.8141 16.4164 15 16.4164C15.1859 16.4164 15.37 16.3796 15.5416 16.3081C15.7132 16.2367 15.869 16.1319 16 16C16.1319 15.869 16.2367 15.7132 16.3081 15.5416C16.3796 15.37 16.4164 15.1859 16.4164 15C16.4164 14.8141 16.3796 14.63 16.3081 14.4584C16.2367 14.2868 16.1319 14.131 16 14ZM12 4C13.5822 4 15.129 4.46919 16.4446 5.34824C17.7602 6.22729 18.7855 7.47672 19.391 8.93853C19.9965 10.4003 20.155 12.0089 19.8463 13.5607C19.5376 15.1126 18.7757 16.538 17.6569 17.6569C16.538 18.7757 15.1126 19.5376 13.5607 19.8463C12.0089 20.155 10.4003 19.9965 8.93853 19.391C7.47672 18.7855 6.22729 17.7602 5.34824 16.4446C4.46919 15.129 4 13.5822 4 12C4 9.87827 4.84285 7.84344 6.34315 6.34315C7.84344 4.84285 9.87827 4 12 4Z" fill="#2A293A"/>
</g>
</svg>
