<svg width="24" height="24" viewBox="0 0 24 24" fill="none" xmlns="http://www.w3.org/2000/svg">
<g id="information">
<g id="main">
<path d="M12 20C10.8933 20 9.85333 19.7899 8.88 19.3696C7.90667 18.9493 7.06 18.3795 6.34 17.66C5.62 16.94 5.05013 16.0933 4.6304 15.12C4.21067 14.1467 4.00053 13.1067 4 12C4 10.8933 4.21013 9.85333 4.6304 8.88C5.05067 7.90667 5.62053 7.06 6.34 6.34C7.06 5.62 7.90667 5.05013 8.88 4.6304C9.85333 4.21067 10.8933 4.00053 12 4C13.1067 4 14.1467 4.21013 15.12 4.6304C16.0933 5.05067 16.94 5.62053 17.66 6.34C18.38 7.06 18.9501 7.90667 19.3704 8.88C19.7907 9.85333 20.0005 10.8933 20 12C20 13.1067 19.7899 14.1467 19.3696 15.12C18.9493 16.0933 18.3795 16.94 17.66 17.66C16.94 18.38 16.0933 18.9501 15.12 19.3704C14.1467 19.7907 13.1067 20.0005 12 20ZM12 18.4C13.7867 18.4 15.3 17.78 16.54 16.54C17.78 15.3 18.4 13.7867 18.4 12C18.4 10.2133 17.78 8.7 16.54 7.46C15.3 6.22 13.7867 5.6 12 5.6C10.2133 5.6 8.7 6.22 7.46 7.46C6.22 8.7 5.6 10.2133 5.6 12C5.6 13.7867 6.22 15.3 7.46 16.54C8.7 17.78 10.2133 18.4 12 18.4Z" fill="#2A293A"/>
<path d="M11.3059 17C11.2196 17 11.149 16.9683 11.0941 16.9048C11.0392 16.8413 11.0118 16.7596 11.0118 16.6599V10.2653C11.0118 10.1655 11.0392 10.0839 11.0941 10.0204C11.149 9.95692 11.2196 9.92517 11.3059 9.92517H12.6941C12.7725 9.92517 12.8392 9.95692 12.8941 10.0204C12.9569 10.0839 12.9882 10.1655 12.9882 10.2653V16.6599C12.9882 16.7596 12.9569 16.8413 12.8941 16.9048C12.8392 16.9683 12.7725 17 12.6941 17H11.3059ZM11.2941 8.90476C11.2078 8.90476 11.1373 8.87302 11.0824 8.80952C11.0275 8.74603 11 8.6644 11 8.56463V7.35374C11 7.25397 11.0275 7.17234 11.0824 7.10884C11.1373 7.03628 11.2078 7 11.2941 7H12.6941C12.7804 7 12.851 7.03628 12.9059 7.10884C12.9686 7.17234 13 7.25397 13 7.35374V8.56463C13 8.6644 12.9686 8.74603 12.9059 8.80952C12.851 8.87302 12.7804 8.90476 12.6941 8.90476H11.2941Z" fill="#2A293A"/>
</g>
</g>
</svg>
