<svg width="24" height="24" viewBox="0 0 24 24" fill="none" xmlns="http://www.w3.org/2000/svg">
<path d="M10 9C10 9.79113 9.76541 10.5645 9.32588 11.2223C8.88635 11.8801 8.26164 12.3928 7.53074 12.6955C6.79983 12.9983 5.99556 13.0775 5.21964 12.9231C4.44372 12.7688 3.73098 12.3878 3.17157 11.8284C2.61216 11.269 2.2312 10.5563 2.07686 9.78036C1.92252 9.00444 2.00173 8.20017 2.30448 7.46927C2.60723 6.73836 3.11992 6.11365 3.77772 5.67412C4.43552 5.2346 5.20888 5 6 5C7.06087 5 8.07828 5.42143 8.82843 6.17157C9.57857 6.92172 10 7.93913 10 9ZM21.806 16.853L16.74 8.077C16.6144 7.85936 16.4338 7.67862 16.2162 7.55295C15.9986 7.42728 15.7518 7.36112 15.5005 7.36112C15.2492 7.36112 15.0024 7.42728 14.7848 7.55295C14.5672 7.67862 14.3866 7.85936 14.261 8.077L9.194 16.853C9.06829 17.0705 9.00207 17.3173 9.002 17.5686C9.00192 17.8198 9.06799 18.0666 9.19357 18.2843C9.31915 18.5019 9.4998 18.6826 9.71737 18.8082C9.93495 18.9339 10.1818 19 10.433 19H20.566C20.8173 19.0002 21.0643 18.9342 21.282 18.8086C21.4997 18.683 21.6805 18.5023 21.8062 18.2847C21.9319 18.067 21.998 17.8201 21.998 17.5688C21.998 17.3175 21.9318 17.0706 21.806 16.853Z" fill="#2A293A"/>
</svg>
