<svg width="24" height="24" viewBox="0 0 24 24" fill="none" xmlns="http://www.w3.org/2000/svg">
<g id="key">
<path id="main" d="M12 1C8.10707 1 5 3.84138 5 7.34615C5 9.78096 6.51387 11.8924 8.73333 12.9569V20.326C8.73333 20.7889 8.96731 21.227 9.36771 21.5143L11.0576 22.7257C11.3133 22.9093 11.6205 23 11.9271 23C12.2705 23 12.613 22.8863 12.8814 22.6612L15.9284 20.0996C16.1538 19.9101 16.2194 19.6114 16.0924 19.3576L15.2667 17.7074V17.6669L16.3887 16.4051C16.7261 16.0256 16.7433 15.4889 16.4306 15.0921L15.2667 13.6146V12.9569C17.4861 11.8924 19 9.78096 19 7.34615C19 3.84138 15.8929 1 12 1ZM12 2.69231C14.8303 2.69231 17.1333 4.78019 17.1333 7.34615C17.1333 9.074 16.0842 10.6506 14.3944 11.4604L13.4 11.9372V14.1567L14.6168 15.7011L13.4 17.0695V18.0735L14.0499 19.3716L11.9043 21.1747L10.7285 20.3318C10.6473 20.2734 10.6 20.1857 10.6 20.0922V11.9372L9.6056 11.4612C7.9158 10.651 6.86667 9.074 6.86667 7.34615C6.86667 4.78019 9.16967 2.69231 12 2.69231ZM12 4.38462C10.9691 4.38462 10.1333 5.14235 10.1333 6.07692C10.1333 7.0115 10.9691 7.76923 12 7.76923C13.0309 7.76923 13.8667 7.0115 13.8667 6.07692C13.8667 5.14235 13.0309 4.38462 12 4.38462Z" fill="#2A293A"/>
</g>
</svg>
