<svg width="24" height="24" viewBox="0 0 24 24" fill="none" xmlns="http://www.w3.org/2000/svg">
<g id="key">
<path id="main" d="M12.1923 3C9.30469 3 7 5.32477 7 8.19231C7 10.1844 8.12292 11.912 9.76923 12.7829V18.8122C9.76923 19.1909 9.94278 19.5494 10.2398 19.7844L11.4932 20.7755C11.6829 20.9258 11.9108 21 12.1382 21C12.393 21 12.647 20.907 12.8461 20.7228L15.1062 18.627C15.2734 18.4719 15.3221 18.2275 15.2279 18.0198L14.6154 16.6697V16.6366L15.4476 15.6042C15.6979 15.2937 15.7107 14.8546 15.4787 14.5299L14.6154 13.3211V12.7829C16.2617 11.912 17.3846 10.1844 17.3846 8.19231C17.3846 5.32477 15.0799 3 12.1923 3ZM12.1923 4.38462C14.2917 4.38462 16 6.09288 16 8.19231C16 9.606 15.2218 10.896 13.9684 11.5585L13.2308 11.9486V13.7646L14.1333 15.0282L13.2308 16.1478V16.9692L13.7128 18.0313L12.1213 19.5065L11.2492 18.8169C11.1889 18.7692 11.1538 18.6974 11.1538 18.6209V11.9486L10.4162 11.5592C9.16282 10.8963 8.38462 9.606 8.38462 8.19231C8.38462 6.09288 10.0929 4.38462 12.1923 4.38462ZM12.1923 5.76923C11.4277 5.76923 10.8077 6.38919 10.8077 7.15385C10.8077 7.9185 11.4277 8.53846 12.1923 8.53846C12.957 8.53846 13.5769 7.9185 13.5769 7.15385C13.5769 6.38919 12.957 5.76923 12.1923 5.76923Z" fill="#2A293A"/>
</g>
</svg>
