<svg width="24" height="24" viewBox="0 0 24 24" fill="none" xmlns="http://www.w3.org/2000/svg">
<g id="layers">
<path id="main" d="M19.143 12L20.83 10.819C20.9616 10.7268 21.0691 10.6042 21.1433 10.4616C21.2175 10.3191 21.2562 10.1607 21.2562 10C21.2562 9.83929 21.2175 9.68094 21.1433 9.53837C21.0691 9.3958 20.9616 9.27322 20.83 9.181L12.574 3.4C12.4059 3.28233 12.2057 3.21921 12.0005 3.21921C11.7953 3.21921 11.5951 3.28233 11.427 3.4L3.16998 9.181C3.03835 9.27322 2.93089 9.3958 2.8567 9.53837C2.78251 9.68094 2.74377 9.83929 2.74377 10C2.74377 10.1607 2.78251 10.3191 2.8567 10.4616C2.93089 10.6042 3.03835 10.7268 3.16998 10.819L4.85698 12L3.16998 13.181C3.03835 13.2732 2.93089 13.3958 2.8567 13.5384C2.78251 13.6809 2.74377 13.8393 2.74377 14C2.74377 14.1607 2.78251 14.3191 2.8567 14.4616C2.93089 14.6042 3.03835 14.7268 3.16998 14.819L11.427 20.599C11.5951 20.7167 11.7953 20.7798 12.0005 20.7798C12.2057 20.7798 12.4059 20.7167 12.574 20.599L20.83 14.819C20.9616 14.7268 21.0691 14.6042 21.1433 14.4616C21.2175 14.3191 21.2562 14.1607 21.2562 14C21.2562 13.8393 21.2175 13.6809 21.1433 13.5384C21.0691 13.3958 20.9616 13.2732 20.83 13.181L19.143 12ZM12 18.559L5.48798 14L6.59998 13.221L11.427 16.6C11.5951 16.7177 11.7953 16.7808 12.0005 16.7808C12.2057 16.7808 12.4059 16.7177 12.574 16.6L17.4 13.221L18.513 14L12 18.559ZM12 14.559L5.48798 10L12 5.441L18.513 10L12 14.559Z" fill="#2A293A"/>
</g>
</svg>
