<svg width="24" height="24" viewBox="0 0 24 24" fill="none" xmlns="http://www.w3.org/2000/svg">
<g id="library">
<path id="main" fill-rule="evenodd" clip-rule="evenodd" d="M8.23932 6C6.49897 6 5.29792 6.61368 4.63774 7.07843C4.233 7.36343 4 7.80161 4 8.26477V17.2875C4 17.7017 4.3766 18 4.78379 18C4.91784 18 5.05385 17.9678 5.1803 17.8988C5.89976 17.5058 6.97334 17.0794 8.23932 17.0794C9.22708 17.0794 10.0349 17.3507 10.6394 17.6633C11.0614 17.8818 11.5308 17.9909 12 17.9909C12.4692 17.9909 12.9386 17.8818 13.3606 17.6633C13.9651 17.3507 14.7729 17.0794 15.7607 17.0794C17.0267 17.0794 18.1003 17.5055 18.8198 17.8982C18.9463 17.9672 19.0825 17.9994 19.2162 17.9994C19.6232 17.9994 20 17.7019 20 17.2875V8.26477C20 7.80161 19.767 7.36343 19.3623 7.07843C18.7021 6.61368 17.501 6 15.7607 6C14.3692 6 13.4056 6.31519 12.7869 6.63527C12.4779 6.79507 12.256 6.95554 12.1102 7.07733C12.0668 7.1136 12.0302 7.14644 12 7.17481C11.9698 7.14644 11.9332 7.1136 11.8898 7.07733C11.744 6.95554 11.5221 6.79507 11.2131 6.63527C10.5944 6.31519 9.63083 6 8.23932 6ZM5.64103 8.26223C5.67057 8.24079 5.71426 8.21035 5.77145 8.1738C5.8901 8.09798 6.06652 7.9961 6.2949 7.89402C6.75173 7.68983 7.41478 7.48551 8.23932 7.48551C9.56458 7.48551 10.5596 8.06881 11.1795 8.57285V16.1326C10.5265 15.8711 9.53559 15.5939 8.23932 15.5939C7.25689 15.5939 6.37519 15.7893 5.64103 16.0456V8.26223ZM12.8205 16.1333V8.57224C13.4401 8.06836 14.4347 7.48551 15.7607 7.48551C16.5888 7.48551 17.2521 7.68759 17.708 7.8894C17.936 7.9903 18.1118 8.09098 18.2299 8.16589C18.2864 8.20175 18.3296 8.23166 18.359 8.25279V16.0456C17.6248 15.7893 16.7431 15.5939 15.7607 15.5939C14.4665 15.5939 13.4744 15.8716 12.8205 16.1333Z" fill="#2A293A"/>
</g>
</svg>
