<svg width="24" height="24" viewBox="0 0 24 24" fill="none" xmlns="http://www.w3.org/2000/svg">
<g id="library">
<path id="main" fill-rule="evenodd" clip-rule="evenodd" d="M7.87501 4.72498C5.96607 4.72498 4.64867 5.46858 3.92453 6.03171C3.48057 6.37705 3.22501 6.90799 3.22501 7.46921V18.4021C3.22501 18.904 3.63809 19.2655 4.08472 19.2655C4.23177 19.2655 4.38095 19.2264 4.51965 19.1428C5.30881 18.6666 6.48639 18.15 7.87501 18.15C8.95846 18.15 9.84453 18.4787 10.5076 18.8575C10.9705 19.1223 11.4853 19.2545 12 19.2545C12.5147 19.2545 13.0295 19.1223 13.4925 18.8575C14.1555 18.4787 15.0415 18.15 16.125 18.15C17.5136 18.15 18.6913 18.6663 19.4804 19.1421C19.6192 19.2257 19.7687 19.2647 19.9153 19.2647C20.3617 19.2647 20.775 18.9042 20.775 18.4021V7.46921C20.775 6.90799 20.5194 6.37705 20.0755 6.03171C19.3513 5.46858 18.0339 4.72498 16.125 4.72498C14.5987 4.72498 13.5418 5.10689 12.8631 5.49474C12.5242 5.68837 12.2808 5.88281 12.1209 6.03038C12.0733 6.07433 12.0331 6.11412 12 6.1485C11.9669 6.11412 11.9267 6.07433 11.8791 6.03038C11.7192 5.88281 11.4758 5.68837 11.1369 5.49474C10.4582 5.10689 9.40132 4.72498 7.87501 4.72498ZM5.02501 7.46613C5.05741 7.44016 5.10534 7.40327 5.16807 7.35898C5.29821 7.26711 5.49172 7.14367 5.74223 7.01997C6.2433 6.77255 6.9706 6.52498 7.87501 6.52498C9.32866 6.52498 10.42 7.23177 11.1 7.84251V17.0027C10.3838 16.6858 9.29685 16.35 7.87501 16.35C6.7974 16.35 5.83029 16.5867 5.02501 16.8973V7.46613ZM12.9 17.0035V7.84177C13.5796 7.23122 14.6706 6.52498 16.125 6.52498C17.0334 6.52498 17.7609 6.76984 18.261 7.01437C18.511 7.13663 18.7038 7.25862 18.8334 7.3494C18.8954 7.39285 18.9428 7.42909 18.975 7.4547V16.8973C18.1697 16.5867 17.2026 16.35 16.125 16.35C14.7054 16.35 13.6172 16.6864 12.9 17.0035Z" fill="#2A293A"/>
</g>
</svg>
