<svg width="24" height="24" viewBox="0 0 24 24" fill="none" xmlns="http://www.w3.org/2000/svg">
<g id="lightning">
<path id="main" fill-rule="evenodd" clip-rule="evenodd" d="M17.0825 10.2313H12.5996L14.2109 5.13753C14.2724 4.9399 14.2602 4.72779 14.1762 4.53795C14.0923 4.3481 13.942 4.19248 13.7514 4.09805C13.5608 4.00361 13.3418 3.97631 13.1325 4.02087C12.9231 4.06543 12.7366 4.17905 12.6052 4.34204L6.19141 12.3429C6.0865 12.4737 6.02178 12.6301 6.00461 12.7945C5.98743 12.9589 6.01848 13.1246 6.09424 13.2729C6.16999 13.4212 6.28742 13.546 6.43319 13.6333C6.57896 13.7206 6.74725 13.7669 6.91895 13.7668H11.4018L9.79053 18.8606C9.72843 19.0585 9.74036 19.271 9.82423 19.4612C9.9081 19.6515 10.0586 19.8075 10.2496 19.902C10.4406 19.9966 10.66 20.0238 10.8696 19.9789C11.0793 19.9339 11.266 19.8197 11.3972 19.6561L17.81 11.6535C17.9144 11.5227 17.9786 11.3664 17.9955 11.2023C18.0124 11.0382 17.9813 10.8728 17.9056 10.7248C17.8299 10.5769 17.7127 10.4523 17.5672 10.365C17.4218 10.2778 17.2538 10.2315 17.0825 10.2313Z" fill="#2A293A"/>
</g>
</svg>
