<svg width="24" height="24" viewBox="0 0 24 24" fill="none" xmlns="http://www.w3.org/2000/svg">
<g id="lightning">
<path id="main" fill-rule="evenodd" clip-rule="evenodd" d="M17.532 9.99999H12.652L14.406 4.23699C14.473 4.0134 14.4597 3.77342 14.3683 3.55864C14.277 3.34385 14.1134 3.16778 13.9058 3.06094C13.6983 2.95409 13.46 2.9232 13.2321 2.97362C13.0042 3.02404 12.8011 3.15258 12.658 3.33699L5.67602 12.389C5.56181 12.537 5.49137 12.714 5.47267 12.9C5.45397 13.0859 5.48777 13.2734 5.57024 13.4412C5.6527 13.6089 5.78053 13.7502 5.93922 13.849C6.09791 13.9477 6.2811 14.0001 6.46802 14H11.348L9.59402 19.763C9.52643 19.9868 9.53941 20.2273 9.63071 20.4425C9.72201 20.6578 9.88586 20.8343 10.0938 20.9413C10.3017 21.0482 10.5405 21.079 10.7687 21.0281C10.997 20.9773 11.2002 20.8481 11.343 20.663L18.324 11.609C18.4376 11.461 18.5076 11.2842 18.526 11.0985C18.5444 10.9129 18.5104 10.7257 18.4281 10.5584C18.3457 10.391 18.2181 10.25 18.0597 10.1513C17.9014 10.0526 17.7186 10.0002 17.532 9.99999Z" fill="#2A293A"/>
</g>
</svg>
