<svg width="24" height="24" viewBox="0 0 24 24" fill="none" xmlns="http://www.w3.org/2000/svg">
<g id="link">
<path id="main" d="M9 11H15C15.2652 11 15.5196 11.1054 15.7071 11.2929C15.8946 11.4804 16 11.7348 16 12C16 12.2652 15.8946 12.5196 15.7071 12.7071C15.5196 12.8946 15.2652 13 15 13H9C8.73478 13 8.48043 12.8946 8.29289 12.7071C8.10536 12.5196 8 12.2652 8 12C8 11.7348 8.10536 11.4804 8.29289 11.2929C8.48043 11.1054 8.73478 11 9 11ZM5 12C5 11.4696 5.21071 10.9609 5.58579 10.5858C5.96086 10.2107 6.46957 10 7 10H11C11 9.46957 10.7893 8.96086 10.4142 8.58579C10.0391 8.21071 9.53043 8 9 8H7C5.93913 8 4.92172 8.42143 4.17157 9.17157C3.42143 9.92172 3 10.9391 3 12C3 13.0609 3.42143 14.0783 4.17157 14.8284C4.92172 15.5786 5.93913 16 7 16H9C9.53043 16 10.0391 15.7893 10.4142 15.4142C10.7893 15.0391 11 14.5304 11 14H7C6.46957 14 5.96086 13.7893 5.58579 13.4142C5.21071 13.0391 5 12.5304 5 12ZM17 8H15C14.4696 8 13.9609 8.21071 13.5858 8.58579C13.2107 8.96086 13 9.46957 13 10H17C17.5304 10 18.0391 10.2107 18.4142 10.5858C18.7893 10.9609 19 11.4696 19 12C19 12.5304 18.7893 13.0391 18.4142 13.4142C18.0391 13.7893 17.5304 14 17 14H13C13 14.5304 13.2107 15.0391 13.5858 15.4142C13.9609 15.7893 14.4696 16 15 16H17C18.0609 16 19.0783 15.5786 19.8284 14.8284C20.5786 14.0783 21 13.0609 21 12C21 10.9391 20.5786 9.92172 19.8284 9.17157C19.0783 8.42143 18.0609 8 17 8Z" fill="#2A293A"/>
</g>
</svg>
