<svg width="24" height="24" viewBox="0 0 24 24" fill="none" xmlns="http://www.w3.org/2000/svg">
<g id="lock-locked">
<path id="main" d="M19 8H17V7C17 5.67392 16.4732 4.40215 15.5355 3.46447C14.5979 2.52678 13.3261 2 12 2C10.6739 2 9.40215 2.52678 8.46447 3.46447C7.52678 4.40215 7 5.67392 7 7V8H5C4.73478 8 4.48043 8.10536 4.29289 8.29289C4.10536 8.48043 4 8.73478 4 9V19C4 19.2652 4.10536 19.5196 4.29289 19.7071C4.48043 19.8946 4.73478 20 5 20H19C19.2652 20 19.5196 19.8946 19.7071 19.7071C19.8946 19.5196 20 19.2652 20 19V9C20 8.73478 19.8946 8.48043 19.7071 8.29289C19.5196 8.10536 19.2652 8 19 8ZM9 7C9 6.20435 9.31607 5.44129 9.87868 4.87868C10.4413 4.31607 11.2044 4 12 4C12.7956 4 13.5587 4.31607 14.1213 4.87868C14.6839 5.44129 15 6.20435 15 7V8H9V7ZM18 18H6V10H18V18ZM10 14C10 13.6044 10.1173 13.2178 10.3371 12.8889C10.5568 12.56 10.8692 12.3036 11.2346 12.1522C11.6001 12.0009 12.0022 11.9613 12.3902 12.0384C12.7781 12.1156 13.1345 12.3061 13.4142 12.5858C13.6939 12.8655 13.8844 13.2219 13.9616 13.6098C14.0387 13.9978 13.9991 14.3999 13.8478 14.7654C13.6964 15.1308 13.44 15.4432 13.1111 15.6629C12.7822 15.8827 12.3956 16 12 16C11.4696 16 10.9609 15.7893 10.5858 15.4142C10.2107 15.0391 10 14.5304 10 14Z" fill="#2A293A"/>
</g>
</svg>
