<svg width="24" height="24" viewBox="0 0 24 24" fill="none" xmlns="http://www.w3.org/2000/svg">
<g id="lock-unlocked">
<g id="main">
<path d="M12 16C13.1046 16 14 15.1046 14 14C14 12.8954 13.1046 12 12 12C10.8954 12 10 12.8954 10 14C10 15.1046 10.8954 16 12 16Z" fill="#2A293A"/>
<path d="M19 7.99999H9V6.99999C8.99811 6.34551 9.21087 5.70848 9.60567 5.18649C10.0005 4.6645 10.5555 4.28636 11.1858 4.11001C11.8161 3.93367 12.4868 3.96884 13.0951 4.21014C13.7035 4.45145 14.216 4.88557 14.554 5.44599L15.988 4.01199C15.362 3.16955 14.4861 2.54615 13.4851 2.23058C12.4841 1.91501 11.409 1.92338 10.4131 2.25448C9.41709 2.58559 8.551 3.22254 7.93817 4.07462C7.32534 4.92669 6.99703 5.95042 7 6.99999V7.99999H5C4.73478 7.99999 4.48043 8.10534 4.29289 8.29288C4.10536 8.48042 4 8.73477 4 8.99999V19C4 19.2652 4.10536 19.5196 4.29289 19.7071C4.48043 19.8946 4.73478 20 5 20H19C19.2652 20 19.5196 19.8946 19.7071 19.7071C19.8946 19.5196 20 19.2652 20 19V8.99999C20 8.73477 19.8946 8.48042 19.7071 8.29288C19.5196 8.10534 19.2652 7.99999 19 7.99999ZM18 18H6V9.99999H18V18Z" fill="#2A293A"/>
</g>
</g>
</svg>
