<svg width="24" height="24" viewBox="0 0 24 24" fill="none" xmlns="http://www.w3.org/2000/svg">
<g id="lock-unlocked">
<g id="main">
<path d="M12 16C13.1046 16 14 15.1046 14 14C14 12.8954 13.1046 12 12 12C10.8954 12 10 12.8954 10 14C10 15.1046 10.8954 16 12 16Z" fill="#2A293A"/>
<path d="M19 8H9V7C8.99811 6.34553 9.21087 5.70849 9.60567 5.1865C10.0005 4.66452 10.5555 4.28638 11.1858 4.11003C11.8161 3.93368 12.4868 3.96885 13.0951 4.21016C13.7035 4.45146 14.216 4.88558 14.554 5.446L15.988 4.012C15.362 3.16957 14.4861 2.54616 13.4851 2.2306C12.4841 1.91503 11.409 1.92339 10.4131 2.2545C9.41709 2.5856 8.551 3.22256 7.93817 4.07463C7.32534 4.92671 6.99703 5.95044 7 7V8H5C4.73478 8 4.48043 8.10536 4.29289 8.29289C4.10536 8.48043 4 8.73479 4 9V19C4 19.2652 4.10536 19.5196 4.29289 19.7071C4.48043 19.8946 4.73478 20 5 20H19C19.2652 20 19.5196 19.8946 19.7071 19.7071C19.8946 19.5196 20 19.2652 20 19V9C20 8.73479 19.8946 8.48043 19.7071 8.29289C19.5196 8.10536 19.2652 8 19 8ZM18 18H6V10H18V18Z" fill="#2A293A"/>
</g>
</g>
</svg>
