<svg id="Layer_1" data-name="Layer 1" xmlns="http://www.w3.org/2000/svg" width="24" height="24" viewBox="0 0 24 24" fill="none">
<g id="loyalty">
<path class="cls-1"  id="main" fill="currentColor" d="M16,13,11.85,8.95a7.812,7.812,0,0,1-1.312-1.663A3.837,3.837,0,0,1,10,5.3a3.183,3.183,0,0,1,.963-2.338A3.182,3.182,0,0,1,13.3,2a3.411,3.411,0,0,1,1.5.337A3.7,3.7,0,0,1,16,3.25a3.7,3.7,0,0,1,1.2-.913A3.411,3.411,0,0,1,18.7,2a3.186,3.186,0,0,1,2.338.962A3.186,3.186,0,0,1,22,5.3a3.913,3.913,0,0,1-.525,1.987,7.512,7.512,0,0,1-1.3,1.663Zm0-2.8,2.725-2.675A9.16,9.16,0,0,0,19.6,6.512,1.976,1.976,0,0,0,20,5.3,1.281,1.281,0,0,0,18.7,4a1.635,1.635,0,0,0-.662.137,1.438,1.438,0,0,0-.538.413L16,6.35l-1.5-1.8a1.443,1.443,0,0,0-.537-.413A1.643,1.643,0,0,0,13.3,4,1.281,1.281,0,0,0,12,5.3a1.976,1.976,0,0,0,.4,1.212,9.16,9.16,0,0,0,.875,1.013ZM7,18.5l6.95,1.9,5.95-1.85a1.148,1.148,0,0,0-.362-.388A.935.935,0,0,0,19,18H13.95a9.169,9.169,0,0,1-1.075-.05,3.924,3.924,0,0,1-.825-.2l-2.325-.775.55-1.95L12.3,15.7a6.65,6.65,0,0,0,1,.2q.574.075,1.7.1a.952.952,0,0,0-.162-.525.755.755,0,0,0-.388-.325L8.6,13H7ZM1,22V11H8.6a1.665,1.665,0,0,1,.35.037,3.106,3.106,0,0,1,.325.088L15.15,13.3a2.714,2.714,0,0,1,1.338,1.05A2.867,2.867,0,0,1,17,16h2a2.984,2.984,0,0,1,2.125.825A2.851,2.851,0,0,1,22,19v1l-8,2.5L7,20.55V22Zm2-2H5V13H3Z"  
data-color="main"/>
</g>
</svg>