<svg width="24" height="24" viewBox="0 0 24 24" fill="none" xmlns="http://www.w3.org/2000/svg">
<g id="menu">
<path id="main" d="M19 17C19 17.2652 18.9078 17.5196 18.7437 17.7071C18.5796 17.8946 18.3571 18 18.125 18H5.875C5.64294 18 5.42038 17.8946 5.25628 17.7071C5.09219 17.5196 5 17.2652 5 17C5 16.7348 5.09219 16.4804 5.25628 16.2929C5.42038 16.1054 5.64294 16 5.875 16H18.125C18.3571 16 18.5796 16.1054 18.7437 16.2929C18.9078 16.4804 19 16.7348 19 17ZM18.125 11H5.875C5.64294 11 5.42038 11.1054 5.25628 11.2929C5.09219 11.4804 5 11.7348 5 12C5 12.2652 5.09219 12.5196 5.25628 12.7071C5.42038 12.8946 5.64294 13 5.875 13H18.125C18.3571 13 18.5796 12.8946 18.7437 12.7071C18.9078 12.5196 19 12.2652 19 12C19 11.7348 18.9078 11.4804 18.7437 11.2929C18.5796 11.1054 18.3571 11 18.125 11ZM5.875 8H18.125C18.3571 8 18.5796 7.89464 18.7437 7.70711C18.9078 7.51957 19 7.26522 19 7C19 6.73478 18.9078 6.48043 18.7437 6.29289C18.5796 6.10536 18.3571 6 18.125 6H5.875C5.64294 6 5.42038 6.10536 5.25628 6.29289C5.09219 6.48043 5 6.73478 5 7C5 7.26522 5.09219 7.51957 5.25628 7.70711C5.42038 7.89464 5.64294 8 5.875 8Z" fill="#2A293A"/>
</g>
</svg>
