<svg width="24" height="24" viewBox="0 0 24 24" fill="none" xmlns="http://www.w3.org/2000/svg">
<path d="M20 11H18C18 12.5913 17.3679 14.1174 16.2426 15.2426C15.1174 16.3679 13.5913 17 12 17C10.4087 17 8.88258 16.3679 7.75736 15.2426C6.63214 14.1174 6 12.5913 6 11H4C4.00128 12.9476 4.71302 14.8279 6.00174 16.2882C7.29046 17.7485 9.06764 18.6885 11 18.932V21H13V18.931C14.9322 18.6876 16.7092 17.7477 17.9979 16.2876C19.2866 14.8275 19.9985 12.9475 20 11Z" fill="#2A293A"/>
<path d="M12 15C13.0609 15 14.0783 14.5786 14.8284 13.8284C15.5786 13.0783 16 12.0609 16 11V7C16 5.93913 15.5786 4.92172 14.8284 4.17157C14.0783 3.42143 13.0609 3 12 3C10.9391 3 9.92172 3.42143 9.17157 4.17157C8.42143 4.92172 8 5.93913 8 7V11C8 12.0609 8.42143 13.0783 9.17157 13.8284C9.92172 14.5786 10.9391 15 12 15Z" fill="#2A293A"/>
</svg>
