<svg width="24" height="24" viewBox="0 0 24 24" fill="none" xmlns="http://www.w3.org/2000/svg">
<g id="microphone">
<g id="main">
<path d="M18 11.1111H16.5C16.5 12.5256 16.0259 13.8822 15.182 14.8823C14.3381 15.8825 13.1935 16.4444 12 16.4444C10.8065 16.4444 9.66193 15.8825 8.81802 14.8823C7.97411 13.8822 7.5 12.5256 7.5 11.1111H6C6.00096 12.8423 6.53476 14.5137 7.5013 15.8118C8.46784 17.1098 9.80073 17.9454 11.25 18.1618V20H12.75V18.1609C14.1991 17.9445 15.5319 17.1091 16.4984 15.8112C17.465 14.5133 17.9989 12.8422 18 11.1111Z" fill="#2A293A"/>
<path d="M12 14.6667C12.7956 14.6667 13.5587 14.2921 14.1213 13.6253C14.6839 12.9585 15 12.0541 15 11.1111V7.55556C15 6.61256 14.6839 5.70819 14.1213 5.0414C13.5587 4.3746 12.7956 4 12 4C11.2044 4 10.4413 4.3746 9.87868 5.0414C9.31607 5.70819 9 6.61256 9 7.55556V11.1111C9 12.0541 9.31607 12.9585 9.87868 13.6253C10.4413 14.2921 11.2044 14.6667 12 14.6667Z" fill="#2A293A"/>
</g>
</g>
</svg>
