<svg width="24" height="24" viewBox="0 0 24 24" fill="none" xmlns="http://www.w3.org/2000/svg">
<g id="microphone-disabled">
<path id="main" d="M5.228 15.237C4.42617 13.9692 4.00036 12.5 4 11H6C6.00071 11.9675 6.23793 12.9201 6.691 13.775L5.228 15.237ZM15.453 5.012C15.0163 4.2473 14.3389 3.64859 13.5263 3.30921C12.7138 2.96983 11.8118 2.90887 10.9609 3.13582C10.1101 3.36277 9.35824 3.86488 8.82265 4.56387C8.28706 5.26285 7.99781 6.11941 8 7V11C8.0063 11.4231 8.08197 11.8424 8.224 12.241L15.453 5.012ZM18 11C17.999 11.9943 17.7509 12.9727 17.2781 13.8473C16.8052 14.722 16.1225 15.4654 15.2911 16.0108C14.4598 16.5562 13.5059 16.8864 12.5153 16.9718C11.5247 17.0572 10.5284 16.8951 9.616 16.5L11.2 14.919C11.7811 15.0376 12.3814 15.0255 12.9573 14.8836C13.5332 14.7416 14.0703 14.4734 14.5298 14.0983C14.9892 13.7231 15.3595 13.2505 15.6138 12.7147C15.868 12.1788 16 11.5931 16 11V10.121L19.708 6.414L18.293 5L4.293 19L5.708 20.414L8.13 17.991C9.01758 18.4845 9.99144 18.8036 10.999 18.931V21H12.999V18.931C14.9314 18.6878 16.7087 17.748 17.9976 16.2879C19.2865 14.8278 19.9984 12.9476 20 11H18Z" fill="#2A293A"/>
</g>
</svg>
