<svg width="24" height="24" viewBox="0 0 24 24" fill="none" xmlns="http://www.w3.org/2000/svg">
<g id="microphone-disabled">
<path id="main" d="M6.921 14.877C6.31963 13.7501 6.00027 12.444 6 11.1106H7.5C7.50053 11.9706 7.67844 12.8175 8.01825 13.5774L6.921 14.877ZM14.5898 5.78761C14.2623 5.10784 13.7542 4.57561 13.1448 4.27393C12.5353 3.97224 11.8588 3.91805 11.2207 4.11979C10.5826 4.32154 10.0187 4.76789 9.61699 5.38924C9.21529 6.0106 8.99835 6.77203 9 7.55482V11.1106C9.00472 11.4867 9.06148 11.8594 9.168 12.2138L14.5898 5.78761ZM16.5 11.1106C16.4992 11.9944 16.3132 12.8642 15.9586 13.6417C15.6039 14.4192 15.0918 15.0801 14.4683 15.5649C13.8448 16.0497 13.1294 16.3432 12.3865 16.4192C11.6435 16.4951 10.8963 16.3509 10.212 15.9998L11.4 14.5943C11.8359 14.6998 12.2861 14.689 12.718 14.5629C13.1499 14.4367 13.5527 14.1982 13.8973 13.8648C14.2419 13.5313 14.5196 13.1112 14.7103 12.6348C14.901 12.1585 15 11.6378 15 11.1106V10.3292L17.781 7.0339L16.7197 5.77694L6.21975 18.2221L7.281 19.4791L9.0975 17.3252C9.76319 17.7639 10.4936 18.0476 11.2492 18.1608V20H12.7492V18.1608C14.1985 17.9446 15.5315 17.1092 16.4982 15.8112C17.4648 14.5133 17.9988 12.8419 18 11.1106H16.5Z" fill="#2A293A"/>
</g>
</svg>
