<svg width="24" height="24" viewBox="0 0 24 24" fill="none" xmlns="http://www.w3.org/2000/svg">
<g id="minimize-to-left">
<g id="main">
<path id="main_2" d="M6 11L4 11L4 5C4 4.73478 4.10536 4.48043 4.29289 4.29289C4.48043 4.10535 4.73478 4 5 4L19 4C19.2652 4 19.5196 4.10536 19.7071 4.29289C19.8946 4.48043 20 4.73478 20 5L20 19C20 19.2652 19.8946 19.5196 19.7071 19.7071C19.5196 19.8946 19.2652 20 19 20L13 20L13 18L18 18L18 6L6 6L6 11ZM11 20L8.207 17.207L11.707 13.707L10.293 12.293L6.793 15.793L4 13L4 20L11 20Z" fill="#2A293A"/>
</g>
</g>
</svg>
