<svg width="24" height="24" viewBox="0 0 24 24" fill="none" xmlns="http://www.w3.org/2000/svg">
<g id="minimize-to right">
<g id="main">
<path id="Vector" d="M11 18L11 20L5 20C4.73478 20 4.48043 19.8946 4.29289 19.7071C4.10536 19.5196 4 19.2652 4 19L4 5C4 4.73478 4.10536 4.48043 4.29289 4.29289C4.48043 4.10536 4.73478 4 5 4L19 4C19.2652 4 19.5196 4.10536 19.7071 4.29289C19.8946 4.48043 20 4.73478 20 5L20 11L18 11L18 6L6 6L6 18L11 18ZM20 13L17.207 15.793L13.707 12.293L12.293 13.707L15.793 17.207L13 20L20 20L20 13Z" fill="#2A293A"/>
</g>
</g>
</svg>
