<svg width="24" height="24" viewBox="0 0 24 24" fill="none" xmlns="http://www.w3.org/2000/svg">
<path d="M13 12C13 12.1978 12.9414 12.3911 12.8315 12.5556C12.7216 12.72 12.5654 12.8482 12.3827 12.9239C12.2 12.9996 11.9989 13.0194 11.8049 12.9808C11.6109 12.9422 11.4327 12.847 11.2929 12.7071C11.153 12.5673 11.0578 12.3891 11.0192 12.1951C10.9806 12.0011 11.0004 11.8 11.0761 11.6173C11.1518 11.4346 11.28 11.2784 11.4444 11.1685C11.6089 11.0586 11.8022 11 12 11C12.2652 11 12.5196 11.1054 12.7071 11.2929C12.8946 11.4804 13 11.7348 13 12ZM8 11C7.80222 11 7.60888 11.0586 7.44443 11.1685C7.27998 11.2784 7.15181 11.4346 7.07612 11.6173C7.00043 11.8 6.98063 12.0011 7.01922 12.1951C7.0578 12.3891 7.15304 12.5673 7.29289 12.7071C7.43275 12.847 7.61093 12.9422 7.80491 12.9808C7.99889 13.0194 8.19996 12.9996 8.38268 12.9239C8.56541 12.8482 8.72159 12.72 8.83147 12.5556C8.94135 12.3911 9 12.1978 9 12C9 11.7348 8.89464 11.4804 8.70711 11.2929C8.51957 11.1054 8.26522 11 8 11ZM16 11C15.8022 11 15.6089 11.0586 15.4444 11.1685C15.28 11.2784 15.1518 11.4346 15.0761 11.6173C15.0004 11.8 14.9806 12.0011 15.0192 12.1951C15.0578 12.3891 15.153 12.5673 15.2929 12.7071C15.4327 12.847 15.6109 12.9422 15.8049 12.9808C15.9989 13.0194 16.2 12.9996 16.3827 12.9239C16.5654 12.8482 16.7216 12.72 16.8315 12.5556C16.9414 12.3911 17 12.1978 17 12C17 11.7348 16.8946 11.4804 16.7071 11.2929C16.5196 11.1054 16.2652 11 16 11Z" fill="#2A293A"/>
</svg>
