<svg width="24" height="24" viewBox="0 0 24 24" fill="none" xmlns="http://www.w3.org/2000/svg">
<g id="more">
<path id="main" d="M13.6 12.5C13.6 12.2033 13.5062 11.9133 13.3304 11.6666C13.1545 11.42 12.9047 11.2277 12.6123 11.1142C12.3199 11.0006 11.9982 10.9709 11.6879 11.0288C11.3775 11.0867 11.0924 11.2296 10.8686 11.4393C10.6449 11.6491 10.4925 11.9164 10.4307 12.2074C10.369 12.4983 10.4007 12.7999 10.5218 13.074C10.6429 13.3481 10.848 13.5824 11.1111 13.7472C11.3742 13.912 11.6836 14 12 14C12.4243 14 12.8313 13.842 13.1314 13.5607C13.4314 13.2794 13.6 12.8978 13.6 12.5ZM5.6 14C5.28355 14 4.97421 13.912 4.71109 13.7472C4.44797 13.5824 4.24289 13.3481 4.12179 13.074C4.00069 12.7999 3.96901 12.4983 4.03074 12.2074C4.09248 11.9164 4.24487 11.6491 4.46863 11.4393C4.69239 11.2296 4.97749 11.0867 5.28786 11.0288C5.59823 10.9709 5.91993 11.0006 6.21229 11.1142C6.50466 11.2277 6.75454 11.42 6.93035 11.6666C7.10616 11.9133 7.2 12.2033 7.2 12.5C7.2 12.8978 7.03143 13.2794 6.73137 13.5607C6.43131 13.842 6.02435 14 5.6 14ZM18.4 14C18.0836 14 17.7742 13.912 17.5111 13.7472C17.248 13.5824 17.0429 13.3481 16.9218 13.074C16.8007 12.7999 16.769 12.4983 16.8307 12.2074C16.8925 11.9164 17.0449 11.6491 17.2686 11.4393C17.4924 11.2296 17.7775 11.0867 18.0879 11.0288C18.3982 10.9709 18.7199 11.0006 19.0123 11.1142C19.3047 11.2277 19.5545 11.42 19.7304 11.6666C19.9062 11.9133 20 12.2033 20 12.5C20 12.8978 19.8314 13.2794 19.5314 13.5607C19.2313 13.842 18.8243 14 18.4 14Z" fill="#2A293A"/>
</g>
</svg>
