<svg width="24" height="24" viewBox="0 0 24 24" fill="none" xmlns="http://www.w3.org/2000/svg">
<g id="mute">
<path id="main" d="M14 14L16 12L14 10L15 9L17 11L19 9L20 10L18 12L20 14L19 15L17 13L15 15L14 14ZM11 5.079C11.1317 5.07834 11.2623 5.10372 11.3842 5.15368C11.5061 5.20364 11.617 5.27719 11.7103 5.37012C11.8037 5.46304 11.8778 5.57351 11.9284 5.69516C11.979 5.81681 12.005 5.94726 12.005 6.079V17.919C12.005 18.0507 11.979 18.1812 11.9284 18.3028C11.8778 18.4245 11.8037 18.535 11.7103 18.6279C11.617 18.7208 11.5061 18.7944 11.3842 18.8443C11.2623 18.8943 11.1317 18.9197 11 18.919C10.7741 18.9189 10.5551 18.8408 10.38 18.698L7.548 16.438C7.19371 16.1547 6.75363 16.0002 6.3 16H4C3.73478 16 3.48043 15.8946 3.29289 15.7071C3.10536 15.5196 3 15.2652 3 15V9C3 8.73478 3.10536 8.48043 3.29289 8.29289C3.48043 8.10536 3.73478 8 4 8H6.3C6.75398 7.99999 7.19444 7.84552 7.549 7.562L10.375 5.3C10.5514 5.15611 10.7723 5.07799 11 5.079Z" fill="#2A293A"/>
</g>
</svg>
