<svg width="24" height="24" viewBox="0 0 24 24" fill="none" xmlns="http://www.w3.org/2000/svg">
<path d="M20 15.949V16H19.91C19.6727 17.3965 18.9495 18.6643 17.868 19.5792C16.7866 20.4941 15.4165 20.9974 14 21C14 21.2652 13.8946 21.5196 13.7071 21.7071C13.5196 21.8946 13.2652 22 13 22H11C10.7348 22 10.4804 21.8946 10.2929 21.7071C10.1054 21.5196 10 21.2652 10 21V19C10 18.7348 10.1054 18.4804 10.2929 18.2929C10.4804 18.1054 10.7348 18 11 18H13C13.2652 18 13.5196 18.1054 13.7071 18.2929C13.8946 18.4804 14 18.7348 14 19C15.0609 19 16.0783 18.5786 16.8284 17.8284C17.5786 17.0783 18 16.0609 18 15V9C18 7.93913 17.5786 6.92172 16.8284 6.17157C16.0783 5.42143 15.0609 5 14 5H10C8.93913 5 7.92172 5.42143 7.17157 6.17157C6.42143 6.92172 6 7.93913 6 9V13C6.00064 13.8423 6.17912 14.675 6.52377 15.4436C6.86842 16.2121 7.37147 16.8993 8 17.46V19.918C6.46338 19.0237 5.26582 17.6461 4.594 16H4.5C3.61606 16.0017 2.76435 15.6682 2.11668 15.0666C1.469 14.4651 1.07356 13.6403 1.01012 12.7586C0.946686 11.877 1.21997 11.004 1.77485 10.316C2.32973 9.62787 3.12492 9.17583 4 9.051V9C4.00185 7.40927 4.63459 5.88422 5.7594 4.75941C6.88422 3.63459 8.40927 3.00185 10 3H14C15.5908 3.00159 17.116 3.63424 18.2409 4.75911C19.3658 5.88399 19.9984 7.40919 20 9V9.051C20.8329 9.16648 21.5959 9.57939 22.1482 10.2135C22.7005 10.8476 23.0047 11.6601 23.0047 12.501C23.0047 13.3419 22.7005 14.1544 22.1482 14.7885C21.5959 15.4226 20.8329 15.8355 20 15.951V15.949ZM14.627 14.449C14.7037 14.2963 14.7401 14.1264 14.7325 13.9557C14.7249 13.7849 14.6737 13.619 14.5837 13.4736C14.4938 13.3283 14.3681 13.2085 14.2186 13.1256C14.0691 13.0426 13.9009 12.9994 13.73 13H10.271C10.0996 12.9987 9.93065 13.0415 9.78052 13.1243C9.63039 13.2072 9.50408 13.3272 9.41371 13.4729C9.32333 13.6186 9.27194 13.7851 9.26446 13.9564C9.25698 14.1276 9.29367 14.298 9.371 14.451C9.63013 14.9209 10.0105 15.3126 10.4726 15.5855C10.9346 15.8583 11.4614 16.0023 11.998 16.0023C12.5346 16.0023 13.0614 15.8583 13.5234 15.5855C13.9855 15.3126 14.3659 14.9209 14.625 14.451L14.627 14.449ZM10 11C10.1978 11 10.3911 10.9414 10.5556 10.8315C10.72 10.7216 10.8482 10.5654 10.9239 10.3827C10.9996 10.2 11.0194 9.99889 10.9808 9.80491C10.9422 9.61093 10.847 9.43275 10.7071 9.29289C10.5673 9.15304 10.3891 9.0578 10.1951 9.01921C10.0011 8.98063 9.80004 9.00043 9.61732 9.07612C9.43459 9.15181 9.27841 9.27998 9.16853 9.44443C9.05865 9.60888 9 9.80222 9 10C9 10.2652 9.10536 10.5196 9.29289 10.7071C9.48043 10.8946 9.73478 11 10 11ZM15 10C15 9.80222 14.9413 9.60888 14.8315 9.44443C14.7216 9.27998 14.5654 9.15181 14.3827 9.07612C14.2 9.00043 13.9989 8.98063 13.8049 9.01921C13.6109 9.0578 13.4327 9.15304 13.2929 9.29289C13.153 9.43275 13.0578 9.61093 13.0192 9.80491C12.9806 9.99889 13.0004 10.2 13.0761 10.3827C13.1518 10.5654 13.28 10.7216 13.4444 10.8315C13.6089 10.9414 13.8022 11 14 11C14.2652 11 14.5196 10.8946 14.7071 10.7071C14.8946 10.5196 15 10.2652 15 10Z" fill="#2A293A"/>
</svg>
