<svg width="24" height="24" viewBox="0 0 24 24" fill="none" xmlns="http://www.w3.org/2000/svg">
<g id="operator">
<path id="main" d="M20 15.949V16H19.91C19.6727 17.3965 18.9495 18.6643 17.868 19.5792C16.7866 20.4941 15.4165 20.9974 14 21C14 21.2652 13.8946 21.5196 13.7071 21.7071C13.5196 21.8946 13.2652 22 13 22H11C10.7348 22 10.4804 21.8946 10.2929 21.7071C10.1053 21.5196 9.99998 21.2652 9.99998 21V19C9.99998 18.7348 10.1053 18.4804 10.2929 18.2929C10.4804 18.1054 10.7348 18 11 18H13C13.2652 18 13.5196 18.1054 13.7071 18.2929C13.8946 18.4804 14 18.7348 14 19C15.0609 19 16.0783 18.5786 16.8284 17.8284C17.5786 17.0783 18 16.0609 18 15V9C18 7.93913 17.5786 6.92172 16.8284 6.17157C16.0783 5.42143 15.0609 5 14 5H9.99998C8.93912 5 7.9217 5.42143 7.17156 6.17157C6.42141 6.92172 5.99998 7.93913 5.99998 9V13C6.00062 13.8423 6.1791 14.675 6.52375 15.4436C6.8684 16.2121 7.37145 16.8993 7.99998 17.46V19.918C6.46337 19.0237 5.26581 17.6461 4.59398 16H4.49998C3.61604 16.0017 2.76433 15.6682 2.11666 15.0666C1.46899 14.4651 1.07355 13.6403 1.01011 12.7586C0.946671 11.877 1.21996 11.004 1.77484 10.316C2.32972 9.62787 3.1249 9.17583 3.99998 9.051V9C4.00184 7.40927 4.63457 5.88422 5.75939 4.75941C6.88421 3.63459 8.40925 3.00185 9.99998 3H14C15.5908 3.00159 17.116 3.63424 18.2409 4.75911C19.3657 5.88399 19.9984 7.40919 20 9V9.051C20.8329 9.16648 21.5959 9.57939 22.1482 10.2135C22.7005 10.8476 23.0047 11.6601 23.0047 12.501C23.0047 13.3419 22.7005 14.1544 22.1482 14.7885C21.5959 15.4226 20.8329 15.8355 20 15.951V15.949ZM14.627 14.449C14.7037 14.2963 14.74 14.1264 14.7325 13.9557C14.7249 13.7849 14.6737 13.619 14.5837 13.4736C14.4938 13.3283 14.368 13.2085 14.2186 13.1256C14.0691 13.0426 13.9009 12.9994 13.73 13H10.271C10.0995 12.9987 9.93064 13.0415 9.78051 13.1243C9.63038 13.2072 9.50406 13.3272 9.41369 13.4729C9.32332 13.6186 9.27192 13.7851 9.26445 13.9564C9.25697 14.1276 9.29365 14.298 9.37098 14.451C9.63011 14.9209 10.0105 15.3126 10.4726 15.5855C10.9346 15.8583 11.4614 16.0023 11.998 16.0023C12.5346 16.0023 13.0613 15.8583 13.5234 15.5855C13.9854 15.3126 14.3659 14.9209 14.625 14.451L14.627 14.449ZM9.99998 11C10.1978 11 10.3911 10.9414 10.5556 10.8315C10.72 10.7216 10.8482 10.5654 10.9239 10.3827C10.9996 10.2 11.0194 9.99889 10.9808 9.80491C10.9422 9.61093 10.8469 9.43275 10.7071 9.29289C10.5672 9.15304 10.3891 9.0578 10.1951 9.01921C10.0011 8.98063 9.80003 9.00043 9.6173 9.07612C9.43457 9.15181 9.2784 9.27998 9.16851 9.44443C9.05863 9.60888 8.99998 9.80222 8.99998 10C8.99998 10.2652 9.10534 10.5196 9.29288 10.7071C9.48041 10.8946 9.73477 11 9.99998 11ZM15 10C15 9.80222 14.9413 9.60888 14.8315 9.44443C14.7216 9.27998 14.5654 9.15181 14.3827 9.07612C14.1999 9.00043 13.9989 8.98063 13.8049 9.01921C13.6109 9.0578 13.4327 9.15304 13.2929 9.29289C13.153 9.43275 13.0578 9.61093 13.0192 9.80491C12.9806 9.99889 13.0004 10.2 13.0761 10.3827C13.1518 10.5654 13.28 10.7216 13.4444 10.8315C13.6089 10.9414 13.8022 11 14 11C14.2652 11 14.5196 10.8946 14.7071 10.7071C14.8946 10.5196 15 10.2652 15 10Z" fill="#2A293A"/>
</g>
</svg>
