<svg width="24" height="24" viewBox="0 0 24 24" fill="none" xmlns="http://www.w3.org/2000/svg">
<path d="M11.96 16.8C12.24 16.8 12.4768 16.7032 12.6704 16.5096C12.864 16.316 12.9605 16.0795 12.96 15.8C12.96 15.52 12.8635 15.2832 12.6704 15.0896C12.4773 14.896 12.2405 14.7995 11.96 14.8C11.68 14.8 11.4435 14.8968 11.2504 15.0904C11.0573 15.284 10.9605 15.5205 10.96 15.8C10.96 16.08 11.0568 16.3168 11.2504 16.5104C11.444 16.704 11.6805 16.8005 11.96 16.8ZM11.24 13.72H12.72C12.72 13.28 12.7701 12.9333 12.8704 12.68C12.9707 12.4267 13.2539 12.08 13.72 11.64C14.0667 11.2933 14.34 10.9632 14.54 10.6496C14.74 10.336 14.84 9.95947 14.84 9.52C14.84 8.77333 14.5667 8.2 14.02 7.8C13.4733 7.4 12.8267 7.2 12.08 7.2C11.32 7.2 10.7032 7.4 10.2296 7.8C9.756 8.2 9.42613 8.68 9.24 9.24L10.56 9.76C10.6267 9.52 10.7768 9.26 11.0104 8.98C11.244 8.7 11.6005 8.56 12.08 8.56C12.5067 8.56 12.8267 8.6768 13.04 8.9104C13.2533 9.144 13.36 9.40053 13.36 9.68C13.36 9.94667 13.28 10.1968 13.12 10.4304C12.96 10.664 12.76 10.8805 12.52 11.08C11.9333 11.6 11.5733 11.9933 11.44 12.26C11.3067 12.5267 11.24 13.0133 11.24 13.72ZM12 20C10.8933 20 9.85333 19.7899 8.88 19.3696C7.90667 18.9493 7.06 18.3795 6.34 17.66C5.62 16.94 5.05013 16.0933 4.6304 15.12C4.21067 14.1467 4.00053 13.1067 4 12C4 10.8933 4.21013 9.85333 4.6304 8.88C5.05067 7.90667 5.62053 7.06 6.34 6.34C7.06 5.62 7.90667 5.05013 8.88 4.6304C9.85333 4.21067 10.8933 4.00053 12 4C13.1067 4 14.1467 4.21013 15.12 4.6304C16.0933 5.05067 16.94 5.62053 17.66 6.34C18.38 7.06 18.9501 7.90667 19.3704 8.88C19.7907 9.85333 20.0005 10.8933 20 12C20 13.1067 19.7899 14.1467 19.3696 15.12C18.9493 16.0933 18.3795 16.94 17.66 17.66C16.94 18.38 16.0933 18.9501 15.12 19.3704C14.1467 19.7907 13.1067 20.0005 12 20ZM12 18.4C13.7867 18.4 15.3 17.78 16.54 16.54C17.78 15.3 18.4 13.7867 18.4 12C18.4 10.2133 17.78 8.7 16.54 7.46C15.3 6.22 13.7867 5.6 12 5.6C10.2133 5.6 8.7 6.22 7.46 7.46C6.22 8.7 5.6 10.2133 5.6 12C5.6 13.7867 6.22 15.3 7.46 16.54C8.7 17.78 10.2133 18.4 12 18.4Z" fill="#2A293A"/>
</svg>
