<svg width="24" height="24" viewBox="0 0 24 24" fill="none" xmlns="http://www.w3.org/2000/svg">
<g id="paste">
<path id="main" d="M20 4.94118V10.5882H18V5.88235H6V17.1765H11V19.0588H5C4.73478 19.0588 4.48043 18.9597 4.29289 18.7832C4.10536 18.6067 4 18.3673 4 18.1176V4.94118C4 4.69156 4.10536 4.45217 4.29289 4.27566C4.48043 4.09916 4.73478 4 5 4H19C19.2652 4 19.5196 4.09916 19.7071 4.27566C19.8946 4.45217 20 4.69156 20 4.94118ZM12 15.2941L16 20L20 15.2941H17V11.5294H15V15.2941H12Z" fill="#2A293A"/>
</g>
</svg>
