<svg width="24" height="24" viewBox="0 0 24 24" fill="none" xmlns="http://www.w3.org/2000/svg">
<path d="M21 4.99915H17.414C17.1488 4.99909 16.8945 4.89369 16.707 4.70615L14.293 3.29215C14.1055 3.1046 13.8512 2.9992 13.586 2.99915H10.414C10.1488 2.9992 9.89449 3.1046 9.707 3.29215L7.293 4.70615C7.10551 4.89369 6.85119 4.99909 6.586 4.99915H3C2.73478 4.99915 2.48043 5.1045 2.29289 5.29204C2.10536 5.47958 2 5.73393 2 5.99915V18.9991C2 19.2644 2.10536 19.5187 2.29289 19.7063C2.48043 19.8938 2.73478 19.9991 3 19.9991H21C21.2652 19.9991 21.5196 19.8938 21.7071 19.7063C21.8946 19.5187 22 19.2644 22 18.9991V5.99915C22 5.73393 21.8946 5.47958 21.7071 5.29204C21.5196 5.1045 21.2652 4.99915 21 4.99915ZM20 17.9991H4V6.99915H7.586C7.85119 6.99909 8.10551 6.89369 8.293 6.70615L11 4.99915H13L15.707 6.70615C15.8945 6.89369 16.1488 6.99909 16.414 6.99915H20V17.9991Z" fill="#2A293A"/>
<path d="M12 7.99915C11.2089 7.99915 10.4355 8.23374 9.77772 8.67327C9.11992 9.11279 8.60723 9.73751 8.30448 10.4684C8.00173 11.1993 7.92252 12.0036 8.07686 12.7795C8.2312 13.5554 8.61216 14.2682 9.17157 14.8276C9.73098 15.387 10.4437 15.7679 11.2196 15.9223C11.9956 16.0766 12.7998 15.9974 13.5307 15.6947C14.2616 15.3919 14.8864 14.8792 15.3259 14.2214C15.7654 13.5636 16 12.7903 16 11.9991C16 10.9383 15.5786 9.92086 14.8284 9.17072C14.0783 8.42057 13.0609 7.99915 12 7.99915ZM12 13.9991C11.6044 13.9991 11.2178 13.8818 10.8889 13.6621C10.56 13.4423 10.3036 13.13 10.1522 12.7645C10.0009 12.3991 9.96126 11.9969 10.0384 11.609C10.1156 11.221 10.3061 10.8646 10.5858 10.5849C10.8655 10.3052 11.2219 10.1147 11.6098 10.0376C11.9978 9.9604 12.3999 10 12.7654 10.1514C13.1308 10.3028 13.4432 10.5591 13.6629 10.888C13.8827 11.2169 14 11.6036 14 11.9991C14 12.5296 13.7893 13.0383 13.4142 13.4134C13.0391 13.7884 12.5304 13.9991 12 13.9991Z" fill="#2A293A"/>
<path d="M18 10.9991C18.5523 10.9991 19 10.5514 19 9.99915C19 9.44686 18.5523 8.99915 18 8.99915C17.4477 8.99915 17 9.44686 17 9.99915C17 10.5514 17.4477 10.9991 18 10.9991Z" fill="#2A293A"/>
</svg>
