<svg width="24" height="24" viewBox="0 0 24 24" fill="none" xmlns="http://www.w3.org/2000/svg">
<g id="pin">
<path id="main" d="M19.293 7.29297L15.707 3.70697C15.5195 3.5195 15.2652 3.41418 15 3.41418C14.7348 3.41418 14.4805 3.5195 14.293 3.70697L14 3.99997V4.99997L11.437 7.56297C11.2495 7.75052 10.9952 7.85591 10.73 7.85597C10.6226 7.85588 10.516 7.83866 10.414 7.80497L8 6.99997L6.707 8.29297C6.51953 8.4805 6.41421 8.73481 6.41421 8.99997C6.41421 9.26514 6.51953 9.51944 6.707 9.70697L9 12L7.236 13.764C5.76566 15.2346 4.65776 17.0272 4 19C5.97224 18.3417 7.76442 17.2338 9.235 15.764L11 14L13.293 16.293C13.4805 16.4804 13.7348 16.5858 14 16.5858C14.2652 16.5858 14.5195 16.4804 14.707 16.293L16 15L15.2 12.586C15.1413 12.4099 15.1327 12.2209 15.1753 12.0403C15.2178 11.8596 15.3098 11.6943 15.441 11.563L18 8.99997H19L19.293 8.70697C19.4805 8.51944 19.5858 8.26514 19.5858 7.99997C19.5858 7.73481 19.4805 7.4805 19.293 7.29297ZM16.586 7.58597L14.023 10.149C13.6273 10.5418 13.3497 11.0377 13.2215 11.5803C13.0934 12.1229 13.1199 12.6906 13.298 13.219L13.424 13.595L9.4 9.57597L9.776 9.70197C10.3046 9.87812 10.8717 9.90359 11.414 9.77554C11.9562 9.64749 12.4521 9.37097 12.846 8.97697L15.409 6.41397L15.495 6.32797L16.672 7.49997L16.586 7.58597Z" fill="#2A293A"/>
</g>
</svg>
