<svg width="24" height="24" viewBox="0 0 24 24" fill="none" xmlns="http://www.w3.org/2000/svg">
<g id="pin">
<path id="main" d="M19.6994 7.98187L16.0181 4.30057C15.8256 4.10811 15.5646 4 15.2923 4C15.0201 4 14.7591 4.10811 14.5666 4.30057L14.2658 4.60135V5.62793L11.6346 8.25905C11.4422 8.45158 11.1811 8.55977 10.9089 8.55983C10.7986 8.55974 10.6891 8.54206 10.5845 8.50748L8.10631 7.68108L6.77894 9.00845C6.58649 9.20096 6.47837 9.46203 6.47837 9.73424C6.47837 10.0064 6.58649 10.2675 6.77894 10.46L9.13288 12.814L7.322 14.6248C5.81258 16.1345 4.67525 17.9748 4 20C6.02466 19.3242 7.86447 18.1869 9.37413 16.678L11.186 14.8671L13.54 17.2211C13.7325 17.4135 13.9936 17.5216 14.2658 17.5216C14.538 17.5216 14.799 17.4135 14.9916 17.2211L16.3189 15.8937L15.4977 13.4155C15.4374 13.2348 15.4286 13.0408 15.4723 12.8553C15.516 12.6698 15.6104 12.5002 15.7451 12.3654L18.3721 9.73424H19.3986L19.6994 9.43345C19.8919 9.24094 20 8.97987 20 8.70766C20 8.43545 19.8919 8.17438 19.6994 7.98187ZM16.9205 8.28266L14.2894 10.9138C13.8832 11.317 13.5981 11.8261 13.4666 12.3831C13.335 12.9402 13.3622 13.523 13.5451 14.0654L13.6745 14.4514L9.54351 10.3255L9.92951 10.4549C10.4721 10.6357 11.0544 10.6619 11.611 10.5304C12.1677 10.399 12.6767 10.1151 13.0811 9.71063L15.7122 7.07951L15.8005 6.99122L17.0088 8.19437L16.9205 8.28266Z" fill="#2A293A"/>
</g>
</svg>
