<svg width="24" height="24" viewBox="0 0 24 24" fill="none" xmlns="http://www.w3.org/2000/svg">
<g id="pin">
<path id="main" d="M19.293 7.293L15.707 3.707C15.5195 3.51953 15.2652 3.41422 15 3.41422C14.7348 3.41422 14.4805 3.51953 14.293 3.707L14 4V5L11.437 7.563C11.2495 7.75055 10.9952 7.85594 10.73 7.856C10.6226 7.85591 10.516 7.83869 10.414 7.805L8 7L6.707 8.293C6.51953 8.48053 6.41421 8.73484 6.41421 9C6.41421 9.26517 6.51953 9.51947 6.707 9.707L9 12L7.236 13.764C5.76566 15.2346 4.65776 17.0272 4 19C5.97224 18.3417 7.76442 17.2339 9.235 15.764L11 14L13.293 16.293C13.4805 16.4805 13.7348 16.5858 14 16.5858C14.2652 16.5858 14.5195 16.4805 14.707 16.293L16 15L15.2 12.586C15.1413 12.4099 15.1327 12.221 15.1753 12.0403C15.2178 11.8596 15.3098 11.6944 15.441 11.563L18 9H19L19.293 8.707C19.4805 8.51947 19.5858 8.26517 19.5858 8C19.5858 7.73484 19.4805 7.48053 19.293 7.293ZM16.586 7.586L14.023 10.149C13.6273 10.5418 13.3497 11.0377 13.2215 11.5803C13.0934 12.123 13.1199 12.6907 13.298 13.219L13.424 13.595L9.4 9.576L9.776 9.702C10.3046 9.87815 10.8717 9.90362 11.414 9.77557C11.9562 9.64752 12.4521 9.371 12.846 8.977L15.409 6.414L15.495 6.328L16.672 7.5L16.586 7.586Z" fill="#2A293A"/>
</g>
</svg>
