<svg width="24" height="24" viewBox="0 0 24 24" fill="none" xmlns="http://www.w3.org/2000/svg">
<g id="play">
<path id="main" d="M6 6.82589C5.99968 6.68106 6.04214 6.53871 6.1231 6.41317C6.20405 6.28764 6.32066 6.18335 6.46116 6.11081C6.60166 6.03827 6.76111 6.00004 6.92344 5.99997C7.08578 5.9999 7.24527 6.03799 7.38585 6.1104L17.5349 11.2845C17.6762 11.3566 17.7936 11.4608 17.8753 11.5864C17.957 11.7121 18 11.8547 18 12C18 12.1452 17.957 12.2879 17.8753 12.4135C17.7936 12.5392 17.6762 12.6433 17.5349 12.7155L7.38585 17.8895C7.24527 17.962 7.08578 18 6.92344 18C6.76111 17.9999 6.60166 17.9617 6.46116 17.8891C6.32066 17.8166 6.20405 17.7123 6.1231 17.5868C6.04214 17.4612 5.99968 17.3189 6 17.174V6.82589Z" fill="#2A293A"/>
</g>
</svg>
