<svg width="24" height="24" viewBox="0 0 24 24" fill="none" xmlns="http://www.w3.org/2000/svg">
<g id="pointer-down">
<path id="main" d="M7.2 10.6L11.2 15.933C11.2931 16.0572 11.4139 16.158 11.5528 16.2274C11.6916 16.2969 11.8448 16.333 12 16.333C12.1552 16.333 12.3084 16.2969 12.4472 16.2274C12.5861 16.158 12.7069 16.0572 12.8 15.933L16.8 10.6C16.9114 10.4514 16.9793 10.2748 16.996 10.0898C17.0126 9.90484 16.9775 9.71889 16.8944 9.55279C16.8114 9.38668 16.6837 9.24698 16.5257 9.14935C16.3678 9.05171 16.1857 9 16 9H8C7.81429 9 7.63225 9.05171 7.47427 9.14935C7.31629 9.24698 7.18863 9.38668 7.10557 9.55279C7.02252 9.71889 6.98736 9.90484 7.00404 10.0898C7.02072 10.2748 7.08857 10.4514 7.2 10.6Z" fill="#2A293A"/>
</g>
</svg>
