<svg width="24" height="24" viewBox="0 0 24 24" fill="none" xmlns="http://www.w3.org/2000/svg">
<g id="pointer-down">
<path id="main" d="M8.16 10.3092L11.36 14.6727C11.4345 14.7743 11.5311 14.8568 11.6422 14.9136C11.7533 14.9704 11.8758 15 12 15C12.1242 15 12.2467 14.9704 12.3578 14.9136C12.4689 14.8568 12.5655 14.7743 12.64 14.6727L15.84 10.3092C15.9291 10.1876 15.9834 10.043 15.9968 9.8917C16.0101 9.74036 15.982 9.58821 15.9155 9.4523C15.8491 9.31639 15.747 9.20209 15.6206 9.1222C15.4942 9.04231 15.3486 9 15.2 9H8.8C8.65143 9 8.5058 9.04231 8.37942 9.1222C8.25303 9.20209 8.1509 9.31639 8.08446 9.4523C8.01802 9.58821 7.98989 9.74036 8.00323 9.8917C8.01658 10.043 8.07086 10.1876 8.16 10.3092Z" fill="#2A293A"/>
</g>
</svg>
