<svg width="24" height="24" viewBox="0 0 24 24" fill="none" xmlns="http://www.w3.org/2000/svg">
<g id="pointer-right">
<path id="main" d="M10.3092 15.84L14.6727 12.64C14.7743 12.5655 14.8568 12.4689 14.9136 12.3578C14.9704 12.2467 15 12.1242 15 12C15 11.8758 14.9704 11.7533 14.9136 11.6422C14.8568 11.5311 14.7743 11.4345 14.6727 11.36L10.3092 8.16C10.1876 8.07086 10.043 8.01658 9.8917 8.00323C9.74036 7.98989 9.58821 8.01802 9.4523 8.08446C9.31639 8.1509 9.20209 8.25303 9.1222 8.37942C9.04231 8.5058 9 8.65143 9 8.8V15.2C9 15.3486 9.04231 15.4942 9.1222 15.6206C9.20209 15.747 9.31639 15.8491 9.4523 15.9155C9.58821 15.982 9.74036 16.0101 9.8917 15.9968C10.043 15.9834 10.1876 15.9291 10.3092 15.84Z" fill="#2A293A"/>
</g>
</svg>
