<svg width="24" height="24" viewBox="0 0 24 24" fill="none" xmlns="http://www.w3.org/2000/svg">
<path d="M10.6 16.8L15.933 12.8C16.0572 12.7069 16.158 12.5861 16.2274 12.4472C16.2969 12.3084 16.333 12.1552 16.333 12C16.333 11.8448 16.2969 11.6916 16.2274 11.5528C16.158 11.4139 16.0572 11.2931 15.933 11.2L10.6 7.2C10.4514 7.08857 10.2748 7.02072 10.0898 7.00404C9.90484 6.98736 9.71889 7.02252 9.55279 7.10557C9.38668 7.18863 9.24698 7.31629 9.14935 7.47427C9.05171 7.63225 9 7.81429 9 8V16C9 16.1857 9.05171 16.3678 9.14935 16.5257C9.24698 16.6837 9.38668 16.8114 9.55279 16.8944C9.71889 16.9775 9.90484 17.0126 10.0898 16.996C10.2748 16.9793 10.4514 16.9114 10.6 16.8Z" fill="#2A293A"/>
</svg>
