<svg width="24" height="24" viewBox="0 0 24 24" fill="none" xmlns="http://www.w3.org/2000/svg">
<path d="M16.8 13.4L12.8 8.06699C12.7069 7.9428 12.5861 7.84199 12.4472 7.77257C12.3084 7.70314 12.1552 7.66699 12 7.66699C11.8448 7.66699 11.6916 7.70314 11.5528 7.77257C11.4139 7.84199 11.2931 7.9428 11.2 8.06699L7.2 13.4C7.08857 13.5486 7.02072 13.7252 7.00404 13.9102C6.98736 14.0951 7.02252 14.2811 7.10557 14.4472C7.18863 14.6133 7.31629 14.753 7.47427 14.8506C7.63225 14.9483 7.81429 15 8 15H16C16.1857 15 16.3678 14.9483 16.5257 14.8506C16.6837 14.753 16.8114 14.6133 16.8944 14.4472C16.9775 14.2811 17.0126 14.0951 16.996 13.9102C16.9793 13.7252 16.9114 13.5486 16.8 13.4Z" fill="#2A293A"/>
</svg>
