<svg width="24" height="24" viewBox="0 0 24 24" fill="none" xmlns="http://www.w3.org/2000/svg">
<path d="M13.4 7.2L8.06699 11.2C7.9428 11.2931 7.84199 11.4139 7.77257 11.5528C7.70314 11.6916 7.66699 11.8448 7.66699 12C7.66699 12.1552 7.70314 12.3084 7.77257 12.4472C7.84199 12.5861 7.9428 12.7069 8.06699 12.8L13.4 16.8C13.5486 16.9114 13.7252 16.9793 13.9102 16.996C14.0951 17.0126 14.2811 16.9775 14.4472 16.8944C14.6133 16.8114 14.753 16.6837 14.8506 16.5257C14.9483 16.3678 15 16.1857 15 16V8C15 7.81429 14.9483 7.63225 14.8506 7.47427C14.753 7.31629 14.6133 7.18863 14.4472 7.10557C14.2811 7.02252 14.0951 6.98736 13.9102 7.00404C13.7252 7.02072 13.5486 7.08857 13.4 7.2Z" fill="#2A293A"/>
</svg>
