<svg width="24" height="24" viewBox="0 0 24 24" fill="none" xmlns="http://www.w3.org/2000/svg">
<g id="pointer-up">
<path id="main" d="M15.84 13.6908L12.64 9.32729C12.5655 9.22567 12.4689 9.14319 12.3578 9.08638C12.2467 9.02957 12.1242 9 12 9C11.8758 9 11.7533 9.02957 11.6422 9.08638C11.5311 9.14319 11.4345 9.22567 11.36 9.32729L8.16 13.6908C8.07086 13.8124 8.01658 13.957 8.00323 14.1083C7.98989 14.2596 8.01802 14.4118 8.08446 14.5477C8.1509 14.6836 8.25303 14.7979 8.37942 14.8778C8.5058 14.9577 8.65143 15 8.8 15H15.2C15.3486 15 15.4942 14.9577 15.6206 14.8778C15.747 14.7979 15.8491 14.6836 15.9155 14.5477C15.982 14.4118 16.0101 14.2596 15.9968 14.1083C15.9834 13.957 15.9291 13.8124 15.84 13.6908Z" fill="#2A293A"/>
</g>
</svg>
