<svg width="24" height="24" viewBox="0 0 24 24" fill="none" xmlns="http://www.w3.org/2000/svg">
<g id="pointer-left">
<path id="main" d="M13.6908 8.16L9.32729 11.36C9.22567 11.4345 9.14319 11.5311 9.08638 11.6422C9.02957 11.7533 9 11.8758 9 12C9 12.1242 9.02957 12.2467 9.08638 12.3578C9.14319 12.4689 9.22567 12.5655 9.32729 12.64L13.6908 15.84C13.8124 15.9291 13.957 15.9834 14.1083 15.9968C14.2596 16.0101 14.4118 15.982 14.5477 15.9155C14.6836 15.8491 14.7979 15.747 14.8778 15.6206C14.9577 15.4942 15 15.3486 15 15.2V8.8C15 8.65143 14.9577 8.5058 14.8778 8.37942C14.7979 8.25303 14.6836 8.1509 14.5477 8.08446C14.4118 8.01802 14.2596 7.98989 14.1083 8.00323C13.957 8.01658 13.8124 8.07086 13.6908 8.16Z" fill="#2A293A"/>
</g>
</svg>
