<svg width="24" height="24" viewBox="0 0 24 24" fill="none" xmlns="http://www.w3.org/2000/svg">
<g id="quote-message">
<path id="main" d="M18 3H6C4.93913 3 3.92172 3.42143 3.17157 4.17157C2.42143 4.92172 2 5.93913 2 7V15C2 16.0609 2.42143 17.0783 3.17157 17.8284C3.92172 18.5786 4.93913 19 6 19H9V21.586C9 21.7179 9.02609 21.8485 9.07678 21.9703C9.12748 22.0921 9.20176 22.2026 9.29536 22.2956C9.38896 22.3885 9.50003 22.4621 9.62217 22.5119C9.7443 22.5617 9.87509 22.5869 10.007 22.586C10.1378 22.5854 10.2672 22.5585 10.3874 22.5069C10.5076 22.4554 10.6163 22.3803 10.707 22.286L14 19H18C19.0609 19 20.0783 18.5786 20.8284 17.8284C21.5786 17.0783 22 16.0609 22 15V7C22 5.93913 21.5786 4.92172 20.8284 4.17157C20.0783 3.42143 19.0609 3 18 3ZM20 15C20 15.5304 19.7893 16.0391 19.4142 16.4142C19.0391 16.7893 18.5304 17 18 17H13.172L12.586 17.586L11 19.172V17H6C5.46957 17 4.96086 16.7893 4.58579 16.4142C4.21071 16.0391 4 15.5304 4 15V7C4 6.46957 4.21071 5.96086 4.58579 5.58579C4.96086 5.21071 5.46957 5 6 5H18C18.5304 5 19.0391 5.21071 19.4142 5.58579C19.7893 5.96086 20 6.46957 20 7V15ZM8 9H11V12C11 12.5304 10.7893 13.0391 10.4142 13.4142C10.0391 13.7893 9.53043 14 9 14H8V13C8.13211 13.0029 8.26343 12.979 8.38605 12.9297C8.50867 12.8805 8.62005 12.8069 8.71349 12.7135C8.80692 12.6201 8.88048 12.5087 8.92972 12.386C8.97896 12.2634 9.00287 12.1321 9 12H8V9ZM13 9H16V12C16 12.5304 15.7893 13.0391 15.4142 13.4142C15.0391 13.7893 14.5304 14 14 14H13V13C13.1321 13.0029 13.2634 12.979 13.386 12.9297C13.5087 12.8805 13.6201 12.8069 13.7135 12.7135C13.8069 12.6201 13.8805 12.5087 13.9297 12.386C13.979 12.2634 14.0029 12.1321 14 12H13V9Z" fill="#2A293A"/>
</g>
</svg>
