<svg width="24" height="24" viewBox="0 0 24 24" fill="none" xmlns="http://www.w3.org/2000/svg">
<g id="reload">
<path id="main" d="M14.9896 10.2446H18.1255C18.3574 10.2446 18.5799 10.1524 18.7439 9.98832C18.9079 9.82423 19 9.60167 19 9.3696V6.23185C19 6.05882 18.9487 5.88969 18.8526 5.74583C18.7565 5.60197 18.6199 5.48985 18.4601 5.42364C18.3004 5.35742 18.1246 5.3401 17.955 5.37384C17.7854 5.40759 17.6296 5.4909 17.5073 5.61323L16.4876 6.63348C15.3249 5.65914 13.8773 5.08925 12.3628 5.00964C10.8483 4.93004 9.34897 5.34504 8.09066 6.19212C6.83236 7.0392 5.88323 8.27249 5.38626 9.7062C4.8893 11.1399 4.87141 12.6964 5.3353 14.1411C5.79919 15.5859 6.71973 16.8407 7.95824 17.7165C9.19675 18.5923 10.6862 19.0417 12.2021 18.997C13.718 18.9522 15.1784 18.4158 16.3631 17.4684C17.5479 16.5211 18.3929 15.2142 18.7709 13.7446H16.9459C16.6251 14.6523 16.0612 15.4542 15.3156 16.0627C14.5701 16.6713 13.6717 17.063 12.7186 17.195C11.7656 17.327 10.7946 17.1943 9.91188 16.8113C9.02914 16.4284 8.26864 15.8099 7.71353 15.0236C7.15843 14.2373 6.83009 13.3134 6.76443 12.3529C6.69876 11.3924 6.8983 10.4324 7.34122 9.57776C7.78414 8.72313 8.45339 8.00681 9.27578 7.50713C10.0982 7.00746 11.042 6.74366 12.0042 6.7446C13.1794 6.74666 14.3187 7.15012 15.2336 7.88823L14.3714 8.75098C14.2491 8.87335 14.1659 9.02924 14.1321 9.19895C14.0984 9.36866 14.1157 9.54456 14.1819 9.70443C14.2481 9.86429 14.3601 10.0009 14.5039 10.0971C14.6477 10.1932 14.8167 10.2446 14.9896 10.2446Z" fill="#2A293A"/>
</g>
</svg>
