<svg width="24" height="24" viewBox="0 0 24 24" fill="none" xmlns="http://www.w3.org/2000/svg">
<g id="reload">
<path id="main" d="M15.414 10H19C19.2652 10 19.5195 9.89464 19.7071 9.7071C19.8946 9.51957 20 9.26521 20 9V5.414C19.9999 5.21625 19.9413 5.02295 19.8314 4.85854C19.7215 4.69413 19.5653 4.56599 19.3826 4.49032C19.1999 4.41465 18.9989 4.39485 18.8049 4.43341C18.611 4.47198 18.4328 4.56719 18.293 4.707L17.127 5.873C15.7974 4.75947 14.142 4.10816 12.4101 4.01718C10.6782 3.92621 8.96364 4.40049 7.52472 5.36859C6.08579 6.33668 5.00042 7.74616 4.43212 9.38468C3.86383 11.0232 3.84337 12.802 4.37385 14.4532C4.90432 16.1043 5.95699 17.5384 7.37328 18.5393C8.78957 19.5402 10.4928 20.0538 12.2263 20.0027C13.9598 19.9516 15.6298 19.3385 16.9846 18.2558C18.3394 17.1732 19.3057 15.6796 19.738 14H17.651C17.2842 15.0373 16.6393 15.9538 15.7868 16.6493C14.9342 17.3448 13.9068 17.7924 12.817 17.9433C11.7271 18.0942 10.6168 17.9425 9.60734 17.5048C8.5979 17.0672 7.72824 16.3604 7.09345 15.4617C6.45867 14.5631 6.0832 13.5072 6.00811 12.4095C5.93302 11.3118 6.1612 10.2146 6.6677 9.23789C7.1742 8.26117 7.93951 7.44252 8.87994 6.87146C9.82038 6.3004 10.8997 5.99892 12 6C13.3439 6.00234 14.6468 6.46344 15.693 7.307L14.707 8.293C14.5672 8.43285 14.472 8.61101 14.4334 8.80497C14.3948 8.99892 14.4146 9.19995 14.4903 9.38265C14.566 9.56535 14.6941 9.72152 14.8585 9.8314C15.0229 9.94128 15.2162 9.99996 15.414 10Z" fill="#2A293A"/>
</g>
</svg>
