<svg width="24" height="24" viewBox="0 0 24 24" fill="none" xmlns="http://www.w3.org/2000/svg">
<g id="rule">
<path id="main" d="M18 3H4C3.73478 3 3.48043 3.10536 3.29289 3.29289C3.10536 3.48043 3 3.73478 3 4V18C3 18.2652 3.10536 18.5196 3.29289 18.7071C3.48043 18.8946 3.73478 19 4 19H8V17H5V5H17V8H19V4C19 3.73478 18.8946 3.48043 18.7071 3.29289C18.5196 3.10536 18.2652 3 18 3ZM16 8H14V10.1C13.3737 10.2279 12.7781 10.4758 12.246 10.83L10.757 9.343L9.343 10.757L10.832 12.246C10.4771 12.778 10.2286 13.3736 10.1 14H8V16H10.1C10.2279 16.6263 10.4758 17.2219 10.83 17.754L9.343 19.243L10.757 20.657L12.246 19.168C12.7778 19.5233 13.3735 19.7719 14 19.9V22H16V19.9C16.6265 19.7722 17.2222 19.5239 17.754 19.169L19.243 20.658L20.657 19.243L19.169 17.755C19.5237 17.2227 19.7719 16.6267 19.9 16H22V14H19.9C19.7721 13.3737 19.5242 12.7781 19.17 12.246L20.658 10.757L19.243 9.343L17.754 10.831C17.222 10.4765 16.6264 10.2282 16 10.1V8ZM15 18C14.4067 18 13.8266 17.8241 13.3333 17.4944C12.8399 17.1648 12.4554 16.6962 12.2284 16.1481C12.0013 15.5999 11.9419 14.9967 12.0576 14.4147C12.1734 13.8328 12.4591 13.2982 12.8787 12.8787C13.2982 12.4591 13.8328 12.1734 14.4147 12.0576C14.9967 11.9419 15.5999 12.0013 16.1481 12.2284C16.6962 12.4554 17.1648 12.8399 17.4944 13.3333C17.8241 13.8266 18 14.4067 18 15C18 15.7956 17.6839 16.5587 17.1213 17.1213C16.5587 17.6839 15.7956 18 15 18Z" fill="#2A293A"/>
</g>
</svg>
