<svg id="Layer_1" data-name="Layer 1" xmlns="http://www.w3.org/2000/svg" width="24" height="24" viewBox="0 0 24 24" fill="none"> 
<g id="sales">
<path class="cls-1" id="main" fill="currentColor" d="M11,17h2V16h1a.982.982,0,0,0,1-1V12a.981.981,0,0,0-1-1H11V10h4V8H13V7H11V8H10A.982.982,0,0,0,9,9v3a.984.984,0,0,0,1,1h3v1H9v2h2ZM4,20a1.927,1.927,0,0,1-1.413-.588A1.926,1.926,0,0,1,2,18V6a1.93,1.93,0,0,1,.587-1.413A1.93,1.93,0,0,1,4,4H20a2,2,0,0,1,2,2V18a2.006,2.006,0,0,1-2,2Zm0-2H20V6H4Zm0,0v0Z" 
data-color="main"/>
</g>
</svg>