<svg width="24" height="24" viewBox="0 0 24 24" fill="none" xmlns="http://www.w3.org/2000/svg">
<path d="M15 14C15 14.5933 14.8241 15.1734 14.4944 15.6667C14.1648 16.1601 13.6962 16.5446 13.1481 16.7716C12.5999 16.9987 11.9967 17.0581 11.4147 16.9424C10.8328 16.8266 10.2982 16.5409 9.87868 16.1213C9.45912 15.7018 9.1734 15.1672 9.05764 14.5853C8.94189 14.0033 9.0013 13.4001 9.22836 12.8519C9.45542 12.3038 9.83994 11.8352 10.3333 11.5056C10.8266 11.1759 11.4067 11 12 11C12.7956 11 13.5587 11.3161 14.1213 11.8787C14.6839 12.4413 15 13.2044 15 14ZM22 6V21C22 21.2652 21.8946 21.5196 21.7071 21.7071C21.5196 21.8946 21.2652 22 21 22H3C2.73478 22 2.48043 21.8946 2.29289 21.7071C2.10536 21.5196 2 21.2652 2 21V3C2 2.73478 2.10536 2.48043 2.29289 2.29289C2.48043 2.10536 2.73478 2 3 2H18L22 6ZM8 4V7H16V4H8ZM20 7L18 5V8C18 8.26522 17.8946 8.51957 17.7071 8.70711C17.5196 8.89464 17.2652 9 17 9H7C6.73478 9 6.48043 8.89464 6.29289 8.70711C6.10536 8.51957 6 8.26522 6 8V4H4V20H20V7Z" fill="#2A293A"/>
</svg>
