<svg width="24" height="24" viewBox="0 0 24 24" fill="none" xmlns="http://www.w3.org/2000/svg">
<g id="save">
<path id="main" d="M14.7 14.7C14.7 15.234 14.5416 15.756 14.245 16.2C13.9483 16.6441 13.5266 16.9901 13.0332 17.1945C12.5399 17.3988 11.997 17.4523 11.4733 17.3481C10.9495 17.2439 10.4684 16.9868 10.0908 16.6092C9.71321 16.2316 9.45606 15.7505 9.35188 15.2267C9.2477 14.703 9.30117 14.1601 9.50552 13.6668C9.70988 13.1734 10.0559 12.7517 10.5 12.455C10.944 12.1584 11.466 12 12 12C12.7161 12 13.4028 12.2845 13.9092 12.7908C14.4155 13.2972 14.7 13.9839 14.7 14.7ZM21 6.6V20.1C21 20.3387 20.9052 20.5676 20.7364 20.7364C20.5676 20.9052 20.3387 21 20.1 21H3.9C3.66131 21 3.43239 20.9052 3.2636 20.7364C3.09482 20.5676 3 20.3387 3 20.1V3.9C3 3.66131 3.09482 3.43239 3.2636 3.2636C3.43239 3.09482 3.66131 3 3.9 3H17L21 6.6ZM9 5V8H15V5H9ZM19 7.5L17 5.7V9.1C17 9.33869 17.3052 9.56761 17.1364 9.7364C16.9676 9.90518 16.7387 10 16.5 10H8C7.76131 10 7.43239 9.90518 7.2636 9.7364C7.09482 9.56761 7 9.33869 7 9.1V5H5V19H19V7.5Z" fill="#2A293A"/>
</g>
</svg>
