<svg width="24" height="24" viewBox="0 0 24 24" fill="none" xmlns="http://www.w3.org/2000/svg">
<g id="search">
<path id="main" d="M19.293 18.293L15.71 14.71C16.6436 13.5285 17.101 12.0402 16.9922 10.5383C16.8833 9.03639 16.2161 7.62965 15.1218 6.59512C14.0276 5.5606 12.5857 4.97324 11.08 4.94874C9.57437 4.92423 8.1141 5.46434 6.98677 6.4627C5.85944 7.46107 5.14676 8.84534 4.98908 10.3429C4.83139 11.8405 5.24012 13.3428 6.13478 14.5541C7.02945 15.7654 8.3452 16.5978 9.82294 16.8874C11.3007 17.1771 12.8333 16.9029 14.119 16.119L17.707 19.707C17.8945 19.8945 18.1488 19.9999 18.414 20H18.586C18.7838 19.9999 18.9771 19.9413 19.1415 19.8314C19.3059 19.7215 19.434 19.5653 19.5097 19.3826C19.5854 19.1999 19.6052 18.9989 19.5666 18.8049C19.528 18.611 19.4328 18.4328 19.293 18.293ZM11 15C10.2089 15 9.43554 14.7654 8.77774 14.3259C8.11994 13.8863 7.60725 13.2616 7.3045 12.5307C7.00175 11.7998 6.92254 10.9955 7.07688 10.2196C7.23122 9.44369 7.61218 8.73096 8.17159 8.17155C8.731 7.61214 9.44373 7.23118 10.2197 7.07684C10.9956 6.9225 11.7998 7.00171 12.5308 7.30446C13.2617 7.60721 13.8864 8.1199 14.3259 8.7777C14.7654 9.4355 15 10.2089 15 11C15 12.0608 14.5786 13.0783 13.8284 13.8284C13.0783 14.5786 12.0609 15 11 15Z" fill="#2A293A"/>
</g>
</svg>
