<svg width="24" height="24" viewBox="0 0 24 24" fill="none" xmlns="http://www.w3.org/2000/svg">
<g id="search">
<path id="main" d="M19.293 18.293L15.71 14.71C16.6436 13.5285 17.101 12.0402 16.9922 10.5383C16.8833 9.0364 16.216 7.62967 15.1218 6.59514C14.0276 5.56061 12.5857 4.97326 11.08 4.94875C9.57434 4.92424 8.11407 5.46435 6.98675 6.46272C5.85942 7.46109 5.14674 8.84536 4.98905 10.3429C4.83137 11.8405 5.2401 13.3429 6.13476 14.5541C7.02942 15.7654 8.34517 16.5978 9.82292 16.8874C11.3007 17.1771 12.8333 16.9029 14.119 16.119L17.707 19.707C17.8945 19.8945 18.1488 19.9999 18.414 20H18.586C18.7837 20 18.977 19.9413 19.1415 19.8314C19.3059 19.7215 19.434 19.5653 19.5097 19.3826C19.5853 19.1999 19.6051 18.9989 19.5666 18.805C19.528 18.611 19.4328 18.4328 19.293 18.293ZM11 15C10.2089 15 9.43551 14.7654 8.77772 14.3259C8.11992 13.8863 7.60723 13.2616 7.30448 12.5307C7.00173 11.7998 6.92252 10.9956 7.07686 10.2196C7.2312 9.44371 7.61216 8.73098 8.17157 8.17157C8.73098 7.61216 9.44371 7.23119 10.2196 7.07685C10.9956 6.92251 11.7998 7.00173 12.5307 7.30448C13.2616 7.60723 13.8863 8.11992 14.3259 8.77771C14.7654 9.43551 15 10.2089 15 11C15 12.0609 14.5786 13.0783 13.8284 13.8284C13.0783 14.5786 12.0609 15 11 15Z" fill="#2A293A"/>
</g>
</svg>
