<svg width="24" height="24" viewBox="0 0 24 24" fill="none" xmlns="http://www.w3.org/2000/svg">
<g id="search">
<path id="main" d="M19.6798 18.1855L15.7612 14.3768C16.7823 13.1209 17.2825 11.5389 17.1635 9.94244C17.0444 8.34593 16.3147 6.85061 15.118 5.75093C13.9213 4.65124 12.3443 4.0269 10.6976 4.00085C9.05096 3.9748 7.45393 4.54892 6.22103 5.61016C4.98813 6.67141 4.2087 8.14286 4.03625 9.73475C3.86379 11.3266 4.3108 12.9236 5.28925 14.2112C6.2677 15.4987 7.70668 16.3836 9.32281 16.6914C10.9389 16.9993 12.6151 16.7079 14.0212 15.8746L17.9453 19.6885C18.1503 19.8879 18.4284 19.9999 18.7185 20H18.9066C19.1229 20 19.3343 19.9376 19.5141 19.8208C19.6939 19.704 19.834 19.538 19.9168 19.3438C19.9995 19.1496 20.0212 18.9359 19.979 18.7297C19.9368 18.5235 19.8327 18.3342 19.6798 18.1855ZM10.6101 14.6851C9.74492 14.6851 8.89913 14.4357 8.17973 13.9685C7.46033 13.5013 6.89962 12.8373 6.56852 12.0603C6.23741 11.2834 6.15078 10.4285 6.31958 9.60369C6.48837 8.77889 6.90501 8.02128 7.51681 7.42663C8.12861 6.83199 8.9081 6.42704 9.75669 6.26298C10.6053 6.09892 11.4849 6.18312 12.2842 6.50494C13.0836 6.82675 13.7668 7.37173 14.2475 8.07096C14.7282 8.77018 14.9847 9.59224 14.9847 10.4332C14.9847 11.5609 14.5238 12.6424 13.7034 13.4397C12.883 14.2371 11.7704 14.6851 10.6101 14.6851Z" fill="#2A293A"/>
</g>
</svg>
