<svg width="24" height="24" viewBox="0 0 24 24" fill="none" xmlns="http://www.w3.org/2000/svg">
<path fill-rule="evenodd" clip-rule="evenodd" d="M19.48 11.132L16.18 9.24601L13.054 16.546L19.48 12.873C19.6329 12.7855 19.76 12.6592 19.8484 12.5067C19.9368 12.3543 19.9834 12.1812 19.9834 12.005C19.9834 11.8288 19.9368 11.6557 19.8484 11.5033C19.76 11.3509 19.6329 11.2245 19.48 11.137" fill="#2A293A"/>
<path fill-rule="evenodd" clip-rule="evenodd" d="M14.442 5.10001C14.106 4.96084 13.7287 4.95962 13.3918 5.09663C13.0549 5.23363 12.7855 5.49783 12.642 5.83201L12.165 6.94701L8.5 4.85401C8.34777 4.76611 8.17505 4.7199 7.99926 4.72003C7.82347 4.72016 7.65082 4.76663 7.49871 4.85475C7.34661 4.94287 7.22042 5.06953 7.13286 5.22197C7.04531 5.3744 6.99948 5.54722 7 5.72301V10.4L10.357 11.168L9.565 13.015L7 13.6V18.276C6.99948 18.4518 7.04531 18.6246 7.13286 18.7771C7.22042 18.9295 7.34661 19.0561 7.49871 19.1443C7.65082 19.2324 7.82347 19.2789 7.99926 19.279C8.17505 19.2791 8.34777 19.2329 8.5 19.145L10.409 18.053L15.156 6.96901C15.2329 6.79956 15.2754 6.61655 15.2811 6.43056C15.2868 6.24457 15.2555 6.0593 15.1891 5.88548C15.1227 5.71166 15.0225 5.55273 14.8942 5.41791C14.766 5.28308 14.6123 5.17503 14.442 5.10001Z" fill="#2A293A"/>
</svg>
