<svg width="24" height="24" viewBox="0 0 24 24" fill="none" xmlns="http://www.w3.org/2000/svg">
<g id="send-disabled">
<g id="main">
<path fill-rule="evenodd" clip-rule="evenodd" d="M18.4571 11.1658L14.8988 9.35221L11.528 16.3719L18.4571 12.84C18.6221 12.7558 18.7591 12.6343 18.8545 12.4877C18.9498 12.3412 19 12.1747 19 12.0053C19 11.8358 18.9498 11.6694 18.8545 11.5228C18.7591 11.3763 18.6221 11.2548 18.4571 11.1706" fill="#2A293A"/>
<path fill-rule="evenodd" clip-rule="evenodd" d="M13.0247 5.36539C12.6624 5.23156 12.2555 5.23039 11.8923 5.36214C11.529 5.49388 11.2385 5.74794 11.0838 6.06929L10.5694 7.14148L6.61746 5.12883C6.4533 5.04431 6.26706 4.99988 6.0775 5C5.88795 5.00013 5.70178 5.04481 5.53776 5.12955C5.37375 5.21428 5.23767 5.33608 5.14326 5.48266C5.04885 5.62925 4.99944 5.79543 5 5.96447V10.4619L8.61986 11.2004L7.76585 12.9765L5 13.5391V18.0355C4.99944 18.2046 5.04885 18.3708 5.14326 18.5173C5.23767 18.6639 5.37375 18.7857 5.53776 18.8705C5.70178 18.9552 5.88795 18.9999 6.0775 19C6.26706 19.0001 6.4533 18.9557 6.61746 18.8712L8.67593 17.8211L13.7946 7.16263C13.8775 6.99969 13.9234 6.82371 13.9295 6.64486C13.9356 6.46601 13.9019 6.28785 13.8303 6.1207C13.7587 5.95355 13.6506 5.80073 13.5124 5.67108C13.3741 5.54143 13.2083 5.43753 13.0247 5.36539Z" fill="#2A293A"/>
</g>
</g>
</svg>
