<svg width="24" height="24" viewBox="0 0 24 24" fill="none" xmlns="http://www.w3.org/2000/svg">
<g id="send-message">
<path id="main" d="M5 5.96357V10.4613L12.5452 12L5 13.5387V18.0364C4.99963 18.2054 5.04916 18.3715 5.14361 18.5179C5.23806 18.6644 5.3741 18.7861 5.53802 18.8707C5.70194 18.9553 5.88796 18.9999 6.07735 19C6.26674 19.0001 6.45281 18.9556 6.61682 18.8712L18.4574 12.8347C18.6222 12.7506 18.7592 12.6291 18.8545 12.4825C18.9498 12.3359 19 12.1695 19 12C19 11.8305 18.9498 11.6641 18.8545 11.5175C18.7592 11.3709 18.6222 11.2494 18.4574 11.1653L6.61682 5.12884C6.45281 5.04436 6.26674 4.99992 6.07735 5C5.88796 5.00008 5.70194 5.04469 5.53802 5.12931C5.3741 5.21394 5.23806 5.33561 5.14361 5.48207C5.04916 5.62853 4.99963 5.7946 5 5.96357Z" fill="#2A293A"/>
</g>
</svg>
