<svg width="24" height="24" viewBox="0 0 24 24" fill="none" xmlns="http://www.w3.org/2000/svg">
<g id="send-message">
<path id="main" d="M7 5.723V10.4L14 12L7 13.6V18.277C6.99965 18.4527 7.04561 18.6254 7.13324 18.7777C7.22086 18.93 7.34707 19.0565 7.49915 19.1445C7.65122 19.2325 7.8238 19.2789 7.99951 19.279C8.17521 19.2791 8.34784 19.2329 8.5 19.145L19.485 12.868C19.638 12.7805 19.7651 12.6541 19.8535 12.5017C19.9419 12.3493 19.9884 12.1762 19.9884 12C19.9884 11.8238 19.9419 11.6507 19.8535 11.4983C19.7651 11.3459 19.638 11.2195 19.485 11.132L8.5 4.855C8.34784 4.76715 8.17521 4.72094 7.99951 4.72102C7.8238 4.72111 7.65122 4.76749 7.49915 4.85549C7.34707 4.94349 7.22086 5.07001 7.13324 5.22231C7.04561 5.3746 6.99965 5.5473 7 5.723Z" fill="#2A293A"/>
</g>
</svg>
