<svg width="24" height="24" viewBox="0 0 24 24" fill="none" xmlns="http://www.w3.org/2000/svg">
<g id="shared-by-me">
<path id="main" d="M13 12C13 12.7911 12.7654 13.5645 12.3259 14.2223C11.8864 14.8801 11.2616 15.3928 10.5307 15.6955C9.79983 15.9983 8.99556 16.0775 8.21964 15.9231C7.44372 15.7688 6.73098 15.3878 6.17157 14.8284C5.61216 14.269 5.2312 13.5563 5.07686 12.7804C4.92252 12.0044 5.00173 11.2002 5.30448 10.4693C5.60723 9.73836 6.11992 9.11365 6.77772 8.67412C7.43552 8.2346 8.20888 8 9 8C10.0609 8 11.0783 8.42143 11.8284 9.17157C12.5786 9.92172 13 10.9391 13 12ZM13 5L15 7L13 9L15 11L17 9L19 11V5H13ZM15 13L13 15L15 17L13 19H19V13L17 15L15 13Z" fill="#2A293A"/>
</g>
</svg>
