<svg width="24" height="24" viewBox="0 0 24 24" fill="none" xmlns="http://www.w3.org/2000/svg">
<g id="shared-by-me">
<path id="main" d="M13.1429 12C13.1429 12.9041 12.8747 13.788 12.3724 14.5397C11.8701 15.2915 11.1562 15.8774 10.3208 16.2235C9.48552 16.5695 8.56636 16.66 7.67959 16.4836C6.79282 16.3072 5.97827 15.8718 5.33894 15.2325C4.69962 14.5932 4.26423 13.7786 4.08784 12.8918C3.91145 12.0051 4.00198 11.0859 4.34798 10.2506C4.69398 9.41527 5.27991 8.70131 6.03168 8.199C6.78345 7.69668 7.66729 7.42857 8.57143 7.42857C9.78385 7.42857 10.9466 7.9102 11.8039 8.76751C12.6612 9.62482 13.1429 10.7876 13.1429 12ZM13.1429 4L15.4286 6.28571L13.1429 8.57143L15.4286 10.8571L17.7143 8.57143L20 10.8571V4H13.1429ZM15.4286 13.1429L13.1429 15.4286L15.4286 17.7143L13.1429 20H20V13.1429L17.7143 15.4286L15.4286 13.1429Z" fill="#2A293A"/>
</g>
</svg>
