<svg width="24" height="24" viewBox="0 0 24 24" fill="none" xmlns="http://www.w3.org/2000/svg">
<path d="M15 15C14.2895 15.0021 13.6033 15.259 13.066 15.724L8.88099 12.8C9.04166 12.2818 9.04166 11.7272 8.88099 11.209L13.066 8.279C13.5872 8.71701 14.2423 8.96396 14.923 8.97898C15.6037 8.99401 16.2691 8.77622 16.8091 8.36164C17.3491 7.94706 17.7315 7.36054 17.8928 6.69912C18.0542 6.03769 17.9849 5.341 17.6964 4.7243C17.408 4.10761 16.9176 3.60787 16.3065 3.30776C15.6954 3.00766 15.0002 2.92518 14.3358 3.07396C13.6714 3.22274 13.0777 3.59387 12.653 4.12595C12.2283 4.65803 11.9979 5.31918 12 6C12.002 6.18162 12.0204 6.36269 12.055 6.541L7.73799 9.563C7.28966 9.24152 6.76137 9.04989 6.21119 9.00918C5.66102 8.96847 5.11027 9.08025 4.61951 9.33224C4.12874 9.58423 3.71696 9.96666 3.42945 10.4375C3.14193 10.9083 2.98981 11.4493 2.98981 12.001C2.98981 12.5527 3.14193 13.0937 3.42945 13.5645C3.71696 14.0353 4.12874 14.4178 4.61951 14.6698C5.11027 14.9217 5.66102 15.0335 6.21119 14.9928C6.76137 14.9521 7.28966 14.7605 7.73799 14.439L12.05 17.456C12.0166 17.6354 11.9999 17.8175 12 18C12 18.5933 12.1759 19.1734 12.5056 19.6667C12.8352 20.1601 13.3038 20.5446 13.8519 20.7716C14.4001 20.9987 15.0033 21.0581 15.5853 20.9424C16.1672 20.8266 16.7018 20.5409 17.1213 20.1213C17.5409 19.7018 17.8266 19.1672 17.9423 18.5853C18.0581 18.0033 17.9987 17.4001 17.7716 16.8519C17.5446 16.3038 17.1601 15.8352 16.6667 15.5056C16.1734 15.1759 15.5933 15 15 15Z" fill="#2A293A"/>
</svg>
