<svg width="24" height="24" viewBox="0 0 24 24" fill="none" xmlns="http://www.w3.org/2000/svg">
<g id="shared-to-me">
<path id="main" d="M20 12C20 12.9041 19.7498 13.788 19.2809 14.5397C18.8121 15.2915 18.1457 15.8774 17.3661 16.2235C16.5865 16.5695 15.7286 16.66 14.9009 16.4836C14.0733 16.3072 13.313 15.8718 12.7163 15.2325C12.1196 14.5932 11.7133 13.7786 11.5486 12.8918C11.384 12.0051 11.4685 11.0859 11.7914 10.2506C12.1144 9.41527 12.6613 8.70131 13.3629 8.199C14.0646 7.69668 14.8895 7.42857 15.7333 7.42857C16.8649 7.42857 17.9502 7.9102 18.7503 8.76751C19.5505 9.62482 20 10.7876 20 12ZM6.13333 4L4 6.28571L6.13333 8.57143L4 10.8571H10.4V4L8.26667 6.28571L6.13333 4ZM6.13333 15.4286L4 17.7143L6.13333 20L8.26667 17.7143L10.4 20V13.1429H4L6.13333 15.4286Z" fill="#2A293A"/>
</g>
</svg>
