<svg width="24" height="24" viewBox="0 0 24 24" fill="none" xmlns="http://www.w3.org/2000/svg">
<g id="share">
<path id="main" d="M16.2019 14.6662C15.5392 14.6681 14.8992 14.8964 14.3981 15.3098L10.4947 12.7104C10.6446 12.2498 10.6446 11.7567 10.4947 11.2961L14.3981 8.69137C14.8842 9.08075 15.4952 9.30028 16.1301 9.31364C16.7649 9.327 17.3855 9.13339 17.8892 8.76484C18.3929 8.39629 18.7495 7.87489 18.9 7.2869C19.0505 6.69891 18.9859 6.07956 18.7169 5.53134C18.4478 4.98311 17.9905 4.53886 17.4205 4.27207C16.8505 4.00529 16.202 3.93196 15.5824 4.06423C14.9627 4.19649 14.409 4.52642 14.0129 4.99942C13.6167 5.47243 13.4018 6.06017 13.4038 6.6654C13.4057 6.82686 13.4228 6.98782 13.4551 7.14633L9.42863 9.83281C9.01047 9.54702 8.51773 9.37667 8.00459 9.34048C7.49144 9.30429 6.97776 9.40366 6.52002 9.62767C6.06228 9.85168 5.67822 10.1917 5.41005 10.6102C5.14188 11.0288 5 11.5097 5 12.0001C5 12.4906 5.14188 12.9715 5.41005 13.39C5.67822 13.8086 6.06228 14.1486 6.52002 14.3726C6.97776 14.5966 7.49144 14.696 8.00459 14.6598C8.51773 14.6236 9.01047 14.4532 9.42863 14.1674L13.4504 16.8495C13.4193 17.009 13.4037 17.1709 13.4038 17.3331C13.4038 17.8605 13.5679 18.3762 13.8754 18.8147C14.1828 19.2533 14.6198 19.5951 15.1311 19.797C15.6424 19.9988 16.205 20.0517 16.7478 19.9488C17.2906 19.8459 17.7891 19.5919 18.1805 19.2189C18.5718 18.8459 18.8383 18.3707 18.9462 17.8534C19.0542 17.336 18.9988 16.7998 18.787 16.3125C18.5752 15.8252 18.2166 15.4087 17.7564 15.1156C17.2963 14.8226 16.7553 14.6662 16.2019 14.6662Z" fill="#2A293A"/>
</g>
</svg>
