<svg width="24" height="24" viewBox="0 0 24 24" fill="none" xmlns="http://www.w3.org/2000/svg">
<g id="shared-to me">
<path id="main" d="M20 12C20 12.7911 19.7654 13.5645 19.3259 14.2223C18.8864 14.8801 18.2616 15.3928 17.5307 15.6955C16.7998 15.9983 15.9956 16.0775 15.2196 15.9231C14.4437 15.7688 13.731 15.3878 13.1716 14.8284C12.6122 14.269 12.2312 13.5563 12.0769 12.7804C11.9225 12.0044 12.0017 11.2002 12.3045 10.4693C12.6072 9.73836 13.1199 9.11365 13.7777 8.67412C14.4355 8.2346 15.2089 8 16 8C17.0609 8 18.0783 8.42143 18.8284 9.17157C19.5786 9.92172 20 10.9391 20 12ZM7 5L5 7L7 9L5 11H11V5L9 7L7 5ZM7 15L5 17L7 19L9 17L11 19V13H5L7 15Z" fill="#2A293A"/>
</g>
</svg>
