<svg width="24" height="24" viewBox="0 0 24 24" fill="none" xmlns="http://www.w3.org/2000/svg">
<g id="shopping-cart">
<path id="main" d="M10 19C10 19.3956 9.8827 19.7822 9.66294 20.1111C9.44318 20.44 9.13082 20.6964 8.76537 20.8478C8.39991 20.9991 7.99778 21.0387 7.60982 20.9616C7.22186 20.8844 6.86549 20.6939 6.58579 20.4142C6.30608 20.1345 6.1156 19.7781 6.03843 19.3902C5.96126 19.0022 6.00087 18.6001 6.15224 18.2346C6.30362 17.8692 6.55996 17.5568 6.88886 17.3371C7.21776 17.1173 7.60444 17 8 17C8.53043 17 9.03914 17.2107 9.41421 17.5858C9.78929 17.9609 10 18.4696 10 19ZM17 17C16.6044 17 16.2178 17.1173 15.8889 17.3371C15.56 17.5568 15.3036 17.8692 15.1522 18.2346C15.0009 18.6001 14.9613 19.0022 15.0384 19.3902C15.1156 19.7781 15.3061 20.1345 15.5858 20.4142C15.8655 20.6939 16.2219 20.8844 16.6098 20.9616C16.9978 21.0387 17.3999 20.9991 17.7654 20.8478C18.1308 20.6964 18.4432 20.44 18.6629 20.1111C18.8827 19.7822 19 19.3956 19 19C19 18.4696 18.7893 17.9609 18.4142 17.5858C18.0391 17.2107 17.5304 17 17 17ZM8.414 14H19V16H8.414C8.0185 15.9999 7.6319 15.8826 7.30308 15.6628C6.97426 15.443 6.71798 15.1307 6.56664 14.7653C6.4153 14.3999 6.3757 13.9978 6.45283 13.6099C6.52997 13.222 6.72038 12.8657 7 12.586L7.838 11.748L5.307 5H3V3H6.693L7.443 5H20.388L17.721 13H9.414L8.414 14ZM9.693 11H16.279L17.612 7H8.193L9.693 11Z" fill="#2A293A"/>
</g>
</svg>
