<svg width="24" height="24" viewBox="0 0 24 24" fill="none" xmlns="http://www.w3.org/2000/svg">
<g id="smile">
<path id="main" d="M12 4C10.4178 4 8.87103 4.46919 7.55544 5.34824C6.23985 6.22729 5.21447 7.47672 4.60897 8.93853C4.00347 10.4003 3.84504 12.0089 4.15372 13.5607C4.4624 15.1126 5.22433 16.538 6.34315 17.6568C7.46197 18.7757 8.88743 19.5376 10.4393 19.8463C11.9911 20.155 13.5997 19.9965 15.0615 19.391C16.5233 18.7855 17.7727 17.7601 18.6518 16.4446C19.5308 15.129 20 13.5822 20 12C20 9.87827 19.1571 7.84344 17.6569 6.34314C16.1566 4.84285 14.1217 4 12 4ZM12 18.2222C10.7694 18.2222 9.56636 17.8573 8.54312 17.1736C7.51988 16.4899 6.72236 15.5181 6.25142 14.3811C5.78047 13.2442 5.65725 11.9931 5.89734 10.7861C6.13742 9.57911 6.73003 8.47042 7.60023 7.60022C8.47042 6.73003 9.57911 6.13742 10.7861 5.89734C11.9931 5.65725 13.2442 5.78047 14.3811 6.25142C15.5181 6.72236 16.4899 7.51988 17.1736 8.54312C17.8573 9.56636 18.2222 10.7694 18.2222 12C18.2222 13.6502 17.5667 15.2329 16.3998 16.3998C15.2329 17.5667 13.6502 18.2222 12 18.2222ZM9.33334 10.2222V9.33333C9.33334 9.09758 9.42699 8.87149 9.59369 8.70479C9.76038 8.53809 9.98648 8.44444 10.2222 8.44444C10.458 8.44444 10.6841 8.53809 10.8508 8.70479C11.0175 8.87149 11.1111 9.09758 11.1111 9.33333V10.2222C11.1111 10.458 11.0175 10.6841 10.8508 10.8508C10.6841 11.0175 10.458 11.1111 10.2222 11.1111C9.98648 11.1111 9.76038 11.0175 9.59369 10.8508C9.42699 10.6841 9.33334 10.458 9.33334 10.2222ZM12.8889 10.2222V9.33333C12.8889 9.09758 12.9825 8.87149 13.1492 8.70479C13.3159 8.53809 13.542 8.44444 13.7778 8.44444C14.0135 8.44444 14.2396 8.53809 14.4063 8.70479C14.573 8.87149 14.6667 9.09758 14.6667 9.33333V10.2222C14.6667 10.458 14.573 10.6841 14.4063 10.8508C14.2396 11.0175 14.0135 11.1111 13.7778 11.1111C13.542 11.1111 13.3159 11.0175 13.1492 10.8508C12.9825 10.6841 12.8889 10.458 12.8889 10.2222ZM15.5556 12C15.5556 12.943 15.181 13.8474 14.5142 14.5142C13.8474 15.181 12.943 15.5556 12 15.5556C11.057 15.5556 10.1526 15.181 9.48585 14.5142C8.81905 13.8474 8.44445 12.943 8.44445 12H15.5556Z" fill="#2A293A"/>
</g>
</svg>
