<svg width="24" height="24" viewBox="0 0 24 24" fill="none" xmlns="http://www.w3.org/2000/svg">
<g id="smile">
<path id="main" d="M12 3C10.22 3 8.47991 3.52784 6.99987 4.51677C5.51983 5.50571 4.36628 6.91131 3.68509 8.55585C3.0039 10.2004 2.82567 12.01 3.17294 13.7558C3.5202 15.5016 4.37737 17.1053 5.63604 18.364C6.89472 19.6226 8.49836 20.4798 10.2442 20.8271C11.99 21.1743 13.7996 20.9961 15.4442 20.3149C17.0887 19.6337 18.4943 18.4802 19.4832 17.0001C20.4722 15.5201 21 13.78 21 12C21 9.61305 20.0518 7.32387 18.364 5.63604C16.6761 3.94821 14.387 3 12 3ZM12 19C10.6155 19 9.26216 18.5895 8.11101 17.8203C6.95987 17.0511 6.06266 15.9579 5.53285 14.6788C5.00303 13.3997 4.86441 11.9922 5.13451 10.6344C5.4046 9.2765 6.07129 8.02922 7.05026 7.05025C8.02922 6.07128 9.27651 5.4046 10.6344 5.1345C11.9922 4.86441 13.3997 5.00303 14.6788 5.53284C15.9579 6.06266 17.0511 6.95986 17.8203 8.11101C18.5895 9.26215 19 10.6155 19 12C19 13.8565 18.2625 15.637 16.9498 16.9497C15.637 18.2625 13.8565 19 12 19ZM9 10V9C9 8.73478 9.10536 8.48043 9.2929 8.29289C9.48043 8.10536 9.73479 8 10 8C10.2652 8 10.5196 8.10536 10.7071 8.29289C10.8946 8.48043 11 8.73478 11 9V10C11 10.2652 10.8946 10.5196 10.7071 10.7071C10.5196 10.8946 10.2652 11 10 11C9.73479 11 9.48043 10.8946 9.2929 10.7071C9.10536 10.5196 9 10.2652 9 10ZM13 10V9C13 8.73478 13.1054 8.48043 13.2929 8.29289C13.4804 8.10536 13.7348 8 14 8C14.2652 8 14.5196 8.10536 14.7071 8.29289C14.8946 8.48043 15 8.73478 15 9V10C15 10.2652 14.8946 10.5196 14.7071 10.7071C14.5196 10.8946 14.2652 11 14 11C13.7348 11 13.4804 10.8946 13.2929 10.7071C13.1054 10.5196 13 10.2652 13 10ZM16 12C16 13.0609 15.5786 14.0783 14.8284 14.8284C14.0783 15.5786 13.0609 16 12 16C10.9391 16 9.92172 15.5786 9.17158 14.8284C8.42143 14.0783 8 13.0609 8 12H16Z" fill="#2A293A"/>
</g>
</svg>
