<svg width="24" height="24" viewBox="0 0 24 24" fill="none" xmlns="http://www.w3.org/2000/svg">
<g id="sort-ascending">
<path id="main" d="M12.781 5.97601L15.5 9.37601C15.6174 9.52305 15.691 9.70023 15.7122 9.8872C15.7334 10.0742 15.7015 10.2633 15.62 10.433C15.5385 10.6026 15.4109 10.7458 15.2517 10.8461C15.0925 10.9464 14.9082 10.9997 14.72 11H9.28102C9.09258 11.0001 8.90797 10.9469 8.74844 10.8466C8.58891 10.7463 8.46096 10.603 8.37933 10.4332C8.29771 10.2634 8.26573 10.0739 8.28708 9.88669C8.30843 9.69948 8.38225 9.5221 8.50002 9.37501L11.219 5.97501C11.3128 5.85791 11.4317 5.76341 11.5669 5.6985C11.7021 5.63359 11.8502 5.59994 12.0003 5.60004C12.1503 5.60013 12.2983 5.63397 12.4335 5.69906C12.5686 5.76414 12.6874 5.85879 12.781 5.97601ZM14.72 14H9.28102L12 17.4L14.72 14ZM14.72 13C14.9084 13.0001 15.0928 13.0534 15.2522 13.1538C15.4116 13.2541 15.5394 13.3975 15.6209 13.5673C15.7024 13.7371 15.7343 13.9264 15.7129 14.1136C15.6915 14.3007 15.6177 14.478 15.5 14.625L12.781 18.025C12.6873 18.1422 12.5685 18.2367 12.4333 18.3017C12.2981 18.3667 12.15 18.4005 12 18.4005C11.85 18.4005 11.7019 18.3667 11.5667 18.3017C11.4315 18.2367 11.3127 18.1422 11.219 18.025L8.50002 14.625C8.38225 14.4779 8.30843 14.3005 8.28708 14.1133C8.26573 13.9261 8.29771 13.7367 8.37933 13.5668C8.46096 13.397 8.58891 13.2537 8.74844 13.1534C8.90797 13.0531 9.09258 12.9999 9.28102 13H14.72Z" fill="#2A293A"/>
</g>
</svg>
