<svg width="24" height="24" viewBox="0 0 24 24" fill="none" xmlns="http://www.w3.org/2000/svg">
<g id="sort-descending">
<path id="main" d="M11.219 18.024L8.50002 14.625C8.38225 14.4779 8.30843 14.3005 8.28708 14.1133C8.26573 13.9261 8.29771 13.7366 8.37933 13.5668C8.46096 13.397 8.58891 13.2536 8.74844 13.1534C8.90797 13.0531 9.09258 12.9999 9.28102 13H14.72C14.9084 12.9999 15.0931 13.0531 15.2526 13.1534C15.4121 13.2536 15.5401 13.397 15.6217 13.5668C15.7033 13.7366 15.7353 13.9261 15.714 14.1133C15.6926 14.3005 15.6188 14.4779 15.501 14.625L12.781 18.025C12.6873 18.1421 12.5684 18.2366 12.4331 18.3015C12.2979 18.3664 12.1498 18.4 11.9998 18.4C11.8498 18.3999 11.7017 18.366 11.5666 18.3009C11.4314 18.2358 11.3126 18.1412 11.219 18.024ZM12 6.59998L9.28102 9.99998H14.72L12 6.59998ZM12 5.59998C12.1501 5.59949 12.2983 5.63297 12.4335 5.69792C12.5688 5.76286 12.6876 5.85758 12.781 5.97498L15.5 9.37498C15.6177 9.52201 15.6915 9.69929 15.7129 9.88642C15.7343 10.0735 15.7024 10.2629 15.6209 10.4327C15.5394 10.6025 15.4116 10.7458 15.2522 10.8462C15.0928 10.9466 14.9084 10.9999 14.72 11H9.28102C9.09258 11.0001 8.90797 10.9469 8.74844 10.8466C8.58891 10.7463 8.46096 10.603 8.37933 10.4332C8.29771 10.2633 8.26573 10.0739 8.28708 9.88667C8.30843 9.69945 8.38225 9.52208 8.50002 9.37498L11.219 5.97498C11.3127 5.85791 11.4316 5.76342 11.5668 5.69851C11.702 5.6336 11.85 5.59992 12 5.59998Z" fill="#2A293A"/>
</g>
</svg>
