<svg width="24" height="24" viewBox="0 0 24 24" fill="none" xmlns="http://www.w3.org/2000/svg">
<g id="sort-descending">
<path id="main" d="M11.1596 19.53L8.2359 15.2813C8.10926 15.0974 8.02989 14.8757 8.00693 14.6417C7.98397 14.4076 8.01835 14.1708 8.10613 13.9585C8.1939 13.7463 8.33148 13.5671 8.50302 13.4418C8.67457 13.3164 8.87309 13.2499 9.07571 13.25H14.9243C15.1269 13.2499 15.3254 13.3164 15.497 13.4418C15.6685 13.5671 15.8061 13.7463 15.8939 13.9585C15.9816 14.1708 16.016 14.4076 15.9931 14.6417C15.9701 14.8757 15.8907 15.0974 15.7641 15.2813L12.8393 19.5313C12.7385 19.6777 12.6106 19.7958 12.4652 19.8769C12.3198 19.9581 12.1605 20.0001 11.9992 20C11.8379 19.9999 11.6787 19.9576 11.5334 19.8762C11.388 19.7949 11.2603 19.6766 11.1596 19.53ZM11.9995 5.25001L9.07571 9.50002H14.9243L11.9995 5.25001ZM11.9995 4.00001C12.1608 3.99939 12.3202 4.04124 12.4656 4.12243C12.6111 4.20361 12.7388 4.32201 12.8393 4.46876L15.763 8.71877C15.8896 8.90255 15.969 9.12416 15.992 9.35807C16.015 9.59198 15.9807 9.82868 15.893 10.0409C15.8054 10.2532 15.668 10.4323 15.4966 10.5578C15.3252 10.6832 15.1268 10.7499 14.9243 10.75H9.07571C8.87309 10.7501 8.67457 10.6836 8.50302 10.5583C8.33148 10.4329 8.1939 10.2538 8.10613 10.0415C8.01835 9.8292 7.98397 9.5924 8.00693 9.35838C8.02989 9.12435 8.10926 8.90263 8.2359 8.71877L11.1596 4.46876C11.2604 4.32242 11.3882 4.20431 11.5336 4.12317C11.679 4.04203 11.8382 3.99994 11.9995 4.00001Z" fill="#2A293A"/>
</g>
</svg>
