<svg width="24" height="24" viewBox="0 0 24 24" fill="none" xmlns="http://www.w3.org/2000/svg">
<g id="sort">
<g id="main">
<path d="M11.1601 4.46996L8.23593 8.71873C8.10927 8.9026 8.02989 9.12432 8.00693 9.35835C7.98396 9.59237 8.01836 9.82917 8.10614 10.0415C8.19392 10.2538 8.33153 10.4329 8.50309 10.5583C8.67466 10.6836 8.8732 10.7501 9.07585 10.75H14.9241C15.1268 10.7501 15.3253 10.6836 15.4969 10.5583C15.6685 10.4329 15.8061 10.2538 15.8939 10.0415C15.9816 9.82917 16.016 9.59237 15.9931 9.35835C15.9701 9.12432 15.8907 8.9026 15.7641 8.71873L12.8399 4.46871C12.7391 4.32234 12.6112 4.20422 12.4658 4.12308C12.3203 4.04195 12.1611 3.99988 11.9997 4C11.8384 4.00012 11.6792 4.04242 11.5338 4.12378C11.3885 4.20513 11.2607 4.32344 11.1601 4.46996Z" fill="#2A293A"/>
<path d="M12.8399 19.53L15.7641 15.28C15.8904 15.0961 15.9695 14.8745 15.9923 14.6407C16.0151 14.4069 15.9806 14.1703 15.8929 13.9583C15.8051 13.7462 15.6677 13.5672 15.4963 13.4419C15.3249 13.3166 15.1266 13.2501 14.9241 13.25H9.07585C8.8732 13.2499 8.67466 13.3164 8.50309 13.4417C8.33153 13.5671 8.19392 13.7462 8.10614 13.9585C8.01836 14.1708 7.98396 14.4076 8.00693 14.6417C8.02989 14.8757 8.10927 15.0974 8.23593 15.2813L11.1601 19.5313C11.2609 19.6777 11.3888 19.7958 11.5342 19.8769C11.6797 19.9581 11.8389 20.0001 12.0003 20C12.1616 19.9999 12.3208 19.9576 12.4662 19.8762C12.6115 19.7949 12.7393 19.6766 12.8399 19.53Z" fill="#2A293A"/>
</g>
</g>
</svg>
