<svg width="24" height="24" viewBox="0 0 24 24" fill="none" xmlns="http://www.w3.org/2000/svg">
<g id="sort">
<g id="main">
<path d="M11.219 5.97601L8.50002 9.37501C8.38225 9.5221 8.30843 9.69948 8.28708 9.88669C8.26573 10.0739 8.29771 10.2634 8.37933 10.4332C8.46096 10.603 8.58891 10.7463 8.74844 10.8466C8.90797 10.9469 9.09258 11.0001 9.28102 11H14.719C14.9074 11.0001 15.0921 10.9469 15.2516 10.8466C15.4111 10.7463 15.5391 10.603 15.6207 10.4332C15.7023 10.2634 15.7343 10.0739 15.7129 9.88669C15.6916 9.69948 15.6178 9.5221 15.5 9.37501L12.781 5.97501C12.6873 5.85791 12.5684 5.76341 12.4331 5.6985C12.2979 5.63359 12.1498 5.59994 11.9998 5.60004C11.8498 5.60013 11.7017 5.63397 11.5666 5.69906C11.4314 5.76414 11.3126 5.85879 11.219 5.97601Z" fill="#2A293A"/>
<path d="M12.781 18.024L15.5 14.624C15.6175 14.4769 15.691 14.2996 15.7122 14.1126C15.7334 13.9255 15.7014 13.7363 15.6198 13.5666C15.5382 13.397 15.4104 13.2538 15.251 13.1535C15.0917 13.0533 14.9073 13.0001 14.719 13H9.28102C9.09258 12.9999 8.90797 13.0531 8.74844 13.1534C8.58891 13.2537 8.46096 13.397 8.37933 13.5668C8.29771 13.7367 8.26573 13.9261 8.28708 14.1133C8.30843 14.3005 8.38225 14.4779 8.50002 14.625L11.219 18.025C11.3128 18.1421 11.4317 18.2366 11.5669 18.3015C11.7021 18.3664 11.8502 18.4001 12.0003 18.4C12.1503 18.3999 12.2983 18.366 12.4335 18.301C12.5686 18.2359 12.6874 18.1412 12.781 18.024Z" fill="#2A293A"/>
</g>
</g>
</svg>
