<svg width="24" height="24" viewBox="0 0 24 24" fill="none" xmlns="http://www.w3.org/2000/svg">
<g id="sort-ascending">
<path id="main" d="M12.8399 4.46995L15.7641 8.7198C15.8903 8.90359 15.9694 9.12507 15.9923 9.35877C16.0151 9.59248 15.9807 9.82892 15.8931 10.0409C15.8055 10.253 15.6682 10.4319 15.497 10.5573C15.3258 10.6827 15.1276 10.7494 14.9252 10.7497H9.07585C8.8732 10.7498 8.67466 10.6834 8.50309 10.558C8.33153 10.4327 8.19392 10.2535 8.10614 10.0412C8.01836 9.82895 7.98396 9.59215 8.00693 9.35814C8.02989 9.12412 8.10927 8.90241 8.23593 8.71855L11.1601 4.4687C11.2609 4.32233 11.3888 4.20421 11.5342 4.12308C11.6797 4.04194 11.8389 3.99988 12.0003 4C12.1616 4.00012 12.3208 4.04242 12.4662 4.12377C12.6115 4.20512 12.7393 4.32343 12.8399 4.46995ZM14.9252 14.4996H9.07585L12 18.7495L14.9252 14.4996ZM14.9252 13.2496C15.1278 13.2498 15.3262 13.3164 15.4976 13.4419C15.669 13.5673 15.8064 13.7465 15.8941 13.9587C15.9817 14.1709 16.016 14.4076 15.993 14.6415C15.97 14.8755 15.8907 15.097 15.7641 15.2808L12.8399 19.5307C12.7392 19.6771 12.6114 19.7953 12.466 19.8766C12.3206 19.9578 12.1613 20 12 20C11.8387 20 11.6794 19.9578 11.534 19.8766C11.3886 19.7953 11.2608 19.6771 11.1601 19.5307L8.23593 15.2808C8.10927 15.097 8.02989 14.8753 8.00693 14.6412C7.98396 14.4072 8.01836 14.1704 8.10614 13.9581C8.19392 13.7459 8.33153 13.5667 8.50309 13.4414C8.67466 13.316 8.8732 13.2496 9.07585 13.2496H14.9252Z" fill="#2A293A"/>
</g>
</svg>
