<svg width="24" height="24" viewBox="0 0 24 24" fill="none" xmlns="http://www.w3.org/2000/svg">
<path fill-rule="evenodd" clip-rule="evenodd" d="M13.5 2.99936H4.5C3.70435 2.99936 2.94129 3.31543 2.37868 3.87804C1.81607 4.44065 1.5 5.20371 1.5 5.99936V11.9994C1.5 12.795 1.81607 13.5581 2.37868 14.1207C2.94129 14.6833 3.70435 14.9994 4.5 14.9994H6.75V16.9389C6.75003 17.0872 6.79404 17.2321 6.87645 17.3555C6.95886 17.4788 7.07598 17.5749 7.21301 17.6316C7.35003 17.6884 7.50081 17.7032 7.64627 17.6743C7.79174 17.6454 7.92536 17.574 8.03025 17.4691L10.5 14.9994H13.5C14.2956 14.9994 15.0587 14.6833 15.6213 14.1207C16.1839 13.5581 16.5 12.795 16.5 11.9994V5.99936C16.5 5.20371 16.1839 4.44065 15.6213 3.87804C15.0587 3.31543 14.2956 2.99936 13.5 2.99936ZM12.75 11.2494H5.25V9.74936H12.75V11.2494ZM12.75 8.24936H5.25V6.74936H12.75V8.24936Z" fill="#2A293A"/>
<path d="M15.9697 21.5296L13.1895 18.7494H11.25V17.2494H13.8105L15.75 19.1889V17.2494H19.5C19.8978 17.2494 20.2794 17.0913 20.5607 16.81C20.842 16.5287 21 16.1472 21 15.7494V9.74936C21 9.35153 20.842 8.97 20.5607 8.6887C20.2794 8.40739 19.8978 8.24936 19.5 8.24936H18V6.74936H19.5C20.2956 6.74936 21.0587 7.06543 21.6213 7.62804C22.1839 8.19065 22.5 8.95371 22.5 9.74936V15.7494C22.5 16.545 22.1839 17.3081 21.6213 17.8707C21.0587 18.4333 20.2956 18.7494 19.5 18.7494H17.25V20.9994C17.25 21.1477 17.206 21.2926 17.1236 21.416C17.0411 21.5393 16.924 21.6354 16.787 21.6921C16.65 21.7489 16.4992 21.7637 16.3537 21.7348C16.2083 21.7059 16.0746 21.6345 15.9697 21.5296Z" fill="#2A293A"/>
</svg>
