<svg width="24" height="24" viewBox="0 0 24 24" fill="none" xmlns="http://www.w3.org/2000/svg">
<g id="stream">
<path id="main" d="M17 12C17.0017 10.8521 16.6077 9.73877 15.8845 8.84742C15.1612 7.95606 14.1529 7.34119 13.0293 7.10635C11.9057 6.87151 10.7355 7.03106 9.71583 7.55812C8.69613 8.08519 7.88922 8.94756 7.431 10H9.787C10.064 9.68611 10.4046 9.43465 10.7861 9.26225C11.1676 9.08986 11.5814 9.00047 12 9C12.7068 8.99866 13.3913 9.24752 13.9322 9.7025C14.4732 10.1575 14.8356 10.7892 14.9554 11.4858C15.0752 12.1824 14.9445 12.8989 14.5866 13.5085C14.2287 14.118 13.6667 14.5812 13 14.816V16.9C14.1294 16.6695 15.1444 16.0558 15.8733 15.1629C16.6022 14.27 17.0002 13.1527 17 12ZM12 3C9.9615 3.00112 7.98376 3.69425 6.39054 4.96592C4.79732 6.23759 3.683 8.01247 3.23 10H5.294C5.65132 8.79567 6.32615 7.70969 7.2477 6.85597C8.16926 6.00225 9.30357 5.41226 10.5317 5.14788C11.7597 4.8835 13.0363 4.95447 14.2276 5.35336C15.4188 5.75224 16.4807 6.46434 17.3019 7.41496C18.1232 8.36557 18.6734 9.51966 18.8951 10.7562C19.1167 11.9927 19.0015 13.2661 18.5615 14.4427C18.1215 15.6194 17.373 16.656 16.3945 17.4437C15.416 18.2315 14.2435 18.7414 13 18.92V20.941C15.2803 20.6787 17.3742 19.5551 18.8534 17.8C20.3326 16.0448 21.0853 13.7909 20.9576 11.4991C20.8299 9.20732 19.8313 7.05096 18.1662 5.47109C16.5011 3.89123 14.2953 3.00726 12 3ZM7 17C7.49445 17 7.9778 16.8534 8.38893 16.5787C8.80005 16.304 9.12048 15.9135 9.3097 15.4567C9.49892 14.9999 9.54843 14.4972 9.45196 14.0123C9.3555 13.5273 9.1174 13.0819 8.76777 12.7322C8.41814 12.3826 7.97268 12.1445 7.48773 12.048C7.00277 11.9516 6.50011 12.0011 6.04329 12.1903C5.58648 12.3795 5.19603 12.7 4.92133 13.1111C4.64662 13.5222 4.5 14.0055 4.5 14.5C4.5 15.163 4.76339 15.7989 5.23223 16.2678C5.70107 16.7366 6.33696 17 7 17ZM7 17C5.93913 17 4.92172 17.4214 4.17157 18.1716C3.42143 18.9217 3 19.9391 3 21H11C11 19.9391 10.5786 18.9217 9.82843 18.1716C9.07828 17.4214 8.06087 17 7 17Z" fill="#2A293A"/>
</g>
</svg>
