<svg width="24" height="24" viewBox="0 0 24 24" fill="none" xmlns="http://www.w3.org/2000/svg">
<g id="switch-camera">
<g id="main">
<path d="M21 5H17.414C17.1488 4.99994 16.8945 4.89455 16.707 4.707L14.293 3.293C14.1055 3.10545 13.8512 3.00006 13.586 3H10.414C10.1488 3.00006 9.89449 3.10545 9.707 3.293L7.293 4.707C7.10551 4.89455 6.85119 4.99994 6.586 5H3C2.73478 5 2.48043 5.10536 2.29289 5.29289C2.10536 5.48043 2 5.73478 2 6V19C2 19.2652 2.10536 19.5196 2.29289 19.7071C2.48043 19.8946 2.73478 20 3 20H9V18H4V7H7.586C7.85119 6.99994 8.10551 6.89455 8.293 6.707L11 5H13L15.707 6.707C15.8945 6.89455 16.1488 6.99994 16.414 7H20V10H22V6C22 5.73478 21.8946 5.48043 21.7071 5.29289C21.5196 5.10536 21.2652 5 21 5Z" fill="#2A293A"/>
<path d="M18 11L15 8V10.025C14.019 10.113 13.0798 10.4633 12.2808 11.039C11.4817 11.6148 10.8522 12.3949 10.4582 13.2976C10.0642 14.2002 9.92031 15.1922 10.0415 16.1696C10.1627 17.1471 10.5445 18.0739 11.147 18.853L12.579 17.421C12.2542 16.9309 12.0589 16.3665 12.0115 15.7804C11.9641 15.1944 12.0661 14.6059 12.308 14.0699C12.5498 13.534 12.9236 13.0682 13.3944 12.716C13.8652 12.3638 14.4176 12.1367 15 12.056V14L18 11Z" fill="#2A293A"/>
<path d="M18.421 13.579C18.7458 14.0691 18.9411 14.6335 18.9885 15.2196C19.0359 15.8056 18.9339 16.3941 18.692 16.9301C18.4502 17.466 18.0764 17.9318 17.6056 18.284C17.1348 18.6362 16.5824 18.8633 16 18.944V17L13 20L16 23V20.975C16.981 20.887 17.9202 20.5367 18.7192 19.961C19.5183 19.3852 20.1478 18.6051 20.5418 17.7024C20.9358 16.7998 21.0797 15.8078 20.9585 14.8304C20.8373 13.8529 20.4555 12.9261 19.853 12.147L18.421 13.579Z" fill="#2A293A"/>
</g>
</g>
</svg>
