<svg width="24" height="24" viewBox="0 0 24 24" fill="none" xmlns="http://www.w3.org/2000/svg">
<g id="tag">
<path id="main" d="M15.561 8.439C15.8065 8.6843 15.9593 9.00713 15.9934 9.35247C16.0275 9.69781 15.9409 10.0443 15.7482 10.3329C15.5555 10.6215 15.2687 10.8344 14.9366 10.9352C14.6046 11.0361 14.2479 11.0187 13.9272 10.886C13.6065 10.7534 13.3418 10.5136 13.1781 10.2076C13.0144 9.90165 12.9618 9.54837 13.0294 9.20798C13.0969 8.8676 13.2804 8.56117 13.5486 8.3409C13.8167 8.12063 14.153 8.00016 14.5 8C14.697 7.99991 14.8921 8.03863 15.0742 8.11396C15.2562 8.18928 15.4217 8.29973 15.561 8.439ZM20 6.828V13.172C19.9999 13.7024 19.7891 14.211 19.414 14.586L12.414 21.586C12.039 21.9609 11.5303 22.1716 11 22.1716C10.4697 22.1716 9.96106 21.9609 9.58601 21.586L4.41401 16.414C4.23143 16.2275 4.08807 16.0062 3.99241 15.7634C3.89674 15.5205 3.8507 15.2609 3.85701 15H3.83301V13H3.85701C3.8507 12.7391 3.89674 12.4795 3.99241 12.2366C4.08807 11.9938 4.23143 11.7725 4.41401 11.586L11.414 4.586C11.789 4.2109 12.2976 4.00011 12.828 4H17.172C17.7024 4.00011 18.211 4.2109 18.586 4.586L19.414 5.414C19.7891 5.78899 19.9999 6.29761 20 6.828ZM18 6.828L17.172 6H12.828L5.82801 13V13.005L11 18.172L18 11.172V6.828Z" fill="#2A293A"/>
</g>
</svg>
