<svg width="24" height="24" viewBox="0 0 24 24" fill="none" xmlns="http://www.w3.org/2000/svg">
<path d="M12 13C10.8915 12.9998 9.81438 13.3679 8.93792 14.0465C8.06145 14.7251 7.43533 15.6758 7.15799 16.749C7.11953 16.8973 7.11567 17.0525 7.14669 17.2025C7.17772 17.3526 7.2428 17.4935 7.33693 17.6144C7.43105 17.7352 7.5517 17.8329 7.68955 17.8998C7.82741 17.9666 7.97878 18.0009 8.13199 18H15.868C16.0212 18.0009 16.1726 17.9666 16.3104 17.8998C16.4483 17.8329 16.5689 17.7352 16.6631 17.6144C16.7572 17.4935 16.8223 17.3526 16.8533 17.2025C16.8843 17.0525 16.8805 16.8973 16.842 16.749C16.5647 15.6758 15.9385 14.7251 15.0621 14.0465C14.1856 13.3679 13.1085 12.9998 12 13Z" fill="#2A293A"/>
<path d="M12 12C13.6568 12 15 10.6569 15 9C15 7.34315 13.6568 6 12 6C10.3431 6 8.99999 7.34315 8.99999 9C8.99999 10.6569 10.3431 12 12 12Z" fill="#2A293A"/>
<path d="M18 11C19.1046 11 20 10.1046 20 9C20 7.89543 19.1046 7 18 7C16.8954 7 16 7.89543 16 9C16 10.1046 16.8954 11 18 11Z" fill="#2A293A"/>
<path d="M5.99999 11C7.10456 11 7.99999 10.1046 7.99999 9C7.99999 7.89543 7.10456 7 5.99999 7C4.89542 7 3.99999 7.89543 3.99999 9C3.99999 10.1046 4.89542 11 5.99999 11Z" fill="#2A293A"/>
<path d="M21.842 14.743C21.6285 13.9058 21.1257 13.1711 20.4225 12.6691C19.7193 12.167 18.8612 11.93 18 12C16.9879 11.9651 15.9987 12.306 15.223 12.957C16.3493 13.6712 17.2032 14.7427 17.648 16H20.869C21.0223 15.9994 21.1734 15.9639 21.3108 15.8962C21.4483 15.8284 21.5685 15.7302 21.6623 15.609C21.7561 15.4878 21.8211 15.3468 21.8522 15.1968C21.8833 15.0467 21.8799 14.8915 21.842 14.743Z" fill="#2A293A"/>
<path d="M8.77699 12.957C8.00128 12.306 7.01208 11.9651 5.99999 12C5.13882 11.93 4.28066 12.167 3.57748 12.6691C2.87429 13.1711 2.37145 13.9058 2.15799 14.743C2.11993 14.8915 2.11628 15.0468 2.14733 15.1969C2.17838 15.3471 2.2433 15.4882 2.33716 15.6094C2.43101 15.7306 2.55131 15.8289 2.68888 15.8965C2.82645 15.9642 2.97767 15.9996 3.13099 16H6.35199C6.79671 14.7427 7.65067 13.6711 8.77699 12.957Z" fill="#2A293A"/>
</svg>
