<svg width="24" height="24" viewBox="0 0 24 24" fill="none" xmlns="http://www.w3.org/2000/svg">
<g id="tool">
<path id="main" d="M20.5805 8.08992C20.2311 7.7871 19.7312 7.71452 19.2098 7.89194C19.0221 7.95565 18.8336 8.02298 18.6516 8.0879C18.4777 8.15 18.2981 8.21411 18.1221 8.27379C17.9847 8.32056 17.8472 8.36855 17.7102 8.41653C17.3247 8.55121 16.9261 8.69032 16.5329 8.7996C16.2969 8.86532 16.2037 8.82056 16.0983 8.59153C15.9811 8.33669 15.8793 8.04234 15.7869 7.69153C15.7618 7.59556 15.7614 7.49234 15.9268 7.38589C16.0338 7.31694 16.1481 7.25887 16.2661 7.21331C16.4749 7.13266 16.6934 7.05645 16.9046 6.98266C16.9926 6.95202 17.081 6.92137 17.169 6.88992C17.3218 6.83548 17.4751 6.78185 17.6283 6.72823C17.9733 6.60726 18.3301 6.48266 18.68 6.35161C19.3282 6.10887 19.6647 5.54879 19.5366 4.9246C19.4705 4.60282 19.2865 4.32863 18.9727 4.08629C18.0609 3.38105 16.9857 3.01573 15.7723 3C15.7666 3 15.7614 3 15.7557 3C15.0843 3 14.4081 3.13266 13.7457 3.39395C11.2446 4.38065 9.85692 7.23992 10.6487 9.77056C10.4723 9.94919 10.2822 10.1387 10.0823 10.3181C9.37812 10.9504 8.67351 11.5819 7.9685 12.2133C6.65738 13.3875 5.30208 14.602 3.97435 15.8028C3.15095 16.5476 2.84041 17.5222 3.07717 18.6206C3.32893 19.7883 4.07246 20.5698 5.22789 20.8815C5.52182 20.9605 5.80845 21 6.08575 21C6.90631 21 7.64781 20.656 8.26283 19.9827C9.47704 18.6524 10.7067 17.2956 11.8957 15.9835C12.5951 15.2117 13.2944 14.4399 13.9946 13.669C14.0643 13.5919 14.1673 13.4835 14.28 13.398C14.9619 13.598 15.6633 13.6552 16.4222 13.5726C18.6317 13.3323 20.5424 11.5855 20.9657 9.41935C21.0711 8.87863 20.9308 8.39435 20.5801 8.09032L20.5805 8.08992ZM12.2931 9.22984C12.0121 8.33024 12.1508 7.32298 12.6745 6.46653C13.2117 5.5875 14.0757 4.98468 15.045 4.8121C15.2903 4.76855 15.5287 4.74637 15.761 4.74637C16.245 4.74637 16.7023 4.84194 17.1394 5.03387C16.7145 5.18306 16.2795 5.33629 15.8542 5.49435C15.585 5.59435 15.2704 5.72056 14.9777 5.90161C14.2147 6.37298 13.8798 7.10605 14.0351 7.96532C14.1211 8.44153 14.2832 8.9254 14.5038 9.36411C15.0337 10.4185 16.0289 10.8028 17.2342 10.4185C17.7743 10.2464 18.3135 10.0536 18.8352 9.86734C18.8843 9.85 18.9333 9.83226 18.982 9.81492C18.669 10.4992 18.1359 11.0645 17.4426 11.4363C16.588 11.8948 15.6207 11.9899 14.7191 11.704C14.1843 11.5347 13.6715 11.627 13.2365 11.9714C13.0143 12.1472 12.7885 12.3621 12.5464 12.6282C11.3837 13.9073 10.2035 15.2093 9.0623 16.469C8.35972 17.2444 7.65754 18.0194 6.95455 18.7944C6.56657 19.2218 6.12426 19.3476 5.60209 19.1794C5.08113 19.0117 4.79815 18.6573 4.73612 18.0968C4.69193 17.6944 4.82653 17.3589 5.14803 17.0706L6.8009 15.5887C8.25715 14.2831 9.76286 12.9335 11.2426 11.604C11.4506 11.4173 11.6906 11.198 11.9095 10.9589C12.3664 10.4593 12.4958 9.87782 12.2935 9.23024L12.2931 9.22984Z" fill="#2A293A"/>
</g>
</svg>
