<svg width="24" height="24" viewBox="0 0 24 24" fill="none" xmlns="http://www.w3.org/2000/svg">
<g id="tool">
<path id="main" d="M20.5806 8.08992C20.2311 7.7871 19.7312 7.71452 19.2099 7.89194C19.0222 7.95565 18.8336 8.02298 18.6516 8.0879C18.4777 8.15 18.2981 8.21411 18.1221 8.27379C17.9847 8.32056 17.8473 8.36855 17.7102 8.41653C17.3247 8.55121 16.9262 8.69032 16.5329 8.7996C16.297 8.86532 16.2037 8.82056 16.0983 8.59153C15.9811 8.33669 15.8794 8.04234 15.7869 7.69153C15.7618 7.59556 15.7614 7.49234 15.9268 7.38589C16.0338 7.31694 16.1482 7.25887 16.2661 7.21331C16.4749 7.13266 16.6935 7.05645 16.9047 6.98266C16.9927 6.95202 17.081 6.92137 17.169 6.88992C17.3218 6.83548 17.4751 6.78185 17.6283 6.72823C17.9734 6.60726 18.3301 6.48266 18.68 6.35161C19.3283 6.10887 19.6647 5.54879 19.5366 4.9246C19.4706 4.60282 19.2865 4.32863 18.9727 4.08629C18.0609 3.38105 16.9858 3.01573 15.7724 3C15.7667 3 15.7614 3 15.7557 3C15.0844 3 14.4081 3.13266 13.7457 3.39395C11.2447 4.38065 9.85693 7.23992 10.6487 9.77056C10.4724 9.94919 10.2822 10.1387 10.0823 10.3181C9.37814 10.9504 8.67353 11.5819 7.96851 12.2133C6.65739 13.3875 5.30209 14.602 3.97435 15.8028C3.15095 16.5476 2.84041 17.5222 3.07717 18.6206C3.32893 19.7883 4.07246 20.5698 5.2279 20.8815C5.52182 20.9605 5.80845 21 6.08576 21C6.90632 21 7.64782 20.656 8.26284 19.9827C9.47706 18.6524 10.7067 17.2956 11.8958 15.9835C12.5951 15.2117 13.2945 14.4399 13.9946 13.669C14.0643 13.5919 14.1673 13.4835 14.28 13.398C14.9619 13.598 15.6633 13.6552 16.4222 13.5726C18.6317 13.3323 20.5425 11.5855 20.9657 9.41935C21.0711 8.87863 20.9309 8.39435 20.5802 8.09032L20.5806 8.08992ZM12.2931 9.22984C12.0121 8.33024 12.1508 7.32298 12.6746 6.46653C13.2117 5.5875 14.0757 4.98468 15.045 4.8121C15.2903 4.76855 15.5287 4.74637 15.761 4.74637C16.2451 4.74637 16.7024 4.84194 17.1394 5.03387C16.7145 5.18306 16.2795 5.33629 15.8542 5.49435C15.585 5.59435 15.2704 5.72056 14.9777 5.90161C14.2147 6.37298 13.8799 7.10605 14.0351 7.96532C14.1211 8.44153 14.2833 8.9254 14.5038 9.36411C15.0337 10.4185 16.029 10.8028 17.2343 10.4185C17.7743 10.2464 18.3135 10.0536 18.8353 9.86734C18.8843 9.85 18.9334 9.83226 18.982 9.81492C18.669 10.4992 18.1359 11.0645 17.4427 11.4363C16.588 11.8948 15.6207 11.9899 14.7191 11.704C14.1843 11.5347 13.6715 11.627 13.2365 11.9714C13.0143 12.1472 12.7885 12.3621 12.5465 12.6282C11.3837 13.9073 10.2036 15.2093 9.06232 16.469C8.35973 17.2444 7.65755 18.0194 6.95456 18.7944C6.56658 19.2218 6.12427 19.3476 5.6021 19.1794C5.08114 19.0117 4.79816 18.6573 4.73613 18.0968C4.69194 17.6944 4.82654 17.3589 5.14803 17.0706L6.80091 15.5887C8.25716 14.2831 9.76288 12.9335 11.2426 11.604C11.4506 11.4173 11.6906 11.198 11.9096 10.9589C12.3665 10.4593 12.4958 9.87782 12.2935 9.23024L12.2931 9.22984Z" fill="#2A293A"/>
</g>
</svg>
