<svg width="24" height="24" viewBox="0 0 24 24" fill="none" xmlns="http://www.w3.org/2000/svg">
<g id="unlink">
<g id="main">
<path d="M10.783 4.03C10.749 3.90164 10.6898 3.78133 10.6089 3.67609C10.5279 3.57085 10.4268 3.48279 10.3114 3.41704C10.1961 3.3513 10.0688 3.30918 9.93698 3.29315C9.80517 3.27713 9.67149 3.28751 9.54374 3.3237C9.41599 3.35989 9.29672 3.42115 9.1929 3.50393C9.08908 3.5867 9.00278 3.68932 8.93904 3.8058C8.8753 3.92228 8.83539 4.05028 8.82165 4.18235C8.80791 4.31441 8.82061 4.44789 8.859 4.575L9.4 6.5C9.43397 6.62836 9.49316 6.74867 9.57413 6.85391C9.65509 6.95915 9.7562 7.04721 9.87156 7.11296C9.98691 7.17871 10.1142 7.22082 10.246 7.23685C10.3778 7.25287 10.5115 7.24249 10.6393 7.2063C10.767 7.17012 10.8863 7.10885 10.9901 7.02608C11.0939 6.9433 11.1802 6.84069 11.244 6.72421C11.3077 6.60773 11.3476 6.47972 11.3613 6.34765C11.3751 6.21559 11.3624 6.08211 11.324 5.955L10.783 4.03Z" fill="#2A293A"/>
<path d="M14.589 17.476C14.5189 17.2278 14.3531 17.0177 14.1281 16.8916C13.9031 16.7656 13.6372 16.7341 13.389 16.804L13.339 16.818C13.091 16.8884 12.881 17.0542 12.755 17.2791C12.629 17.5041 12.5974 17.7698 12.667 18.018L13.224 20C13.2944 20.248 13.4602 20.458 13.6851 20.584C13.9101 20.71 14.1758 20.7416 14.424 20.672L14.474 20.658C14.722 20.5876 14.932 20.4218 15.058 20.1969C15.184 19.9719 15.2156 19.7062 15.146 19.458L14.589 17.476Z" fill="#2A293A"/>
<path d="M13.337 7.182L13.387 7.196C13.6352 7.26588 13.9011 7.23436 14.1261 7.10836C14.3511 6.98235 14.5169 6.77217 14.587 6.524L15.146 4.55C15.2156 4.30177 15.184 4.03606 15.058 3.81112C14.932 3.58619 14.722 3.42036 14.474 3.35L14.424 3.336C14.1758 3.26639 13.9101 3.29804 13.6851 3.42401C13.4602 3.54997 13.2944 3.75998 13.224 4.008L12.665 5.982C12.5954 6.23023 12.627 6.49594 12.753 6.72088C12.879 6.94582 13.089 7.11164 13.337 7.182Z" fill="#2A293A"/>
<path d="M10.638 16.811C10.5115 16.7747 10.379 16.7637 10.2482 16.7787C10.1175 16.7937 9.99095 16.8344 9.87593 16.8984C9.76091 16.9624 9.65966 17.0485 9.57799 17.1518C9.49632 17.255 9.43583 17.3733 9.4 17.5L8.855 19.424C8.81661 19.5511 8.80391 19.6846 8.81765 19.8167C8.83139 19.9487 8.8713 20.0767 8.93504 20.1932C8.99878 20.3097 9.08508 20.4123 9.1889 20.4951C9.29272 20.5778 9.41199 20.6391 9.53974 20.6753C9.66749 20.7115 9.80117 20.7219 9.93298 20.7058C10.0648 20.6898 10.1921 20.6477 10.3074 20.582C10.4228 20.5162 10.5239 20.4281 10.6049 20.3229C10.6858 20.2177 10.745 20.0974 10.779 19.969L11.324 18.045C11.3962 17.7904 11.3646 17.5176 11.236 17.2863C11.1074 17.055 10.8924 16.8841 10.638 16.811Z" fill="#2A293A"/>
<path d="M18 8H16C15.4696 8 14.9609 8.21071 14.5858 8.58579C14.2107 8.96086 14 9.46957 14 10H18C18.5304 10 19.0391 10.2107 19.4142 10.5858C19.7893 10.9609 20 11.4696 20 12C20 12.5304 19.7893 13.0391 19.4142 13.4142C19.0391 13.7893 18.5304 14 18 14H14C14 14.5304 14.2107 15.0391 14.5858 15.4142C14.9609 15.7893 15.4696 16 16 16H18C19.0609 16 20.0783 15.5786 20.8284 14.8284C21.5786 14.0783 22 13.0609 22 12C22 10.9391 21.5786 9.92172 20.8284 9.17157C20.0783 8.42143 19.0609 8 18 8Z" fill="#2A293A"/>
<path d="M10 14H6C5.46957 14 4.96086 13.7893 4.58579 13.4142C4.21071 13.0391 4 12.5304 4 12C4 11.4696 4.21071 10.9609 4.58579 10.5858C4.96086 10.2107 5.46957 10 6 10H10C10 9.46957 9.78929 8.96086 9.41421 8.58579C9.03914 8.21071 8.53043 8 8 8H6C4.93913 8 3.92172 8.42143 3.17157 9.17157C2.42143 9.92172 2 10.9391 2 12C2 13.0609 2.42143 14.0783 3.17157 14.8284C3.92172 15.5786 4.93913 16 6 16H8C8.53043 16 9.03914 15.7893 9.41421 15.4142C9.78929 15.0391 10 14.5304 10 14Z" fill="#2A293A"/>
</g>
</g>
</svg>
