<svg width="24" height="24" viewBox="0 0 24 24" fill="none" xmlns="http://www.w3.org/2000/svg">
<g id="unlink">
<g id="main">
<path d="M10.783 4.02999C10.749 3.90163 10.6898 3.78132 10.6089 3.67608C10.5279 3.57084 10.4268 3.48277 10.3114 3.41703C10.1961 3.35128 10.0688 3.30917 9.93698 3.29314C9.80517 3.27711 9.67149 3.2875 9.54374 3.32368C9.41599 3.35987 9.29672 3.42114 9.1929 3.50391C9.08908 3.58668 9.00278 3.6893 8.93904 3.80578C8.8753 3.92226 8.83539 4.05027 8.82165 4.18233C8.80791 4.3144 8.82061 4.44788 8.859 4.57499L9.4 6.49999C9.43397 6.62835 9.49316 6.74866 9.57413 6.85389C9.65509 6.95913 9.7562 7.0472 9.87156 7.11294C9.98691 7.17869 10.1142 7.22081 10.246 7.23683C10.3778 7.25286 10.5115 7.24248 10.6393 7.20629C10.767 7.1701 10.8863 7.10883 10.9901 7.02606C11.0939 6.94329 11.1802 6.84067 11.244 6.72419C11.3077 6.60771 11.3476 6.4797 11.3613 6.34764C11.3751 6.21557 11.3624 6.08209 11.324 5.95499L10.783 4.02999Z" fill="#2A293A"/>
<path d="M14.589 17.476C14.5189 17.2278 14.3531 17.0176 14.1281 16.8916C13.9031 16.7656 13.6372 16.7341 13.389 16.804L13.339 16.818C13.091 16.8883 12.881 17.0542 12.755 17.2791C12.629 17.504 12.5974 17.7698 12.667 18.018L13.224 20C13.2944 20.248 13.4602 20.458 13.6851 20.584C13.9101 20.7099 14.1758 20.7416 14.424 20.672L14.474 20.658C14.722 20.5876 14.932 20.4218 15.058 20.1969C15.184 19.9719 15.2156 19.7062 15.146 19.458L14.589 17.476Z" fill="#2A293A"/>
<path d="M13.337 7.18199L13.387 7.19599C13.6352 7.26587 13.9011 7.23435 14.1261 7.10834C14.3511 6.98233 14.5169 6.77216 14.587 6.52399L15.146 4.54999C15.2156 4.30175 15.184 4.03605 15.058 3.81111C14.932 3.58617 14.722 3.42035 14.474 3.34999L14.424 3.33599C14.1758 3.26638 13.9101 3.29803 13.6851 3.42399C13.4602 3.54996 13.2944 3.75997 13.224 4.00799L12.665 5.98199C12.5954 6.23022 12.627 6.49592 12.753 6.72086C12.879 6.9458 13.089 7.11162 13.337 7.18199Z" fill="#2A293A"/>
<path d="M10.638 16.811C10.5115 16.7747 10.379 16.7637 10.2482 16.7787C10.1175 16.7937 9.99095 16.8344 9.87593 16.8984C9.76091 16.9624 9.65966 17.0485 9.57799 17.1518C9.49632 17.255 9.43583 17.3733 9.4 17.5L8.855 19.424C8.81661 19.5511 8.80391 19.6846 8.81765 19.8166C8.83139 19.9487 8.8713 20.0767 8.93504 20.1932C8.99878 20.3097 9.08508 20.4123 9.1889 20.4951C9.29272 20.5778 9.41199 20.6391 9.53974 20.6753C9.66749 20.7115 9.80117 20.7219 9.93298 20.7058C10.0648 20.6898 10.1921 20.6477 10.3074 20.5819C10.4228 20.5162 10.5239 20.4281 10.6049 20.3229C10.6858 20.2177 10.745 20.0973 10.779 19.969L11.324 18.045C11.3962 17.7904 11.3646 17.5175 11.236 17.2862C11.1074 17.0549 10.8924 16.884 10.638 16.811Z" fill="#2A293A"/>
<path d="M18 7.99999H16C15.4696 7.99999 14.9609 8.2107 14.5858 8.58577C14.2107 8.96085 14 9.46955 14 9.99999H18C18.5304 9.99999 19.0391 10.2107 19.4142 10.5858C19.7893 10.9608 20 11.4696 20 12C20 12.5304 19.7893 13.0391 19.4142 13.4142C19.0391 13.7893 18.5304 14 18 14H14C14 14.5304 14.2107 15.0391 14.5858 15.4142C14.9609 15.7893 15.4696 16 16 16H18C19.0609 16 20.0783 15.5786 20.8284 14.8284C21.5786 14.0783 22 13.0609 22 12C22 10.9391 21.5786 9.9217 20.8284 9.17156C20.0783 8.42141 19.0609 7.99999 18 7.99999Z" fill="#2A293A"/>
<path d="M10 14H6C5.46957 14 4.96086 13.7893 4.58579 13.4142C4.21071 13.0391 4 12.5304 4 12C4 11.4696 4.21071 10.9608 4.58579 10.5858C4.96086 10.2107 5.46957 9.99999 6 9.99999H10C10 9.46955 9.78929 8.96085 9.41421 8.58577C9.03914 8.2107 8.53043 7.99999 8 7.99999H6C4.93913 7.99999 3.92172 8.42141 3.17157 9.17156C2.42143 9.9217 2 10.9391 2 12C2 13.0609 2.42143 14.0783 3.17157 14.8284C3.92172 15.5786 4.93913 16 6 16H8C8.53043 16 9.03914 15.7893 9.41421 15.4142C9.78929 15.0391 10 14.5304 10 14Z" fill="#2A293A"/>
</g>
</g>
</svg>
