<svg width="24" height="24" viewBox="0 0 24 24" fill="none" xmlns="http://www.w3.org/2000/svg">
<path d="M11 5.07899C11.1317 5.07833 11.2623 5.10371 11.3842 5.15367C11.5061 5.20363 11.617 5.27719 11.7103 5.37011C11.8037 5.46304 11.8778 5.5735 11.9284 5.69515C11.979 5.8168 12.005 5.94725 12.005 6.07899V17.919C12.005 18.0507 11.979 18.1812 11.9284 18.3028C11.8778 18.4245 11.8037 18.5349 11.7103 18.6279C11.617 18.7208 11.5061 18.7944 11.3842 18.8443C11.2623 18.8943 11.1317 18.9197 11 18.919C10.7741 18.9188 10.5551 18.8408 10.38 18.698L7.548 16.438C7.19371 16.1547 6.75363 16.0002 6.3 16H4C3.73478 16 3.48043 15.8946 3.29289 15.7071C3.10536 15.5196 3 15.2652 3 15V8.99999C3 8.73478 3.10536 8.48042 3.29289 8.29289C3.48043 8.10535 3.73478 7.99999 4 7.99999H6.3C6.75398 7.99998 7.19444 7.84551 7.549 7.56199L10.375 5.29999C10.5514 5.15611 10.7723 5.07799 11 5.07899ZM14.419 10.586C14.7939 10.961 15.0046 11.4697 15.0046 12C15.0046 12.5303 14.7939 13.0389 14.419 13.414C14.379 13.454 14.333 13.483 14.291 13.519L15.577 15.04C16.0238 14.6693 16.3834 14.2048 16.6302 13.6793C16.877 13.1539 17.0049 12.5805 17.0049 12C17.0049 11.4195 16.877 10.8461 16.6302 10.3207C16.3834 9.79523 16.0238 9.33065 15.577 8.95999L14.291 10.481C14.328 10.517 14.374 10.546 14.414 10.586H14.419ZM19 12C19 12.8636 18.7961 13.715 18.4049 14.485C18.0138 15.2549 17.4464 15.9217 16.749 16.431L18.042 17.958C18.9613 17.2604 19.7067 16.3596 20.2199 15.326C20.7331 14.2924 21.0002 13.154 21.0002 12C21.0002 10.846 20.7331 9.70763 20.2199 8.67401C19.7067 7.64039 18.9613 6.73955 18.042 6.04199L16.749 7.56899C17.4464 8.07831 18.0138 8.74507 18.4049 9.51502C18.7961 10.285 19 11.1364 19 12Z" fill="#2A293A"/>
</svg>
