<svg width="24" height="24" viewBox="0 0 24 24" fill="none" xmlns="http://www.w3.org/2000/svg">
<g id="user-conversion">
<path id="main" d="M16 7C16 7.79113 15.7654 8.56448 15.3259 9.22228C14.8864 9.88008 14.2617 10.3928 13.5308 10.6955C12.7998 10.9983 11.9956 11.0775 11.2197 10.9231C10.4437 10.7688 9.731 10.3878 9.17159 9.82843C8.61218 9.26902 8.23122 8.55629 8.07688 7.78036C7.92254 7.00444 8.00175 6.20017 8.3045 5.46927C8.60725 4.73836 9.11994 4.11365 9.77774 3.67412C10.4355 3.2346 11.2089 3 12 3C13.0609 3 14.0783 3.42143 14.8284 4.17157C15.5786 4.92172 16 5.93913 16 7ZM11 13.075C9.81739 13.2456 8.69803 13.7159 7.74834 14.441C6.79865 15.1661 6.05016 16.1221 5.57402 17.218C5.44458 17.5227 5.3928 17.8547 5.42331 18.1844C5.45382 18.514 5.56568 18.8309 5.74885 19.1066C5.93203 19.3824 6.18078 19.6084 6.4728 19.7643C6.76482 19.9202 7.09098 20.0012 7.42202 20H11V13.075ZM21 13L17 10V12H14C13.4696 12 12.9609 12.2107 12.5858 12.5858C12.2107 12.9609 12 13.4696 12 14V16H14V14H17V16L21 13ZM19 16V18H16V16L12 19L16 22V20H19C19.5305 20 20.0392 19.7893 20.4142 19.4142C20.7893 19.0391 21 18.5304 21 18V16H19Z" fill="#2A293A"/>
</g>
</svg>
