<svg width="24" height="24" viewBox="0 0 24 24" fill="none" xmlns="http://www.w3.org/2000/svg">
<path d="M10 15C9.9993 15.9318 10.1853 16.8544 10.547 17.7131C10.9087 18.5719 11.4388 19.3495 12.106 20H5.422C5.09105 20.001 4.76501 19.9199 4.47312 19.7639C4.18123 19.6079 3.93262 19.382 3.74956 19.1062C3.56651 18.8305 3.45474 18.5137 3.42427 18.1841C3.39381 17.8546 3.4456 17.5226 3.575 17.218C4.11775 15.9648 5.01521 14.8978 6.15682 14.1483C7.29844 13.3989 8.63435 12.9997 10 13C10.1 13 10.191 13.018 10.288 13.022C10.0975 13.6641 10.0006 14.3303 10 15ZM22 15C22 15.9889 21.7068 16.9556 21.1574 17.7779C20.6079 18.6001 19.8271 19.241 18.9134 19.6194C17.9998 19.9978 16.9945 20.0969 16.0246 19.9039C15.0546 19.711 14.1637 19.2348 13.4645 18.5355C12.7652 17.8363 12.289 16.9454 12.0961 15.9755C11.9031 15.0055 12.0022 14.0002 12.3806 13.0866C12.759 12.173 13.3999 11.3921 14.2222 10.8427C15.0444 10.2932 16.0111 10 17 10C18.3261 10 19.5979 10.5268 20.5355 11.4645C21.4732 12.4022 22 13.6739 22 15ZM20 15H17V12H15V17H20V15ZM10 11C10.7911 11 11.5645 10.7654 12.2223 10.3259C12.8801 9.88635 13.3928 9.26164 13.6955 8.53074C13.9983 7.79983 14.0775 6.99556 13.9231 6.21964C13.7688 5.44372 13.3878 4.73098 12.8284 4.17157C12.269 3.61216 11.5563 3.2312 10.7804 3.07686C10.0044 2.92252 9.20017 3.00173 8.46927 3.30448C7.73836 3.60723 7.11365 4.11992 6.67412 4.77772C6.2346 5.43552 6 6.20888 6 7C6 8.06087 6.42143 9.07828 7.17158 9.82843C7.92172 10.5786 8.93914 11 10 11Z" fill="#2A293A"/>
</svg>
