<svg width="24" height="24" viewBox="0 0 24 24" fill="none" xmlns="http://www.w3.org/2000/svg">
<g id="user-shared-by me">
<path id="main" d="M17.578 20H13V13C14.3656 12.9997 15.7016 13.3989 16.8432 14.1483C17.9848 14.8978 18.8822 15.9648 19.425 17.218C19.5544 17.5226 19.6062 17.8546 19.5757 18.1841C19.5453 18.5137 19.4335 18.8305 19.2504 19.1062C19.0674 19.382 18.8188 19.6079 18.5269 19.7639C18.235 19.9199 17.909 20.001 17.578 20ZM13 11C13.7911 11 14.5645 10.7654 15.2223 10.3259C15.8801 9.88635 16.3928 9.26164 16.6955 8.53074C16.9983 7.79983 17.0775 6.99556 16.9231 6.21964C16.7688 5.44372 16.3878 4.73098 15.8284 4.17157C15.269 3.61216 14.5563 3.2312 13.7804 3.07686C13.0044 2.92252 12.2002 3.00173 11.4693 3.30448C10.7384 3.60723 10.1136 4.11992 9.67412 4.77772C9.23459 5.43552 9 6.20888 9 7C9 8.06087 9.42143 9.07828 10.1716 9.82843C10.9217 10.5786 11.9391 11 13 11ZM5.414 11.586L2.586 14.414L6.086 17.914L4 20H11V13L8.914 15.086L5.414 11.586Z" fill="#2A293A"/>
</g>
</svg>
