<svg width="24" height="24" viewBox="0 0 24 24" fill="none" xmlns="http://www.w3.org/2000/svg">
<path d="M5.99999 7C5.99999 6.20888 6.23459 5.43552 6.67412 4.77772C7.11364 4.11992 7.73836 3.60723 8.46926 3.30448C9.20017 3.00173 10.0044 2.92252 10.7804 3.07686C11.5563 3.2312 12.269 3.61216 12.8284 4.17157C13.3878 4.73098 13.7688 5.44372 13.9231 6.21964C14.0775 6.99556 13.9983 7.79983 13.6955 8.53074C13.3928 9.26164 12.8801 9.88635 12.2223 10.3259C11.5645 10.7654 10.7911 11 9.99999 11C8.93913 11 7.92171 10.5786 7.17157 9.82843C6.42142 9.07828 5.99999 8.06087 5.99999 7ZM11 13.075C9.47872 12.85 7.92575 13.1343 6.58284 13.8836C5.23993 14.633 4.18244 15.8052 3.57499 17.218C3.44559 17.5226 3.3938 17.8546 3.42426 18.1841C3.45473 18.5137 3.5665 18.8305 3.74956 19.1062C3.93261 19.382 4.18123 19.6079 4.47312 19.7639C4.765 19.9199 5.09104 20.001 5.42199 20H14V18H11V13.075ZM18 14V11H16V14H13V16H16V19H18V16H21V14H18Z" fill="#2A293A"/>
</svg>
