<svg width="24" height="24" viewBox="0 0 24 24" fill="none" xmlns="http://www.w3.org/2000/svg">
<g id="user">
<path id="main" d="M16.578 20H7.42199C7.09104 20.001 6.765 19.9199 6.47312 19.7639C6.18123 19.6079 5.93261 19.382 5.74956 19.1062C5.5665 18.8305 5.45473 18.5137 5.42426 18.1841C5.3938 17.8546 5.44559 17.5226 5.57499 17.218C6.1172 15.9642 7.01442 14.8964 8.15608 14.1462C9.29774 13.3961 10.6339 12.9964 12 12.9964C13.366 12.9964 14.7022 13.3961 15.8439 14.1462C16.9856 14.8964 17.8828 15.9642 18.425 17.218C18.5544 17.5226 18.6062 17.8546 18.5757 18.1841C18.5453 18.5137 18.4335 18.8305 18.2504 19.1062C18.0674 19.382 17.8188 19.6079 17.5269 19.7639C17.235 19.9199 16.9089 20.001 16.578 20ZM12 11C12.7911 11 13.5645 10.7654 14.2223 10.3259C14.8801 9.88635 15.3928 9.26164 15.6955 8.53074C15.9983 7.79983 16.0775 6.99556 15.9231 6.21964C15.7688 5.44372 15.3878 4.73098 14.8284 4.17157C14.269 3.61216 13.5563 3.2312 12.7804 3.07686C12.0044 2.92252 11.2002 3.00173 10.4693 3.30448C9.73836 3.60723 9.11364 4.11992 8.67412 4.77772C8.23459 5.43552 7.99999 6.20888 7.99999 7C7.99999 8.06087 8.42142 9.07828 9.17157 9.82843C9.92171 10.5786 10.9391 11 12 11Z" fill="#2A293A"/>
</g>
</svg>
