<svg width="24" height="24" viewBox="0 0 24 24" fill="none" xmlns="http://www.w3.org/2000/svg">
<path d="M11 13.075V20H7.422C7.09097 20.0012 6.76481 19.9202 6.47278 19.7643C6.18076 19.6084 5.93201 19.3824 5.74884 19.1066C5.56567 18.8309 5.45381 18.514 5.42329 18.1844C5.39278 17.8547 5.44457 17.5227 5.574 17.218C6.05015 16.1221 6.79863 15.1661 7.74832 14.441C8.69802 13.7159 9.81737 13.2456 11 13.075ZM16 7C16 6.20888 15.7654 5.43552 15.3259 4.77772C14.8864 4.11992 14.2616 3.60723 13.5307 3.30448C12.7998 3.00173 11.9956 2.92252 11.2196 3.07686C10.4437 3.2312 9.73099 3.61216 9.17158 4.17157C8.61217 4.73098 8.2312 5.44372 8.07686 6.21964C7.92252 6.99556 8.00174 7.79983 8.30449 8.53074C8.60724 9.26164 9.11993 9.88635 9.77772 10.3259C10.4355 10.7654 11.2089 11 12 11C13.0609 11 14.0783 10.5786 14.8284 9.82843C15.5786 9.07828 16 8.06087 16 7ZM20 13H13L15.086 15.086L12.586 17.586L15.414 20.414L17.914 17.914L20 20V13Z" fill="#2A293A"/>
</svg>
