<svg width="24" height="24" viewBox="0 0 24 24" fill="none" xmlns="http://www.w3.org/2000/svg">
<g id="user-shared-to me">
<path id="main" d="M11 13.075V20H7.42202C7.09098 20.0012 6.76482 19.9202 6.4728 19.7643C6.18078 19.6084 5.93203 19.3824 5.74885 19.1066C5.56568 18.8309 5.45382 18.514 5.42331 18.1844C5.3928 17.8547 5.44458 17.5227 5.57402 17.218C6.05016 16.1221 6.79865 15.1661 7.74834 14.441C8.69803 13.7159 9.81739 13.2456 11 13.075ZM16 7C16 6.20888 15.7654 5.43552 15.3259 4.77772C14.8864 4.11992 14.2617 3.60723 13.5308 3.30448C12.7998 3.00173 11.9956 2.92252 11.2197 3.07686C10.4437 3.2312 9.731 3.61216 9.17159 4.17157C8.61218 4.73098 8.23122 5.44372 8.07688 6.21964C7.92254 6.99556 8.00175 7.79983 8.3045 8.53074C8.60725 9.26164 9.11994 9.88635 9.77774 10.3259C10.4355 10.7654 11.2089 11 12 11C13.0609 11 14.0783 10.5786 14.8284 9.82843C15.5786 9.07828 16 8.06087 16 7ZM20 13H13L15.086 15.086L12.586 17.586L15.414 20.414L17.914 17.914L20 20V13Z" fill="#2A293A"/>
</g>
</svg>
