<svg width="24" height="24" viewBox="0 0 24 24" fill="none" xmlns="http://www.w3.org/2000/svg">
<g id="user-screenshare-request">
<path id="main" d="M9.88101 13V19.925H6.30001C5.96897 19.9262 5.64281 19.8452 5.35079 19.6893C5.05877 19.5334 4.81002 19.3074 4.62685 19.0316C4.44367 18.7559 4.33182 18.439 4.3013 18.1094C4.27079 17.7797 4.32257 17.4477 4.45201 17.143C4.92785 16.0463 5.67664 15.0898 6.627 14.3645C7.57736 13.6393 8.69762 13.1695 9.88101 13ZM13.5 9.92399C14.1732 9.3361 14.6297 8.53942 14.7965 7.66141C14.9634 6.7834 14.8309 5.8748 14.4204 5.08096C14.0098 4.28712 13.3448 3.65393 12.5319 3.28267C11.7189 2.91141 10.8049 2.82355 9.93612 3.03313C9.06731 3.24272 8.29391 3.73764 7.73963 4.43873C7.18536 5.13981 6.88224 6.00654 6.87877 6.90026C6.8753 7.79397 7.17169 8.66303 7.7205 9.3684C8.26932 10.0738 9.03886 10.5747 9.90601 10.791C9.93537 10.553 10.0503 10.3338 10.2293 10.1743C10.4083 10.0148 10.6392 9.92583 10.879 9.92399H13.5ZM20.879 11.924V17.924C20.879 18.1892 20.7737 18.4436 20.5861 18.6311C20.3986 18.8186 20.1442 18.924 19.879 18.924H17.879L18.879 19.924V20.924H12.879V19.924L13.879 18.924H11.879C11.6138 18.924 11.3594 18.8186 11.1719 18.6311C10.9844 18.4436 10.879 18.1892 10.879 17.924V11.924C10.879 11.6588 10.9844 11.4044 11.1719 11.2169C11.3594 11.0294 11.6138 10.924 11.879 10.924H19.879C20.0105 10.9237 20.1408 10.9494 20.2623 10.9995C20.3839 11.0497 20.4943 11.1233 20.5874 11.2162C20.6805 11.3091 20.7543 11.4194 20.8047 11.5408C20.8551 11.6623 20.881 11.7925 20.881 11.924H20.879ZM18.879 12.924H12.879V16.924H18.879V12.924Z" fill="#2A293A"/>
</g>
</svg>
