<svg width="24" height="24" viewBox="0 0 24 24" fill="none" xmlns="http://www.w3.org/2000/svg">
<path d="M5.57499 17.218C5.44559 17.5226 5.3938 17.8546 5.42426 18.1841C5.45473 18.5137 5.5665 18.8305 5.74956 19.1062C5.93261 19.382 6.18123 19.6079 6.47312 19.7639C6.765 19.9199 7.09104 20.001 7.42199 20H12V13C10.6343 12.9997 9.29843 13.3989 8.15682 14.1483C7.0152 14.8978 6.11774 15.9648 5.57499 17.218Z" fill="#2A293A"/>
<path d="M12 11C14.2091 11 16 9.20914 16 7C16 4.79086 14.2091 3 12 3C9.79086 3 7.99999 4.79086 7.99999 7C7.99999 9.20914 9.79086 11 12 11Z" fill="#2A293A"/>
<path d="M19.707 15.707L18.293 14.292L16.5 16.085L14.707 14.293L13.293 15.707L15.085 17.499L13.291 19.293L14.705 20.707L16.499 18.913L18.293 20.707L19.707 19.293L17.914 17.5L19.707 15.707Z" fill="#2A293A"/>
</svg>
