<svg width="24" height="24" viewBox="0 0 24 24" fill="none" xmlns="http://www.w3.org/2000/svg">
<path d="M16 7C16 7.79113 15.7654 8.56448 15.3259 9.22228C14.8863 9.88008 14.2616 10.3928 13.5307 10.6955C12.7998 10.9983 11.9956 11.0775 11.2196 10.9231C10.4437 10.7688 9.73098 10.3878 9.17157 9.82843C8.61216 9.26902 8.23119 8.55629 8.07685 7.78036C7.92251 7.00444 8.00173 6.20017 8.30448 5.46927C8.60723 4.73836 9.11992 4.11365 9.77771 3.67412C10.4355 3.2346 11.2089 3 12 3C13.0609 3 14.0783 3.42143 14.8284 4.17157C15.5786 4.92172 16 5.93913 16 7ZM17 14.994H15V18H13L16 22L19 18H17V14.994ZM12 13C10.6343 12.9997 9.29843 13.3989 8.15682 14.1483C7.0152 14.8978 6.11774 15.9648 5.57499 17.218C5.44559 17.5226 5.3938 17.8546 5.42426 18.1841C5.45473 18.5137 5.5665 18.8305 5.74956 19.1062C5.93261 19.382 6.18123 19.6079 6.47312 19.7639C6.765 19.9199 7.09104 20.001 7.42199 20H12V16H14V13H12Z" fill="#2A293A"/>
</svg>
