<svg width="24" height="24" viewBox="0 0 24 24" fill="none" xmlns="http://www.w3.org/2000/svg">
<g id="variable">
<path id="main" d="M2.99999 6C2.99999 5.20435 3.31606 4.44129 3.87867 3.87868C4.44128 3.31607 5.20434 3 5.99999 3C6.2652 3 6.51956 3.10536 6.70709 3.29289C6.89463 3.48043 6.99999 3.73478 6.99999 4C6.99999 4.26522 6.89463 4.51957 6.70709 4.70711C6.51956 4.89464 6.2652 5 5.99999 5C5.73477 5 5.48042 5.10536 5.29288 5.29289C5.10534 5.48043 4.99999 5.73478 4.99999 6V9.938C4.99999 10.727 4.69299 11.457 4.17999 12C4.69299 12.543 4.99999 13.273 4.99999 14.062V18C4.99999 18.2652 5.10534 18.5196 5.29288 18.7071C5.48042 18.8946 5.73477 19 5.99999 19C6.2652 19 6.51956 19.1054 6.70709 19.2929C6.89463 19.4804 6.99999 19.7348 6.99999 20C6.99999 20.2652 6.89463 20.5196 6.70709 20.7071C6.51956 20.8946 6.2652 21 5.99999 21C5.20434 21 4.44128 20.6839 3.87867 20.1213C3.31606 19.5587 2.99999 18.7956 2.99999 18V14.062C2.99998 13.8391 2.92548 13.6225 2.78833 13.4468C2.65118 13.271 2.45923 13.1462 2.24299 13.092L1.75699 12.97C1.54076 12.9158 1.34884 12.7909 1.21171 12.6152C1.07457 12.4394 1.00009 12.2229 1.00009 12C1.00009 11.7771 1.07457 11.5606 1.21171 11.3848C1.34884 11.2091 1.54076 11.0842 1.75699 11.03L2.24299 10.909C2.45923 10.8548 2.65118 10.73 2.78833 10.5542C2.92548 10.3785 2.99998 10.1619 2.99999 9.939V6ZM21 6C21 5.20435 20.6839 4.44129 20.1213 3.87868C19.5587 3.31607 18.7956 3 18 3C17.7348 3 17.4804 3.10536 17.2929 3.29289C17.1053 3.48043 17 3.73478 17 4C17 4.26522 17.1053 4.51957 17.2929 4.70711C17.4804 4.89464 17.7348 5 18 5C18.2652 5 18.5196 5.10536 18.7071 5.29289C18.8946 5.48043 19 5.73478 19 6V9.938C19 10.727 19.307 11.457 19.82 12C19.2929 12.5571 18.9994 13.2951 19 14.062V18C19 18.2652 18.8946 18.5196 18.7071 18.7071C18.5196 18.8946 18.2652 19 18 19C17.7348 19 17.4804 19.1054 17.2929 19.2929C17.1053 19.4804 17 19.7348 17 20C17 20.2652 17.1053 20.5196 17.2929 20.7071C17.4804 20.8946 17.7348 21 18 21C18.7956 21 19.5587 20.6839 20.1213 20.1213C20.6839 19.5587 21 18.7956 21 18V14.062C21 13.8389 21.0747 13.6223 21.212 13.4465C21.3494 13.2708 21.5416 13.146 21.758 13.092L22.243 12.97C22.4592 12.9158 22.6511 12.7909 22.7883 12.6152C22.9254 12.4394 22.9999 12.2229 22.9999 12C22.9999 11.7771 22.9254 11.5606 22.7883 11.3848C22.6511 11.2091 22.4592 11.0842 22.243 11.03L21.758 10.909C21.5416 10.855 21.3494 10.7302 21.212 10.5545C21.0747 10.3787 21 10.1621 21 9.939V6ZM9.28999 6.886C9.20936 6.78226 9.10908 6.69541 8.99488 6.63042C8.88069 6.56543 8.75481 6.52357 8.62444 6.50722C8.49406 6.49088 8.36175 6.50038 8.23504 6.53517C8.10834 6.56996 7.98973 6.62937 7.88599 6.71C7.78224 6.79063 7.6954 6.89091 7.6304 7.0051C7.56541 7.1193 7.52355 7.24518 7.50721 7.37555C7.49087 7.50592 7.50036 7.63824 7.53515 7.76494C7.56995 7.89165 7.62935 8.01026 7.70999 8.114L10.734 12L7.71199 15.886C7.62791 15.9893 7.56531 16.1083 7.52785 16.2361C7.4904 16.3639 7.47885 16.4979 7.49388 16.6302C7.50891 16.7625 7.55022 16.8905 7.61538 17.0067C7.68054 17.1228 7.76824 17.2247 7.87334 17.3065C7.97844 17.3883 8.09881 17.4483 8.2274 17.4829C8.35599 17.5176 8.4902 17.5262 8.62216 17.5082C8.75412 17.4903 8.88117 17.4462 8.99585 17.3785C9.11053 17.3108 9.21053 17.2209 9.28999 17.114L12 13.629L14.71 17.114C14.7906 17.2177 14.8909 17.3046 15.0051 17.3696C15.1193 17.4346 15.2452 17.4764 15.3755 17.4928C15.5059 17.5091 15.6382 17.4996 15.7649 17.4648C15.8916 17.43 16.0102 17.3706 16.114 17.29C16.2177 17.2094 16.3046 17.1091 16.3696 16.9949C16.4346 16.8807 16.4764 16.7548 16.4928 16.6245C16.5091 16.4941 16.4996 16.3618 16.4648 16.2351C16.43 16.1084 16.3706 15.9897 16.29 15.886L13.266 12L16.288 8.114C16.444 7.90422 16.5116 7.6417 16.4764 7.38267C16.4412 7.12364 16.3059 6.8887 16.0996 6.72815C15.8933 6.56761 15.6324 6.49423 15.3726 6.52373C15.1129 6.55324 14.875 6.68328 14.71 6.886L12 10.371L9.28999 6.886Z" fill="#2A293A"/>
</g>
</svg>
