<svg width="24" height="24" viewBox="0 0 24 24" fill="none" xmlns="http://www.w3.org/2000/svg">
<path d="M3 6C3 5.20435 3.31607 4.44129 3.87868 3.87868C4.44129 3.31607 5.20435 3 6 3C6.26522 3 6.51957 3.10536 6.70711 3.29289C6.89464 3.48043 7 3.73478 7 4C7 4.26522 6.89464 4.51957 6.70711 4.70711C6.51957 4.89464 6.26522 5 6 5C5.73479 5 5.48043 5.10536 5.2929 5.29289C5.10536 5.48043 5 5.73478 5 6V9.938C5 10.727 4.693 11.457 4.18 12C4.693 12.543 5 13.273 5 14.062V18C5 18.2652 5.10536 18.5196 5.2929 18.7071C5.48043 18.8946 5.73479 19 6 19C6.26522 19 6.51957 19.1054 6.70711 19.2929C6.89464 19.4804 7 19.7348 7 20C7 20.2652 6.89464 20.5196 6.70711 20.7071C6.51957 20.8946 6.26522 21 6 21C5.20435 21 4.44129 20.6839 3.87868 20.1213C3.31607 19.5587 3 18.7956 3 18V14.062C3 13.8391 2.9255 13.6225 2.78835 13.4468C2.65119 13.271 2.45925 13.1462 2.243 13.092L1.757 12.97C1.54077 12.9158 1.34885 12.7909 1.21172 12.6152C1.07459 12.4394 1.00011 12.2229 1.00011 12C1.00011 11.7771 1.07459 11.5606 1.21172 11.3848C1.34885 11.2091 1.54077 11.0842 1.757 11.03L2.243 10.909C2.45925 10.8548 2.65119 10.73 2.78835 10.5542C2.9255 10.3785 3 10.1619 3 9.939V6ZM21 6C21 5.20435 20.6839 4.44129 20.1213 3.87868C19.5587 3.31607 18.7957 3 18 3C17.7348 3 17.4804 3.10536 17.2929 3.29289C17.1054 3.48043 17 3.73478 17 4C17 4.26522 17.1054 4.51957 17.2929 4.70711C17.4804 4.89464 17.7348 5 18 5C18.2652 5 18.5196 5.10536 18.7071 5.29289C18.8946 5.48043 19 5.73478 19 6V9.938C19 10.727 19.307 11.457 19.82 12C19.2929 12.5571 18.9994 13.2951 19 14.062V18C19 18.2652 18.8946 18.5196 18.7071 18.7071C18.5196 18.8946 18.2652 19 18 19C17.7348 19 17.4804 19.1054 17.2929 19.2929C17.1054 19.4804 17 19.7348 17 20C17 20.2652 17.1054 20.5196 17.2929 20.7071C17.4804 20.8946 17.7348 21 18 21C18.7957 21 19.5587 20.6839 20.1213 20.1213C20.6839 19.5587 21 18.7956 21 18V14.062C21.0001 13.8389 21.0747 13.6223 21.2121 13.4465C21.3494 13.2708 21.5416 13.146 21.758 13.092L22.243 12.97C22.4592 12.9158 22.6511 12.7909 22.7883 12.6152C22.9254 12.4394 22.9999 12.2229 22.9999 12C22.9999 11.7771 22.9254 11.5606 22.7883 11.3848C22.6511 11.2091 22.4592 11.0842 22.243 11.03L21.758 10.909C21.5416 10.855 21.3494 10.7302 21.2121 10.5545C21.0747 10.3787 21.0001 10.1621 21 9.939V6ZM9.29 6.886C9.20937 6.78226 9.10909 6.69541 8.9949 6.63042C8.8807 6.56543 8.75483 6.52357 8.62445 6.50722C8.49408 6.49088 8.36176 6.50038 8.23506 6.53517C8.10836 6.56996 7.98975 6.62937 7.886 6.71C7.78226 6.79063 7.69541 6.89091 7.63042 7.0051C7.56543 7.1193 7.52357 7.24518 7.50722 7.37555C7.49088 7.50592 7.50038 7.63824 7.53517 7.76494C7.56996 7.89165 7.62937 8.01026 7.71 8.114L10.734 12L7.712 15.886C7.62792 15.9893 7.56532 16.1083 7.52787 16.2361C7.49042 16.3639 7.47886 16.4979 7.49389 16.6302C7.50892 16.7625 7.55023 16.8905 7.61539 17.0067C7.68056 17.1228 7.76826 17.2247 7.87336 17.3065C7.97845 17.3883 8.09883 17.4483 8.22742 17.4829C8.35601 17.5176 8.49022 17.5262 8.62218 17.5082C8.75413 17.4903 8.88118 17.4462 8.99586 17.3785C9.11054 17.3108 9.21054 17.2209 9.29 17.114L12 13.629L14.71 17.114C14.7906 17.2177 14.8909 17.3046 15.0051 17.3696C15.1193 17.4346 15.2452 17.4764 15.3756 17.4928C15.5059 17.5091 15.6382 17.4996 15.7649 17.4648C15.8916 17.43 16.0103 17.3706 16.114 17.29C16.2177 17.2094 16.3046 17.1091 16.3696 16.9949C16.4346 16.8807 16.4764 16.7548 16.4928 16.6245C16.5091 16.4941 16.4996 16.3618 16.4648 16.2351C16.43 16.1084 16.3706 15.9897 16.29 15.886L13.266 12L16.288 8.114C16.444 7.90422 16.5116 7.6417 16.4764 7.38267C16.4412 7.12364 16.306 6.8887 16.0997 6.72815C15.8934 6.56761 15.6324 6.49423 15.3726 6.52373C15.1129 6.55324 14.875 6.68328 14.71 6.886L12 10.371L9.29 6.886Z" fill="#2A293A"/>
</svg>
