<svg width="24" height="24" viewBox="0 0 24 24" fill="none" xmlns="http://www.w3.org/2000/svg">
<g id="variable">
<path id="main" d="M3.00002 6C3.00002 5.20435 3.31609 4.44129 3.8787 3.87868C4.44131 3.31607 5.20437 3 6.00002 3C6.26523 3 6.51959 3.10536 6.70712 3.29289C6.89466 3.48043 7.00002 3.73478 7.00002 4C7.00002 4.26522 6.89466 4.51957 6.70712 4.70711C6.51959 4.89464 6.26523 5 6.00002 5C5.7348 5 5.48045 5.10536 5.29291 5.29289C5.10537 5.48043 5.00002 5.73478 5.00002 6V9.938C5.00002 10.727 4.69302 11.457 4.18002 12C4.69302 12.543 5.00002 13.273 5.00002 14.062V18C5.00002 18.2652 5.10537 18.5196 5.29291 18.7071C5.48045 18.8946 5.7348 19 6.00002 19C6.26523 19 6.51959 19.1054 6.70712 19.2929C6.89466 19.4804 7.00002 19.7348 7.00002 20C7.00002 20.2652 6.89466 20.5196 6.70712 20.7071C6.51959 20.8946 6.26523 21 6.00002 21C5.20437 21 4.44131 20.6839 3.8787 20.1213C3.31609 19.5587 3.00002 18.7956 3.00002 18V14.062C3.00001 13.8391 2.92552 13.6225 2.78836 13.4468C2.65121 13.271 2.45926 13.1462 2.24302 13.092L1.75702 12.97C1.54079 12.9158 1.34887 12.7909 1.21174 12.6152C1.0746 12.4394 1.00012 12.2229 1.00012 12C1.00012 11.7771 1.0746 11.5606 1.21174 11.3848C1.34887 11.2091 1.54079 11.0842 1.75702 11.03L2.24302 10.909C2.45926 10.8548 2.65121 10.73 2.78836 10.5542C2.92552 10.3785 3.00001 10.1619 3.00002 9.939V6ZM21 6C21 5.20435 20.6839 4.44129 20.1213 3.87868C19.5587 3.31607 18.7957 3 18 3C17.7348 3 17.4804 3.10536 17.2929 3.29289C17.1054 3.48043 17 3.73478 17 4C17 4.26522 17.1054 4.51957 17.2929 4.70711C17.4804 4.89464 17.7348 5 18 5C18.2652 5 18.5196 5.10536 18.7071 5.29289C18.8947 5.48043 19 5.73478 19 6V9.938C19 10.727 19.307 11.457 19.82 12C19.2929 12.5571 18.9994 13.2951 19 14.062V18C19 18.2652 18.8947 18.5196 18.7071 18.7071C18.5196 18.8946 18.2652 19 18 19C17.7348 19 17.4804 19.1054 17.2929 19.2929C17.1054 19.4804 17 19.7348 17 20C17 20.2652 17.1054 20.5196 17.2929 20.7071C17.4804 20.8946 17.7348 21 18 21C18.7957 21 19.5587 20.6839 20.1213 20.1213C20.6839 19.5587 21 18.7956 21 18V14.062C21.0001 13.8389 21.0747 13.6223 21.2121 13.4465C21.3494 13.2708 21.5416 13.146 21.758 13.092L22.243 12.97C22.4592 12.9158 22.6512 12.7909 22.7883 12.6152C22.9254 12.4394 22.9999 12.2229 22.9999 12C22.9999 11.7771 22.9254 11.5606 22.7883 11.3848C22.6512 11.2091 22.4592 11.0842 22.243 11.03L21.758 10.909C21.5416 10.855 21.3494 10.7302 21.2121 10.5545C21.0747 10.3787 21.0001 10.1621 21 9.939V6ZM9.29002 6.886C9.20939 6.78226 9.10911 6.69541 8.99491 6.63042C8.88072 6.56543 8.75484 6.52357 8.62447 6.50722C8.49409 6.49088 8.36178 6.50038 8.23507 6.53517C8.10837 6.56996 7.98976 6.62937 7.88602 6.71C7.78227 6.79063 7.69543 6.89091 7.63043 7.0051C7.56544 7.1193 7.52358 7.24518 7.50724 7.37555C7.4909 7.50592 7.50039 7.63824 7.53518 7.76494C7.56998 7.89165 7.62939 8.01026 7.71002 8.114L10.734 12L7.71202 15.886C7.62794 15.9893 7.56534 16.1083 7.52788 16.2361C7.49043 16.3639 7.47888 16.4979 7.49391 16.6302C7.50894 16.7625 7.55025 16.8905 7.61541 17.0067C7.68057 17.1228 7.76827 17.2247 7.87337 17.3065C7.97847 17.3883 8.09884 17.4483 8.22743 17.4829C8.35602 17.5176 8.49023 17.5262 8.62219 17.5082C8.75415 17.4903 8.8812 17.4462 8.99588 17.3785C9.11056 17.3108 9.21056 17.2209 9.29002 17.114L12 13.629L14.71 17.114C14.7906 17.2177 14.8909 17.3046 15.0051 17.3696C15.1193 17.4346 15.2452 17.4764 15.3756 17.4928C15.5059 17.5091 15.6383 17.4996 15.765 17.4648C15.8917 17.43 16.0103 17.3706 16.114 17.29C16.2178 17.2094 16.3046 17.1091 16.3696 16.9949C16.4346 16.8807 16.4765 16.7548 16.4928 16.6245C16.5091 16.4941 16.4996 16.3618 16.4648 16.2351C16.4301 16.1084 16.3706 15.9897 16.29 15.886L13.266 12L16.288 8.114C16.444 7.90422 16.5116 7.6417 16.4764 7.38267C16.4412 7.12364 16.306 6.8887 16.0997 6.72815C15.8934 6.56761 15.6324 6.49423 15.3727 6.52373C15.1129 6.55324 14.8751 6.68328 14.71 6.886L12 10.371L9.29002 6.886Z" fill="#2A293A"/>
</g>
</svg>
