<svg width="24" height="24" viewBox="0 0 24 24" fill="none" xmlns="http://www.w3.org/2000/svg">
<path d="M20.629 7.54815C20.7807 7.48755 20.9449 7.46503 21.1073 7.48255C21.2697 7.50007 21.4253 7.5571 21.5605 7.64865C21.6958 7.74021 21.8066 7.8635 21.8832 8.00775C21.9598 8.152 21.9999 8.31282 22 8.47615V15.5221C21.9999 15.6855 21.9598 15.8463 21.8832 15.9905C21.8066 16.1348 21.6958 16.2581 21.5605 16.3496C21.4253 16.4412 21.2697 16.4982 21.1073 16.5157C20.9449 16.5333 20.7807 16.5107 20.629 16.4501L17 14.9991V8.99915L20.629 7.54815Z" fill="#2A293A"/>
<path d="M20.629 7.54815C20.7807 7.48755 20.9449 7.46503 21.1073 7.48255C21.2697 7.50007 21.4253 7.5571 21.5605 7.64865C21.6958 7.74021 21.8066 7.8635 21.8832 8.00775C21.9598 8.152 21.9999 8.31282 22 8.47615V15.5221C21.9999 15.6855 21.9598 15.8463 21.8832 15.9905C21.8066 16.1348 21.6958 16.2581 21.5605 16.3496C21.4253 16.4412 21.2697 16.4982 21.1073 16.5157C20.9449 16.5333 20.7807 16.5107 20.629 16.4501L17 14.9991V8.99915L20.629 7.54815Z" fill="#2A293A"/>
<path d="M15 4.99915H3C2.73478 4.99915 2.48043 5.1045 2.29289 5.29204C2.10536 5.47958 2 5.73393 2 5.99915V17.9991C2 18.2644 2.10536 18.5187 2.29289 18.7063C2.48043 18.8938 2.73478 18.9991 3 18.9991H15C15.2652 18.9991 15.5196 18.8938 15.7071 18.7063C15.8946 18.5187 16 18.2644 16 17.9991V5.99915C16 5.73393 15.8946 5.47958 15.7071 5.29204C15.5196 5.1045 15.2652 4.99915 15 4.99915ZM14 16.9991H4V6.99915H14V16.9991Z" fill="#2A293A"/>
<path d="M9 14.9991C10.6569 14.9991 12 13.656 12 11.9991C12 10.3423 10.6569 8.99915 9 8.99915C7.34315 8.99915 6 10.3423 6 11.9991C6 13.656 7.34315 14.9991 9 14.9991Z" fill="#2A293A"/>
</svg>
