<svg width="24" height="24" viewBox="0 0 24 24" fill="none" xmlns="http://www.w3.org/2000/svg">
<g id="view-disabled">
<g id="main">
<path d="M4.914 20.5L20.5 4.91399C20.5955 4.82174 20.6717 4.7114 20.7241 4.58939C20.7765 4.46739 20.8041 4.33617 20.8053 4.20339C20.8064 4.07061 20.7811 3.93893 20.7308 3.81604C20.6805 3.69314 20.6063 3.58149 20.5124 3.4876C20.4185 3.3937 20.3069 3.31945 20.184 3.26917C20.0611 3.21889 19.9294 3.19359 19.7966 3.19474C19.6638 3.19589 19.5326 3.22348 19.4106 3.27589C19.2886 3.3283 19.1782 3.40448 19.086 3.49999L17.132 5.45399C15.5913 4.49817 13.8131 3.99437 12 3.99999C10.5054 3.97481 9.02682 4.3113 7.69029 4.98078C6.35376 5.65027 5.19886 6.63291 4.324 7.84499L2.5 10.126C2.07449 10.6579 1.84267 11.3188 1.84267 12C1.84267 12.6812 2.07449 13.3421 2.5 13.874L4.324 16.154C4.61209 16.5623 4.93677 16.9436 5.294 17.293L3.5 19.086C3.31784 19.2746 3.21705 19.5272 3.21933 19.7894C3.2216 20.0516 3.32677 20.3024 3.51218 20.4878C3.69759 20.6732 3.9484 20.7784 4.2106 20.7807C4.4728 20.7829 4.7254 20.6821 4.914 20.5ZM5 12C5 8.69099 8.141 5.99999 12 5.99999C13.2824 5.99552 14.5462 6.30666 15.68 6.90599L14.02 8.56599C13.4099 8.19903 12.712 8.00349 12 7.99999C10.9391 7.99999 9.92172 8.42142 9.17157 9.17156C8.42143 9.92171 8 10.9391 8 12C8.00364 12.712 8.19917 13.4098 8.566 14.02L6.688 15.9C6.16203 15.3944 5.74191 14.7892 5.45212 14.1196C5.16232 13.45 5.00863 12.7295 5 12Z" fill="#2A293A"/>
<path d="M20 8.24599L18.484 9.75799C18.8212 10.4574 18.9976 11.2235 19 12C19 15.309 15.859 18 12 18C11.4669 17.9962 10.9355 17.9386 10.414 17.828L8.8 19.444C9.82805 19.807 10.9097 19.995 12 20C13.4952 20.0252 14.9743 19.6884 16.3113 19.0183C17.6482 18.3483 18.8033 17.3649 19.678 16.152L21.5 13.874C21.9255 13.3421 22.1573 12.6812 22.1573 12C22.1573 11.3188 21.9255 10.6579 21.5 10.126L20 8.24599Z" fill="#2A293A"/>
<path d="M15.973 12.269L12.273 15.969C13.233 15.9042 14.1369 15.4935 14.8172 14.8132C15.4975 14.1329 15.9082 13.2289 15.973 12.269Z" fill="#2A293A"/>
</g>
</g>
</svg>
