<svg width="24" height="24" viewBox="0 0 24 24" fill="none" xmlns="http://www.w3.org/2000/svg">
<path d="M4.91401 20.5L20.5 4.91399C20.5955 4.82174 20.6717 4.7114 20.7241 4.58939C20.7765 4.46739 20.8041 4.33617 20.8053 4.20339C20.8064 4.07061 20.7811 3.93893 20.7308 3.81604C20.6805 3.69314 20.6063 3.58149 20.5124 3.4876C20.4185 3.3937 20.3069 3.31945 20.184 3.26917C20.0611 3.21889 19.9294 3.19359 19.7966 3.19474C19.6638 3.19589 19.5326 3.22348 19.4106 3.27589C19.2886 3.3283 19.1783 3.40448 19.086 3.49999L17.132 5.45399C15.5913 4.49817 13.8131 3.99437 12 3.99999C10.5054 3.97481 9.02683 4.3113 7.6903 4.98078C6.35376 5.65027 5.19887 6.63291 4.32401 7.84499L2.50001 10.126C2.0745 10.6579 1.84268 11.3188 1.84268 12C1.84268 12.6812 2.0745 13.3421 2.50001 13.874L4.32401 16.154C4.6121 16.5623 4.93677 16.9436 5.29401 17.293L3.50001 19.086C3.31785 19.2746 3.21705 19.5272 3.21933 19.7894C3.22161 20.0516 3.32678 20.3024 3.51219 20.4878C3.6976 20.6732 3.94841 20.7784 4.21061 20.7807C4.4728 20.7829 4.72541 20.6821 4.91401 20.5ZM5.00001 12C5.00001 8.69099 8.14101 5.99999 12 5.99999C13.2824 5.99552 14.5462 6.30666 15.68 6.90599L14.02 8.56599C13.4099 8.19903 12.712 8.00349 12 7.99999C10.9391 7.99999 9.92173 8.42142 9.17158 9.17156C8.42143 9.92171 8.00001 10.9391 8.00001 12C8.00365 12.712 8.19918 13.4098 8.56601 14.02L6.68801 15.9C6.16204 15.3944 5.74192 14.7892 5.45212 14.1196C5.16232 13.45 5.00864 12.7295 5.00001 12Z" fill="#2A293A"/>
<path d="M20 8.24599L18.484 9.75799C18.8212 10.4574 18.9976 11.2235 19 12C19 15.309 15.859 18 12 18C11.4669 17.9962 10.9355 17.9386 10.414 17.828L8.80001 19.444C9.82806 19.807 10.9097 19.995 12 20C13.4952 20.0252 14.9744 19.6884 16.3113 19.0183C17.6482 18.3483 18.8033 17.3649 19.678 16.152L21.5 13.874C21.9255 13.3421 22.1573 12.6812 22.1573 12C22.1573 11.3188 21.9255 10.6579 21.5 10.126L20 8.24599Z" fill="#2A293A"/>
<path d="M15.973 12.269L12.273 15.969C13.233 15.9042 14.1369 15.4935 14.8172 14.8132C15.4975 14.1329 15.9082 13.2289 15.973 12.269Z" fill="#2A293A"/>
</svg>
