<svg width="24" height="24" viewBox="0 0 24 24" fill="none" xmlns="http://www.w3.org/2000/svg">
<g id="view">
<path id="main" d="M21.5 10.126L19.676 7.845C18.8011 6.63292 17.6462 5.65028 16.3097 4.9808C14.9732 4.31131 13.4946 3.97483 12 4C10.505 3.97481 9.0261 4.31149 7.68935 4.98134C6.3526 5.65119 5.19766 6.63435 4.32298 7.847L2.49998 10.126C2.07447 10.6579 1.84265 11.3188 1.84265 12C1.84265 12.6812 2.07447 13.3421 2.49998 13.874L4.32298 16.152C5.19761 17.3648 6.35252 18.3481 7.68926 19.0181C9.026 19.6881 10.5049 20.025 12 20C13.4949 20.0252 14.9737 19.6887 16.3104 19.019C17.6471 18.3493 18.8021 17.3664 19.677 16.154L21.501 13.874C21.9263 13.342 22.158 12.681 22.1578 11.9998C22.1576 11.3187 21.9256 10.6578 21.5 10.126ZM12 18C8.14098 18 4.99998 15.309 4.99998 12C4.99998 8.691 8.14098 6 12 6C15.859 6 19 8.691 19 12C19 15.309 15.859 18 12 18ZM16 12C16 12.7911 15.7654 13.5645 15.3259 14.2223C14.8863 14.8801 14.2616 15.3928 13.5307 15.6955C12.7998 15.9983 11.9955 16.0775 11.2196 15.9231C10.4437 15.7688 9.73096 15.3878 9.17155 14.8284C8.61214 14.269 8.23118 13.5563 8.07684 12.7804C7.92249 12.0044 8.00171 11.2002 8.30446 10.4693C8.60721 9.73837 9.1199 9.11365 9.7777 8.67413C10.4355 8.2346 11.2089 8 12 8C13.0608 8 14.0783 8.42143 14.8284 9.17158C15.5786 9.92172 16 10.9391 16 12Z" fill="#2A293A"/>
</g>
</svg>
