<svg width="24" height="24" viewBox="0 0 24 24" fill="none" xmlns="http://www.w3.org/2000/svg">
<g id="view">
<path id="main" d="M21.5 10.126L19.676 7.84497C18.8011 6.63289 17.6462 5.65025 16.3097 4.98077C14.9732 4.31128 13.4946 3.9748 12 3.99997C10.505 3.97478 9.0261 4.31146 7.68935 4.98131C6.3526 5.65116 5.19766 6.63432 4.32298 7.84697L2.49998 10.126C2.07447 10.6579 1.84265 11.3188 1.84265 12C1.84265 12.6812 2.07447 13.342 2.49998 13.874L4.32298 16.152C5.19761 17.3647 6.35252 18.3481 7.68926 19.0181C9.026 19.6881 10.5049 20.025 12 20C13.4949 20.0252 14.9737 19.6886 16.3104 19.019C17.6471 18.3493 18.8021 17.3664 19.677 16.154L21.501 13.874C21.9263 13.3419 22.158 12.681 22.1578 11.9998C22.1576 11.3186 21.9256 10.6578 21.5 10.126ZM12 18C8.14098 18 4.99998 15.309 4.99998 12C4.99998 8.69097 8.14098 5.99997 12 5.99997C15.859 5.99997 19 8.69097 19 12C19 15.309 15.859 18 12 18ZM16 12C16 12.7911 15.7654 13.5645 15.3259 14.2223C14.8863 14.8801 14.2616 15.3927 13.5307 15.6955C12.7998 15.9982 11.9955 16.0775 11.2196 15.9231C10.4437 15.7688 9.73096 15.3878 9.17155 14.8284C8.61214 14.269 8.23118 13.5563 8.07684 12.7803C7.92249 12.0044 8.00171 11.2001 8.30446 10.4692C8.60721 9.73834 9.1199 9.11362 9.7777 8.6741C10.4355 8.23457 11.2089 7.99997 12 7.99997C13.0608 7.99997 14.0783 8.4214 14.8284 9.17155C15.5786 9.92169 16 10.9391 16 12Z" fill="#2A293A"/>
</g>
</svg>
