<svg width="24" height="24" viewBox="0 0 24 24" fill="none" xmlns="http://www.w3.org/2000/svg">
<path d="M13.729 12.9991H10.27C10.0986 12.9979 9.92965 13.0407 9.77952 13.1235C9.6294 13.2063 9.50308 13.3263 9.41271 13.472C9.32233 13.6177 9.27094 13.7842 9.26346 13.9555C9.25598 14.1268 9.29267 14.2971 9.37 14.4501C9.62913 14.92 10.0095 15.3118 10.4716 15.5846C10.9336 15.8575 11.4604 16.0014 11.997 16.0014C12.5336 16.0014 13.0604 15.8575 13.5224 15.5846C13.9845 15.3118 14.3649 14.92 14.624 14.4501C14.7011 14.2975 14.7378 14.1276 14.7306 13.9568C14.7233 13.7859 14.6724 13.6197 14.5826 13.4742C14.4928 13.3286 14.3672 13.2085 14.2177 13.1253C14.0683 13.0422 13.9 12.9987 13.729 12.9991Z" fill="#2A293A"/>
<path d="M10 10.9991C10.5523 10.9991 11 10.5514 11 9.99915C11 9.44686 10.5523 8.99915 10 8.99915C9.44771 8.99915 9 9.44686 9 9.99915C9 10.5514 9.44771 10.9991 10 10.9991Z" fill="#2A293A"/>
<path d="M14 10.9991C14.5523 10.9991 15 10.5514 15 9.99915C15 9.44686 14.5523 8.99915 14 8.99915C13.4477 8.99915 13 9.44686 13 9.99915C13 10.5514 13.4477 10.9991 14 10.9991Z" fill="#2A293A"/>
<path d="M23 11.9991C23 11.2035 22.6839 10.4404 22.1213 9.87782C21.5587 9.31522 20.7956 8.99915 20 8.99915H19.59C19.3206 7.862 18.7534 6.81701 17.9468 5.97139C17.1402 5.12576 16.1232 4.50996 15 4.18715V1.99915H14C8.42 1.99915 5.111 5.27115 4.24 8.99915H4C3.20435 8.99915 2.44129 9.31522 1.87868 9.87782C1.31607 10.4404 1 11.2035 1 11.9991C1.00297 12.9832 1.36938 13.9314 2.02885 14.6618C2.68833 15.3921 3.59438 15.8531 4.573 15.9561C5.16325 17.4441 6.18684 18.7205 7.5111 19.6198C8.83536 20.5192 10.3992 21 12 21C13.6008 21 15.1646 20.5192 16.4889 19.6198C17.8132 18.7205 18.8368 17.4441 19.427 15.9561C20.4056 15.8531 21.3117 15.3921 21.9711 14.6618C22.6306 13.9314 22.997 12.9832 23 11.9991ZM4 13.7301C3.69612 13.5547 3.44374 13.3024 3.26821 12.9985C3.09268 12.6947 3.00018 12.35 3 11.9991C3 11.7339 3.10536 11.4796 3.29289 11.292C3.48043 11.1045 3.73478 10.9991 4 10.9991V13.7301ZM12 18.9991C10.4092 18.9976 8.88399 18.3649 7.75911 17.24C6.63424 16.1152 6.00159 14.59 6 12.9991V10.9991C6 7.74815 8.4 4.46015 13 4.04315V5.86615L13.858 5.98915C17.7 6.54015 18 10.7281 18 11.9991V12.9991C17.9981 14.5899 17.3654 16.1149 16.2406 17.2397C15.1158 18.3646 13.5907 18.9973 12 18.9991ZM20 13.7301V10.9991C20.2652 10.9991 20.5196 11.1045 20.7071 11.292C20.8946 11.4796 21 11.7339 21 11.9991C20.9998 12.35 20.9073 12.6947 20.7318 12.9985C20.5563 13.3024 20.3039 13.5547 20 13.7301Z" fill="#2A293A"/>
</svg>
