<svg width="24" height="24" viewBox="0 0 24 24" fill="none" xmlns="http://www.w3.org/2000/svg">
<g id="warning">
<path id="main" d="M20.227 14.986L13.727 3.93101C13.5504 3.63072 13.2985 3.38176 12.9961 3.20879C12.6937 3.03582 12.3514 2.94482 12.003 2.94482C11.6546 2.94482 11.3123 3.03582 11.0099 3.20879C10.7076 3.38176 10.4556 3.63072 10.279 3.93101L3.77901 14.986C3.60044 15.2896 3.50521 15.6349 3.50294 15.9871C3.50067 16.3393 3.59145 16.6859 3.76609 16.9917C3.94074 17.2976 4.19305 17.5519 4.49752 17.7289C4.80198 17.906 5.14781 17.9995 5.50001 18H18.5C18.8527 18.0006 19.1993 17.9078 19.5046 17.7312C19.8099 17.5546 20.0631 17.3004 20.2384 16.9943C20.4138 16.6883 20.5051 16.3413 20.5031 15.9886C20.5011 15.6359 20.4058 15.29 20.227 14.986ZM13 16H11V14H13V16ZM13 11C13 11.2652 12.8947 11.5196 12.7071 11.7071C12.5196 11.8947 12.2652 12 12 12C11.7348 12 11.4804 11.8947 11.2929 11.7071C11.1054 11.5196 11 11.2652 11 11V7.00001H13V11Z" fill="#2A293A"/>
</g>
</svg>
