<svg width="24" height="24" viewBox="0 0 24 24" fill="none" xmlns="http://www.w3.org/2000/svg">
<g id="webhook">
<path id="main" d="M8.12808 15.6404C8.27939 15.9042 8.35982 16.2019 8.36168 16.5052C8.36168 16.8608 8.25507 17.2084 8.05531 17.5041C7.85556 17.7997 7.57165 18.0302 7.23947 18.1663C6.90729 18.3023 6.54178 18.338 6.18914 18.2686C5.83651 18.1992 5.51259 18.028 5.25835 17.7765C5.00412 17.5251 4.83098 17.2047 4.76084 16.856C4.69069 16.5072 4.72669 16.1457 4.86429 15.8172C5.00188 15.4887 5.23488 15.2079 5.53383 15.0103C5.83278 14.8127 6.18425 14.7073 6.54379 14.7073C6.55379 14.7073 6.56288 14.7073 6.57288 14.7073L8.93614 10.8139C8.28928 10.2297 7.82692 9.47307 7.6047 8.63506C7.38248 7.79705 7.40986 6.91339 7.68356 6.09041C7.95725 5.26743 8.46559 4.54022 9.1474 3.9963C9.82921 3.45237 10.6554 3.11491 11.5266 3.02453C12.3978 2.93415 13.2769 3.0947 14.058 3.48686C14.839 3.87902 15.4889 4.48608 15.9293 5.23497C16.3697 5.98387 16.5819 6.84268 16.5403 7.70805C16.4988 8.57343 16.2052 9.40848 15.695 10.1127L14.5934 8.30042L14.5816 8.30761C14.6664 8.05183 14.7115 7.78479 14.7152 7.51563C14.7155 7.00456 14.5691 6.50392 14.2928 6.07202C14.0165 5.64013 13.6219 5.29475 13.1548 5.07614C12.6877 4.85753 12.1674 4.77468 11.6546 4.83724C11.1417 4.8998 10.6574 5.10519 10.258 5.4295C9.85864 5.7538 9.56066 6.18366 9.39879 6.66901C9.23691 7.15435 9.21781 7.67519 9.3437 8.17086C9.46959 8.66653 9.7353 9.11661 10.1099 9.46868C10.4844 9.82076 10.9524 10.0603 11.4594 10.1595L8.12808 15.6431V15.6404ZM17.4511 12.0104C16.9384 12.0151 16.4303 12.1063 15.9486 12.2801L13.5854 8.37863C13.7351 8.11504 13.8143 7.81798 13.8153 7.51563C13.8153 7.16004 13.7087 6.81243 13.509 6.51676C13.3092 6.2211 13.0253 5.99065 12.6931 5.85457C12.361 5.71849 11.9954 5.68289 11.6428 5.75226C11.2902 5.82163 10.9663 5.99287 10.712 6.24431C10.4578 6.49575 10.2846 6.81611 10.2145 7.16487C10.1444 7.51364 10.1804 7.87514 10.3179 8.20366C10.4555 8.53219 10.6885 8.81298 10.9875 9.01054C11.2864 9.2081 11.6379 9.31355 11.9975 9.31355C12.0075 9.31355 12.0165 9.31355 12.0265 9.31355L15.3606 14.7972C15.7137 14.3707 16.1905 14.0616 16.7268 13.9113C17.263 13.761 17.8329 13.7769 18.3598 13.9567C18.8866 14.1366 19.3451 14.4718 19.6735 14.9172C20.0018 15.3626 20.1843 15.8969 20.1963 16.448C20.2083 16.9991 20.0493 17.5406 19.7406 17.9996C19.4319 18.4585 18.9885 18.813 18.47 19.0151C17.9514 19.2172 17.3827 19.2573 16.8404 19.13C16.2981 19.0027 15.8083 18.7141 15.4369 18.3031H13.29C13.6178 19.046 14.1426 19.6874 14.8089 20.1594C15.4752 20.6313 16.2581 20.9163 17.0747 20.9842C17.8914 21.0521 18.7114 20.9003 19.448 20.5449C20.1845 20.1895 20.8102 19.6437 21.2588 18.9654C21.7074 18.287 21.9621 17.5013 21.9961 16.6915C22.0301 15.8817 21.842 15.0778 21.4518 14.365C21.0615 13.6523 20.4837 13.0571 19.7794 12.6426C19.0752 12.2281 18.2707 12.0097 17.4511 12.0104ZM17.4511 14.7073C17.1333 14.7082 16.8213 14.7917 16.5464 14.9495C16.2715 15.1073 16.0434 15.3338 15.885 15.6063H9.27063V16.5052C9.2685 16.6636 9.25238 16.8215 9.22245 16.9772C9.19358 17.1222 9.15378 17.265 9.10338 17.4042C8.93593 17.8691 8.64249 18.2795 8.25513 18.5907C7.86777 18.9018 7.40139 19.1017 6.90695 19.1684C6.41252 19.2351 5.90905 19.1661 5.45157 18.969C4.9941 18.7719 4.6002 18.4542 4.31294 18.0506C4.02568 17.647 3.8561 17.1732 3.82274 16.6807C3.78938 16.1883 3.89351 15.6963 4.12376 15.2584C4.35402 14.8206 4.70153 14.4537 5.12832 14.198C5.55512 13.9422 6.04478 13.8075 6.54379 13.8083V12.0104C5.68391 12.0106 4.84171 12.252 4.11503 12.7067C3.38834 13.1614 2.80699 13.8106 2.43848 14.579C2.06998 15.3474 1.92945 16.2034 2.03321 17.0476C2.13698 17.8918 2.48078 18.6896 3.02469 19.3483C3.5686 20.007 4.2903 20.4996 5.10596 20.7688C5.92162 21.038 6.79777 21.0729 7.63266 20.8693C8.46754 20.6657 9.2269 20.2321 9.82254 19.6187C10.4182 19.0053 10.8256 18.2374 10.9976 17.4042H15.8859C16.0457 17.6778 16.2755 17.905 16.5523 18.0628C16.8291 18.2206 17.1431 18.3035 17.4625 18.3031C17.782 18.3027 18.0958 18.219 18.3722 18.0605C18.6485 17.902 18.8778 17.6743 19.0369 17.4002C19.1959 17.1262 19.2791 16.8155 19.2781 16.4995C19.2771 16.1836 19.1919 15.8734 19.0311 15.6004C18.8704 15.3273 18.6397 15.101 18.3623 14.9442C18.0849 14.7874 17.7706 14.7057 17.4511 14.7073Z" fill="#2A293A"/>
</g>
</svg>
