<svg width="24" height="24" viewBox="0 0 24 24" fill="none" xmlns="http://www.w3.org/2000/svg">
<g id="webhook">
<path id="main" d="M7.74296 16.038C7.90942 16.3314 7.9979 16.6626 7.99996 17C7.99996 17.3956 7.88266 17.7822 7.6629 18.1111C7.44314 18.44 7.13078 18.6964 6.76533 18.8477C6.39987 18.9991 5.99774 19.0387 5.60978 18.9616C5.22182 18.8844 4.86545 18.6939 4.58575 18.4142C4.30604 18.1345 4.11556 17.7781 4.03839 17.3902C3.96122 17.0022 4.00082 16.6001 4.1522 16.2346C4.30358 15.8692 4.55992 15.5568 4.88882 15.3371C5.21772 15.1173 5.6044 15 5.99996 15C6.01096 15 6.02096 15 6.03196 15L8.63196 10.669C7.92031 10.0191 7.41163 9.17744 7.16714 8.24525C6.92266 7.31305 6.95279 6.33005 7.2539 5.41458C7.55501 4.4991 8.11428 3.69015 8.86439 3.08508C9.6145 2.48002 10.5235 2.10463 11.482 2.00409C12.4404 1.90355 13.4075 2.08215 14.2669 2.51839C15.1262 2.95463 15.8412 3.62992 16.3257 4.46299C16.8102 5.29606 17.0437 6.2514 16.9979 7.21404C16.9522 8.17668 16.6293 9.1056 16.068 9.88899L14.856 7.87299L14.843 7.88099C14.9363 7.59646 14.9858 7.2994 14.99 6.99999C14.9903 6.43148 14.8292 5.87457 14.5252 5.39412C14.2213 4.91368 13.7871 4.52949 13.2732 4.2863C12.7594 4.04312 12.187 3.95096 11.6227 4.02055C11.0585 4.09014 10.5256 4.31862 10.0863 4.67938C9.64688 5.04013 9.31905 5.51831 9.14096 6.05821C8.96287 6.5981 8.94185 7.17749 9.08035 7.72887C9.21886 8.28024 9.51118 8.78092 9.92327 9.17256C10.3354 9.56421 10.8503 9.8307 11.408 9.94099L7.74296 16.041V16.038ZM18 12C17.4359 12.0052 16.8769 12.1066 16.347 12.3L13.747 7.95999C13.9117 7.66677 13.9988 7.33632 14 6.99999C14 6.60443 13.8827 6.21775 13.6629 5.88885C13.4431 5.55995 13.1308 5.30361 12.7653 5.15223C12.3999 5.00086 11.9977 4.96125 11.6098 5.03842C11.2218 5.11559 10.8655 5.30607 10.5857 5.58578C10.306 5.86548 10.1156 6.22185 10.0384 6.60981C9.96122 6.99777 10.0008 7.3999 10.1522 7.76536C10.3036 8.13081 10.5599 8.44317 10.8888 8.66293C11.2177 8.88269 11.6044 8.99999 12 8.99999C12.011 8.99999 12.021 8.99999 12.032 8.99999L15.7 15.1C16.0885 14.6256 16.6131 14.2817 17.203 14.1145C17.793 13.9474 18.42 13.965 18.9997 14.1651C19.5793 14.3651 20.0837 14.738 20.445 15.2335C20.8062 15.729 21.0069 16.3233 21.0201 16.9363C21.0334 17.5494 20.8584 18.1517 20.5188 18.6623C20.1792 19.1729 19.6913 19.5671 19.1209 19.792C18.5504 20.0168 17.9247 20.0614 17.3281 19.9198C16.7315 19.7782 16.1926 19.4572 15.784 19H13.422C13.7826 19.8264 14.36 20.5398 15.093 21.0649C15.826 21.5899 16.6874 21.9069 17.5859 21.9824C18.4843 22.0579 19.3865 21.8891 20.1969 21.4937C21.0072 21.0984 21.6956 20.4913 22.1891 19.7367C22.6826 18.9821 22.9629 18.1081 23.0002 17.2072C23.0376 16.3064 22.8307 15.4121 22.4014 14.6193C21.9721 13.8264 21.3363 13.1644 20.5615 12.7033C19.7867 12.2422 18.9016 11.9992 18 12ZM18 15C17.6503 15.001 17.307 15.0939 17.0046 15.2694C16.7022 15.4449 16.4513 15.6969 16.277 16H8.99996V17C8.99762 17.1762 8.97989 17.3519 8.94696 17.525C8.91519 17.6864 8.8714 17.8451 8.81596 18C8.63173 18.5172 8.3089 18.9738 7.88273 19.3199C7.45657 19.666 6.94347 19.8883 6.3995 19.9625C5.85553 20.0367 5.30163 19.96 4.79832 19.7407C4.29501 19.5214 3.86166 19.168 3.54562 18.7191C3.22959 18.2702 3.04302 17.743 3.00631 17.1952C2.96961 16.6475 3.08418 16.1001 3.33749 15.6131C3.59081 15.126 3.97314 14.7179 4.44269 14.4334C4.91224 14.149 5.45095 13.999 5.99996 14V12C5.05393 12.0002 4.12737 12.2688 3.32788 12.7745C2.5284 13.2803 1.8888 14.0025 1.48339 14.8572C1.07797 15.712 0.923358 16.6642 1.03752 17.6034C1.15168 18.5425 1.52992 19.4299 2.12832 20.1627C2.72672 20.8954 3.52071 21.4433 4.41808 21.7428C5.31545 22.0423 6.27938 22.0811 7.1979 21.8546C8.11643 21.6281 8.95185 21.1457 9.60716 20.4634C10.2625 19.7811 10.7108 18.9269 10.9 18H16.278C16.4537 18.3044 16.7066 18.5571 17.0111 18.7327C17.3156 18.9082 17.661 19.0004 18.0125 19C18.364 18.9995 18.7092 18.9064 19.0133 18.7301C19.3173 18.5538 19.5696 18.3005 19.7446 17.9956C19.9195 17.6908 20.0111 17.3452 20.01 16.9937C20.0089 16.6422 19.9152 16.2972 19.7383 15.9934C19.5614 15.6897 19.3076 15.4379 19.0024 15.2635C18.6972 15.0891 18.3515 14.9982 18 15Z" fill="#2A293A"/>
</g>
</svg>
