<svg width="24" height="24" viewBox="0 0 24 24" fill="none" xmlns="http://www.w3.org/2000/svg">
<g id="workflow-success">
<g id="main">
<path d="M12 4C10.4178 4 8.87103 4.46919 7.55544 5.34824C6.23985 6.22729 5.21447 7.47672 4.60897 8.93853C4.00347 10.4003 3.84504 12.0089 4.15372 13.5607C4.4624 15.1126 5.22433 16.538 6.34315 17.6568C7.46197 18.7757 8.88743 19.5376 10.4393 19.8463C11.9911 20.155 13.5997 19.9965 15.0615 19.391C16.5233 18.7855 17.7727 17.7601 18.6518 16.4446C19.5308 15.129 20 13.5822 20 12C20 9.87827 19.1571 7.84344 17.6569 6.34314C16.1566 4.84285 14.1217 4 12 4ZM12 18.2222C10.7694 18.2222 9.56636 17.8573 8.54312 17.1736C7.51988 16.4899 6.72236 15.5181 6.25142 14.3811C5.78047 13.2442 5.65725 11.9931 5.89734 10.7861C6.13742 9.57911 6.73003 8.47042 7.60023 7.60022C8.47042 6.73003 9.57911 6.13742 10.7861 5.89734C11.9931 5.65725 13.2442 5.78047 14.3811 6.25142C15.5181 6.72236 16.4899 7.51988 17.1736 8.54312C17.8573 9.56636 18.2222 10.7694 18.2222 12C18.2222 13.6502 17.5667 15.2329 16.3998 16.3998C15.2329 17.5667 13.6502 18.2222 12 18.2222Z" fill="#2A293A"/>
<path d="M10.1712 15.2698L7.81794 12.7087C7.64994 12.5258 7.55556 12.2779 7.55556 12.0193C7.55556 11.7608 7.64994 11.5128 7.81794 11.33C7.98599 11.1472 8.21389 11.0445 8.45152 11.0445C8.68915 11.0445 8.91705 11.1472 9.08511 11.33L10.8051 13.2014L14.9149 8.72992C15.083 8.54713 15.3109 8.44444 15.5485 8.44444C15.7861 8.44444 16.014 8.54713 16.1821 8.72992C16.3501 8.91276 16.4444 9.16072 16.4444 9.41926C16.4444 9.6778 16.3501 9.92576 16.1821 10.1086L11.439 15.2698C11.3558 15.3604 11.257 15.4322 11.1482 15.4813C11.0394 15.5303 10.9229 15.5556 10.8051 15.5556C10.6874 15.5556 10.5708 15.5303 10.4621 15.4813C10.3533 15.4322 10.2545 15.3604 10.1712 15.2698Z" fill="#2A293A"/>
</g>
</g>
</svg>
