<svg width="24" height="24" viewBox="0 0 24 24" fill="none" xmlns="http://www.w3.org/2000/svg">
<g id="workflow-play">
<g id="main">
<path d="M9.66565 9.02038C9.62247 9.08733 9.59983 9.16325 9.6 9.24049V14.7595C9.59983 14.8368 9.62247 14.9127 9.66565 14.9796C9.70883 15.0466 9.77102 15.1022 9.84595 15.1409C9.92089 15.1796 10.0059 15.2 10.0925 15.2C10.1791 15.2 10.2641 15.1797 10.3391 15.1411L15.7519 12.3816C15.8273 12.3431 15.8899 12.2876 15.9335 12.2206C15.9771 12.1536 16 12.0775 16 12C16 11.9225 15.9771 11.8464 15.9335 11.7794C15.8899 11.7124 15.8273 11.6569 15.7519 11.6184L10.3391 8.8589C10.2641 8.82028 10.1791 8.79996 10.0925 8.8C10.0059 8.80004 9.92089 8.82043 9.84595 8.85912C9.77102 8.8978 9.70883 8.95342 9.66565 9.02038Z" fill="#2A293A"/>
<path fill-rule="evenodd" clip-rule="evenodd" d="M7.55544 5.34824C8.87103 4.46919 10.4178 4 12 4C14.1217 4 16.1566 4.84285 17.6569 6.34315C19.1571 7.84344 20 9.87827 20 12C20 13.5822 19.5308 15.129 18.6518 16.4446C17.7727 17.7601 16.5233 18.7855 15.0615 19.391C13.5997 19.9965 11.9911 20.155 10.4393 19.8463C8.88743 19.5376 7.46197 18.7757 6.34315 17.6568C5.22433 16.538 4.4624 15.1126 4.15372 13.5607C3.84504 12.0089 4.00347 10.4003 4.60897 8.93853C5.21447 7.47672 6.23985 6.22729 7.55544 5.34824ZM8.54312 17.1736C9.56636 17.8573 10.7694 18.2222 12 18.2222C13.6502 18.2222 15.2329 17.5667 16.3998 16.3998C17.5667 15.2329 18.2222 13.6502 18.2222 12C18.2222 10.7694 17.8573 9.56636 17.1736 8.54312C16.4899 7.51988 15.5181 6.72236 14.3811 6.25142C13.2442 5.78047 11.9931 5.65725 10.7861 5.89734C9.57912 6.13742 8.47042 6.73003 7.60023 7.60022C6.73003 8.47042 6.13743 9.57911 5.89734 10.7861C5.65725 11.9931 5.78047 13.2442 6.25142 14.3811C6.72236 15.5181 7.51988 16.4899 8.54312 17.1736Z" fill="#2A293A"/>
</g>
</g>
</svg>
