<svg width="24" height="24" viewBox="0 0 24 24" fill="none" xmlns="http://www.w3.org/2000/svg">
<g id="workflow-running">
<path id="main" d="M21 12C21 13.78 20.4722 15.5201 19.4832 17.0001C18.4943 18.4802 17.0887 19.6337 15.4442 20.3149C13.7996 20.9961 11.99 21.1743 10.2442 20.8271C8.49836 20.4798 6.89472 19.6226 5.63604 18.364C4.37737 17.1053 3.5202 15.5016 3.17294 13.7558C2.82567 12.01 3.0039 10.2004 3.68509 8.55585C4.36628 6.91131 5.51983 5.50571 6.99987 4.51677C8.47991 3.52784 10.22 3 12 3V1L17 4L12 7V5C10.3805 5.00012 8.81118 5.56176 7.55938 6.58924C6.30758 7.61671 5.45076 9.04644 5.13492 10.6348C4.81908 12.2232 5.06376 13.872 5.82727 15.3002C6.59078 16.7284 7.82588 17.8477 9.32212 18.4673C10.8184 19.087 12.4832 19.1687 14.0329 18.6985C15.5826 18.2283 16.9214 17.2353 17.821 15.8887C18.7207 14.5421 19.1256 12.9252 18.9668 11.3135C18.8079 9.70183 18.0952 8.19509 16.95 7.05L18.364 5.636C19.201 6.47081 19.8647 7.4628 20.3171 8.55495C20.7695 9.64709 21.0015 10.8179 21 12ZM11 12C11 12.1978 11.0587 12.3911 11.1685 12.5556C11.2784 12.72 11.4346 12.8482 11.6173 12.9239C11.8 12.9996 12.0011 13.0194 12.1951 12.9808C12.3891 12.9422 12.5673 12.847 12.7071 12.7071C12.847 12.5673 12.9422 12.3891 12.9808 12.1951C13.0194 12.0011 12.9996 11.8 12.9239 11.6173C12.8482 11.4346 12.72 11.2784 12.5556 11.1685C12.3911 11.0586 12.1978 11 12 11C11.7348 11 11.4804 11.1054 11.2929 11.2929C11.1054 11.4804 11 11.7348 11 12ZM8 12C8 12.1978 8.05865 12.3911 8.16853 12.5556C8.27842 12.72 8.43459 12.8482 8.61732 12.9239C8.80005 12.9996 9.00111 13.0194 9.19509 12.9808C9.38908 12.9422 9.56726 12.847 9.70711 12.7071C9.84696 12.5673 9.9422 12.3891 9.98079 12.1951C10.0194 12.0011 9.99957 11.8 9.92388 11.6173C9.8482 11.4346 9.72002 11.2784 9.55557 11.1685C9.39113 11.0586 9.19779 11 9 11C8.73479 11 8.48043 11.1054 8.2929 11.2929C8.10536 11.4804 8 11.7348 8 12ZM14 12C14 12.1978 14.0587 12.3911 14.1685 12.5556C14.2784 12.72 14.4346 12.8482 14.6173 12.9239C14.8 12.9996 15.0011 13.0194 15.1951 12.9808C15.3891 12.9422 15.5673 12.847 15.7071 12.7071C15.847 12.5673 15.9422 12.3891 15.9808 12.1951C16.0194 12.0011 15.9996 11.8 15.9239 11.6173C15.8482 11.4346 15.72 11.2784 15.5556 11.1685C15.3911 11.0586 15.1978 11 15 11C14.7348 11 14.4804 11.1054 14.2929 11.2929C14.1054 11.4804 14 11.7348 14 12Z" fill="#2A293A"/>
</g>
</svg>
