<svg width="24" height="24" viewBox="0 0 24 24" fill="none" xmlns="http://www.w3.org/2000/svg">
<g id="Workflow">
<path id="main" fill-rule="evenodd" clip-rule="evenodd" d="M2 5C2 3.34315 3.34315 2 5 2H7C8.65685 2 10 3.34315 10 5C10 6.65685 8.65685 8 7 8H5C3.34315 8 2 6.65685 2 5ZM5 4C4.44772 4 4 4.44772 4 5C4 5.55228 4.44772 6 5 6H7C7.55228 6 8 5.55228 8 5C8 4.44772 7.55228 4 7 4H5ZM18.5 6H11V4H18.5C20.9853 4 23 6.01472 23 8.5C23 10.9853 20.9853 13 18.5 13H17V11H18.5C19.8807 11 21 9.88071 21 8.5C21 7.11929 19.8807 6 18.5 6ZM8 12C8 10.3431 9.34315 9 11 9H13C14.6569 9 16 10.3431 16 12C16 13.6569 14.6569 15 13 15H11C9.34315 15 8 13.6569 8 12ZM11 11C10.4477 11 10 11.4477 10 12C10 12.5523 10.4477 13 11 13H13C13.5523 13 14 12.5523 14 12C14 11.4477 13.5523 11 13 11H11ZM5.5 13C4.11929 13 3 14.1193 3 15.5C3 16.8807 4.11929 18 5.5 18H13V20H5.5C3.01472 20 1 17.9853 1 15.5C1 13.0147 3.01472 11 5.5 11H7V13H5.5ZM14 19C14 17.3431 15.3431 16 17 16H19C20.6569 16 22 17.3431 22 19C22 20.6569 20.6569 22 19 22H17C15.3431 22 14 20.6569 14 19ZM17 18C16.4477 18 16 18.4477 16 19C16 19.5523 16.4477 20 17 20H19C19.5523 20 20 19.5523 20 19C20 18.4477 19.5523 18 19 18H17Z" fill="#2A293A"/>
</g>
</svg>
