<svg width="24" height="24" viewBox="0 0 24 24" fill="none" xmlns="http://www.w3.org/2000/svg">
<g id="workflow-running">
<path id="main" d="M20 11.9C20 13.502 19.5308 15.0681 18.6518 16.4001C17.7727 17.7322 16.5233 18.7703 15.0615 19.3834C13.5997 19.9965 11.9911 20.1569 10.4393 19.8444C8.88743 19.5318 7.46197 18.7604 6.34315 17.6276C5.22433 16.4948 4.4624 15.0515 4.15372 13.4802C3.84504 11.909 4.00347 10.2803 4.60897 8.80026C5.21447 7.32018 6.23985 6.05513 7.55544 5.1651C8.87103 4.27506 10.4177 3.8 12 3.8V2L16.4444 4.7L12 7.4V5.6C10.5605 5.6001 9.16549 6.10558 8.05278 7.03031C6.94007 7.95504 6.17845 9.2418 5.89771 10.6713C5.61696 12.1009 5.83445 13.5848 6.51313 14.8702C7.1918 16.1555 8.28967 17.1629 9.61966 17.7206C10.9497 18.2783 12.4295 18.3518 13.807 17.9286C15.1845 17.5054 16.3745 16.6117 17.1742 15.3998C17.9739 14.1879 18.3338 12.7327 18.1927 11.2822C18.0515 9.83165 17.418 8.47558 16.4 7.445L17.6569 6.1724C18.4009 6.92373 18.9908 7.81652 19.393 8.79945C19.7951 9.78238 20.0014 10.8361 20 11.9ZM11.1111 11.9C11.1111 12.078 11.1632 12.252 11.2609 12.4C11.3586 12.548 11.4974 12.6634 11.6598 12.7315C11.8223 12.7996 12.001 12.8174 12.1734 12.7827C12.3458 12.748 12.5042 12.6623 12.6285 12.5364C12.7529 12.4105 12.8375 12.2502 12.8718 12.0756C12.9061 11.901 12.8885 11.72 12.8212 11.5556C12.7539 11.3911 12.64 11.2506 12.4938 11.1517C12.3477 11.0528 12.1758 11 12 11C11.7643 11 11.5382 11.0948 11.3715 11.2636C11.2048 11.4324 11.1111 11.6613 11.1111 11.9ZM8.44445 11.9C8.44445 12.078 8.49658 12.252 8.59425 12.4C8.69192 12.548 8.83075 12.6634 8.99317 12.7315C9.15559 12.7996 9.33432 12.8174 9.50675 12.7827C9.67917 12.748 9.83756 12.6623 9.96187 12.5364C10.0862 12.4105 10.1708 12.2502 10.2051 12.0756C10.2394 11.901 10.2218 11.72 10.1546 11.5556C10.0873 11.3911 9.97335 11.2506 9.82717 11.1517C9.681 11.0528 9.50914 11 9.33333 11C9.09759 11 8.87149 11.0948 8.70479 11.2636C8.5381 11.4324 8.44445 11.6613 8.44445 11.9ZM13.7778 11.9C13.7778 12.078 13.8299 12.252 13.9276 12.4C14.0253 12.548 14.1641 12.6634 14.3265 12.7315C14.4889 12.7996 14.6676 12.8174 14.8401 12.7827C15.0125 12.748 15.1709 12.6623 15.2952 12.5364C15.4195 12.4105 15.5042 12.2502 15.5385 12.0756C15.5728 11.901 15.5552 11.72 15.4879 11.5556C15.4206 11.3911 15.3067 11.2506 15.1605 11.1517C15.0143 11.0528 14.8425 11 14.6667 11C14.4309 11 14.2048 11.0948 14.0381 11.2636C13.8714 11.4324 13.7778 11.6613 13.7778 11.9Z" fill="#2A293A"/>
</g>
</svg>
