<svg width="24" height="24" viewBox="0 0 24 24" fill="none" xmlns="http://www.w3.org/2000/svg">
<g id="workflow-stop">
<g id="main">
<path d="M12 4C10.4178 4 8.87103 4.46919 7.55544 5.34824C6.23985 6.22729 5.21447 7.47672 4.60897 8.93853C4.00347 10.4003 3.84504 12.0089 4.15372 13.5607C4.4624 15.1126 5.22433 16.538 6.34315 17.6568C7.46197 18.7757 8.88743 19.5376 10.4393 19.8463C11.9911 20.155 13.5997 19.9965 15.0615 19.391C16.5233 18.7855 17.7727 17.7601 18.6518 16.4446C19.5308 15.129 20 13.5822 20 12C20 9.87827 19.1571 7.84344 17.6569 6.34314C16.1566 4.84285 14.1217 4 12 4ZM12 18.2222C10.7694 18.2222 9.56636 17.8573 8.54312 17.1736C7.51988 16.4899 6.72236 15.5181 6.25142 14.3811C5.78047 13.2442 5.65725 11.9931 5.89734 10.7861C6.13742 9.57911 6.73003 8.47042 7.60023 7.60022C8.47042 6.73003 9.57911 6.13742 10.7861 5.89734C11.9931 5.65725 13.2442 5.78047 14.3811 6.25142C15.5181 6.72236 16.4899 7.51988 17.1736 8.54312C17.8573 9.56636 18.2222 10.7694 18.2222 12C18.2222 13.6502 17.5667 15.2329 16.3998 16.3998C15.2329 17.5667 13.6502 18.2222 12 18.2222Z" fill="#2A293A"/>
<path d="M9.33334 10.2222C9.33334 9.7313 9.73131 9.33333 10.2222 9.33333H13.7778C14.2687 9.33333 14.6667 9.7313 14.6667 10.2222V13.7778C14.6667 14.2687 14.2687 14.6667 13.7778 14.6667H10.2222C9.73131 14.6667 9.33334 14.2687 9.33334 13.7778V10.2222Z" fill="#2A293A"/>
</g>
</g>
</svg>
