<svg  viewBox="0 0 200 87" fill="none" xmlns="http://www.w3.org/2000/svg">
<g clip-path="url(#clip0_14_55)">
<path d="M200.023 30.8565V27.1991C200.023 24.7454 199.074 22.4537 197.338 20.7176C195.602 18.9815 193.31 18.0324 190.856 18.0324H185.139C182.986 18.0324 181.019 18.4954 179.329 19.3287C175.995 17.7778 172.315 17.1528 169.167 17.1528C162.662 17.1528 156.852 19.4444 152.546 23.6343C151.088 22.037 149.19 20.6713 146.921 19.6296C143.495 18.0556 139.097 17.1528 134.861 17.1528C129.768 17.1528 124.931 18.3565 121.204 20.5093C119.514 21.4815 118.056 22.6852 116.829 24.0278C111.412 17.8472 103.472 13.9352 94.6296 13.9352C86.7592 13.9352 79.3287 17.0139 73.75 22.5926C73.7268 22.6157 73.7037 22.6389 73.6574 22.6852C73.5416 22.4537 73.4028 22.2222 73.2639 21.9907C75.0231 19.6296 75.9954 16.7824 75.9722 13.7963C75.9722 10.1389 74.537 6.68981 71.9444 4.09722C69.3287 1.50463 65.8796 0.0694427 62.2222 0.0694427C54.6528 0.0694427 48.4954 6.22685 48.4954 13.7963C48.4954 15.5093 48.8194 17.1528 49.3981 18.6806H49.375C48.3333 18.2639 47.1991 18.0324 45.9953 18.0324L40.2778 18.0556C38.125 18.0556 36.1574 18.5185 34.4676 19.3518C31.1342 17.8009 27.4537 17.1759 24.3055 17.1759C16.9444 17.1759 10.4398 20.1157 6.04165 25.4398C2.15276 30.1389 0.0231323 36.5509 0.0231323 43.5417C0.0231323 50.5324 2.19906 57.0139 6.15739 61.8056C6.82869 62.6157 7.54628 63.3796 8.31017 64.0741C7.59258 64.8148 7.03702 65.6944 6.62035 66.6435L4.39813 72.0139C2.68517 76.1574 4.49073 80.9259 8.54165 82.8472C13.3565 85.162 19.1898 86.4815 24.537 86.4815C31.412 86.4815 37.8009 84.537 42.5463 81.0185C46.1574 78.3333 48.8194 74.7454 50.3935 70.5324C51.2268 70.787 52.0833 70.9259 52.9861 70.9259H71.5509C74.1435 70.9259 76.4815 69.7454 78.0324 67.8935C82.7546 71.1111 88.4722 73.0093 94.6296 73.0093C102.292 73.0093 109.491 70.1157 115.023 64.8148C116.435 66.3426 118.218 67.662 120.324 68.7269C124.167 70.6713 129.144 71.7824 133.981 71.7824C139.329 71.7824 144.421 70.5324 148.333 68.287C149.699 67.5 150.926 66.5741 151.991 65.5556C151.806 65.8796 151.62 66.2269 151.481 66.5741L149.236 71.9907C147.523 76.1343 149.329 80.8796 153.356 82.8009C158.194 85.1157 164.028 86.4352 169.375 86.4352C176.25 86.4352 182.639 84.4907 187.361 80.9722C193.472 76.4352 196.829 69.3519 196.829 61.0185V37.8935C198.704 36.3194 200.023 33.912 200.023 30.8565Z" fill="none"/>
<path d="M94.5834 21.3657C82.3843 21.3657 72.4537 31.2963 72.4537 43.4954C72.4537 55.6944 82.3843 65.625 94.5834 65.625C106.782 65.625 116.713 55.6944 116.713 43.4954C116.713 31.2963 106.782 21.3657 94.5834 21.3657ZM93.8889 47.8935C91.2037 50.1157 86.713 50.5556 84.1204 48.6111C82.7084 47.5463 82.2223 45.9954 82.0371 45.3472C80.1621 38.4722 84.213 31.3889 91.088 29.5139C97.963 27.6389 105.046 31.6898 106.921 38.5648C107.292 39.9537 107.292 40.625 106.991 40.9028C105.81 41.9676 103.171 39.838 100.278 40.6713C97.0834 41.6204 97.5 44.8843 93.8889 47.8935Z" fill="url(#paint0_linear_14_55)"/>
<path d="M150.023 52.7778C150.023 56.6898 148.148 59.838 144.583 61.8981C141.782 63.5185 138.009 64.3981 133.935 64.3981C130.278 64.3981 126.412 63.5417 123.634 62.1296C120.255 60.4167 118.472 57.9861 118.472 55.1389V51.6204C118.472 51.0648 118.935 50.6018 119.491 50.6018H125.764C126.319 50.6018 126.782 51.0648 126.782 51.6204V52.9861C126.782 54.0509 127.477 54.9768 128.773 55.6713C130.093 56.3657 131.944 56.7361 134.028 56.7361C137.894 56.7361 140.301 55.3241 140.301 53.0555C140.301 50.5093 137.894 49.5139 133.611 48.0093C133.009 47.8009 132.431 47.5926 131.829 47.3611C126.019 45.3472 119.815 42.6157 119.815 35.5324C119.815 31.8287 121.574 28.8657 124.907 26.9213C127.523 25.3935 131.042 24.5602 134.861 24.5602C140.394 24.5602 148.634 26.6898 148.634 32.5694V36.5278C148.634 37.0833 148.171 37.5463 147.616 37.5463H141.273C140.718 37.5463 140.255 37.0833 140.255 36.5278V35.2315C140.255 33.4491 138.125 32.2917 134.861 32.2917C132.292 32.2917 129.537 33.1481 129.537 35.5324C129.537 38.4491 132.917 39.6759 137.338 40.9954C144.028 43.1481 150.023 45.6481 150.023 52.7778ZM192.616 27.1991V30.8565C192.616 32.662 190.949 32.8009 190.926 32.8009C189.977 32.8009 189.444 33.287 189.444 34.1204V61.0648C189.444 67.0833 187.199 71.9213 182.963 75.0694C179.491 77.6389 174.676 79.0741 169.375 79.0741C165.093 79.0741 160.417 78.0093 156.551 76.1574C156.065 75.9259 155.856 75.3472 156.065 74.8611L158.287 69.4907C158.403 69.2361 158.588 69.0278 158.843 68.9352C159.097 68.8426 159.375 68.8426 159.63 68.9583C161.042 69.5833 164.815 71.0648 169.213 71.0648C175.972 71.0648 179.699 67.7546 179.699 61.7593V59.3981C179.699 58.8194 179.769 58.1713 179.792 57.7546C177.384 61.2037 174.051 62.8009 169.329 62.8009C164.144 62.8009 159.745 60.8333 156.667 57.0833C153.819 53.6343 152.245 48.8194 152.245 43.5417C152.245 38.2639 153.773 33.5185 156.551 30.162C159.583 26.5046 163.912 24.5833 169.12 24.5833C173.056 24.5833 178.333 25.9954 180.694 29.9074C180.671 29.6991 180.648 29.4676 180.648 29.1898C180.648 26.875 182.315 25.4861 185.093 25.4861H190.81C191.829 25.4398 192.616 26.2268 192.616 27.1991ZM170.764 32.8704C165.301 32.8704 162.037 36.7361 162.037 43.2176C162.037 46.5972 162.917 49.4444 164.583 51.4583C166.25 53.4722 168.588 54.5139 171.343 54.5139C174.097 54.5139 176.227 53.5648 177.685 51.713C179.167 49.838 179.907 47.1065 179.907 43.5648C179.931 36.3657 176.944 32.8704 170.764 32.8704ZM71.5046 56.1805H67.1296V26.4815C67.1296 25.9259 66.6667 25.463 66.1111 25.463H52.5926C52.037 25.463 51.5741 25.9259 51.5741 26.4815V31.8055C51.5741 32.3611 52.037 32.8241 52.5926 32.8241H57.4306V56.1805H52.963C52.6852 56.1805 52.4306 56.2963 52.2454 56.4815C52.0602 56.6667 51.9444 56.9213 51.9444 57.1991V62.5231C51.9444 63.0787 52.4074 63.5417 52.963 63.5417H71.5278C72.0833 63.5417 72.5463 63.0787 72.5463 62.5231V57.1991C72.5231 56.6204 72.0833 56.1805 71.5046 56.1805ZM62.2222 20.1157C65.7176 20.1157 68.5417 17.2917 68.5417 13.7963C68.5417 10.3009 65.7176 7.47685 62.2222 7.47685C58.7268 7.47685 55.9028 10.3009 55.9028 13.7963C55.9028 17.2917 58.75 20.1157 62.2222 20.1157ZM47.7546 27.2222V30.8796C47.7546 32.6852 46.088 32.8241 46.0648 32.8241C45.1157 32.8241 44.5833 33.3102 44.5833 34.1435V61.088C44.5833 67.1065 42.338 71.9444 38.1019 75.0926C34.6296 77.662 29.8148 79.0972 24.5139 79.0972C20.2315 79.0972 15.5556 78.0324 11.6898 76.1806C11.2037 75.9491 10.9954 75.3704 11.2037 74.8843L13.4259 69.5139C13.5417 69.2593 13.7269 69.0509 13.9815 68.9583C14.2361 68.8657 14.5139 68.8657 14.7685 68.9815C16.1806 69.6065 19.9537 71.088 24.3519 71.088C31.1111 71.088 34.838 67.7778 34.838 61.7824V59.4213C34.838 58.8426 34.9074 58.1944 34.9306 57.7778C32.5231 61.2268 29.1898 62.8241 24.4907 62.8241C19.3056 62.8241 14.9074 60.8565 11.8287 57.1065C8.98148 53.6574 7.40741 48.8426 7.40741 43.5648C7.40741 38.287 8.93519 33.5417 11.713 30.1852C14.7454 26.5278 19.0741 24.6065 24.2824 24.6065C28.2176 24.6065 33.4954 26.0185 35.8565 29.9306C35.8333 29.7222 35.8102 29.4907 35.8102 29.213C35.8102 26.8981 37.4769 25.5093 40.2546 25.5093H45.9722C46.9676 25.463 47.7546 26.25 47.7546 27.2222ZM25.9259 32.8704C20.463 32.8704 17.1991 36.7361 17.1991 43.2176C17.1991 46.5972 18.0787 49.4444 19.7454 51.4583C21.3889 53.4722 23.75 54.5139 26.5046 54.5139C29.2593 54.5139 31.3889 53.5648 32.8472 51.713C34.3287 49.838 35.0694 47.1065 35.0694 43.5648C35.0926 36.3889 32.1065 32.8704 25.9259 32.8704Z" fill="#706F77"/>
<path d="M34.6297 39.2361L35.9722 37.8935C36.5741 37.2917 36.5741 36.3426 35.9722 35.7407C35.3935 35.162 34.4445 35.1389 33.8426 35.7176L33.3565 36.2037C33.9121 37.0602 34.3287 38.0555 34.6297 39.2361Z" fill="#3ACB98"/>
<path d="M35.0926 43.588C35.0926 45.162 34.9538 46.5741 34.6528 47.8241L38.2639 44.213L44.5834 37.8935V35.7639C44.0047 35.1852 43.0556 35.162 42.4538 35.7407L40.2778 37.9167L35.0926 43.1018C35.0926 43.2407 35.0926 43.4259 35.0926 43.588Z" fill="#3ACB98"/>
<path d="M12.3843 44.213L17.8473 38.75C18.1482 37.8009 18.5417 36.9676 19.051 36.25C18.9815 36.0648 18.8658 35.8796 18.7037 35.7407C18.125 35.162 17.176 35.1389 16.5741 35.7176L14.3982 37.8935L7.45374 44.8379C7.52318 46.1574 7.68522 47.4305 7.93985 48.6574L12.3843 44.213Z" fill="#3ACB98"/>
<path d="M44.5834 50.8333L43.7269 51.6898C43.1251 52.2917 42.176 52.2917 41.5741 51.6898C40.9723 51.088 40.9723 50.1389 41.5741 49.537L44.5834 46.5278V42.2222L35.0927 51.713C34.4908 52.3148 33.5417 52.3148 32.9399 51.713L32.9167 51.6898C32.8936 51.713 32.8936 51.7361 32.8704 51.7593C31.4121 53.6111 29.2593 54.5602 26.5278 54.5602C23.7501 54.5602 21.4121 53.4954 19.7686 51.5046C19.5139 51.2037 19.2825 50.8565 19.0741 50.5324L17.8704 51.7361C17.2686 52.338 16.3195 52.338 15.7176 51.7361C15.1158 51.1343 15.1158 50.1852 15.7176 49.5833L17.7778 47.5231C17.4538 46.3657 17.2917 45.0926 17.2454 43.75L9.25932 51.7361C9.16672 51.8287 9.05098 51.9213 8.93524 51.9907C9.67598 53.912 10.6482 55.625 11.8751 57.1065C14.9769 60.8565 19.3519 62.8241 24.5371 62.8241C29.2593 62.8241 32.5695 61.2268 34.9769 57.7778C34.9306 58.1713 34.8843 58.8426 34.8843 59.4213V61.7824C34.8843 67.7778 31.1575 71.088 24.3982 71.088C20.0001 71.088 16.2501 69.6065 14.8149 68.9815C14.5602 68.8657 14.2825 68.8657 14.0278 68.9583C13.7732 69.0509 13.5649 69.2592 13.4723 69.5139L11.2501 74.8843C11.0417 75.3935 11.2501 75.9491 11.7362 76.1805C15.6019 78.0324 20.2778 79.0972 24.5602 79.0972C29.838 79.0972 34.676 77.6852 38.1482 75.0926C42.3843 71.9444 44.6297 67.1065 44.6297 61.088L44.5834 50.8333Z" fill="#3ACB98"/>
<path d="M10.0926 35.7407C9.74541 35.3935 9.28245 35.2546 8.81949 35.3009C8.24078 36.875 7.84727 38.5648 7.61578 40.3472L10.0926 37.8704C10.6713 37.3148 10.6713 36.3426 10.0926 35.7407Z" fill="#3ACB98"/>
<path d="M62.3148 35.7407C61.713 35.1389 60.7639 35.1389 60.162 35.7407L58.0093 37.8935L57.4074 38.4954V42.8009L62.3148 37.8935C62.9167 37.3148 62.9167 36.3426 62.3148 35.7407Z" fill="#FC7ED2"/>
<path d="M72.4537 56.8287C72.3148 56.4583 71.9445 56.1805 71.5047 56.1805H67.1297V46.0185L61.4584 51.6898C60.8565 52.2917 59.9074 52.2917 59.3056 51.6898C58.7037 51.088 58.7037 50.1389 59.3056 49.537L64.6297 44.213L67.1297 41.713V37.4074L66.6667 37.8704L66.6204 37.9167L66.4121 38.125L57.4074 47.1065V56.1805H52.9398C52.6621 56.1805 52.4074 56.2963 52.2223 56.4815C52.0371 56.6667 51.9213 56.9213 51.9213 57.1991V62.5231C51.9213 63.0787 52.3843 63.5417 52.9398 63.5417H71.5047C71.9445 63.5417 72.3148 63.2639 72.4537 62.8935V56.8287Z" fill="#FC7ED2"/>
<path d="M146.991 45.6944C146.528 45.2778 146.019 44.8843 145.486 44.5139C145.671 45.162 146.273 45.6481 146.991 45.6944Z" fill="#FC7ED2"/>
<path d="M130.093 45.6713C129.583 45.6713 129.144 45.9028 128.819 46.25C129.792 46.6435 130.787 47.0139 131.782 47.3611C131.782 46.412 131.019 45.6713 130.093 45.6713Z" fill="#FC7ED2"/>
<path d="M134.838 24.5602C131.042 24.5602 127.5 25.3935 124.884 26.9213C121.551 28.8657 119.792 31.8287 119.792 35.5324C119.792 38.5185 120.903 40.7407 122.616 42.4537C122.824 42.3611 123.056 42.3148 123.31 42.3148C124.236 42.3148 125 43.0787 125 44.0046C125 44.1204 125.023 44.2361 125.046 44.3518C125.764 44.7917 126.505 45.2083 127.292 45.5787C127.917 45.3472 128.38 44.7222 128.38 44.0046C128.38 43.0787 129.144 42.3148 130.069 42.3148C130.995 42.3148 131.759 43.0787 131.759 44.0046C131.759 44.9306 132.523 45.6944 133.449 45.6944C134.375 45.6944 135.139 44.9306 135.139 44.0046C135.139 43.0787 135.903 42.3148 136.829 42.3148C137.755 42.3148 138.519 43.0787 138.519 44.0046C138.519 44.9306 139.282 45.6944 140.208 45.6944C141.134 45.6944 141.898 44.9306 141.898 44.0046C141.898 43.5648 142.083 43.1481 142.361 42.8472C140.787 42.1528 139.074 41.5741 137.315 40.9954C132.894 39.6759 129.514 38.4491 129.514 35.5324C129.514 33.1481 132.269 32.2917 134.838 32.2917C138.102 32.2917 140.231 33.4491 140.231 35.2315V36.5278C140.231 37.0833 140.694 37.5463 141.25 37.5463H147.593C148.148 37.5463 148.611 37.0833 148.611 36.5278V32.5694C148.611 26.6898 140.37 24.5602 134.838 24.5602Z" fill="#FC7ED2"/>
<path d="M147.083 52.4074C148.017 52.4074 148.773 51.6508 148.773 50.7176C148.773 49.7843 148.017 49.0278 147.083 49.0278C146.15 49.0278 145.394 49.7843 145.394 50.7176C145.394 51.6508 146.15 52.4074 147.083 52.4074Z" fill="#FC7ED2"/>
<path d="M143.588 49.0509C144.521 49.0509 145.278 48.2944 145.278 47.3611C145.278 46.4279 144.521 45.6713 143.588 45.6713C142.655 45.6713 141.898 46.4279 141.898 47.3611C141.898 48.2944 142.655 49.0509 143.588 49.0509Z" fill="#FC7ED2"/>
<path d="M141.806 50.7176C141.806 49.7917 141.042 49.0278 140.116 49.0278C139.398 49.0278 138.773 49.4907 138.542 50.1389C139.491 50.7639 140.069 51.4583 140.255 52.4074C141.111 52.338 141.806 51.5972 141.806 50.7176Z" fill="#FC7ED2"/>
<path d="M136.852 49.0509C137.785 49.0509 138.542 48.2944 138.542 47.3611C138.542 46.4279 137.785 45.6713 136.852 45.6713C135.919 45.6713 135.162 46.4279 135.162 47.3611C135.162 48.2944 135.919 49.0509 136.852 49.0509Z" fill="#FC7ED2"/>
<path d="M190.833 25.4398H185.116C182.338 25.4398 180.671 26.8287 180.671 29.1435C180.671 29.4213 180.694 29.6528 180.718 29.8611C178.356 25.9491 173.056 24.537 169.144 24.537C163.935 24.537 159.607 26.4583 156.574 30.1157C153.982 33.2407 152.477 37.5694 152.292 42.3843C152.454 42.3148 152.639 42.2917 152.847 42.2917C153.773 42.2917 154.537 43.0556 154.537 43.9815C154.537 44.9074 155.301 45.6713 156.227 45.6713C157.153 45.6713 157.917 44.9074 157.917 43.9815C157.917 43.0556 158.681 42.2917 159.606 42.2917C160.532 42.2917 161.296 43.0556 161.296 43.9815C161.296 44.6296 161.667 45.2083 162.222 45.4861C162.13 44.7685 162.083 44.0046 162.083 43.1944C162.083 36.713 165.347 32.8472 170.81 32.8472C176.644 32.8472 179.63 35.9722 179.954 42.3843C180.602 42.6157 181.065 43.2407 181.065 43.9583C181.065 44.8843 181.829 45.6481 182.755 45.6481C183.681 45.6481 184.444 44.8843 184.444 43.9583C184.444 43.0324 185.208 42.2685 186.134 42.2685C187.06 42.2685 187.824 43.0324 187.824 43.9583C187.824 44.8843 188.565 45.625 189.491 45.6481V34.0741C189.491 33.2407 190.023 32.7546 190.972 32.7546C190.995 32.7546 192.662 32.6157 192.662 30.8102V27.1528C192.593 26.2268 191.806 25.4398 190.833 25.4398Z" fill="#FF9A4C"/>
<path d="M159.583 49.0509C160.517 49.0509 161.273 48.2944 161.273 47.3611C161.273 46.4279 160.517 45.6713 159.583 45.6713C158.65 45.6713 157.894 46.4279 157.894 47.3611C157.894 48.2944 158.65 49.0509 159.583 49.0509Z" fill="#FF9A4C"/>
<path d="M161.273 50.7176C161.273 51.6435 162.037 52.4074 162.963 52.4074C163.657 52.4074 164.259 51.9907 164.514 51.3889C163.958 50.6944 163.495 49.9074 163.125 49.0509C163.079 49.0509 163.009 49.0509 162.963 49.0509C162.037 49.0278 161.273 49.7917 161.273 50.7176Z" fill="#FF9A4C"/>
<path d="M179.306 49.0509C180.231 49.0509 180.995 48.287 180.995 47.3611C180.995 46.5972 180.509 45.9722 179.815 45.7407C179.699 46.9676 179.468 48.0556 179.12 49.0278C179.19 49.0509 179.259 49.0509 179.306 49.0509Z" fill="#FF9A4C"/>
<path d="M182.685 52.4074C183.618 52.4074 184.375 51.6508 184.375 50.7176C184.375 49.7843 183.618 49.0278 182.685 49.0278C181.752 49.0278 180.995 49.7843 180.995 50.7176C180.995 51.6508 181.752 52.4074 182.685 52.4074Z" fill="#FF9A4C"/>
<path d="M189.421 49.0278C188.495 49.0509 187.755 49.7917 187.755 50.7176C187.755 51.6435 188.495 52.3843 189.421 52.4074V49.0278Z" fill="#FF9A4C"/>
<path d="M186.065 49.0509C186.998 49.0509 187.755 48.2944 187.755 47.3611C187.755 46.4279 186.998 45.6713 186.065 45.6713C185.132 45.6713 184.375 46.4279 184.375 47.3611C184.375 48.2944 185.132 49.0509 186.065 49.0509Z" fill="#FF9A4C"/>
<path d="M152.824 45.6713C152.662 45.6713 152.5 45.6944 152.338 45.7407C152.431 46.875 152.616 47.9861 152.847 49.0509C153.75 49.0278 154.491 48.287 154.491 47.3611C154.514 46.4352 153.75 45.6713 152.824 45.6713Z" fill="#FF9A4C"/>
<path d="M156.469 52.3912C157.39 52.2414 158.015 51.3733 157.865 50.4521C157.716 49.531 156.847 48.9057 155.926 49.0555C155.005 49.2053 154.38 50.0734 154.53 50.9946C154.679 51.9157 155.548 52.541 156.469 52.3912Z" fill="#FF9A4C"/>
</g>
<defs>
<linearGradient id="paint0_linear_14_55" x1="86.8003" y1="63.7543" x2="101.828" y2="24.6159" gradientUnits="userSpaceOnUse">
<stop stop-color="#FC7ED2"/>
<stop offset="1" stop-color="#FF9A4C"/>
</linearGradient>
<clipPath id="clip0_14_55">
<rect width="200" height="86.5741" fill="white"/>
</clipPath>
</defs>
</svg>
